<svg width="186" height="201" viewBox="0 0 186 201" fill="none" xmlns="http://www.w3.org/2000/svg">
<path d="M23.5312 99.7539C23.5312 131.408 25.7741 153.032 30.2598 164.627C34.8301 176.137 42.7435 181.893 54 181.893C65.2565 181.893 73.043 176.688 77.3594 166.277C81.7604 155.783 83.9609 133.693 83.9609 100.008C83.9609 68.6081 81.7181 47.3223 77.2324 36.1504C72.7467 24.9785 64.918 19.3926 53.7461 19.3926C42.4049 19.3926 34.5339 24.7669 30.1328 35.5156C25.7318 46.1797 23.5312 67.5924 23.5312 99.7539ZM0.933594 100.262C0.933594 63.6146 4.99609 37.8431 13.1211 22.9473C21.2461 7.9668 34.7878 0.476562 53.7461 0.476562C63.3099 0.476562 71.4772 2.59245 78.248 6.82422C85.1035 10.9714 90.9857 17.4036 95.8945 26.1211C99.6185 32.8919 102.327 41.9479 104.02 53.2891C105.712 64.6302 106.559 80.3724 106.559 100.516C106.559 136.824 102.538 162.638 94.498 177.957C86.4577 193.276 73.1276 200.936 54.5078 200.936C35.1263 200.936 21.3307 193.445 13.1211 178.465C4.99609 163.484 0.933594 137.417 0.933594 100.262ZM163.957 197V53.1621H122.443V36.5312H124.982C138.862 36.5312 149.315 33.569 156.339 27.6445C163.364 21.7201 167.215 12.5794 167.892 0.222656H185.031V197H163.957Z" fill="#A6A1A1"/>
</svg>
