<svg width="220" height="202" viewBox="0 0 220 202" fill="none" xmlns="http://www.w3.org/2000/svg">
<path d="M23.5312 100.754C23.5312 132.408 25.7741 154.032 30.2598 165.627C34.8301 177.137 42.7435 182.893 54 182.893C65.2565 182.893 73.043 177.688 77.3594 167.277C81.7604 156.783 83.9609 134.693 83.9609 101.008C83.9609 69.6081 81.7181 48.3223 77.2324 37.1504C72.7467 25.9785 64.918 20.3926 53.7461 20.3926C42.4049 20.3926 34.5339 25.7669 30.1328 36.5156C25.7318 47.1797 23.5312 68.5924 23.5312 100.754ZM0.933594 101.262C0.933594 64.6146 4.99609 38.8431 13.1211 23.9473C21.2461 8.9668 34.7878 1.47656 53.7461 1.47656C63.3099 1.47656 71.4772 3.59245 78.248 7.82422C85.1035 11.9714 90.9857 18.4036 95.8945 27.1211C99.6185 33.8919 102.327 42.9479 104.02 54.2891C105.712 65.6302 106.559 81.3724 106.559 101.516C106.559 137.824 102.538 163.638 94.498 178.957C86.4577 194.276 73.1276 201.936 54.5078 201.936C35.1263 201.936 21.3307 194.445 13.1211 179.465C4.99609 164.484 0.933594 138.417 0.933594 101.262ZM115.714 198C115.545 197.069 115.418 196.096 115.334 195.08C115.334 194.064 115.334 192.541 115.334 190.51C115.334 177.73 118.127 165.712 123.713 154.455C129.298 143.199 137.889 132.408 149.484 122.082C151.685 120.135 154.858 117.3 159.005 113.576C172.209 101.896 180.968 93.5599 185.285 88.5664C188.839 84.4193 191.421 79.6797 193.029 74.3477C194.637 69.0156 195.441 62.668 195.441 55.3047C195.441 44.0482 192.944 35.4154 187.951 29.4062C182.957 23.3971 175.848 20.3926 166.623 20.3926C157.143 20.3926 150.034 23.7357 145.295 30.4219C140.64 37.1081 138.312 47.222 138.312 60.7637C138.312 60.7637 138.354 61.4831 138.439 62.9219C138.524 64.3607 138.566 65.7995 138.566 67.2383H117.492C117.492 66.4766 117.449 65.334 117.365 63.8105C117.28 62.2025 117.238 61.0176 117.238 60.2559C117.238 41.2975 121.597 26.6979 130.314 16.457C139.116 6.13151 151.558 0.96875 167.638 0.96875C183.465 0.96875 195.822 5.66602 204.709 15.0605C213.595 24.3704 218.039 37.4043 218.039 54.1621C218.039 62.7103 217.15 70.2428 215.373 76.7598C213.68 83.1921 210.929 89.2012 207.121 94.7871C203.312 100.712 194.806 109.006 181.603 119.67C178.302 122.294 175.806 124.325 174.113 125.764C160.825 136.766 151.431 146.245 145.929 154.201C140.513 162.157 137.72 170.07 137.55 177.941H219.689V198H115.714Z" fill="#A6A1A1"/>
</svg>
