<svg width="220" height="201" viewBox="0 0 220 201" fill="none" xmlns="http://www.w3.org/2000/svg">
<path d="M23.5312 99.7539C23.5312 131.408 25.7741 153.032 30.2598 164.627C34.8301 176.137 42.7435 181.893 54 181.893C65.2565 181.893 73.043 176.688 77.3594 166.277C81.7604 155.783 83.9609 133.693 83.9609 100.008C83.9609 68.6081 81.7181 47.3223 77.2324 36.1504C72.7467 24.9785 64.918 19.3926 53.7461 19.3926C42.4049 19.3926 34.5339 24.7669 30.1328 35.5156C25.7318 46.1797 23.5312 67.5924 23.5312 99.7539ZM0.933594 100.262C0.933594 63.6146 4.99609 37.8431 13.1211 22.9473C21.2461 7.9668 34.7878 0.476562 53.7461 0.476562C63.3099 0.476562 71.4772 2.59245 78.248 6.82422C85.1035 10.9714 90.9857 17.4036 95.8945 26.1211C99.6185 32.8919 102.327 41.9479 104.02 53.2891C105.712 64.6302 106.559 80.3724 106.559 100.516C106.559 136.824 102.538 162.638 94.498 177.957C86.4577 193.276 73.1276 200.936 54.5078 200.936C35.1263 200.936 21.3307 193.445 13.1211 178.465C4.99609 163.484 0.933594 137.417 0.933594 100.262ZM113.302 138.729H134.884V141.902C134.884 155.359 137.339 165.389 142.248 171.99C147.157 178.592 154.647 181.893 164.718 181.893C175.467 181.893 183.55 178.549 188.966 171.863C194.468 165.092 197.218 155.19 197.218 142.156C197.218 129.122 194.087 119.516 187.824 113.338C181.561 107.075 171.785 103.943 158.498 103.943C156.636 103.943 155.239 103.986 154.308 104.07C153.377 104.07 152.531 104.07 151.769 104.07V86.2969H156.213C168.569 86.2969 177.583 83.5462 183.254 78.0449C188.924 72.459 191.759 63.6569 191.759 51.6387C191.759 41.3978 189.305 33.4421 184.396 27.7715C179.487 22.0163 172.589 19.1387 163.703 19.1387C154.985 19.1387 148.426 22.1855 144.025 28.2793C139.624 34.2884 137.423 43.3021 137.423 55.3203V58.3672H116.73V55.5742C116.73 38.3932 120.962 24.9362 129.425 15.2031C137.889 5.38542 149.484 0.476562 164.211 0.476562C179.36 0.476562 191.336 4.8776 200.138 13.6797C208.94 22.3971 213.341 34.2884 213.341 49.3535C213.341 61.2025 210.845 71.1048 205.851 79.0605C200.942 86.9316 194.256 91.6712 185.793 93.2793C197.218 95.3105 205.724 100.262 211.31 108.133C216.896 116.004 219.689 127.007 219.689 141.141C219.689 160.099 214.865 174.826 205.216 185.32C195.653 195.73 182.153 200.936 164.718 200.936C147.961 200.936 135.181 195.815 126.379 185.574C117.661 175.249 113.302 160.268 113.302 140.633V138.729Z" fill="#A6A1A1"/>
</svg>
