<svg width="219" height="201" viewBox="0 0 219 201" fill="none" xmlns="http://www.w3.org/2000/svg">
<path d="M23.5312 99.7539C23.5312 131.408 25.7741 153.032 30.2598 164.627C34.8301 176.137 42.7435 181.893 54 181.893C65.2565 181.893 73.043 176.688 77.3594 166.277C81.7604 155.783 83.9609 133.693 83.9609 100.008C83.9609 68.6081 81.7181 47.3223 77.2324 36.1504C72.7467 24.9785 64.918 19.3926 53.7461 19.3926C42.4049 19.3926 34.5339 24.7669 30.1328 35.5156C25.7318 46.1797 23.5312 67.5924 23.5312 99.7539ZM0.933594 100.262C0.933594 63.6146 4.99609 37.8431 13.1211 22.9473C21.2461 7.9668 34.7878 0.476562 53.7461 0.476562C63.3099 0.476562 71.4772 2.59245 78.248 6.82422C85.1035 10.9714 90.9857 17.4036 95.8945 26.1211C99.6185 32.8919 102.327 41.9479 104.02 53.2891C105.712 64.6302 106.559 80.3724 106.559 100.516C106.559 136.824 102.538 162.638 94.498 177.957C86.4577 193.276 73.1276 200.936 54.5078 200.936C35.1263 200.936 21.3307 193.445 13.1211 178.465C4.99609 163.484 0.933594 137.417 0.933594 100.262ZM114.064 145.584L135.392 145.457V147.107C135.392 158.11 137.931 166.616 143.009 172.625C148.088 178.634 155.239 181.639 164.464 181.639C174.705 181.639 182.492 177.576 187.824 169.451C193.24 161.326 195.949 149.52 195.949 134.031C195.949 118.543 193.283 106.948 187.951 99.2461C182.619 91.4596 174.621 87.5664 163.957 87.5664C157.017 87.5664 151.134 89.1745 146.31 92.3906C141.571 95.5221 138.27 99.9655 136.408 105.721L118 104.197L128.664 3.77734H211.056V23.582H145.548L138.566 81.8535C140.428 77.6217 144.152 74.2363 149.738 71.6973C155.324 69.0736 161.798 67.7617 169.162 67.7617C184.396 67.7617 196.414 73.4323 205.216 84.7734C214.103 96.0299 218.546 111.518 218.546 131.238C218.546 153.243 213.849 170.382 204.455 182.654C195.06 194.842 181.815 200.936 164.718 200.936C148.384 200.936 135.9 196.196 127.267 186.717C118.634 177.238 114.233 163.527 114.064 145.584Z" fill="#A6A1A1"/>
</svg>
