<svg width="223" height="201" viewBox="0 0 223 201" fill="none" xmlns="http://www.w3.org/2000/svg">
<path d="M23.5312 99.7539C23.5312 131.408 25.7741 153.032 30.2598 164.627C34.8301 176.137 42.7435 181.893 54 181.893C65.2565 181.893 73.043 176.688 77.3594 166.277C81.7604 155.783 83.9609 133.693 83.9609 100.008C83.9609 68.6081 81.7181 47.3223 77.2324 36.1504C72.7467 24.9785 64.918 19.3926 53.7461 19.3926C42.4049 19.3926 34.5339 24.7669 30.1328 35.5156C25.7318 46.1797 23.5312 67.5924 23.5312 99.7539ZM0.933594 100.262C0.933594 63.6146 4.99609 37.8431 13.1211 22.9473C21.2461 7.9668 34.7878 0.476562 53.7461 0.476562C63.3099 0.476562 71.4772 2.59245 78.248 6.82422C85.1035 10.9714 90.9857 17.4036 95.8945 26.1211C99.6185 32.8919 102.327 41.9479 104.02 53.2891C105.712 64.6302 106.559 80.3724 106.559 100.516C106.559 136.824 102.538 162.638 94.498 177.957C86.4577 193.276 73.1276 200.936 54.5078 200.936C35.1263 200.936 21.3307 193.445 13.1211 178.465C4.99609 163.484 0.933594 137.417 0.933594 100.262ZM138.312 133.523C138.312 149.096 141.063 161.115 146.564 169.578C152.15 177.957 160.021 182.146 170.177 182.146C179.741 182.146 187.062 178.042 192.14 169.832C197.303 161.538 199.884 149.689 199.884 134.285C199.884 119.897 197.218 108.937 191.886 101.404C186.639 93.8717 178.895 90.1055 168.654 90.1055C158.159 90.1055 150.457 93.6178 145.548 100.643C140.724 107.583 138.312 118.543 138.312 133.523ZM135.646 95.8184C138.778 87.9473 143.475 81.9382 149.738 77.791C156.086 73.5592 163.618 71.4434 172.336 71.4434C187.908 71.4434 200.096 76.9023 208.898 87.8203C217.785 98.7383 222.228 113.888 222.228 133.27C222.228 154.09 217.531 170.594 208.136 182.781C198.742 194.884 186.089 200.936 170.177 200.936C150.965 200.936 136.958 193.53 128.156 178.719C119.438 163.908 115.08 140.083 115.08 107.244C115.08 69.0736 119.481 41.694 128.283 25.1055C137.17 8.51693 151.6 0.222656 171.574 0.222656C185.369 0.222656 196.33 4.45443 204.455 12.918C212.664 21.2969 216.769 32.638 216.769 46.9414H195.187V45.6719C195.187 37.4622 192.987 30.9876 188.586 26.248C184.269 21.5085 178.345 19.1387 170.812 19.1387C159.217 19.1387 150.838 24.3861 145.675 34.8809C140.597 45.3757 137.254 65.6882 135.646 95.8184Z" fill="#A6A1A1"/>
</svg>
