<svg width="182" height="11" viewBox="0 0 182 11" fill="none" xmlns="http://www.w3.org/2000/svg">
<path d="M12.5392 4.90752C8.54112 5.06955 4.50458 5.2252 0.538526 5.52067C-0.29441 5.58421 -0.102201 6.21008 0.711513 6.22596C4.63272 6.30856 8.57957 6.22599 12.5008 6.17198C14.1538 6.14974 14.1602 4.84398 12.5392 4.90752Z" fill="#645D5D"/>
<path d="M31.0624 4.99002C27.257 4.98801 23.4548 5.10045 19.6768 5.32676C19.4446 5.33635 19.2281 5.38887 19.0703 5.4739C18.9125 5.55894 18.8249 5.67027 18.8249 5.78583C18.8249 5.90139 18.9125 6.01276 19.0703 6.09779C19.2281 6.18283 19.4446 6.23534 19.6768 6.24493C23.4552 6.41588 27.2508 6.47424 31.0432 6.41969C32.8565 6.37838 32.9398 5.00908 31.0624 4.99002Z" fill="#645D5D"/>
<path d="M55.0445 5.51104C50.8927 5.69213 46.7152 5.654 42.5569 5.90499C41.4036 5.97488 41.7624 6.8168 42.7876 6.8581C46.8433 7.03284 50.9375 6.91529 54.9933 7.02331C56.9923 7.0805 56.9795 5.42526 55.0445 5.51104Z" fill="#645D5D"/>
<path d="M78.6486 5.18391C73.9073 5.12672 69.0379 5.4063 64.3222 5.50161C62.8421 5.53338 62.7844 6.63581 64.2837 6.64852C69.0186 6.693 73.8945 6.90584 78.5974 6.78193C80.6477 6.74063 80.7438 5.20932 78.6486 5.18391Z" fill="#645D5D"/>
<path d="M101.798 4.92342C97.7229 5.01873 93.6415 5.2157 89.5729 5.34913C88.157 5.39679 88.0801 6.43572 89.5729 6.45796C93.6351 6.51514 97.7101 6.64219 101.747 6.66125C104.008 6.67078 104.04 4.87259 101.798 4.92342Z" fill="#645D5D"/>
<path d="M123.236 4.66275C119.309 5.01586 115.287 5.02768 111.351 4.69769C109.832 4.56108 109.128 5.63175 110.665 5.8605C115.016 6.53661 119.629 6.68797 124.121 6.30208C126.273 6.09874 125.376 4.49437 123.236 4.66275Z" fill="#645D5D"/>
<path d="M147.693 4.8281C144.374 4.94565 140.555 4.73276 137.351 5.20296C137.177 5.22876 137.024 5.2818 136.915 5.35422C136.806 5.42663 136.747 5.51455 136.747 5.60487C136.747 5.69518 136.806 5.7831 136.915 5.85552C137.024 5.92793 137.177 5.98097 137.351 6.00677C140.523 6.53098 144.354 6.37528 147.667 6.54367C149.858 6.65804 149.922 4.74867 147.693 4.8281Z" fill="#645D5D"/>
<path d="M165.389 2.95667C162.32 2.14334 159.187 1.36812 156.035 0.631051C154.612 0.313347 153.363 1.26648 154.753 1.68585C156.515 2.23866 158.329 2.75016 160.129 3.27437C161.532 3.68103 164.717 4.1798 164.121 5.07255C163.736 5.64759 161 6.4927 160.071 6.91525C158.386 7.68092 156.688 8.44341 155.029 9.22497C153.369 10.0065 155.791 11.2043 157.451 10.464C159.834 9.40289 162.16 8.30996 164.499 7.22659C165.966 6.54988 168.285 5.78423 168.215 4.66274C168.157 3.7541 166.901 3.35697 165.389 2.95667Z" fill="#645D5D"/>
<path d="M179.985 2.58509C177.471 1.67698 174.857 0.839046 172.155 0.0752142C171.098 -0.24249 169.753 0.523207 170.759 0.939399C172.04 1.46997 173.321 1.97511 174.661 2.48344C175.402 2.73252 176.109 3.00637 176.775 3.3031C177.022 3.3681 177.238 3.45836 177.409 3.56791C177.58 3.67745 177.703 3.80376 177.768 3.93851C178.528 4.33034 178.343 4.64805 177.211 4.89162C175.007 6.58816 170.919 8.08772 168.074 9.5301C166.536 10.3116 168.913 11.5317 170.451 10.7469L177.544 7.13463C178.973 6.40709 181.901 5.36818 181.997 4.21809C182.061 3.46195 181.164 3.04576 179.985 2.58509Z" fill="#645D5D"/>
</svg>
