<svg width="18" height="18" viewBox="0 0 18 18" fill="none" xmlns="http://www.w3.org/2000/svg">
<path d="M18 3.70612V17.4706C18 17.611 17.9442 17.7457 17.8449 17.8449C17.7457 17.9442 17.611 18 17.4706 18h2.70612C3.56571 18 3.43105 17.9442 3.33177 17.8449C3.23249 17.7457 3.17671 17.611 3.17671 17.4706C3.17671 17.3302 3.23249 17.1955 3.33177 17.0963C3.43105 16.997 3.56571 16.9412 3.70612 16.9412H16.1921L0.155144 0.90425C0.055807 0.804913 0 0.670182 0 0.529697C0 0.389213 0.055807 0.254482 0.155144 0.155144C0.254482 0.055807 0.389213 0 0.529697 0C0.670182 0 0.804913 0.055807 0.90425 0.155144L16.9412 16.1921V3.70612C16.9412 3.56571 16.997 3.43105 17.0963 3.33177C17.1955 3.23249 17.3302 3.17671 17.4706 3.17671C17.611 3.17671 17.7457 3.23249 17.8449 3.33177C17.9442 3.43105 18 3.56571 18 3.70612Z" fill="#000000"/>
</svg>
