<svg width="272" height="15" viewBox="0 0 272 15" fill="none" xmlns="http://www.w3.org/2000/svg">
<path d="M3.06339 5.55695C15.1555 13.253 39.8926 10.8227 57.1057 7.7785C76.019 4.43926 94.5023 -0.883871 115.916 0.12517C133.609 0.98029 146.832 6.11102 160.324 10.5363C169.736 13.6318 179.267 15.0085 190.069 12.2465C197.67 10.2883 203.762 7.42363 211.513 5.55946C227.516 1.71143 247.429 1.92519 263.262 5.76041C261.532 4.56324 259.801 3.35752 258.321 2.09621C258.114 1.93727 258.057 1.75038 258.163 1.57413C258.269 1.39789 258.521 1.24575 258.881 1.14916C259.242 1.05257 259.423 1.11295 259.841 1.14916C260.258 1.18537 260.391 1.22691 260.946 1.51553C264.876 3.55927 267.651 5.49971 271.461 7.57765C272.541 8.17196 271.89 8.37423 270.46 8.58801C264.709 9.44313 259.021 11.0878 253.24 11.9258C249.84 12.4175 248.522 11.0748 251.932 10.6087L263.449 7.57765C263.249 7.54544 261.633 7.11712 261.446 7.07248C243.573 2.442 221.516 3.22213 205.363 8.58801C198.652 10.8113 191.702 13.6411 183.331 14.6501C175.379 15.6036 168.57 14.5021 161.799 12.6294C144.646 7.87496 130.603 1.17776 108.219 1.51553C85.8353 1.8533 67.8817 8.28279 46.628 10.6087C30.0851 12.4173 10.4174 12.1097 0.395691 5.56802C-1.00458 4.6445 1.65314 4.65479 3.06339 5.55695Z" fill="#170707"/>
</svg>
