<svg width="463" height="111" viewBox="0 0 463 111" fill="none" xmlns="http://www.w3.org/2000/svg">
<path fill-rule="evenodd" clip-rule="evenodd" d="M403.489 110.163V0H426.903V88.4794H462.766V110.163H403.489ZM425.131 90.2518V1.77236H405.261V108.391H460.993V90.2518H425.131Z" fill="#D8D8D8"/>
<path fill-rule="evenodd" clip-rule="evenodd" d="M317.681 110.163L342.503 0H371.99L397.027 110.163H371.956L366.694 83.37H346.771L341.648 110.163H317.681ZM345.305 81.5977H368.152L373.414 108.391H394.807L370.575 1.77236H343.921L319.897 108.391H340.182L345.305 81.5977ZM365.314 65.6049L356.798 20.8806L348.421 65.6049H365.314ZM350.556 63.8326H363.172L356.812 30.4313L350.556 63.8326Z" fill="#D8D8D8"/>
<path fill-rule="evenodd" clip-rule="evenodd" d="M255.746 110.163V0H314.054V21.2683H279.022V42.3704H311.631V62.8079H279.022V88.6179H314.885V110.163H255.746ZM277.25 90.3902V61.0356H309.858V44.1428H277.25V19.4959H312.281V1.77236H257.518V108.391H313.112V90.3902H277.25Z" fill="#D8D8D8"/>
<path fill-rule="evenodd" clip-rule="evenodd" d="M216.991 42.1472L216.997 42.1407C218.751 40.3509 219.883 36.8307 219.883 30.9886C219.883 25.8748 218.694 22.8028 216.825 21.1806C214.897 19.5072 211.021 18.4298 204.624 18.4298H196.635V45.0705H206.286C211.929 45.0705 215.288 43.9208 216.985 42.1538L216.991 42.1472ZM194.863 46.8429V16.6574H204.624C211.086 16.6574 215.54 17.719 217.986 19.8421C220.433 21.9652 221.656 25.6807 221.656 30.9886C221.656 36.9426 220.525 41.0735 218.263 43.3812C216.048 45.689 212.055 46.8429 206.286 46.8429H194.863ZM173.913 110.163V0H211.271C222.187 0 230.468 2.21118 235.665 7.04589C240.941 11.865 243.367 19.5662 243.367 29.6731C243.367 36.787 242.067 42.628 239.285 47.0284L239.28 47.0362C237.43 49.9284 234.996 52.0402 232.023 53.3699C234.8 54.9423 237.078 57.1488 238.828 59.9833C241.504 64.3188 242.876 70.0059 243.089 76.9043L243.09 76.9317V78.3189L243.642 92.3858C243.642 92.388 243.642 92.3902 243.642 92.3924C243.823 96.3162 244.316 99.3591 245.071 101.584C245.816 103.735 246.966 105.579 248.525 107.138L251.551 110.163H222.424L222.039 108.912C221.445 106.984 221.012 104.773 220.726 102.294L220.725 102.29C220.439 99.764 220.254 96.2633 220.161 91.8153C220.161 91.8142 220.161 91.813 220.161 91.8118L219.883 80.6504V77.7899C219.883 71.7474 218.578 68.1709 216.541 66.3835C215.545 65.5102 213.881 64.7334 211.347 64.1874C208.836 63.6462 205.614 63.3618 201.647 63.3618H196.635V110.163H173.913ZM194.863 61.5894H201.647C209.725 61.5894 215.079 62.7433 217.709 65.0511C220.34 67.3588 221.656 71.6051 221.656 77.7899V80.6284L221.933 91.7749C222.025 96.2058 222.21 99.6443 222.487 102.091C222.763 104.491 223.179 106.591 223.733 108.391H247.272C246.714 107.833 246.202 107.242 245.738 106.618C244.742 105.282 243.961 103.796 243.395 102.16C242.564 99.7136 242.056 96.4827 241.872 92.4672L241.318 78.3438V76.9591C240.952 65.1336 237.098 57.548 229.755 54.2022C228.758 53.7479 227.697 53.3718 226.571 53.0738C227.733 52.911 228.828 52.6576 229.856 52.3136C233.202 51.1946 235.845 49.1172 237.787 46.0813C240.326 42.0658 241.595 36.5964 241.595 29.6731C241.595 19.7959 239.218 12.6881 234.464 8.34947C229.756 3.96473 222.025 1.77236 211.271 1.77236H175.685V108.391H194.863V61.5894Z" fill="#D8D8D8"/>
<path fill-rule="evenodd" clip-rule="evenodd" d="M68.2637 110.163V0H126.572V21.2683H91.5398V42.3704H124.148V62.8079H91.5398V88.6179H127.402V110.163H68.2637ZM89.7674 90.3902V61.0356H122.376V44.1428H89.7674V19.4959H124.799V1.77236H70.0361V108.391H125.63V90.3902H89.7674Z" fill="#D8D8D8"/>
<path fill-rule="evenodd" clip-rule="evenodd" d="M27.7277 20.4031L27.7128 20.3878C26.3573 18.9992 23.4141 18.0144 18.1808 18.0144H13.8606V43.2705H18.7346C23.563 43.2705 26.3377 42.2023 27.7147 40.6238C29.1521 38.976 30.1165 35.5692 30.1165 29.8116C30.1165 24.6815 29.1357 21.7775 27.743 20.418L27.7277 20.4031ZM12.0883 45.0428V16.242H18.1808C23.4886 16.242 27.0887 17.2113 28.9811 19.1498C30.9196 21.0421 31.8888 24.5961 31.8888 29.8116C31.8888 35.6272 30.9427 39.6196 29.0503 41.7889C27.1579 43.9582 23.7194 45.0428 18.7346 45.0428H12.0883ZM-9 110.163V0H24.6886C34.0622 0 41.3749 2.17364 46.2662 6.85913C51.2225 11.5622 53.531 18.6465 53.531 27.7346C53.531 34.9384 52.4083 40.7583 49.9784 45.015C48.5289 47.603 46.6167 49.5902 44.2684 50.9586C47.265 52.3699 49.7581 54.6063 51.7191 57.6426C54.7826 62.2684 56.2311 68.2734 56.2311 75.5052C56.2311 87.004 53.8234 95.8308 48.6509 101.608C43.4862 107.429 35.548 110.163 25.2425 110.163H-9ZM47.3277 100.429C52.0817 95.1211 54.4587 86.8132 54.4587 75.5052C54.4587 68.4896 53.051 62.8587 50.2355 58.6124C48.1566 55.3901 45.4535 53.1822 42.1261 51.9887C41.0211 51.5924 39.8472 51.3079 38.6044 51.1353C39.8456 50.9132 40.9981 50.5672 42.0618 50.0972C44.7557 48.9071 46.8803 46.9223 48.4355 44.1428C50.6509 40.2658 51.7586 34.7964 51.7586 27.7346C51.7586 18.919 49.5201 12.388 45.0431 8.14177C40.6122 3.8955 33.8274 1.77236 24.6886 1.77236H-7.22764V108.391H25.2425C35.2582 108.391 42.6199 105.737 47.3277 100.429ZM13.8606 91.4564H20.2577C25.151 91.4564 28.1024 90.2614 29.6892 88.3643C31.3576 86.3222 32.4012 82.4732 32.4012 76.336C32.4012 69.9551 31.2587 66.1015 29.4797 64.1773C27.749 62.3053 24.1693 61.0771 18.0423 61.0771H13.8606V91.4564ZM12.0883 93.2288V59.3047H18.0423C24.2732 59.3047 28.5195 60.5279 30.7811 62.9741C33.0427 65.4203 34.1735 69.8743 34.1735 76.336C34.1735 82.5669 33.135 86.9517 31.0581 89.4902C28.9811 91.9826 25.381 93.2288 20.2577 93.2288H12.0883Z" fill="#D8D8D8"/>
</svg>
