<svg width="86" height="381" viewBox="0 0 86 381" fill="none" xmlns="http://www.w3.org/2000/svg">
<path fill-rule="evenodd" clip-rule="evenodd" d="M87.942 46.7519L0 46.752L-7.74706e-07 29.0287L71.6198 29.0287L71.6198 -0.000235827L87.942 -0.000236541L87.942 46.7519ZM72.4396 29.8485L0.819792 29.8485L0.819792 45.9322L87.1222 45.9322L87.1222 0.819553L72.4396 0.819554L72.4396 29.8485Z" fill="#D8D8D8"/>
<path fill-rule="evenodd" clip-rule="evenodd" d="M87.942 116.055L-8.66163e-07 96.2399L-1.86652e-06 73.3543L87.942 53.3675L87.942 72.3855L66.2543 76.6446L66.2543 93.7856L87.942 97.9326L87.942 116.055ZM65.4345 94.4635L65.4345 75.9701L87.1222 71.711L87.1222 54.3945L0.819791 74.0087L0.819792 95.5843L87.1222 115.03L87.1222 98.6105L65.4345 94.4635ZM52.4891 78.2678L16.287 85.1608L52.4891 91.9417L52.4891 78.2678ZM51.6693 90.954L51.6693 79.2584L20.7046 85.1542L51.6693 90.954Z" fill="#D8D8D8"/>
<path fill-rule="evenodd" clip-rule="evenodd" d="M87.942 166.343L0 166.343L-2.00931e-06 120.375L15.986 120.375L15.986 148.731L34.2968 148.731L34.2968 122.336L49.6103 122.336L49.6103 148.731L71.7318 148.731L71.7318 119.702L87.942 119.702L87.942 166.343ZM72.5516 149.551L48.7905 149.551L48.7905 123.156L35.1166 123.156L35.1166 149.551L15.1662 149.551L15.1662 121.195L0.81979 121.195L0.819792 165.523L87.1222 165.523L87.1222 120.522L72.5516 120.522L72.5516 149.551Z" fill="#D8D8D8"/>
<path fill-rule="evenodd" clip-rule="evenodd" d="M33.9324 197.889L33.9263 197.883C32.2979 196.288 29.2366 195.372 24.4689 195.372C20.2622 195.372 17.5524 196.346 16.0655 198.059C14.5549 199.8 13.6883 203.137 13.6883 208.338L13.6883 215.42L36.4824 215.42L36.4824 206.993C36.4824 202.381 35.5503 199.443 33.9324 197.889ZM37.3022 216.24L12.8685 216.24L12.8685 208.338C12.8685 203.107 13.7278 199.502 15.4464 197.522C17.1649 195.542 20.1724 194.552 24.4689 194.552C29.2884 194.552 32.6321 195.467 34.5001 197.298C36.3682 199.091 37.3022 202.323 37.3022 206.993L37.3022 216.24ZM87.942 232.583L0 232.583L-1.29493e-06 202.958C-1.67871e-06 194.178 1.78328 187.666 5.54069 183.629C9.27486 179.539 15.3028 177.593 23.4041 177.593C29.0963 177.593 33.6954 178.634 37.1238 180.802L37.1274 180.804C39.7541 182.484 41.5489 184.781 42.5104 187.662C43.7455 184.948 45.6641 182.779 48.2617 181.175C51.648 179.085 56.1339 177.988 61.6544 177.817L61.6671 177.817L62.7882 177.817L74.1952 177.369C74.1962 177.369 74.1972 177.369 74.1983 177.369C77.4061 177.221 79.9342 176.817 81.8118 176.18C83.6395 175.547 85.213 174.567 86.5425 173.237L87.942 171.838L87.942 193.476L87.3632 193.654C85.847 194.121 84.0958 194.465 82.1164 194.694L82.1147 194.694C80.0977 194.922 77.2856 195.072 73.6911 195.147C73.6906 195.147 73.6901 195.147 73.6895 195.147L64.6601 195.372L62.3523 195.372C57.4118 195.372 54.2845 196.432 52.6571 198.287C51.8529 199.204 51.1934 200.666 50.7407 202.766C50.2902 204.857 50.0586 207.512 50.0586 210.748L50.0586 215.42L87.942 215.42L87.942 232.583ZM49.2388 216.24L49.2388 210.748C49.2388 204.21 50.1728 199.876 52.0408 197.746C53.9088 195.617 57.346 194.552 62.3523 194.552L64.6499 194.552L73.6724 194.328C77.259 194.253 80.0424 194.104 82.0225 193.879C83.9652 193.655 85.6651 193.319 87.1222 192.871L87.1222 173.817C86.858 174.081 86.5847 174.332 86.3024 174.571C85.0677 175.613 83.6597 176.408 82.0785 176.955C80.0984 177.628 77.4832 178.039 74.2328 178.188L62.8006 178.636L61.6798 178.636C51.6184 178.948 45.3488 182.379 42.8708 188.929C42.6712 189.457 42.4962 190.005 42.3458 190.573C42.2638 189.988 42.1535 189.424 42.0147 188.881C41.205 185.711 39.4287 183.249 36.6857 181.495C33.4354 179.44 29.0082 178.412 23.4041 178.412C15.409 178.412 9.65551 180.336 6.14364 184.184C2.59441 187.995 0.819791 194.253 0.819791 202.958L0.819792 231.763L87.1222 231.763L87.1222 216.24L49.2388 216.24Z" fill="#D8D8D8"/>
<path fill-rule="evenodd" clip-rule="evenodd" d="M87.942 318.1L0 318.1L-2.00931e-06 272.133L15.986 272.133L15.986 300.489L34.2968 300.489L34.2968 274.094L49.6103 274.094L49.6103 300.489L71.7318 300.489L71.7318 271.46L87.942 271.46L87.942 318.1ZM72.5516 301.309L48.7905 301.309L48.7905 274.914L35.1166 274.914L35.1166 301.309L15.1662 301.309L15.1662 272.952L0.81979 272.952L0.819792 317.28L87.1222 317.28L87.1222 272.28L72.5516 272.28L72.5516 301.309Z" fill="#D8D8D8"/>
<path fill-rule="evenodd" clip-rule="evenodd" d="M15.4657 351.092L15.4586 351.099C14.1438 352.383 13.352 354.993 13.352 359.255L13.352 363.367L35.0253 363.367L35.0253 358.806C35.0253 354.844 34.155 352.368 32.6723 351.074C31.1576 349.753 28.1968 348.979 23.5162 348.979C19.334 348.979 16.7579 349.769 15.4726 351.085L15.4657 351.092ZM35.8451 364.186L12.5323 364.186L12.5323 359.255C12.5323 354.958 13.3168 352.044 14.886 350.513C16.4177 348.943 19.2945 348.159 23.5162 348.159C28.2236 348.159 31.4553 348.925 33.2112 350.456C34.9671 351.988 35.8451 354.772 35.8451 358.806L35.8451 364.186ZM87.942 380.641L0 380.641L-1.1651e-06 353.987C-1.4932e-06 346.481 1.74192 340.745 5.38224 336.945C9.03068 333.1 14.5732 331.255 21.835 331.255C27.6167 331.255 32.2061 332.159 35.52 334.051C37.9299 335.401 39.6588 337.259 40.692 339.606C41.7178 336.739 43.62 334.404 46.3803 332.622C49.993 330.228 54.7241 329.07 60.5029 329.07C69.7444 329.07 76.7093 331.008 81.2229 335.05C85.7566 339.072 87.942 345.297 87.942 353.539L87.942 380.641ZM80.6775 335.662C76.3811 331.814 69.6562 329.89 60.5029 329.89C54.8241 329.89 50.2662 331.029 46.829 333.308C43.9126 335.19 42.0228 337.703 41.1595 340.848C40.9943 341.45 40.8667 342.075 40.7767 342.723C40.661 342.076 40.5037 341.459 40.3049 340.872C39.4125 338.237 37.6831 336.201 35.1166 334.765C31.9783 332.972 27.5511 332.075 21.835 332.075C14.6992 332.075 9.41267 333.887 5.97552 337.511C2.53837 341.098 0.819791 346.59 0.819791 353.987L0.819792 379.822L87.1222 379.822L87.1222 353.539C87.1222 345.431 84.9739 339.473 80.6775 335.662ZM74.0295 363.367L74.0295 357.574C74.0295 353.532 73.0438 350.918 71.3012 349.463C69.4758 347.972 66.1747 347.129 61.1754 347.129C55.9823 347.129 52.6548 348.05 50.9161 349.657C49.2016 351.242 48.2092 354.371 48.2092 359.367L48.2092 363.367L74.0295 363.367ZM74.8493 364.186L47.3894 364.186L47.3894 359.367C47.3894 354.323 48.3795 350.886 50.3596 349.055C52.3397 347.225 55.945 346.309 61.1754 346.309C66.2191 346.309 69.7683 347.15 71.8231 348.831C73.8406 350.513 74.8493 353.427 74.8493 357.574L74.8493 364.186Z" fill="#D8D8D8"/>
</svg>
