<svg width="432" height="100" viewBox="0 0 432 100" fill="none" xmlns="http://www.w3.org/2000/svg">
<path d="M379.317 99V99.5H379.817H431H431.5V99V82.3273V81.8273H431H398.565V1V0.5H398.065H379.817H379.317V1V99Z" fill="#D8D8D8" stroke="#D8D8D8"/>
<path d="M300.934 98.8902L300.796 99.5H301.421H320.051H320.464L320.542 99.0938L325.169 74.8727H345.326L350.079 99.0963L350.158 99.5H350.57H370.216H370.843L370.704 98.8893L348.45 0.889281L348.362 0.5H347.963H323.484H323.084L322.996 0.890184L300.934 98.8902ZM328.219 59.1727L335.314 21.2602L342.527 59.1727H328.219Z" fill="#D8D8D8" stroke="#D8D8D8"/>
<path d="M243.635 99V99.5H244.135H295.19H295.69V99V82.4545V81.9545H295.19H262.755V55.9727H292.202H292.702V55.4727V39.9455V39.4455H292.202H262.755V17.7909H294.427H294.927V17.2909V1V0.5H294.427H244.135H243.635V1V99Z" fill="#D8D8D8" stroke="#D8D8D8"/>
<path d="M207.727 38.8956L207.723 38.8993C205.835 40.8679 202.347 41.9273 197.085 41.9273H187.094V15.1818H195.559C201.475 15.1818 205.402 16.162 207.502 17.9866C209.586 19.7967 210.7 23.0304 210.7 27.8545C210.7 33.2958 209.661 36.9206 207.727 38.8956ZM168.482 99V99.5H168.982H186.594H187.094V99V56.4818H192.825C196.513 56.4818 199.559 56.7458 201.97 57.266C204.388 57.7876 206.128 58.558 207.246 59.5394C209.495 61.5138 210.7 65.2279 210.7 70.8727V73.4818H210.699L210.7 73.4942L210.954 83.7377C210.954 83.738 210.954 83.7383 210.954 83.7386C211.039 87.8162 211.209 90.9943 211.466 93.2653L211.466 93.2664C211.723 95.4948 212.109 97.4563 212.629 99.1469L212.738 99.5H213.107H234.725H235.931L235.078 98.6466C233.523 97.0897 232.376 95.2464 231.637 93.1107C230.896 90.9247 230.433 88.0079 230.265 84.3426C230.265 84.342 230.265 84.3413 230.265 84.3407L229.757 71.3748V71.3731V71.3713V71.3696V71.3678V71.366V71.3643V71.3625V71.3607V71.359V71.3572V71.3554V71.3536V71.3518V71.35V71.3482V71.3464V71.3446V71.3428V71.341V71.3392V71.3374V71.3356V71.3338V71.332V71.3301V71.3283V71.3265V71.3246V71.3228V71.321V71.3191V71.3173V71.3154V71.3136V71.3117V71.3099V71.308V71.3062V71.3043V71.3024V71.3006V71.2987V71.2968V71.2949V71.2931V71.2912V71.2893V71.2874V71.2855V71.2836V71.2817V71.2798V71.2779V71.276V71.2741V71.2722V71.2703V71.2683V71.2664V71.2645V71.2626V71.2606V71.2587V71.2568V71.2548V71.2529V71.2509V71.249V71.247V71.2451V71.2431V71.2412V71.2392V71.2372V71.2353V71.2333V71.2313V71.2293V71.2274V71.2254V71.2234V71.2214V71.2194V71.2174V71.2154V71.2134V71.2114V71.2094V71.2074V71.2054V71.2034V71.2013V71.1993V71.1973V71.1953V71.1932V71.1912V71.1892V71.1871V71.1851V71.1831V71.181V71.179V71.1769V71.1749V71.1728V71.1707V71.1687V71.1666V71.1645V71.1625V71.1604V71.1583V71.1562V71.1541V71.152V71.1499V71.1479V71.1458V71.1437V71.1416V71.1395V71.1373V71.1352V71.1331V71.131V71.1289V71.1268V71.1246V71.1225V71.1204V71.1182V71.1161V71.114V71.1118V71.1097V71.1075V71.1054V71.1032V71.1011V71.0989V71.0967V71.0946V71.0924V71.0902V71.088V71.0859V71.0837V71.0815V71.0793V71.0771V71.0749V71.0727V71.0705V71.0683V71.0661V71.0639V71.0617V71.0595V71.0573V71.0551V71.0528V71.0506V71.0484V71.0462V71.0439V71.0417V71.0394V71.0372V71.035V71.0327V71.0304V71.0282V71.0259V71.0237V71.0214V71.0191V71.0169V71.0146V71.0123V71.0101V71.0078V71.0055V71.0032V71.0009V70.9986V70.9963V70.994V70.9917V70.9894V70.9871V70.9848V70.9825V70.9802V70.9779V70.9755V70.9732V70.9709V70.9686V70.9662V70.9639V70.9616V70.9592V70.9569V70.9545V70.9522V70.9498V70.9475V70.9451V70.9427V70.9404V70.938V70.9356V70.9333V70.9309V70.9285V70.9261V70.9237V70.9214V70.919V70.9166V70.9142V70.9118V70.9094V70.907V70.9046V70.9021V70.8997V70.8973V70.8949V70.8925V70.89V70.8876V70.8852V70.8827V70.8803V70.8779V70.8754V70.873V70.8705V70.8681V70.8656V70.8632V70.8607V70.8582V70.8558V70.8533V70.8508V70.8484V70.8459V70.8434V70.8409V70.8384V70.8359V70.8334V70.8309V70.8284V70.8259V70.8234V70.8209V70.8184V70.8159V70.8134V70.8109V70.8083V70.8058V70.8033V70.8008V70.7982V70.7957V70.7932V70.7906V70.7881V70.7855V70.783V70.7804V70.7779V70.7753V70.7727V70.7702V70.7676V70.765V70.7625V70.7599V70.7573V70.7547V70.7521V70.7495V70.7469V70.7443V70.7417V70.7391V70.7365V70.7339V70.7313V70.7287V70.7261V70.7235V70.7209V70.7182V70.7156V70.713V70.7103V70.7077V70.7051V70.7024V70.6998V70.6971V70.6945V70.6918V70.6892V70.6865V70.6839V70.6812V70.6785V70.6758V70.6732V70.6705V70.6678V70.6651V70.6625V70.6598V70.6571V70.6544V70.6517V70.649V70.6463V70.6436V70.6409V70.6382V70.6354V70.6327V70.63V70.6273V70.6246V70.6218V70.6191V70.6164V70.6136V70.6109V70.6081V70.6054V70.6026V70.5999V70.5971V70.5944V70.5916V70.5889V70.5861V70.5833V70.5805V70.5778V70.575V70.5722V70.5694V70.5666V70.5638V70.5611V70.5583V70.5555V70.5527V70.5499V70.547V70.5442V70.5414V70.5386V70.5358V70.533V70.5301V70.5273V70.5245V70.5216V70.5188V70.516V70.5131V70.5103V70.5074V70.5046V70.5017V70.4989V70.496V70.4931V70.4903V70.4874V70.4845V70.4817V70.4788V70.4759V70.473V70.4701V70.4672V70.4643V70.4615V70.4586V70.4557V70.4528V70.4498V70.4469V70.444V70.4411V70.4382V70.4353V70.4323V70.4294V70.4265V70.4236V70.4206V70.4177V70.4147V70.4118V70.4088V70.4059V70.4029V70.4V70.397V70.3941V70.3911V70.3881V70.3852V70.3822V70.3792V70.3762V70.3732V70.3703V70.3673V70.3643V70.3613V70.3583V70.3553V70.3523V70.3493V70.3463V70.3433V70.3402V70.3372V70.3342V70.3312V70.3282V70.3251V70.3221V70.3191V70.316V70.313V70.3099V70.3069V70.3038V70.3008V70.2977V70.2947V70.2916V70.2886V70.2855V70.2824V70.2794V70.2763V70.2732V70.2701V70.267V70.2639V70.2608V70.2578V70.2547V70.2516V70.2485V70.2454V70.2422V70.2391V70.236V70.2329V70.2298V70.2267V70.2235V70.2204V70.2173V70.2141V70.211V70.2079V70.2047V70.2016V70.1984V70.1953V70.1921V70.189V70.1858V70.1826V70.1795V70.1763V70.1731V70.17V70.1668V70.1636V70.1604V70.1572V70.154V70.1509V70.1477V70.1445V70.1413V70.1381V70.1348V70.1316V70.1284V70.1252V70.122V70.1188V70.1155V70.1123V70.1091V70.1014L229.756 70.0937C229.564 63.8694 228.329 58.8579 226.01 55.0989C224.024 51.878 221.256 49.6009 217.725 48.2713C221.453 47.326 224.367 45.2339 226.435 41.9965L226.437 41.9943C228.837 38.1948 230.011 33.0628 230.011 26.6455C230.011 17.5022 227.814 10.8016 223.301 6.67809C218.84 2.52053 211.585 0.5 201.662 0.5H168.982H168.482V1V99Z" fill="#D8D8D8" stroke="#D8D8D8"/>
<path d="M71.4567 99V99.5H71.9567H123.012H123.512V99V82.4545V81.9545H123.012H90.5773V55.9727H120.024H120.524V55.4727V39.9455V39.4455H120.024H90.5773V17.7909H122.249H122.749V17.2909V1V0.5H122.249H71.9567H71.4567V1V99Z" fill="#D8D8D8" stroke="#D8D8D8"/>
<path d="M33.8951 17.3218L33.895 17.3219L33.9036 17.3304C35.53 18.9194 36.4234 22.0028 36.4234 26.7727C36.4234 32.1019 35.5493 35.6065 33.9396 37.4533C32.3471 39.2805 29.3766 40.2727 24.843 40.2727H19.2392V14.8H24.3343C29.1878 14.8 32.3086 15.6953 33.8951 17.3218ZM0.5 99V99.5H1H30.8196C40.0996 99.5 47.023 97.0379 51.4754 92.0143C55.9593 87.0031 58.1509 79.2204 58.1509 68.7727C58.1509 62.2632 56.8466 56.9819 54.1909 52.9717C51.9855 49.5517 49.0247 47.3287 45.3265 46.3188C48.4441 45.2686 50.8601 43.2216 52.5547 40.1913C54.6497 36.5206 55.6712 31.3945 55.6712 24.8636C55.6712 16.6839 53.5957 10.5247 49.349 6.49281C45.1499 2.46578 38.77 0.5 30.311 0.5H1H0.5V1V99ZM26.2418 84.5636H19.2392V54.3818H24.2072C29.9001 54.3818 33.6116 55.5075 35.5388 57.5938C37.4798 59.695 38.5216 63.6197 38.5216 69.5364C38.5216 75.2365 37.5667 79.1153 35.775 81.3087C34.0061 83.4321 30.8829 84.5636 26.2418 84.5636Z" fill="#D8D8D8" stroke="#D8D8D8"/>
</svg>
