<svg width="78" height="338" viewBox="0 0 78 338" fill="none" xmlns="http://www.w3.org/2000/svg">
<path d="M75.8989 42.6744L76.8989 42.6744L76.8989 41.6744L76.8989 2.00001L76.8989 1.00001L75.8989 1.00001L62.9862 1.00001L61.9862 1.00001L61.9862 2.00001L61.9862 26.5296L-6.62e-07 26.5296L-1 26.5296L-1 27.5296L-1 41.6744L-1 42.6744L4.37114e-08 42.6744L75.8989 42.6744Z" stroke="#A6A3A3" stroke-opacity="0.3" stroke-width="2"/>
<path d="M75.6791 103.418L76.8989 103.693L76.8989 102.443L76.8989 88.0023L76.8989 87.1754L76.0867 87.0201L57.8256 83.5283L57.8256 68.9139L76.0916 65.3268L76.8989 65.1682L76.8989 64.3455L76.8989 49.1164L76.8989 47.8637L75.6773 48.1413L-0.221623 65.3911L-1 65.568L-1 66.3662L-1 85.3409L-1 86.1407L-0.219814 86.3165L75.6791 103.418ZM44.4408 80.9327L18.9913 76.1658L44.4408 71.3202L44.4408 80.9327Z" stroke="#A6A3A3" stroke-opacity="0.3" stroke-width="2"/>
<path d="M75.8989 147.849L76.8989 147.849L76.8989 146.849L76.8989 107.273L76.8989 106.273L75.8989 106.273L63.0848 106.273L62.0848 106.273L62.0848 107.273L62.0848 131.802L43.188 131.802L43.188 109.589L43.188 108.589L42.188 108.589L30.1624 108.589L29.1624 108.589L29.1624 109.589L29.1624 131.802L13.617 131.802L13.617 107.864L13.617 106.864L12.617 106.864L-1.74778e-06 106.864L-1 106.864L-1 107.864L-1 146.849L-1 147.849L4.37114e-08 147.849L75.8989 147.849Z" stroke="#A6A3A3" stroke-opacity="0.3" stroke-width="2"/>
<path d="M28.9204 175.507L28.9203 175.507L28.9278 175.515C30.2655 176.799 31.0845 179.284 31.0845 183.32L31.0845 190.452L11.5963 190.452L11.5963 184.502C11.5963 179.939 12.3609 177.095 13.6186 175.646C14.8474 174.23 17.1293 173.378 20.7983 173.378C24.9737 173.378 27.5698 174.184 28.9204 175.507ZM75.8989 206.104L76.8989 206.104L76.8989 205.104L76.8989 191.452L76.8989 190.452L75.8989 190.452L43.5822 190.452L43.5822 186.622C43.5822 183.787 43.7853 181.474 44.1759 179.661C44.5691 177.837 45.1352 176.603 45.7983 175.847C47.1475 174.309 49.7924 173.378 54.1149 173.378L56.1356 173.378L56.148 173.378L56.1605 173.378L64.0913 173.181C64.092 173.181 64.0926 173.181 64.0933 173.181C67.2572 173.115 69.74 172.983 71.5265 172.781L71.5286 172.78C73.2819 172.578 74.8393 172.272 76.193 171.856L76.8989 171.638L76.8989 170.9L76.8989 154.143L76.8989 151.729L75.1918 153.436C74.0534 154.574 72.7064 155.414 71.1383 155.957C69.5219 156.505 67.328 156.859 64.5212 156.988C64.5199 156.988 64.5187 156.988 64.5174 156.988L54.4915 157.381L54.4901 157.381L54.4887 157.381L54.4874 157.381L54.486 157.381L54.4846 157.381L54.4832 157.381L54.4818 157.381L54.4804 157.381L54.479 157.381L54.4776 157.381L54.4762 157.381L54.4748 157.381L54.4734 157.381L54.472 157.381L54.4706 157.381L54.4692 157.381L54.4678 157.381L54.4663 157.381L54.4649 157.381L54.4635 157.381L54.4621 157.381L54.4607 157.381L54.4592 157.381L54.4578 157.381L54.4564 157.381L54.4549 157.381L54.4535 157.381L54.4521 157.381L54.4506 157.381L54.4492 157.381L54.4477 157.381L54.4463 157.381L54.4448 157.381L54.4434 157.381L54.4419 157.381L54.4405 157.381L54.439 157.381L54.4375 157.381L54.4361 157.381L54.4346 157.381L54.4331 157.381L54.4317 157.381L54.4302 157.381L54.4287 157.381L54.4273 157.381L54.4258 157.381L54.4243 157.381L54.4228 157.381L54.4213 157.381L54.4198 157.381L54.4183 157.381L54.4168 157.381L54.4154 157.381L54.4139 157.381L54.4124 157.381L54.4109 157.381L54.4093 157.381L54.4078 157.381L54.4063 157.381L54.4048 157.381L54.4033 157.381L54.4018 157.381L54.4003 157.381L54.3988 157.381L54.3972 157.381L54.3957 157.381L54.3942 157.381L54.3927 157.381L54.3911 157.381L54.3896 157.381L54.388 157.381L54.3865 157.381L54.385 157.381L54.3834 157.381L54.3819 157.381L54.3803 157.381L54.3788 157.381L54.3772 157.381L54.3757 157.381L54.3741 157.381L54.3726 157.381L54.371 157.381L54.3694 157.381L54.3679 157.381L54.3663 157.381L54.3647 157.381L54.3632 157.381L54.3616 157.381L54.36 157.381L54.3584 157.381L54.3569 157.381L54.3553 157.381L54.3537 157.381L54.3521 157.381L54.3505 157.381L54.3489 157.381L54.3473 157.381L54.3457 157.381L54.3441 157.381L54.3425 157.381L54.3409 157.381L54.3393 157.381L54.3377 157.381L54.3361 157.381L54.3345 157.381L54.3329 157.381L54.3313 157.381L54.3296 157.381L54.328 157.381L54.3264 157.381L54.3248 157.381L54.3231 157.381L54.3215 157.381L54.3199 157.381L54.3182 157.381L54.3166 157.381L54.315 157.381L54.3133 157.381L54.3117 157.381L54.31 157.381L54.3084 157.381L54.3067 157.381L54.3051 157.381L54.3034 157.381L54.3018 157.381L54.3001 157.381L54.2984 157.381L54.2968 157.381L54.2951 157.381L54.2934 157.381L54.2918 157.381L54.2901 157.381L54.2884 157.381L54.2867 157.381L54.2851 157.381L54.2834 157.381L54.2817 157.381L54.28 157.381L54.2783 157.381L54.2766 157.381L54.2749 157.381L54.2732 157.381L54.2715 157.381L54.2698 157.381L54.2681 157.381L54.2664 157.381L54.2647 157.381L54.263 157.381L54.2613 157.381L54.2596 157.381L54.2579 157.381L54.2561 157.381L54.2544 157.381L54.2527 157.381L54.251 157.381L54.2492 157.381L54.2475 157.381L54.2458 157.381L54.244 157.381L54.2423 157.381L54.2406 157.381L54.2388 157.381L54.2371 157.381L54.2353 157.381L54.2336 157.381L54.2318 157.381L54.2301 157.381L54.2283 157.381L54.2266 157.381L54.2248 157.381L54.2231 157.381L54.2213 157.381L54.2195 157.381L54.2178 157.381L54.216 157.381L54.2142 157.381L54.2124 157.381L54.2107 157.381L54.2089 157.381L54.2071 157.381L54.2053 157.381L54.2035 157.381L54.2017 157.381L54.1999 157.381L54.1982 157.381L54.1964 157.381L54.1946 157.381L54.1928 157.381L54.191 157.381L54.1892 157.381L54.1873 157.381L54.1855 157.381L54.1837 157.381L54.1819 157.381L54.1801 157.381L54.1783 157.381L54.1765 157.381L54.1746 157.381L54.1728 157.381L54.171 157.381L54.1692 157.381L54.1673 157.381L54.1655 157.381L54.1637 157.381L54.1618 157.381L54.16 157.381L54.1581 157.381L54.1563 157.381L54.1544 157.381L54.1526 157.381L54.1507 157.381L54.1489 157.381L54.147 157.381L54.1452 157.381L54.1433 157.381L54.1414 157.381L54.1396 157.381L54.1377 157.381L54.1358 157.381L54.134 157.381L54.1321 157.381L54.1302 157.381L54.1283 157.381L54.1265 157.381L54.1246 157.381L54.1227 157.381L54.1208 157.381L54.1189 157.381L54.117 157.381L54.1151 157.381L54.1132 157.381L54.1113 157.381L54.1094 157.381L54.1075 157.381L54.1056 157.381L54.1037 157.381L54.1018 157.381L54.0999 157.381L54.098 157.381L54.0961 157.381L54.0941 157.381L54.0922 157.381L54.0903 157.381L54.0884 157.381L54.0864 157.381L54.0845 157.381L54.0826 157.381L54.0806 157.381L54.0787 157.381L54.0768 157.381L54.0748 157.381L54.0729 157.381L54.0709 157.381L54.069 157.381L54.067 157.381L54.0651 157.381L54.0631 157.381L54.0612 157.381L54.0592 157.381L54.0572 157.381L54.0553 157.381L54.0533 157.381L54.0513 157.381L54.0494 157.381L54.0474 157.381L54.0454 157.381L54.0434 157.381L54.0415 157.381L54.0395 157.381L54.0375 157.381L54.0355 157.381L54.0335 157.381L54.0315 157.381L54.0295 157.381L54.0275 157.381L54.0255 157.381L54.0235 157.381L54.0215 157.381L54.0195 157.381L54.0175 157.381L54.0155 157.381L54.0135 157.381L54.0115 157.381L54.0095 157.381L54.0074 157.381L54.0054 157.381L54.0034 157.381L54.0014 157.381L53.9993 157.381L53.9973 157.381L53.9953 157.381L53.9932 157.381L53.9912 157.381L53.9892 157.381L53.9871 157.381L53.9851 157.381L53.983 157.381L53.981 157.381L53.9789 157.381L53.9769 157.381L53.9748 157.381L53.9728 157.381L53.9707 157.381L53.9687 157.381L53.9666 157.381L53.9645 157.381L53.9625 157.381L53.9604 157.381L53.9583 157.381L53.9562 157.381L53.9542 157.381L53.9521 157.381L53.95 157.381L53.9479 157.381L53.9458 157.381L53.9437 157.381L53.9416 157.381L53.9396 157.381L53.9375 157.381L53.9354 157.381L53.9333 157.381L53.9312 157.381L53.9291 157.381L53.9269 157.381L53.9248 157.381L53.9227 157.381L53.9206 157.381L53.9185 157.381L53.9164 157.381L53.9143 157.381L53.9121 157.381L53.91 157.381L53.9079 157.381L53.9058 157.381L53.9036 157.381L53.9015 157.381L53.8994 157.381L53.8972 157.381L53.8951 157.381L53.8929 157.381L53.8908 157.381L53.8886 157.381L53.8865 157.381L53.8843 157.381L53.8822 157.381L53.88 157.381L53.8779 157.381L53.8757 157.381L53.8735 157.381L53.8714 157.381L53.8692 157.381L53.867 157.381L53.8649 157.381L53.8627 157.381L53.8605 157.381L53.8583 157.381L53.8562 157.381L53.854 157.381L53.8518 157.381L53.8496 157.381L53.8474 157.381L53.8452 157.381L53.843 157.381L53.8408 157.381L53.8386 157.381L53.8364 157.381L53.8342 157.381L53.832 157.381L53.8298 157.381L53.8276 157.381L53.8254 157.381L53.8232 157.381L53.8209 157.381L53.8187 157.381L53.8165 157.381L53.8143 157.381L53.8121 157.381L53.8098 157.381L53.8076 157.381L53.8054 157.381L53.8031 157.381L53.8009 157.381L53.7987 157.381L53.7964 157.381L53.7942 157.381L53.7919 157.381L53.7897 157.381L53.7874 157.381L53.7852 157.381L53.7829 157.381L53.7807 157.381L53.7784 157.381L53.7761 157.381L53.7739 157.381L53.7716 157.381L53.7693 157.381L53.7671 157.381L53.7648 157.381L53.7625 157.381L53.7602 157.381L53.7579 157.381L53.7557 157.381L53.7534 157.381L53.7511 157.381L53.7488 157.381L53.7465 157.381L53.7442 157.381L53.7419 157.381L53.7396 157.381L53.7373 157.381L53.735 157.381L53.7327 157.381L53.7304 157.381L53.7281 157.381L53.7258 157.381L53.7235 157.381L53.7212 157.381L53.7188 157.381L53.7165 157.381L53.7142 157.381L53.7119 157.381L53.7095 157.381L53.7072 157.381L53.7049 157.381L53.7025 157.381L53.7002 157.381L53.6979 157.381L53.6955 157.381L53.6932 157.381L53.6908 157.381L53.6885 157.381L53.6861 157.381L53.6838 157.381L53.6814 157.381L53.6791 157.381L53.6767 157.381L53.6743 157.381L53.672 157.381L53.6696 157.381L53.6672 157.381L53.6649 157.381L53.6625 157.381L53.6601 157.381L53.6578 157.381L53.6554 157.381L53.653 157.381L53.6506 157.381L53.6482 157.381L53.6458 157.381L53.6434 157.381L53.641 157.381L53.6387 157.381L53.6363 157.381L53.6339 157.381L53.6314 157.381L53.629 157.381L53.6266 157.381L53.6242 157.381L53.6218 157.381L53.6194 157.381L53.617 157.381L53.6146 157.381L53.6122 157.381L53.6097 157.381L53.6073 157.381L53.6049 157.381L53.6024 157.381L53.6 157.381L53.5976 157.381L53.5951 157.381L53.5927 157.381L53.5903 157.381L53.5878 157.381L53.5854 157.381L53.5829 157.381L53.5805 157.381L53.578 157.381L53.5756 157.381L53.5731 157.381L53.5707 157.381L53.5682 157.381L53.5657 157.381L53.5633 157.381L53.5608 157.381L53.5583 157.381L53.5559 157.381L53.5534 157.381L53.5509 157.381L53.5484 157.381L53.5459 157.381L53.5435 157.381L53.541 157.381L53.5385 157.381L53.536 157.381L53.5335 157.381L53.531 157.381L53.5285 157.381L53.526 157.381L53.5235 157.381L53.5081 157.381L53.4926 157.382C48.6088 157.533 44.6103 158.504 41.5764 160.377C39.4378 161.697 37.8115 163.446 36.7016 165.603C35.7944 163.303 34.2539 161.442 32.0812 160.052L32.0768 160.05C29.0011 158.105 24.8979 157.184 19.8619 157.184C12.7012 157.184 7.30667 158.904 3.94696 162.583C0.571407 166.21 -1 172.024 -1 179.771L-1 205.104L-1 206.104L4.37114e-08 206.104L75.8989 206.104Z" stroke="#A6A3A3" stroke-opacity="0.3" stroke-width="2"/>
<path d="M75.8989 281.312L76.8989 281.312L76.8989 280.312L76.8989 240.737L76.8989 239.737L75.8989 239.737L63.0848 239.737L62.0848 239.737L62.0848 240.737L62.0848 265.266L43.188 265.266L43.188 243.053L43.188 242.053L42.188 242.053L30.1624 242.053L29.1624 242.053L29.1624 243.053L29.1624 265.266L13.617 265.266L13.617 241.328L13.617 240.328L12.617 240.328L-1.74778e-06 240.328L-1 240.328L-1 241.328L-1 280.312L-1 281.312L4.37114e-08 281.312L75.8989 281.312Z" stroke="#A6A3A3" stroke-opacity="0.3" stroke-width="2"/>
<path d="M13.0691 310.254L13.0777 310.246L13.0861 310.237C14.1326 309.165 16.2958 308.468 19.9604 308.468C24.0676 308.468 26.5794 309.152 27.8294 310.243C29.0403 311.299 29.8031 313.372 29.8031 316.833L29.8031 320.564L11.3006 320.564L11.3006 317.227C11.3006 313.49 11.9994 311.298 13.0691 310.254ZM75.8989 336.314L76.8989 336.314L76.8989 335.314L76.8989 312.2C76.8989 304.906 74.9643 299.34 70.8965 295.731C66.853 292.111 60.646 290.402 52.4885 290.402C47.3722 290.402 43.1525 291.427 39.9155 293.571C37.6353 295.043 36.0039 296.941 35.0392 299.244C34.0871 297.402 32.6211 295.92 30.6545 294.819C27.6803 293.121 23.589 292.324 18.4819 292.324C12.0525 292.324 7.09102 293.957 3.81048 297.414C0.539879 300.828 -1 305.956 -1 312.594L-1 335.314L-1 336.314L4.37114e-08 336.314L75.8989 336.314ZM64.1055 315.748L64.1055 320.564L41.9558 320.564L41.9558 317.325C41.9558 312.948 42.8294 310.302 44.2468 308.991C45.6937 307.654 48.5256 306.842 53.0799 306.842C57.4615 306.842 60.2802 307.584 61.8075 308.831C63.2466 310.033 64.1055 312.23 64.1055 315.748Z" stroke="#A6A3A3" stroke-opacity="0.3" stroke-width="2"/>
</svg>
