<svg width="466" height="108" viewBox="0 0 466 108" fill="none" xmlns="http://www.w3.org/2000/svg">
<path d="M409.019 107V1.72656H428.638V89.0898H464.048V107H409.019Z" fill="#A6A3A3" fill-opacity="0.8"/>
<path d="M408.519 107V107.5H409.019H464.048H464.548V107V89.0898V88.5898H464.048H429.138V1.72656V1.22656H428.638H409.019H408.519V1.72656V107Z" stroke="#A6A3A3" stroke-opacity="0.8"/>
<path d="M352.896 64.7539H369.576L361.167 20.5938L352.896 64.7539ZM324.732 107L348.452 1.72656H374.771L398.697 107H377.574L372.378 80.5449H349.82L344.761 107H324.732Z" fill="#A6A3A3" fill-opacity="0.8"/>
<path d="M324.244 106.89L324.107 107.5H324.732H344.761H345.174L345.252 107.094L350.233 81.0449H371.967L377.083 107.096L377.162 107.5H377.574H398.697H399.323L399.184 106.889L375.258 1.61575L375.17 1.22656H374.771H348.452H348.053L347.965 1.61666L324.244 106.89ZM353.498 64.2539L361.171 23.2881L368.971 64.2539H353.498Z" stroke="#A6A3A3" stroke-opacity="0.8"/>
<path d="M263.14 107V1.72656H317.212V19.2266H282.622V43.5625H314.82V60.2422H282.622V89.2266H318.033V107H263.14Z" fill="#A6A3A3" fill-opacity="0.8"/>
<path d="M262.64 107V107.5H263.14H318.033H318.533V107V89.2266V88.7266H318.033H283.122V60.7422H314.82H315.32V60.2422V43.5625V43.0625H314.82H283.122V19.7266H317.212H317.712V19.2266V1.72656V1.22656H317.212H263.14H262.64V1.72656V107Z" stroke="#A6A3A3" stroke-opacity="0.8"/>
<path d="M201.275 46.2285H212.554C218.251 46.2285 222.193 45.0892 224.38 42.8105C226.613 40.5319 227.73 36.4531 227.73 30.5742C227.73 25.3333 226.522 21.6647 224.107 19.5684C221.691 17.472 217.294 16.4238 210.913 16.4238H201.275V46.2285ZM182.339 107V1.72656H217.476C228.094 1.72656 235.728 3.89128 240.376 8.2207C245.07 12.5046 247.417 19.5228 247.417 29.2754C247.417 36.1113 246.164 41.5117 243.657 45.4766C241.151 49.3958 237.46 51.6973 232.583 52.3809C241.88 54.8418 246.734 62.7031 247.144 75.9648C247.144 76.5573 247.144 77.013 247.144 77.332L247.691 91.2773C247.873 95.2422 248.374 98.4323 249.195 100.848C250.015 103.217 251.291 105.268 253.023 107H229.781C229.234 105.223 228.823 103.149 228.55 100.779C228.277 98.3639 228.094 94.9688 228.003 90.5938L227.73 79.5879V76.7852C227.73 70.6784 226.431 66.4857 223.833 64.207C221.236 61.9284 215.949 60.7891 207.974 60.7891H201.275V107H182.339Z" fill="#A6A3A3" fill-opacity="0.8"/>
<path d="M224.023 42.4606L224.019 42.4643C221.978 44.5904 218.215 45.7285 212.554 45.7285H201.775V16.9238H210.913C217.275 16.9238 221.51 17.9765 223.779 19.946C226.031 21.901 227.23 25.3881 227.23 30.5742C227.23 36.4216 226.113 40.3281 224.023 42.4606ZM181.839 107V107.5H182.339H201.275H201.775V107V61.2891H207.974C211.941 61.2891 215.218 61.5727 217.815 62.1323C220.418 62.6933 222.295 63.5228 223.504 64.5829C225.934 66.7148 227.23 70.7185 227.23 76.7852V79.5879H227.23L227.23 79.6003L227.503 90.6042C227.503 90.6045 227.503 90.6048 227.503 90.6052C227.595 94.985 227.777 98.3977 228.053 100.836L228.053 100.837C228.329 103.229 228.745 105.334 229.303 107.147L229.411 107.5H229.781H253.023H254.23L253.376 106.646C251.7 104.97 250.464 102.985 249.667 100.685C248.869 98.3322 248.371 95.1952 248.19 91.2563C248.19 91.2556 248.19 91.255 248.19 91.2544L247.644 77.3245V77.3226V77.3208V77.3189V77.317V77.3151V77.3132V77.3113V77.3094V77.3075V77.3056V77.3036V77.3017V77.2998V77.2979V77.296V77.294V77.2921V77.2902V77.2882V77.2863V77.2843V77.2824V77.2804V77.2785V77.2765V77.2745V77.2726V77.2706V77.2686V77.2667V77.2647V77.2627V77.2607V77.2587V77.2568V77.2548V77.2528V77.2508V77.2488V77.2468V77.2448V77.2427V77.2407V77.2387V77.2367V77.2347V77.2326V77.2306V77.2286V77.2265V77.2245V77.2225V77.2204V77.2184V77.2163V77.2142V77.2122V77.2101V77.2081V77.206V77.2039V77.2019V77.1998V77.1977V77.1956V77.1935V77.1914V77.1893V77.1872V77.1851V77.183V77.1809V77.1788V77.1767V77.1746V77.1725V77.1704V77.1682V77.1661V77.164V77.1618V77.1597V77.1576V77.1554V77.1533V77.1511V77.149V77.1468V77.1447V77.1425V77.1403V77.1382V77.136V77.1338V77.1316V77.1295V77.1273V77.1251V77.1229V77.1207V77.1185V77.1163V77.1141V77.1119V77.1097V77.1075V77.1053V77.1031V77.1008V77.0986V77.0964V77.0942V77.0919V77.0897V77.0874V77.0852V77.083V77.0807V77.0784V77.0762V77.0739V77.0717V77.0694V77.0671V77.0649V77.0626V77.0603V77.058V77.0557V77.0535V77.0512V77.0489V77.0466V77.0443V77.042V77.0397V77.0374V77.0351V77.0327V77.0304V77.0281V77.0258V77.0235V77.0211V77.0188V77.0164V77.0141V77.0118V77.0094V77.0071V77.0047V77.0024V77V76.9976V76.9953V76.9929V76.9905V76.9882V76.9858V76.9834V76.981V76.9786V76.9762V76.9738V76.9715V76.969V76.9666V76.9642V76.9618V76.9594V76.957V76.9546V76.9522V76.9497V76.9473V76.9449V76.9425V76.94V76.9376V76.9351V76.9327V76.9302V76.9278V76.9253V76.9229V76.9204V76.9179V76.9155V76.913V76.9105V76.908V76.9056V76.9031V76.9006V76.8981V76.8956V76.8931V76.8906V76.8881V76.8856V76.8831V76.8806V76.8781V76.8755V76.873V76.8705V76.868V76.8654V76.8629V76.8604V76.8578V76.8553V76.8527V76.8502V76.8476V76.8451V76.8425V76.84V76.8374V76.8348V76.8323V76.8297V76.8271V76.8245V76.8219V76.8193V76.8168V76.8142V76.8116V76.809V76.8064V76.8038V76.8011V76.7985V76.7959V76.7933V76.7907V76.7881V76.7854V76.7828V76.7802V76.7775V76.7749V76.7722V76.7696V76.7669V76.7643V76.7616V76.759V76.7563V76.7536V76.751V76.7483V76.7456V76.743V76.7403V76.7376V76.7349V76.7322V76.7295V76.7268V76.7241V76.7214V76.7187V76.716V76.7133V76.7106V76.7078V76.7051V76.7024V76.6997V76.6969V76.6942V76.6915V76.6887V76.686V76.6832V76.6805V76.6777V76.675V76.6722V76.6695V76.6667V76.6639V76.6612V76.6584V76.6556V76.6528V76.65V76.6472V76.6445V76.6417V76.6389V76.6361V76.6333V76.6305V76.6276V76.6248V76.622V76.6192V76.6164V76.6135V76.6107V76.6079V76.6051V76.6022V76.5994V76.5965V76.5937V76.5908V76.588V76.5851V76.5823V76.5794V76.5765V76.5737V76.5708V76.5679V76.565V76.5622V76.5593V76.5564V76.5535V76.5506V76.5477V76.5448V76.5419V76.539V76.5361V76.5332V76.5303V76.5273V76.5244V76.5215V76.5186V76.5156V76.5127V76.5098V76.5068V76.5039V76.5009V76.498V76.495V76.4921V76.4891V76.4861V76.4832V76.4802V76.4772V76.4743V76.4713V76.4683V76.4653V76.4623V76.4593V76.4563V76.4533V76.4503V76.4473V76.4443V76.4413V76.4383V76.4353V76.4323V76.4293V76.4262V76.4232V76.4202V76.4171V76.4141V76.4111V76.408V76.405V76.4019V76.3989V76.3958V76.3927V76.3897V76.3866V76.3835V76.3805V76.3774V76.3743V76.3712V76.3681V76.3651V76.362V76.3589V76.3558V76.3527V76.3496V76.3465V76.3434V76.3402V76.3371V76.334V76.3309V76.3278V76.3246V76.3215V76.3184V76.3152V76.3121V76.3089V76.3058V76.3026V76.2995V76.2963V76.2932V76.29V76.2868V76.2837V76.2805V76.2773V76.2741V76.271V76.2678V76.2646V76.2614V76.2582V76.255V76.2518V76.2486V76.2454V76.2422V76.239V76.2358V76.2325V76.2293V76.2261V76.2229V76.2196V76.2164V76.2132V76.2099V76.2067V76.2034V76.2002V76.1969V76.1937V76.1904V76.1871V76.1839V76.1806V76.1773V76.1741V76.1708V76.1675V76.1642V76.1609V76.1576V76.1543V76.151V76.1477V76.1444V76.1411V76.1378V76.1345V76.1312V76.1279V76.1245V76.1212V76.1179V76.1146V76.1112V76.1079V76.1045V76.1012V76.0978V76.0945V76.0911V76.0878V76.0844V76.0811V76.0777V76.0743V76.071V76.0676V76.0642V76.0608V76.0574V76.054V76.0507V76.0473V76.0439V76.0405V76.0371V76.0336V76.0302V76.0268V76.0234V76.02V76.0166V76.0131V76.0097V76.0063V76.0028V75.9994V75.996V75.9925V75.9891V75.9856V75.9822V75.9787V75.9752V75.9718V75.9683V75.9648V75.9571L247.644 75.9494C247.437 69.2669 246.11 63.8906 243.621 59.8599C241.469 56.3734 238.462 53.9185 234.62 52.4993C238.675 51.5002 241.839 49.2487 244.079 45.746L244.08 45.7437C246.655 41.6703 247.917 36.1651 247.917 29.2754C247.917 19.458 245.556 12.2724 240.715 7.85296C235.929 3.39655 228.14 1.22656 217.476 1.22656H182.339H181.839V1.72656V107Z" stroke="#A6A3A3" stroke-opacity="0.8"/>
<path d="M78.0227 107V1.72656H132.095V19.2266H97.5051V43.5625H129.702V60.2422H97.5051V89.2266H132.915V107H78.0227Z" fill="#A6A3A3" fill-opacity="0.8"/>
<path d="M77.5227 107V107.5H78.0227H132.915H133.415V107V89.2266V88.7266H132.915H98.0051V60.7422H129.702H130.202V60.2422V43.5625V43.0625H129.702H98.0051V19.7266H132.095H132.595V19.2266V1.72656V1.22656H132.095H78.0227H77.5227V1.72656V107Z" stroke="#A6A3A3" stroke-opacity="0.8"/>
<path d="M20.8059 92.0293H28.8723C33.9309 92.0293 37.4856 90.7988 39.5364 88.3379C41.5872 85.8314 42.6125 81.502 42.6125 75.3496C42.6125 68.9694 41.496 64.5716 39.2629 62.1562C37.0299 59.7409 32.8372 58.5332 26.6848 58.5332H20.8059V92.0293ZM20.8059 44.4512H27.3684C32.2903 44.4512 35.6855 43.3802 37.554 41.2383C39.4224 39.0964 40.3567 35.1543 40.3567 29.4121C40.3567 24.2624 39.3997 20.7533 37.4856 18.8848C35.6171 16.9707 32.0624 16.0137 26.8215 16.0137H20.8059V44.4512ZM1.73364 107V1.72656H33.2473C42.2708 1.72656 48.97 3.82292 53.345 8.01562C57.7655 12.2083 59.9758 18.6569 59.9758 27.3613C59.9758 34.334 58.8821 39.7344 56.6946 43.5625C54.5527 47.3906 51.317 49.6921 46.9875 50.4668C51.9094 51.1504 55.7375 53.6113 58.4719 57.8496C61.2519 62.0423 62.6418 67.6022 62.6418 74.5293C62.6418 85.6947 60.2948 93.8978 55.6008 99.1387C50.9524 104.38 43.6835 107 33.7942 107H1.73364Z" fill="#A6A3A3" fill-opacity="0.8"/>
<path d="M37.1278 19.234L37.1277 19.2341L37.1363 19.2426C38.8964 20.9607 39.8567 24.2865 39.8567 29.4121C39.8567 35.1379 38.9173 38.9148 37.1772 40.9096C35.4541 42.8849 32.2462 43.9512 27.3684 43.9512H21.3059V16.5137H26.8215C32.0414 16.5137 35.4108 17.4751 37.1278 19.234ZM1.23364 107V107.5H1.73364H33.7942C43.7651 107.5 51.1966 104.857 55.9739 99.4716C60.7861 94.0982 63.1418 85.7486 63.1418 74.5293C63.1418 67.5412 61.7404 61.8757 58.8904 57.5759C56.5005 53.8728 53.2849 51.4795 49.2622 50.4125C52.6619 49.2995 55.2913 47.0935 57.1298 43.8086C59.3779 39.8733 60.4758 34.374 60.4758 27.3613C60.4758 18.58 58.2458 11.9753 53.69 7.65374C49.1851 3.33714 42.337 1.22656 33.2473 1.22656H1.73364H1.23364V1.72656V107ZM28.8723 91.5293H21.3059V59.0332H26.6848C32.8078 59.0332 36.8125 60.2423 38.8958 62.4957C40.9927 64.7638 42.1125 68.9922 42.1125 75.3496C42.1125 81.4751 41.0858 85.6532 39.1507 88.0197C37.2384 90.3129 33.8668 91.5293 28.8723 91.5293Z" stroke="#A6A3A3" stroke-opacity="0.8"/>
</svg>
