<svg width="41" height="41" viewBox="0 0 41 41" fill="none" xmlns="http://www.w3.org/2000/svg">
<path d="M0 3.84375C0 3.50394 0.134988 3.17805 0.375269 2.93777C0.61555 2.69749 0.941441 2.5625 1.28125 2.5625H5.125C5.4108 2.56258 5.68837 2.65821 5.91356 2.83419C6.13876 3.01017 6.29865 3.25638 6.36781 3.53369L7.40562 7.6875H37.1562C37.3444 7.68767 37.5302 7.72928 37.7004 7.80935C37.8706 7.88942 38.0212 8.006 38.1413 8.15081C38.2614 8.29562 38.3481 8.46509 38.3953 8.6472C38.4425 8.82931 38.4491 9.01958 38.4144 9.2045L34.5707 29.7045C34.5157 29.9981 34.3599 30.2633 34.1302 30.4542C33.9004 30.6451 33.6112 30.7497 33.3125 30.75H10.25C9.95129 30.7497 9.66207 30.6451 9.43233 30.4542C9.20259 30.2633 9.04677 29.9981 8.99181 29.7045L5.15062 9.24294L4.12562 5.125H1.28125C0.941441 5.125 0.61555 4.99001 0.375269 4.74973C0.134988 4.50945 0 4.18356 0 3.84375ZM7.94887 10.25L11.3134 28.1875H32.2491L35.6136 10.25H7.94887ZM12.8125 30.75C11.4533 30.75 10.1497 31.29 9.18858 32.2511C8.22745 33.2122 7.6875 34.5158 7.6875 35.875C7.6875 37.2342 8.22745 38.5378 9.18858 39.4989C10.1497 40.46 11.4533 41 12.8125 41C14.1717 41 15.4753 40.46 16.4364 39.4989C17.3975 38.5378 17.9375 37.2342 17.9375 35.875C17.9375 34.5158 17.3975 33.2122 16.4364 32.2511C15.4753 31.29 14.1717 30.75 12.8125 30.75ZM30.75 30.75C29.3908 30.75 28.0872 31.29 27.1261 32.2511C26.165 33.2122 25.625 34.5158 25.625 35.875C25.625 37.2342 26.165 38.5378 27.1261 39.4989C28.0872 40.46 29.3908 41 30.75 41C32.1092 41 33.4128 40.46 34.3739 39.4989C35.335 38.5378 35.875 37.2342 35.875 35.875C35.875 34.5158 35.335 33.2122 34.3739 32.2511C33.4128 31.29 32.1092 30.75 30.75 30.75ZM12.8125 33.3125C13.4921 33.3125 14.1439 33.5825 14.6245 34.063C15.105 34.5436 15.375 35.1954 15.375 35.875C15.375 36.5546 15.105 37.2064 14.6245 37.687C14.1439 38.1675 13.4921 38.4375 12.8125 38.4375C12.1329 38.4375 11.4811 38.1675 11.0005 37.687C10.52 37.2064 10.25 36.5546 10.25 35.875C10.25 35.1954 10.52 34.5436 11.0005 34.063C11.4811 33.5825 12.1329 33.3125 12.8125 33.3125ZM30.75 33.3125C31.4296 33.3125 32.0814 33.5825 32.562 34.063C33.0425 34.5436 33.3125 35.1954 33.3125 35.875C33.3125 36.5546 33.0425 37.2064 32.562 37.687C32.0814 38.1675 31.4296 38.4375 30.75 38.4375C30.0704 38.4375 29.4186 38.1675 28.938 37.687C28.4575 37.2064 28.1875 36.5546 28.1875 35.875C28.1875 35.1954 28.4575 34.5436 28.938 34.063C29.4186 33.5825 30.0704 33.3125 30.75 33.3125Z" fill="black"/>
</svg>
