<svg width="45" height="32" viewBox="0 0 45 32" fill="none" xmlns="http://www.w3.org/2000/svg">
<path d="M3 1.85C2.36487 1.85 1.85 2.36487 1.85 3C1.85 3.63513 2.36487 4.15 3 4.15H42C42.6351 4.15 43.15 3.63513 43.15 3C43.15 2.36487 42.6351 1.85 42 1.85H3ZM3 14.85C2.36487 14.85 1.85 15.3649 1.85 16C1.85 16.6351 2.36487 17.15 3 17.15H42C42.6351 17.15 43.15 16.6351 43.15 16C43.15 15.3649 42.6351 14.85 42 14.85H3ZM3 27.85C2.36487 27.85 1.85 28.3649 1.85 29C1.85 29.6351 2.36487 30.15 3 30.15H42C42.6351 30.15 43.15 29.6351 43.15 29C43.15 28.3649 42.6351 27.85 42 27.85H3Z" stroke="#FFFCFB" stroke-width="2.3" stroke-linecap="square" stroke-linejoin="round"/>
</svg>
