<svg width="33" height="32" viewBox="0 0 33 32" fill="none" xmlns="http://www.w3.org/2000/svg">
<path d="M26.5 26H6.5C5.96957 26 5.46086 25.7893 5.08579 25.4142C4.71071 25.0391 4.5 24.5304 4.5 24V10C4.5 9.46957 4.71071 8.96086 5.08579 8.58579C5.46086 8.21071 5.96957 8 6.5 8H10.4993L12.4993 5H20.4993L22.4993 8H26.5C27.0304 8 27.5391 8.21071 27.9142 8.58579C28.2893 8.96086 28.5 9.46957 28.5 10V24C28.5 24.5304 28.2893 25.0391 27.9142 25.4142C27.5391 25.7893 27.0304 26 26.5 26Z" stroke="#9A9A9A" stroke-width="2" stroke-linecap="round" stroke-linejoin="round"/>
<path d="M16.5 21C18.9853 21 21 18.9853 21 16.5C21 14.0147 18.9853 12 16.5 12C14.0147 12 12 14.0147 12 16.5C12 18.9853 14.0147 21 16.5 21Z" stroke="#9A9A9A" stroke-width="2" stroke-linecap="round" stroke-linejoin="round"/>
</svg>
