<svg width="21" height="20" viewBox="0 0 21 20" fill="none" xmlns="http://www.w3.org/2000/svg">
<path d="M0 0H4.27776L4.76714 1.81818H21L17.7082 11.8182H6.98593L6.53697 13.6364H19.7546V15.4545H4.23825L5.35708 10.9191L2.90572 1.81818H0V0ZM6.97157 10H16.4133L18.5091 3.63636H5.25741L6.97157 10ZM3.59174 18.1818C3.59174 17.6996 3.78095 17.2371 4.11774 16.8962C4.45453 16.5552 4.91131 16.3636 5.38761 16.3636C5.8639 16.3636 6.32069 16.5552 6.65748 16.8962C6.99427 17.2371 7.18348 17.6996 7.18348 18.1818C7.18348 18.664 6.99427 19.1265 6.65748 19.4675C6.32069 19.8084 5.8639 20 5.38761 20C4.91131 20 4.45453 19.8084 4.11774 19.4675C3.78095 19.1265 3.59174 18.664 3.59174 18.1818ZM16.1628 18.1818C16.1628 17.6996 16.352 17.2371 16.6888 16.8962C17.0256 16.5552 17.4824 16.3636 17.9587 16.3636C18.435 16.3636 18.8918 16.5552 19.2286 16.8962C19.5654 17.2371 19.7546 17.6996 19.7546 18.1818C19.7546 18.664 19.5654 19.1265 19.2286 19.4675C18.8918 19.8084 18.435 20 17.9587 20C17.4824 20 17.0256 19.8084 16.6888 19.4675C16.352 19.1265 16.1628 18.664 16.1628 18.1818Z" fill="#170707"/>
</svg>
