<svg width="19" height="18" viewBox="0 0 19 18" fill="none" xmlns="http://www.w3.org/2000/svg">
<path d="M0 0H3.87036L4.31312 1.63636H19L16.0217 10.6364H6.32061L5.9144 12.2727H17.8732V13.9091H3.83461L4.84688 9.82718L2.62898 1.63636H0V0ZM6.30761 9H14.8502L16.7464 3.27273H4.7567L6.30761 9ZM3.24967 16.3636C3.24967 15.9296 3.42086 15.5134 3.72557 15.2066C4.03029 14.8997 4.44357 14.7273 4.8745 14.7273C5.30544 14.7273 5.71872 14.8997 6.02343 15.2066C6.32815 15.5134 6.49934 15.9296 6.49934 16.3636C6.49934 16.7976 6.32815 17.2138 6.02343 17.5207C5.71872 17.8276 5.30544 18 4.8745 18C4.44357 18 4.03029 17.8276 3.72557 17.5207C3.42086 17.2138 3.24967 16.7976 3.24967 16.3636ZM14.6235 16.3636C14.6235 15.9296 14.7947 15.5134 15.0994 15.2066C15.4041 14.8997 15.8174 14.7273 16.2483 14.7273C16.6793 14.7273 17.0926 14.8997 17.3973 15.2066C17.702 15.5134 17.8732 15.9296 17.8732 16.3636C17.8732 16.7976 17.702 17.2138 17.3973 17.5207C17.0926 17.8276 16.6793 18 16.2483 18C15.8174 18 15.4041 17.8276 15.0994 17.5207C14.7947 17.2138 14.6235 16.7976 14.6235 16.3636Z" fill="#FFFCFB"/>
</svg>
