<svg width="13" height="13" viewBox="0 0 13 13" fill="none" xmlns="http://www.w3.org/2000/svg">
<path d="M0 0H2.64814L2.95108 1.18182H13L10.9622 7.68182H4.32463L4.04669 8.86364H12.229V10.0455H2.62368L3.31629 7.09741L1.79878 1.18182H0V0ZM4.31573 6.5H10.1606L11.458 2.36364H3.25459L4.31573 6.5ZM2.22346 11.8182C2.22346 11.5047 2.34059 11.2041 2.54908 10.9825C2.75757 10.7609 3.04034 10.6364 3.33519 10.6364C3.63004 10.6364 3.91281 10.7609 4.1213 10.9825C4.32979 11.2041 4.44692 11.5047 4.44692 11.8182C4.44692 12.1316 4.32979 12.4322 4.1213 12.6539C3.91281 12.8755 3.63004 13 3.33519 13C3.04034 13 2.75757 12.8755 2.54908 12.6539C2.34059 12.4322 2.22346 12.1316 2.22346 11.8182ZM10.0056 11.8182C10.0056 11.5047 10.1227 11.2041 10.3312 10.9825C10.5397 10.7609 10.8224 10.6364 11.1173 10.6364C11.4121 10.6364 11.6949 10.7609 11.9034 10.9825C12.1119 11.2041 12.229 11.5047 12.229 11.8182C12.229 12.1316 12.1119 12.4322 11.9034 12.6539C11.6949 12.8755 11.4121 13 11.1173 13C10.8224 13 10.5397 12.8755 10.3312 12.6539C10.1227 12.4322 10.0056 12.1316 10.0056 11.8182Z" fill="#DD3A1A"/>
</svg>
