<svg width="19" height="19" viewBox="0 0 19 19" fill="none" xmlns="http://www.w3.org/2000/svg">
<path d="M9.00616 17.3057C13.4278 17.3057 17.0123 13.7239 17.0123 9.30566C17.0123 4.88739 13.4278 1.30566 9.00616 1.30566C4.58448 1.30566 1 4.88739 1 9.30566C1 13.7239 4.58448 17.3057 9.00616 17.3057Z" stroke="#FFFCFB" stroke-width="2" stroke-linecap="round" stroke-linejoin="round"/>
<path d="M11.2718 11.5697C10.8238 12.0169 10.2532 12.3213 9.63208 12.4445C9.01096 12.5677 8.36723 12.5041 7.78226 12.2618C7.1973 12.0195 6.69735 11.6093 6.34562 11.0832C5.99388 10.557 5.80615 9.93846 5.80615 9.30571C5.80615 8.67297 5.99388 8.05442 6.34562 7.52826C6.69735 7.0021 7.1973 6.59195 7.78226 6.34964C8.36723 6.10734 9.01096 6.04376 9.63208 6.16694C10.2532 6.29013 10.8238 6.59454 11.2718 7.04171" stroke="#FFFCFB" stroke-width="2" stroke-linecap="round" stroke-linejoin="round"/>
</svg>
