<svg width="681" height="79" viewBox="0 0 681 79" fill="none" xmlns="http://www.w3.org/2000/svg">
<path d="M0.396484 77V1.80469H39.7031V14.1094H14.4102V31.8828H38.2871V43.8945H14.4102V77H0.396484ZM59.8203 46.8242H71.7344L65.7285 15.2812L59.8203 46.8242ZM39.7031 77L56.6465 1.80469H75.4453L92.5352 77H77.4473L73.7363 58.1035H57.623L54.0098 77H39.7031ZM98.4922 50.584H112.506V55.418C112.506 60.0404 113.076 63.1979 114.215 64.8906C115.387 66.5508 117.389 67.3809 120.221 67.3809C123.183 67.3809 125.429 66.6322 126.959 65.1348C128.521 63.6374 129.303 61.4238 129.303 58.4941C129.303 56.248 128.766 54.3275 127.691 52.7324C126.617 51.1048 124.29 49.0215 120.709 46.4824L113.531 41.4043C107.346 37.1074 103.408 33.5592 101.715 30.7598C100.055 27.9603 99.2246 24.4447 99.2246 20.2129C99.2246 13.8978 101.096 8.94987 104.84 5.36914C108.583 1.78841 113.743 -0.00195312 120.318 -0.00195312C127.285 -0.00195312 132.623 1.90234 136.334 5.71094C140.045 9.51953 141.9 14.9883 141.9 22.1172C141.9 22.8333 141.884 23.3867 141.852 23.7773C141.852 24.168 141.835 24.5098 141.803 24.8027H128.521V22.8008C128.521 18.7318 127.854 15.8184 126.52 14.0605C125.185 12.3027 122.988 11.4238 119.928 11.4238C117.682 11.4238 115.908 12.0911 114.605 13.4258C113.336 14.7279 112.701 16.5508 112.701 18.8945C112.701 22.0521 115.582 25.5514 121.344 29.3926L121.49 29.4902L129.205 34.7148C134.706 38.3607 138.434 41.8112 140.387 45.0664C142.34 48.2891 143.316 52.4069 143.316 57.4199C143.316 64.2559 141.363 69.5293 137.457 73.2402C133.551 76.9512 127.968 78.8066 120.709 78.8066C113.157 78.8066 107.525 76.8535 103.814 72.9473C100.136 69.041 98.2969 63.084 98.2969 55.0762C98.2969 54.2298 98.362 52.8301 98.4922 50.877V50.584ZM154.693 77V1.80469H168.609V31.2969H187.799V1.80469H201.715V77H187.799V42.918H168.609V77H154.693ZM214.557 77V1.80469H228.57V77H214.557ZM254.205 39.4023C254.205 51.7721 254.921 59.5684 256.354 62.791C257.818 65.9811 260.504 67.5762 264.41 67.5762C268.251 67.5762 270.872 66.0137 272.271 62.8887C273.704 59.7311 274.42 51.9023 274.42 39.4023C274.42 26.9023 273.704 19.0573 272.271 15.8672C270.839 12.6771 268.186 11.082 264.312 11.082C260.439 11.082 257.786 12.6771 256.354 15.8672C254.921 19.0573 254.205 26.9023 254.205 39.4023ZM239.898 39.4023C239.898 31.4271 240.273 25.0632 241.021 20.3105C241.77 15.5254 242.942 11.9284 244.537 9.51953C246.718 6.10156 249.322 3.66016 252.35 2.19531C255.377 0.730469 259.365 -0.00195312 264.312 -0.00195312C269.26 -0.00195312 273.248 0.730469 276.275 2.19531C279.303 3.66016 281.923 6.10156 284.137 9.51953C285.732 11.9935 286.887 15.6068 287.604 20.3594C288.352 25.112 288.727 31.4596 288.727 39.4023C288.727 47.3125 288.352 53.6602 287.604 58.4453C286.855 63.1979 285.699 66.8112 284.137 69.2852C281.923 72.7031 279.303 75.1445 276.275 76.6094C273.248 78.0742 269.26 78.8066 264.312 78.8066C259.365 78.8066 255.377 78.0742 252.35 76.6094C249.322 75.1445 246.718 72.7031 244.537 69.2852C242.942 66.8763 241.77 63.2956 241.021 58.543C240.273 53.7578 239.898 47.3776 239.898 39.4023ZM300.104 77V1.80469H314.508L334.088 54.3926L333.697 1.80469H346.93V77H332.623L312.896 24.3145L313.287 77H300.104ZM384.771 77V1.80469H424.078V14.1094H398.785V31.8828H422.662V43.8945H398.785V77H384.771ZM433.697 1.80469H447.711V52.4883C447.711 58.2826 448.411 62.2214 449.811 64.3047C451.243 66.3555 453.766 67.3809 457.379 67.3809C460.96 67.3809 463.434 66.3392 464.801 64.2559C466.201 62.1725 466.9 58.1849 466.9 52.293V1.80469H480.719V53.709C480.719 58.7546 480.426 62.4492 479.84 64.793C479.286 67.1042 478.342 69.1387 477.008 70.8965C474.99 73.5332 472.32 75.5189 469 76.8535C465.68 78.1556 461.741 78.8066 457.184 78.8066C448.59 78.8066 442.519 76.9512 438.971 73.2402C435.455 69.4967 433.697 62.9863 433.697 53.709V1.80469ZM492.047 50.584H506.061V55.418C506.061 60.0404 506.63 63.1979 507.77 64.8906C508.941 66.5508 510.943 67.3809 513.775 67.3809C516.738 67.3809 518.984 66.6322 520.514 65.1348C522.076 63.6374 522.857 61.4238 522.857 58.4941C522.857 56.248 522.32 54.3275 521.246 52.7324C520.172 51.1048 517.844 49.0215 514.264 46.4824L507.086 41.4043C500.901 37.1074 496.962 33.5592 495.27 30.7598C493.609 27.9603 492.779 24.4447 492.779 20.2129C492.779 13.8978 494.651 8.94987 498.395 5.36914C502.138 1.78841 507.298 -0.00195312 513.873 -0.00195312C520.839 -0.00195312 526.178 1.90234 529.889 5.71094C533.6 9.51953 535.455 14.9883 535.455 22.1172C535.455 22.8333 535.439 23.3867 535.406 23.7773C535.406 24.168 535.39 24.5098 535.357 24.8027H522.076V22.8008C522.076 18.7318 521.409 15.8184 520.074 14.0605C518.74 12.3027 516.542 11.4238 513.482 11.4238C511.236 11.4238 509.462 12.0911 508.16 13.4258C506.891 14.7279 506.256 16.5508 506.256 18.8945C506.256 22.0521 509.137 25.5514 514.898 29.3926L515.045 29.4902L522.76 34.7148C528.261 38.3607 531.988 41.8112 533.941 45.0664C535.895 48.2891 536.871 52.4069 536.871 57.4199C536.871 64.2559 534.918 69.5293 531.012 73.2402C527.105 76.9512 521.523 78.8066 514.264 78.8066C506.712 78.8066 501.08 76.8535 497.369 72.9473C493.691 69.041 491.852 63.084 491.852 55.0762C491.852 54.2298 491.917 52.8301 492.047 50.877V50.584ZM548.248 77V1.80469H562.262V77H548.248ZM587.896 39.4023C587.896 51.7721 588.613 59.5684 590.045 62.791C591.51 65.9811 594.195 67.5762 598.102 67.5762C601.943 67.5762 604.563 66.0137 605.963 62.8887C607.395 59.7311 608.111 51.9023 608.111 39.4023C608.111 26.9023 607.395 19.0573 605.963 15.8672C604.531 12.6771 601.878 11.082 598.004 11.082C594.13 11.082 591.477 12.6771 590.045 15.8672C588.613 19.0573 587.896 26.9023 587.896 39.4023ZM573.59 39.4023C573.59 31.4271 573.964 25.0632 574.713 20.3105C575.462 15.5254 576.633 11.9284 578.229 9.51953C580.41 6.10156 583.014 3.66016 586.041 2.19531C589.068 0.730469 593.056 -0.00195312 598.004 -0.00195312C602.952 -0.00195312 606.939 0.730469 609.967 2.19531C612.994 3.66016 615.615 6.10156 617.828 9.51953C619.423 11.9935 620.579 15.6068 621.295 20.3594C622.044 25.112 622.418 31.4596 622.418 39.4023C622.418 47.3125 622.044 53.6602 621.295 58.4453C620.546 63.1979 619.391 66.8112 617.828 69.2852C615.615 72.7031 612.994 75.1445 609.967 76.6094C606.939 78.0742 602.952 78.8066 598.004 78.8066C593.056 78.8066 589.068 78.0742 586.041 76.6094C583.014 75.1445 580.41 72.7031 578.229 69.2852C576.633 66.8763 575.462 63.2956 574.713 58.543C573.964 53.7578 573.59 47.3776 573.59 39.4023ZM633.795 77V1.80469H648.199L667.779 54.3926L667.389 1.80469H680.621V77H666.314L646.588 24.3145L646.979 77H633.795Z" fill="#D8D8D8"/>
</svg>
