<svg width="125" height="199" viewBox="0 0 125 199" fill="none" xmlns="http://www.w3.org/2000/svg">
<path d="M25.5696 1.07266L12.6959 7.1751C12.4464 7.29337 12.3407 7.59117 12.4598 7.84026L16.5441 16.3834C16.6632 16.6325 16.962 16.7385 17.2115 16.6202L30.0852 10.5178C30.3347 10.3995 30.4405 10.1017 30.3214 9.85265L26.237 1.30952C26.1179 1.06043 25.8191 0.954389 25.5696 1.07266Z" fill="#FFFCFB"/>
<path d="M30.6537 10.5456L16.8767 17.076C16.802 17.1114 16.7182 17.1199 16.6437 17.0997C16.5692 17.0795 16.51 17.0322 16.4792 16.9682L11.9634 7.52299C11.9482 7.4912 11.9405 7.45626 11.9406 7.42017C11.9407 7.38409 11.9487 7.34755 11.9642 7.31266C11.9796 7.27777 12.0022 7.24521 12.0306 7.21682C12.059 7.18844 12.0926 7.16479 12.1297 7.14724L25.9067 0.616851C25.9815 0.5814 26.0654 0.572906 26.14 0.593237C26.2146 0.613568 26.2737 0.661056 26.3044 0.72526L30.82 10.1699C30.8507 10.2341 30.8504 10.3097 30.8192 10.3802C30.788 10.4507 30.7285 10.5102 30.6537 10.5456ZM16.7119 16.0077C16.8309 16.2568 17.1298 16.3629 17.3793 16.2446L29.6887 10.4098C29.9382 10.2916 30.044 9.99377 29.9249 9.74469L26.0718 1.68568C25.9527 1.4366 25.6539 1.33056 25.4044 1.44883L13.0949 7.28359C12.8454 7.40185 12.7397 7.69965 12.8588 7.94873L16.7119 16.0077Z" fill="#DD3A1A"/>
<path d="M21.5982 8.89951C21.8131 8.93365 22.0255 8.82497 22.1232 8.63073L25.3807 2.16057C25.5948 1.73544 25.149 1.28009 24.7189 1.48456L13.7015 6.72229C13.258 6.93317 13.353 7.59002 13.8383 7.66709L21.5982 8.89951Z" fill="#FFFCFB"/>
<path d="M22.0733 9.19908C22.0093 9.22929 21.9384 9.23994 21.8721 9.22932L12.1596 7.68734C12.099 7.67758 12.0454 7.6505 12.0063 7.60984C11.9672 7.56919 11.9444 7.51695 11.941 7.46034C11.9377 7.40373 11.954 7.34553 11.9877 7.29377C12.0215 7.24201 12.0709 7.19924 12.1293 7.17136L25.9188 0.617175C25.9758 0.590027 26.0386 0.5784 26.0989 0.583818C26.1592 0.589236 26.2142 0.611448 26.2565 0.647528C26.2988 0.683608 26.3266 0.731856 26.3361 0.785914C26.3456 0.839974 26.3364 0.897294 26.3098 0.95033L22.2361 9.0449C22.2031 9.11108 22.1449 9.1662 22.0733 9.19908ZM14.6223 6.58147C14.1788 6.79228 14.2739 7.44897 14.7591 7.52618L21.4353 8.58855C21.6504 8.62277 21.8628 8.51404 21.9606 8.31969L24.7609 2.7531C24.9748 2.32801 24.5289 1.87285 24.0989 2.07725L14.6223 6.58147Z" fill="#DD3A1A"/>
<path d="M101.199 100.056C93.3107 99.0101 86.0739 104.562 85.0289 112.472C83.9839 120.383 89.5248 127.63 97.4185 128.676C105.207 129.707 112.529 124.262 113.587 116.26C114.632 108.351 109.092 101.102 101.199 100.056ZM113.047 116.188C112.042 123.794 105.088 129.142 97.4899 128.135C89.8918 127.128 84.5638 120.155 85.5689 112.544C86.5829 104.866 93.6076 99.6014 101.128 100.597C108.72 101.604 114.053 108.577 113.047 116.188Z" fill="#DD3A1A"/>
<path d="M9.96592 136.452C9.93986 136.385 9.88845 136.331 9.82285 136.302C9.75726 136.272 9.68277 136.27 9.61554 136.296L0.173974 139.948C0.106965 139.974 0.0529346 140.025 0.0236481 140.091C-0.00563837 140.157 -0.00780841 140.232 0.0176146 140.299L3.6568 149.763C3.68277 149.83 3.73417 149.884 3.7998 149.913C3.86543 149.943 3.93997 149.945 4.00719 149.919L13.4514 146.269C13.5184 146.243 13.5724 146.191 13.6017 146.126C13.631 146.06 13.6332 145.985 13.6077 145.918L9.96592 136.452Z" fill="#170707"/>
<path d="M97.4668 30.1296C98.2044 29.5629 98.7579 28.7897 99.0571 27.9077C99.3563 27.0258 99.3879 26.0747 99.1478 25.1748C98.9078 24.2748 98.4069 23.4665 97.7084 22.8518C97.01 22.2372 96.1454 21.844 95.224 21.7218C94.3026 21.5997 93.3657 21.7541 92.5319 22.1656C91.698 22.5771 91.0046 23.2271 90.5394 24.0336C90.0741 24.84 89.8579 25.7666 89.9181 26.6962C89.9782 27.6258 90.312 28.5166 90.8773 29.2561C91.2525 29.7474 91.7207 30.1598 92.255 30.4697C92.7893 30.7795 93.3794 30.9808 93.9914 31.0619C94.6034 31.1431 95.2253 31.1025 95.8217 30.9425C96.418 30.7825 96.977 30.5063 97.4668 30.1296Z" fill="#170707"/>
<path d="M61.7269 179.493C61.6877 179.474 61.6446 179.465 61.6012 179.466L60.4567 176.903L61.9726 176.144C62.0309 176.114 62.0768 176.065 62.1019 176.004C62.1269 175.944 62.1295 175.876 62.1092 175.814L49.4196 137.094C61.2648 111.492 66.4864 84.1136 66.638 83.308C69.3574 75.2933 72.1193 69.7368 77.1613 57.8332C77.1572 57.8363 77.152 57.8377 77.1469 57.8371C77.1015 57.8367 77.0569 57.825 77.0172 57.803C76.9774 57.781 76.9438 57.7494 76.9193 57.7111C76.8948 57.6728 76.8801 57.629 76.8768 57.5836C76.8734 57.5383 76.8813 57.4928 76.8999 57.4512L78.6426 53.6669C78.6739 53.6017 78.7293 53.5512 78.797 53.5261C78.8647 53.5009 78.9395 53.5031 79.0057 53.5321C79.0382 53.5473 79.0673 53.5688 79.0915 53.5954C79.1157 53.6219 79.1344 53.653 79.1466 53.6868C79.1588 53.7206 79.1643 53.7564 79.1626 53.7923C79.161 53.8282 79.1523 53.8635 79.1371 53.896C76.0524 60.593 78.8213 54.5812 77.5288 57.3858C81.9042 61.4652 100.777 74.1256 106.949 72.4334C114.058 70.4905 120.83 45.804 121.425 43.5955C121.473 43.5853 121.518 43.5614 121.554 43.5266C121.708 43.3686 125.337 39.6149 124.976 36.6396C124.859 35.6738 124.338 34.8986 123.428 34.3345C120.775 32.6884 118.645 34.4223 117.353 37.2423C117.156 36.2326 116.689 35.162 115.701 35.4399C114.176 35.8722 114.595 38.3573 115.08 39.8765L102.93 58.521C101.187 57.0035 90.2285 47.5059 83.378 42.6403C81.6931 41.4424 76.2963 40.0368 66.8951 38.3489C66.9651 36.9684 67.1811 32.5519 67.2393 30.6915C67.7872 31.2068 68.5747 31.3785 69.3127 31.3657C71.2709 31.3412 75.5802 28.6244 75.1817 24.4221C75.1332 23.8664 75.0093 23.32 74.8133 22.7979C80.4388 26.7947 80.1427 26.663 80.3074 26.663C80.3651 26.6631 80.4213 26.6447 80.4679 26.6106C80.5146 26.5766 80.5492 26.5285 80.5669 26.4734C80.5845 26.4183 80.5842 26.3591 80.5661 26.3042C80.5479 26.2492 80.5129 26.2015 80.4659 26.1679L74.7349 22.0758C77.6589 21.2944 79.4765 17.8827 78.1691 14.9741C77.3619 13.1743 75.4068 11.9794 73.3951 12.0769C71.4746 12.1647 69.6605 13.4184 68.8458 15.2041L67.3094 9.4676C67.2883 9.40035 67.2421 9.34388 67.1804 9.31C67.1187 9.27612 67.0464 9.26746 66.9785 9.28584C66.9106 9.30421 66.8524 9.3482 66.8161 9.40858C66.7798 9.46897 66.7682 9.54109 66.7838 9.60983L68.5248 16.097C68.1788 15.6141 67.8196 15.1216 67.4066 14.6751C66.0239 13.1787 63.3706 12.4632 61.4886 13.0786C60.3595 13.4482 59.4651 14.2915 59.0959 15.334C58.6225 16.6725 59.0258 17.9358 59.826 19.053C59.2943 19.7141 58.8156 20.4314 58.3417 21.168C57.3125 22.7654 56.0861 24.9076 55.73 27.3136C55.3626 29.785 56.4553 31.9882 59.0412 32.2986L57.99 36.8472C53.0662 36.057 53.2861 36.1075 49.6075 35.3521C48.3843 35.0976 47.1104 35.3092 46.0344 35.9455L21.126 47.7197C14.4012 29.7372 14.8922 30.7314 14.6816 30.6436C14.5383 30.5861 14.4393 30.6709 14.403 30.6827C14.8659 29.2727 15.2693 27.127 13.8682 26.649C12.8977 26.3189 12.3738 27.361 12.1233 28.361C10.9749 25.4559 8.93743 23.6372 6.21056 25.1315C2.87577 26.9563 5.00436 31.2823 7.41369 34.1993C7.39029 34.2424 7.37936 34.2912 7.38215 34.3402C7.45092 35.3411 9.17218 58.8599 15.9508 62.186C21.673 65.0104 36.1286 55.5672 41.3099 51.8513C41.8793 60.647 35.3595 73.5773 35.3477 73.6138C34.6736 75.6528 18.8406 123.64 19.1985 131.838C19.7288 144.042 36.3126 177.655 36.4803 177.993C36.5029 178.039 36.5377 178.077 36.5808 178.104C36.6239 178.13 36.6736 178.145 36.7243 178.145C36.8368 178.145 36.8189 178.119 37.6962 177.69L38.6216 180.072C38.315 180.204 38.1565 180.574 38.2795 180.923C38.8051 182.388 36.5338 185.773 32.203 189.979C31.9324 190.241 31.7326 190.567 31.6226 190.928C31.5126 191.288 31.4959 191.671 31.5741 192.039C32.1237 194.673 34.1656 196.016 38.0562 194.338C42.5008 192.416 47.1601 187.651 49.5414 184.982C50.3251 184.106 50.7453 182.963 50.716 181.786L52.9287 180.677L53.8384 183.018C53.5318 183.15 53.3746 183.521 53.4985 183.868C54.1178 185.601 50.7651 189.682 47.4207 192.924C47.1492 193.186 46.9489 193.513 46.8386 193.874C46.7283 194.235 46.7117 194.618 46.7904 194.987C47.3401 197.613 49.3776 198.965 53.2725 197.283C57.7255 195.361 62.3799 190.597 64.7577 187.929C66.3782 186.11 66.3204 183.343 64.6263 181.629C63.7715 180.776 62.7942 180.056 61.7269 179.493ZM115.847 35.9657C115.911 35.9435 115.979 35.9372 116.046 35.9475C116.113 35.9577 116.176 35.9842 116.231 36.0246C116.691 36.3604 116.907 37.6294 116.934 38.3511C116.946 38.6584 117.372 38.7106 117.466 38.4235C117.476 38.3911 118.527 35.1497 120.559 34.3969C121.36 34.1001 122.229 34.2353 123.139 34.7994C123.912 35.2783 124.335 35.9021 124.433 36.7058C124.724 39.1061 121.972 42.2672 121.305 42.9928L115.601 39.7304C115.25 38.6509 114.748 36.2774 115.847 35.9657ZM63.3912 31.4281C63.3822 31.3933 63.3665 31.3607 63.3449 31.3321C63.3232 31.3035 63.2962 31.2794 63.2652 31.2614C63.2342 31.2433 63.2 31.2316 63.1645 31.2269C63.129 31.2223 63.0929 31.2247 63.0583 31.2341C60.6963 31.8627 58.0693 32.3692 56.7987 30.4171C56.2854 29.627 56.0979 28.5541 56.2705 27.3935C56.6108 25.0906 57.8012 23.0152 58.8003 21.4638C59.2413 20.7786 59.6854 20.1114 60.1712 19.4955C61.768 21.4085 63.6851 22.4471 65.9862 23.3615C65.7624 23.9032 65.5439 24.5204 65.324 25.0173C65.3001 25.0719 65.2946 25.1328 65.3084 25.1907C65.3223 25.2487 65.3546 25.3005 65.4006 25.3383C65.4465 25.3761 65.5035 25.3978 65.563 25.4001C65.6224 25.4024 65.6809 25.3851 65.7296 25.3509C69.2628 22.862 71.7093 25.6964 69.7428 27.994C69.2899 28.3693 68.6868 28.5853 68.0956 28.5401C67.3208 28.4826 67.556 28.195 67.1723 28.1103C67.1115 28.0986 67.0488 28.1013 66.9892 28.1181C66.9296 28.135 66.8747 28.1655 66.8289 28.2073C66.5854 28.4321 66.6467 29.5682 66.7041 29.7876C66.7006 29.882 66.7834 29.8754 66.3384 38.557C66.3384 38.6009 66.3279 38.8151 66.3292 38.7765C65.8474 42.3581 57.2415 43.9125 58.4341 37.3419L59.5926 32.3346C60.9035 32.364 62.2581 32.0084 63.1981 31.7586C63.2672 31.7401 63.3262 31.695 63.3623 31.6331C63.3985 31.5712 63.4088 31.4976 63.3912 31.4281ZM5.07794 27.444C5.21853 26.6464 5.67447 26.0463 6.47203 25.6091C7.50786 25.041 8.37068 25.0423 9.0697 25.3457C11.0577 26.2061 11.9345 29.4992 11.9433 29.5326C12.0208 29.8315 12.4505 29.789 12.4781 29.4887C12.5442 28.7701 12.8285 27.5133 13.305 27.206C13.3613 27.1687 13.4259 27.1456 13.4931 27.1389C13.5604 27.1321 13.6282 27.1419 13.6908 27.1674C14.7731 27.5379 14.1406 29.889 13.7346 30.9382L7.86569 33.8916C7.2385 33.1287 4.65791 29.8276 5.07794 27.444ZM41.3375 52.4698C41.3375 49.4066 42.867 46.5055 45.0604 44.7658C45.1167 44.721 45.1885 44.7004 45.26 44.7087C45.3314 44.7169 45.3967 44.7533 45.4414 44.8097C45.4861 44.8662 45.5066 44.9381 45.4984 45.0098C45.4902 45.0814 45.454 45.1468 45.3976 45.1916C43.2375 46.9093 41.8903 49.6823 41.8833 52.4443V52.4698C41.8835 52.5417 41.8553 52.6107 41.805 52.6619C41.7546 52.713 41.6861 52.7421 41.6143 52.7428H41.6073C41.5355 52.7424 41.4667 52.7134 41.4161 52.6622C41.3656 52.611 41.3373 52.5418 41.3375 52.4698ZM19.7411 131.815C19.4012 124.017 34.5072 77.9087 35.7791 74.0405C40.6919 75.5549 61.1496 81.9033 66.0589 83.4252C65.5229 86.1908 60.2539 112.415 48.8787 136.963C48.7911 137.155 48.3531 135.508 61.5197 175.761L50.0591 181.505C45.4997 172.243 33.4031 146.124 32.9537 135.818C32.6033 127.724 41.7063 104.37 41.7983 104.135C41.8232 104.068 41.8209 103.993 41.7917 103.928C41.7625 103.863 41.7089 103.811 41.6424 103.785C41.5759 103.759 41.5018 103.76 41.4361 103.788C41.3704 103.816 41.3183 103.869 41.2911 103.935C40.914 104.901 32.0554 127.632 32.4097 135.842C32.7728 144.169 40.5045 162.251 45.5115 173.164L36.846 177.505C35.3332 174.418 20.2426 143.354 19.7411 131.815ZM45.7406 173.661C46.3003 174.877 46.8241 176 47.2945 176.997C46.8416 176.71 46.5337 176.555 46.5145 176.545C46.4746 176.526 46.4305 176.516 46.3861 176.518L45.2255 173.917L45.7406 173.661ZM44.777 174.256L46.119 177.263V178.786C45.783 182.388 42.4982 182.522 41.7724 182.504C40.8089 181.003 39.9426 180.174 39.1884 180.035L38.1994 177.489L44.777 174.256ZM59.9938 177.202L61.334 180.205V181.731C60.9994 185.331 57.7154 185.463 56.9892 185.449C56.0257 183.947 55.1602 183.123 54.4051 182.982L53.4153 180.436L59.9938 177.202Z" fill="#170707"/>
</svg>
