<svg width="345" height="319" viewBox="0 0 345 319" fill="none" xmlns="http://www.w3.org/2000/svg">
<path d="M180.7 18.1411C197.928 25.3233 212.284 45.6727 212.284 45.6727C212.284 45.6727 218.349 23.5277 226.64 10.959C232.957 1.38304 241.288 -1.37041 250.759 1.98127C260.483 5.42275 264.541 12.156 264.541 25.3233C262.818 53.4534 255.353 62.9546 253.63 67.2192C244.442 83.9776 226.64 105.524 226.64 105.524C226.64 105.524 217.452 103.728 194.482 88.7657C184.146 82.0324 164.047 60.6356 157.156 51.0593C153.711 46.2715 147.732 32.8723 153.711 23.5277C159.664 14.2217 169.79 13.5925 180.7 18.1411Z" fill="#DD3A1A"/>
<path d="M138.558 168.918C138.345 168.943 138.131 168.885 137.959 168.755C137.787 168.625 137.671 168.435 137.635 168.222C137.598 168.009 137.644 167.79 137.763 167.61C137.881 167.43 138.064 167.303 138.273 167.255C157.887 162.741 195.025 154.65 218.361 136.371C259.213 105.848 264.373 80.8656 264.695 71.5421C264.819 67.9712 264.346 64.7619 263.36 62.0856C258.117 79.1001 247.509 96.3887 231.325 108.91C231.17 109.03 230.979 109.091 230.784 109.084C230.589 109.076 230.402 109 230.257 108.869C200.868 82.369 200.59 67.6399 203.038 61.2183C205.056 55.9147 210.419 52.6398 217.036 52.6783C223.627 52.7089 231.586 56.2444 235.23 64.0296C241.679 54.7021 249.554 50.467 256.459 52.6726C259.086 53.5117 261.277 55.216 262.925 57.5874C266.317 44.4898 266.432 31.8162 263.368 22.0105C259.933 11.0024 252.651 4.68009 242.865 4.21007C216.216 2.92554 209.244 51.5151 209.18 52.0077C209.157 52.1743 209.086 52.3302 208.974 52.4553C208.862 52.5804 208.716 52.6689 208.554 52.7096C208.393 52.7534 208.221 52.7465 208.064 52.6899C207.906 52.6332 207.769 52.5295 207.671 52.3925C207.415 52.0454 181.834 17.5917 160.53 17.7799C154.23 17.825 148.874 20.9601 144.566 27.0678C122.838 57.9578 194.55 105.798 195.258 106.342C195.346 106.41 195.42 106.494 195.475 106.59C195.53 106.686 195.566 106.792 195.581 106.902C195.596 107.012 195.589 107.124 195.561 107.231C195.533 107.338 195.484 107.439 195.417 107.527C195.35 107.615 195.267 107.689 195.172 107.745C195.077 107.801 194.971 107.837 194.862 107.852C194.753 107.866 194.642 107.859 194.535 107.831C194.429 107.802 194.329 107.753 194.241 107.685C191.301 105.412 120.542 58.2934 143.197 26.0785C147.839 19.5044 153.673 16.1383 160.517 16.0815C180.234 15.9072 202.425 42.8442 207.826 49.8026C209.433 40.3731 217.549 1.35619 242.94 2.50695C253.482 3.0165 261.304 9.75662 264.966 21.491C268.23 31.9471 267.979 45.5759 264.095 59.5589C265.719 62.7934 266.528 66.9128 266.373 71.5928C266.039 81.1604 260.798 106.757 219.361 137.719C199.005 151.765 186.131 157.453 138.665 168.887C138.63 168.9 138.594 168.911 138.558 168.918ZM215.001 54.4627C209.999 55.0039 206.184 57.6657 204.598 61.8204C202.766 66.6334 201.679 80.6522 230.851 107.136C247.022 94.4128 257.437 76.8551 262.318 59.789C260.812 57.0627 258.645 55.1319 255.954 54.2726C249.584 52.2507 241.837 56.8303 235.762 66.2482C235.678 66.3792 235.559 66.484 235.419 66.5508C235.279 66.6177 235.123 66.644 234.969 66.6269C234.814 66.6097 234.668 66.5497 234.545 66.4536C234.423 66.3575 234.329 66.2291 234.275 66.0826C231.268 58.0294 223.445 54.3918 217.027 54.3613C216.35 54.3574 215.674 54.3913 215.001 54.4627Z" fill="#170707"/>
<path d="M344.45 256.399C344.283 256.318 327.425 248.171 300.689 238.819C273.745 229.396 241.344 212.891 234.335 209.26C237.015 207.364 240.521 204.486 244.818 200.648C249.885 196.126 254.464 191.676 255.558 190.566C255.888 190.231 256.194 189.958 256.516 189.671C258.308 188.073 260.339 186.263 268.312 172.561C272.697 165.027 273.794 160.761 274.595 157.646C274.718 157.167 274.834 156.715 274.952 156.296C275.452 154.517 275.124 152.89 274.054 151.831C272.971 150.758 271.275 150.408 269.402 150.87C262.044 152.684 256.447 158.439 252.178 164.151C252.756 161.588 253.187 158.774 252.756 157.342C251.81 154.209 251.071 150.844 250.357 147.592C248.761 140.322 247.501 134.58 244.482 133.539C243.326 133.14 242.068 133.461 240.748 134.494C239.348 135.59 238.244 137.705 237.377 140.962C236.719 143.421 236.202 146.524 235.841 150.186C235.819 150.408 235.798 150.629 235.778 150.849C235.159 149.488 234.39 147.879 233.528 146.262C230.415 140.414 227.711 137.308 225.256 136.767C224.1 136.512 223.005 136.827 222.088 137.676C218.915 140.615 220.118 148.029 221.18 154.569C221.505 156.57 221.812 158.461 221.936 159.951C222.104 161.961 221.861 162.491 221.782 162.606C221.319 163.28 220.474 165.049 219.303 167.498C218.982 168.172 218.629 168.902 218.268 169.657C218.545 167.443 218.663 165.164 218.292 163.681C217.854 161.932 216.452 158.633 214.619 155.714C212.288 151.999 210.159 150.31 208.292 150.695C207.18 150.924 206.425 151.92 206.046 153.656C205.785 154.851 205.678 156.479 205.727 158.495C205.815 162.035 206.349 165.937 206.636 168.034C206.664 168.242 206.69 168.43 206.712 168.596C206.952 170.385 204.4 173.094 202.142 175.484C200.944 176.753 199.812 177.953 198.973 179.106C198.551 179.686 195.809 181.275 193.401 182.476C189.865 182.008 188.362 181.322 186.672 180.556C184.408 179.526 181.843 178.365 174.484 177.302C160.408 175.269 156.675 174.35 149.52 171.155C145.872 169.526 142.058 168.809 139.11 168.501C142.075 167.565 145.136 166.67 148.143 165.795C153.801 164.149 159.146 162.593 163.651 160.805C180.646 154.055 186.937 148.456 192.601 140.483C194.535 137.761 195.756 134.139 195.949 130.544C196.141 127.042 195.311 124.048 193.741 122.534C192.959 121.78 191.993 121.382 190.947 121.382H190.941C189.876 121.382 188.743 121.791 187.569 122.593C180.722 127.274 156.489 135.17 148.18 136.41C140.763 137.517 118.212 141.507 103.207 146.612C97.924 148.409 94.1529 150.785 90.5889 154.557C87.1434 158.207 83.8732 163.161 79.3459 170.021C74.9901 176.624 69.568 184.841 61.6097 195.596C39.6458 225.269 19.0979 233.054 5.50072 238.205C3.76688 238.861 2.12936 239.481 0.594916 240.104C0.388776 240.187 0.218639 240.337 0.113554 240.528C0.00846879 240.719 -0.0250485 240.94 0.0187259 241.152C0.0625002 241.365 0.180851 241.556 0.353571 241.693C0.526292 241.831 0.742672 241.905 0.965766 241.905C1.09284 241.905 1.21862 241.88 1.33565 241.832C2.85372 241.218 4.47872 240.602 6.20003 239.949C13.2096 237.295 21.9327 233.989 31.6297 227.6C42.996 220.111 53.3142 210.002 63.1615 196.695C71.1497 185.9 76.5872 177.659 80.9555 171.038C89.9031 157.476 93.6068 151.863 103.833 148.385C118.699 143.331 141.089 139.368 148.462 138.269C152.493 137.668 160.689 135.4 168.858 132.627C178.17 129.466 185.389 126.37 188.665 124.133C190.995 122.542 192.037 123.542 192.373 123.872C193.542 124.995 194.171 127.523 194.011 130.455C193.835 133.713 192.739 136.983 191.001 139.428C185.548 147.104 179.457 152.508 162.907 159.081C158.493 160.834 153.192 162.377 147.579 164.01C142.882 165.378 138.05 166.785 133.628 168.364L133.578 168.381C132.807 168.655 132.052 168.936 131.313 169.224C124.408 171.889 115.765 175.582 113.808 178.045C113.728 178.142 113.668 178.254 113.633 178.373C113.597 178.493 113.587 178.618 113.602 178.742C113.617 178.865 113.657 178.985 113.72 179.093C113.783 179.202 113.868 179.297 113.969 179.373C114.07 179.449 114.186 179.505 114.31 179.537C114.434 179.569 114.563 179.576 114.69 179.559C114.817 179.542 114.939 179.501 115.049 179.438C115.159 179.374 115.255 179.29 115.332 179.19C116.613 177.578 122.854 174.503 132.025 170.964C132.713 170.699 133.414 170.439 134.13 170.182C135.207 170.146 142.344 170.029 148.705 172.869C156.072 176.158 159.879 177.1 174.19 179.167C181.272 180.189 183.702 181.291 185.845 182.264C188.087 183.281 190.023 184.159 195.982 184.642C200.413 185 204.147 185.336 207.143 185.606C212.07 186.048 215.325 186.341 217.257 186.341C219.403 186.341 227.431 183.846 236.92 180.831C239.784 179.921 242.257 179.135 243.425 178.81C244.906 178.399 246.272 176.376 248.978 172.211C253.398 165.401 260.078 155.109 269.864 152.697C271.056 152.403 272.08 152.57 272.668 153.155C273.257 153.74 273.401 154.679 273.082 155.815C272.959 156.254 272.84 156.715 272.714 157.205C271.944 160.215 270.884 164.339 266.625 171.652C258.8 185.096 256.889 186.8 255.203 188.303C254.871 188.598 254.528 188.904 254.155 189.283C252.189 191.276 239.075 203.956 232.011 208.566C231.967 208.59 231.926 208.617 231.886 208.648C231.274 209.05 230.636 209.416 229.977 209.742C228.925 210.245 226.33 210.678 220.167 210.397C220.132 210.393 220.096 210.392 220.061 210.392C217.683 210.279 214.782 210.062 211.24 209.703C202.794 208.845 194.039 207.519 189.832 206.881C187.699 206.558 187.436 206.521 187.267 206.521C187.011 206.516 186.764 206.61 186.58 206.782C186.396 206.954 186.289 207.19 186.284 207.438C186.279 207.687 186.376 207.927 186.553 208.106C186.73 208.285 186.973 208.388 187.228 208.393C187.416 208.411 188.4 208.56 189.535 208.732C193.758 209.372 202.546 210.703 211.04 211.565C213.396 211.805 215.548 211.99 217.493 212.12C212.01 216.303 196.44 227.753 189.064 228.748C188.334 228.748 183.752 227.624 178.313 225.772C172.096 223.651 167.718 221.56 166.308 220.048C161.907 215.321 156.729 210.616 152.102 207.14C146.314 202.792 141.891 200.701 138.961 200.921C137.628 201.023 136.562 201.612 135.879 202.627C134.308 204.957 135.043 208.626 138.126 213.843C140.583 218 144.11 222.433 146.683 225.67C147.716 226.968 148.61 228.089 149.241 228.946C150.067 230.069 151.336 231.33 152.883 232.645C148.067 231.017 140.981 228.573 136.419 227L132.591 225.681C129.579 224.651 125.409 220.197 121.376 215.895C116.182 210.354 111.277 205.121 107.36 205.121H107.362C106.193 205.121 105.182 205.578 104.356 206.469C103.461 207.435 103.434 209.354 104.269 212.508C104.9 214.891 106.015 217.909 107.496 221.25C103.45 218.011 99.9911 215.766 97.1785 214.562C94.0653 213.229 91.7034 213.147 90.1603 214.318C88.1875 215.816 88.3522 218.866 89.2298 220.496C90.0967 222.102 93.7185 227.53 97.2247 232.779L97.7574 233.577C95.3905 233.285 92.9879 233.448 90.6852 234.054C87.7233 234.828 85.3989 236.234 84.4675 237.814C83.6497 239.201 83.9001 240.66 85.1562 241.813C86.4999 243.047 88.2386 244.108 90.3529 244.99C82.9359 248.279 74.3833 253.233 64.8818 259.742C56.5498 265.452 47.4702 272.361 37.8937 280.287C21.5985 293.772 9.34214 305.687 9.22077 305.805C9.1314 305.892 9.06055 305.996 9.01225 306.109C8.96396 306.223 8.93917 306.345 8.93931 306.468C8.93944 306.591 8.96449 306.712 9.01304 306.826C9.06158 306.939 9.13266 307.043 9.22221 307.129C9.31177 307.216 9.41806 307.285 9.535 307.332C9.65194 307.379 9.77725 307.403 9.90377 307.403C10.0303 307.403 10.1555 307.378 10.2724 307.331C10.3892 307.284 10.4954 307.215 10.5847 307.128C10.7061 307.009 22.9143 295.14 39.1546 281.702C54.0213 269.399 75.3802 253.246 92.944 245.922C93.9599 246.234 95.0417 246.515 96.1892 246.765C100.217 247.635 104.254 247.936 106.926 248.135C108.119 248.229 109.35 248.316 109.736 248.416C111.117 249.512 112.603 250.656 113.994 251.692C118.447 254.997 124.601 259.217 128.635 260.549C130.389 261.128 140.025 261.829 151.493 262.617C155.457 262.889 159.199 263.147 159.726 263.237C163.887 264.397 167.239 265.233 167.74 265.264C172.797 265.573 176.878 265.942 180.48 266.266C185.118 266.686 188.812 267.015 192.372 267.015C198.331 267.015 203.909 266.079 212.889 263.042C217.62 261.441 220.934 260.067 223.355 259.064C226.609 257.715 228.242 257.038 229.693 257.243C231.144 257.448 232.679 258.546 235.837 261.003C236.73 261.698 238.169 262.84 239.991 264.285C247.845 270.517 264.191 283.485 280.351 295.116C300.364 309.516 314.083 317.544 321.125 318.979C321.19 318.993 321.257 319 321.323 319C321.562 318.999 321.791 318.913 321.967 318.757C322.143 318.602 322.254 318.388 322.278 318.158C322.302 317.928 322.237 317.697 322.097 317.511C321.956 317.324 321.749 317.195 321.516 317.148C314.748 315.769 301.282 307.85 281.493 293.611C265.366 282.004 249.045 269.058 241.202 262.835C239.372 261.386 237.933 260.242 237.032 259.541C233.869 257.082 231.981 255.676 229.963 255.39C227.975 255.11 226.063 255.902 222.591 257.341C220.196 258.334 216.916 259.693 212.248 261.273C198.298 265.992 192.767 265.492 180.653 264.398C177.042 264.071 172.947 263.703 167.872 263.392C166.533 263.214 145.323 257.671 139.141 254.031C133.491 250.704 124.404 241.806 119.52 237.027C118.952 236.471 118.434 235.965 117.979 235.523C116.305 233.896 113.598 229.482 111.069 224.363C111.058 224.337 111.045 224.311 111.032 224.285C110.464 223.134 109.906 221.945 109.371 220.75C107.877 217.403 106.758 214.393 106.137 212.045C105.18 208.436 105.765 207.752 105.79 207.725C106.249 207.229 106.753 206.997 107.37 206.995H107.377C110.442 206.995 115.503 212.395 119.968 217.158C124.354 221.839 128.497 226.258 131.966 227.449L135.791 228.767C145.712 232.189 155.504 235.556 157.368 236.086C162.939 240.049 169.714 243.924 173.636 245.768C179.223 248.396 182.183 248.53 196.536 248.53h201.851C202.107 248.53 202.352 248.431 202.532 248.256C202.713 248.08 202.815 247.842 202.815 247.594C202.815 247.346 202.713 247.108 202.532 246.932C202.352 246.757 202.107 246.658 201.851 246.658H198.962C182.875 246.665 179.969 246.667 174.475 244.084C170.687 242.305 163.879 238.401 158.389 234.492L158.354 234.469C155.048 232.113 152.224 229.757 150.831 227.862C150.177 226.972 149.276 225.838 148.23 224.525C145.69 221.331 142.211 216.956 139.819 212.91C137.207 208.49 136.409 205.289 137.512 203.653C137.873 203.119 138.388 202.844 139.134 202.788C144.124 202.414 156.153 211.905 164.903 221.303C167.039 223.597 173.167 226.003 177.931 227.617C181.932 228.973 188.117 230.766 189.322 230.607C198.353 229.412 217.702 214.413 220.408 212.281C221.592 212.331 222.683 212.356 223.683 212.356C227.184 212.356 229.559 212.047 230.851 211.428C231.437 211.14 232.007 210.821 232.558 210.473C237.132 212.856 271.597 230.65 300.047 240.6C326.667 249.91 343.433 258.01 343.599 258.092C343.713 258.148 343.836 258.182 343.963 258.191C344.09 258.201 344.217 258.186 344.338 258.147C344.459 258.108 344.57 258.047 344.667 257.966C344.763 257.885 344.842 257.787 344.898 257.676C344.955 257.566 344.989 257.445 344.998 257.322C345.006 257.199 344.99 257.075 344.949 256.958C344.909 256.841 344.844 256.733 344.761 256.64C344.677 256.547 344.575 256.472 344.461 256.417L344.45 256.399ZM200.541 180.186C201.312 179.131 202.4 177.974 203.556 176.749C206.219 173.927 208.973 171.008 208.616 168.353C208.594 168.186 208.568 167.999 208.539 167.792C208.257 165.732 207.733 161.895 207.648 158.455C207.602 156.582 207.695 155.101 207.925 154.049C208.17 152.925 208.519 152.564 208.686 152.529C209.368 152.39 210.901 153.395 212.969 156.692C214.681 159.42 216.022 162.558 216.415 164.127C217.073 166.763 215.788 173.264 215.2 175.711C214.14 177.657 213.128 179.293 212.348 180.09C211.481 180.98 207.973 182.67 205.809 183.602C203.254 183.372 200.244 183.106 196.79 182.824C198.355 181.952 200.016 180.915 200.544 180.19L200.541 180.186ZM209.571 183.93C211.203 183.126 212.986 182.144 213.744 181.372C214.66 180.436 215.776 178.641 216.93 176.526C216.95 176.493 216.969 176.459 216.985 176.424C218.386 173.846 219.837 170.808 221.045 168.28C222.093 166.087 222.998 164.193 223.379 163.638C224.318 162.269 223.899 159.333 223.077 154.272C222.188 148.793 220.97 141.287 223.412 139.026C223.863 138.606 224.3 138.472 224.824 138.588C225.858 138.815 228.141 140.225 231.802 147.106C233.702 150.673 235.14 154.181 235.47 155.004C235.289 158.28 235.269 160.918 235.268 161.85C229.744 168.004 223.613 180.82 222.45 183.294C219.967 183.989 218.019 184.46 217.266 184.46C215.727 184.465 213.212 184.262 209.574 183.938L209.571 183.93ZM244.528 175.384C243.479 176.762 243.021 176.975 242.907 177.005C241.704 177.339 239.333 178.093 236.332 179.047C233.073 180.082 228.693 181.474 224.919 182.588C226.997 178.314 232.329 167.83 236.951 162.837C237.112 162.663 237.2 162.437 237.198 162.203C237.198 162.146 237.153 156.479 237.754 150.375C238.789 139.892 240.831 136.844 241.956 135.96C242.72 135.362 243.354 135.144 243.837 135.311C244.403 135.506 245.282 136.34 246.264 139.225C247.063 141.575 247.747 144.691 248.471 147.989C249.196 151.288 249.938 154.676 250.906 157.876C251.424 159.595 249.998 165.413 248.952 168.771C248.391 169.613 247.862 170.433 247.359 171.205C246.274 172.879 245.337 174.323 244.528 175.384ZM107.073 246.257C102.036 245.883 91.557 245.102 86.4787 240.438C85.8661 239.876 85.764 239.364 86.1378 238.731C86.7995 237.607 88.7809 236.477 91.1842 235.847C93.8428 235.153 96.745 235.118 99.2099 235.743C101.542 239.244 103.631 242.41 104.381 243.699C104.593 244.064 105.646 245.031 107.108 246.259L107.073 246.257ZM118.15 238.333C123.092 243.169 132.288 252.172 138.14 255.62C140.899 257.244 146.252 259.137 151.222 260.705C143.437 260.171 130.881 259.301 129.249 258.76C124.561 257.211 116.229 251.161 110.912 246.932C110.862 246.881 110.805 246.836 110.744 246.797C108.194 244.763 106.373 243.174 106.041 242.755C105.037 241.034 102.026 236.523 98.8391 231.749C95.3599 226.536 91.7612 221.145 90.9405 219.616C90.3914 218.598 90.2778 216.598 91.3499 215.786C92.2293 215.118 96.1285 213.84 109.404 225.293C111.738 229.994 114.567 234.84 116.619 236.834C117.066 237.271 117.581 237.776 118.15 238.333Z" fill="#170707"/>
</svg>
