<svg width="269" height="210" viewBox="0 0 269 210" fill="none" xmlns="http://www.w3.org/2000/svg">
<path d="M168.385 97.5156C157.069 70.2794 146.703 60.9066 131.788 51.4124C114.6 43.5519 111.052 39.4439 77.6613 46.8487C67.6083 49.0782 54.6866 61.7338 55.5075 81.1313C56.218 97.9177 58.9248 110.119 71.4788 134.445C92.3465 121.533 130.687 105.876 168.385 97.5156Z" fill="#D8D8D8"/>
<path d="M258.692 108.3C233.441 111.478 220.479 115.837 214.756 120.206C210.599 120.345 205.711 122.053 200.387 125.917C195.093 129.727 189.536 136.533 183.389 144.071C169.55 160.981 152.615 181.687 129.207 180.694C94.7371 179.299 76.0552 175.179 68.1414 169.547C64.4427 166.95 63.1594 163.972 63.7778 160.843C67.6196 160.345 70.4655 159.759 72.4486 158.918C76.7477 162.107 83.5812 165.193 93.4139 168.096L93.4658 168.127C93.6006 168.134 143.803 177.807 164.835 150.155C185.666 122.729 203.672 117.904 203.716 117.893L203.662 117.199L168.064 109.948L167.973 109.927C154.58 110.549 106.47 126.321 80.3047 142.898C77.7347 144.517 75.3523 146.174 73.2691 147.795C72.6173 146.682 71.4877 144.773 70.0676 142.275C73.3498 138.206 79.0767 134.194 86.1813 130.382C111.684 116.771 154.582 105.941 164.395 104.818L164.788 104.798L164.677 104.385C164.611 104.136 141.724 19.5453 59.7518 52.1852C59.6288 52.2182 59.2774 52.2264 58.7603 52.274C61.721 51.1261 63.7743 50.2213 64.4547 49.4603C65.3373 48.47 65.7645 47.4257 65.6779 46.6075C65.6678 46.0779 65.4639 45.6457 65.076 45.3513C64.7176 45.0042 64.1871 44.8356 63.5543 44.7836C61.9383 44.6852 59.3455 45.5576 55.807 48.0117C50.5505 51.6354 52.2269 52.7805 54.8194 53.0604C49.3398 55.1932 42.2 58.037 35.6401 61.9205C19.1678 71.6506 11.7262 86.4023 10.0416 102.536C7.88813 123.18 15.1923 145.986 24.944 163.263L25.0792 163.449L25.2964 163.435C31.3346 163.058 36.5975 162.755 41.3329 162.461C50.5144 161.95 57.6382 161.503 63.0015 160.907C62.3981 164.258 63.8089 167.38 67.7283 170.139C75.7455 175.832 94.5734 180.001 129.19 181.446C152.94 182.392 170.014 161.559 183.917 144.545C190.078 137.047 195.59 130.255 200.813 126.507C205.617 123.004 209.987 121.346 213.82 120.983C211.539 123.012 210.784 124.986 211.014 126.83C211.338 129.357 213.425 131.544 216.073 133.182C218.709 134.78 221.905 135.826 224.434 136.036C227.142 136.241 229.155 135.524 229.297 133.582C229.55 130.9 228.715 128.112 227.029 125.776C225.911 124.233 224.468 122.957 222.802 122.037C220.955 121.005 218.906 120.39 216.799 120.235C216.488 120.232 216.166 120.183 215.856 120.178C221.705 116.129 234.437 112.054 258.759 109.036L258.692 108.3ZM211.745 126.772C211.515 124.929 212.35 122.933 214.861 120.931C215.495 120.891 216.132 120.898 216.766 120.952C218.77 121.097 220.719 121.678 222.478 122.656C224.099 123.595 225.434 124.787 226.432 126.203C228.033 128.388 228.783 131.022 228.579 133.557C228.48 135.002 226.76 135.504 224.501 135.314C222.054 135.085 218.963 134.096 216.431 132.56C213.951 131.053 211.991 129.01 211.745 126.775L211.745 126.772ZM63.926 160.089C64.1795 159.224 64.5383 158.419 65.0097 157.54C65.6614 156.346 66.5719 155.128 67.6578 153.906C67.9958 154.483 68.3792 155.033 68.8042 155.549C69.6903 156.614 70.6894 157.579 71.7838 158.427C69.9432 159.142 67.3448 159.661 63.926 160.089ZM64.3825 157.177C63.8631 158.125 63.4504 159.128 63.1519 160.168C57.8412 160.794 50.6256 161.221 41.2787 161.776C36.5323 162.029 31.2288 162.343 25.4603 162.737C15.8343 145.603 8.62708 122.993 10.7648 102.618C12.4209 86.7141 19.7837 72.1604 36.0205 62.5381C42.9965 58.4091 50.6756 55.4216 56.3197 53.2448L56.6384 53.1147C57.7271 53.1043 58.8144 53.0348 59.8954 52.9066L59.9753 52.8852C138.075 21.7662 162.078 97.9963 163.863 104.163C153.308 105.485 111.061 116.273 85.8355 129.765C78.7596 133.522 73.0337 137.538 69.6573 141.587C59.3442 123.042 35.4252 74.6542 58.1369 58.8667L57.7537 58.261C34.4487 74.4728 58.8591 123.705 69.2018 142.197L69.0995 142.31C66.3578 145.924 65.5318 149.601 67.3036 153.246C66.0641 154.552 65.0937 155.876 64.3819 157.174L64.3825 157.177ZM68.1659 153.33C69.5368 151.856 71.1781 150.397 73.0661 148.872L73.3635 149.323C75.8019 153.632 75.917 156.214 73.0774 157.814C72.8825 157.911 72.7275 157.994 72.5332 158.093C71.2532 157.107 70.1904 156.107 69.3446 155.093C68.9073 154.535 68.513 153.945 68.1652 153.327L68.1659 153.33ZM73.6461 148.404C75.7292 146.783 78.1226 145.166 80.6817 143.507C106.744 127.043 154.597 111.297 167.938 110.646L202.227 117.627C197.681 119.288 181.97 126.422 164.265 149.683C143.596 176.883 94.1851 167.53 93.5829 167.426C84.0715 164.566 77.4486 161.605 73.193 158.581L73.4191 158.434C76.7191 156.576 76.6589 153.712 73.967 148.94L73.6461 148.404ZM72.6815 148.264C70.8231 149.736 69.2239 151.183 67.8524 152.658C66.367 149.424 67.1579 146.111 69.5648 142.896C70.9735 145.352 72.0415 147.195 72.6815 148.264ZM56.5753 52.3744C54.1316 52.3208 51.8328 51.6515 56.1884 48.6239C59.6148 46.2462 62.0426 45.4162 63.4831 45.5179C63.9801 45.5616 64.3654 45.6799 64.5972 45.8839C64.8189 46.0874 64.9567 46.3666 64.9833 46.6665C65.0256 47.3197 64.667 48.125 63.9264 48.9871C63.2055 49.7564 60.4094 50.8602 56.5753 52.3744Z" fill="#170707"/>
</svg>
