<svg width="556" height="187" viewBox="0 0 556 187" fill="none" xmlns="http://www.w3.org/2000/svg">
<path d="M358.618 35.6562C347.159 37.6603 339.746 42.2177 333.905 52.2612C327.195 63.7978 330.578 77.406 333.905 86.42C342.935 107.295 372.066 149.974 388.56 159.482C401.084 165.987 424.204 128.17 436.561 114.411C447.768 95.4204 462.984 79.841 452.72 60.3265C447.02 49.4887 440.282 43.7274 428.482 40.4005C414.784 36.5389 392.837 47.9914 392.837 47.9914C392.837 47.9914 372.613 33.2087 358.618 35.6562Z" fill="#DD3A1A"/>
<path d="M561.522 97.414C560.382 97.3574 559.243 97.2644 558.101 97.2496C538.293 97.005 518.484 96.7691 498.676 96.5416C493.814 96.4886 488.951 96.5042 484.085 96.539C480.544 96.5656 477.008 96.6319 473.474 96.785C471.977 96.8687 470.489 97.0781 469.026 97.4109C466.061 98.0503 463.608 99.6058 461.664 101.918C460.54 103.256 459.498 104.664 458.455 106.068C455.88 109.537 453.319 113.017 450.772 116.506C450.463 116.939 450.206 117.407 450.005 117.899C448.827 120.73 447.694 123.58 446.492 126.401C446.158 127.182 445.673 127.904 445.211 128.622C444.976 128.98 444.688 129.301 444.357 129.573C443.575 130.226 442.727 130.128 442.133 129.308C441.825 128.882 441.611 128.393 441.291 127.834C440.997 128.136 440.727 128.397 440.476 128.679C432.713 137.266 424.72 145.632 416.496 153.778C413.774 156.463 410.959 159.052 407.885 161.341C405.846 162.86 403.721 164.239 401.373 165.241C399.753 165.932 398.068 166.383 396.299 166.487C396.126 166.498 395.954 166.532 395.699 166.565C395.538 167.785 395.395 168.983 395.223 170.175C394.67 173.987 394.108 177.797 393.537 181.605C393.441 182.203 393.285 182.791 393.069 183.357C392.985 183.581 392.649 183.886 392.485 183.859C392.234 183.813 391.903 183.541 391.833 183.3C391.628 182.618 391.497 181.915 391.443 181.205C391.226 177.717 391.032 174.228 390.862 170.736C390.78 169.028 390.744 167.316 390.685 165.527C390.614 165.468 390.538 165.416 390.458 165.371C387.615 163.998 385.251 161.99 383.071 159.758C380.218 156.841 377.718 153.621 375.258 150.377C366.008 138.178 357.646 125.398 350.344 111.946C346.378 104.671 343.122 97.0316 340.62 89.134C340.547 88.8994 340.443 88.675 340.328 88.3798C339.684 88.4098 339.048 88.4614 338.412 88.468C331.155 88.5365 323.898 88.6004 316.641 88.6596C309.058 88.7118 301.479 88.7509 293.903 88.7768C289.291 88.7946 284.677 88.8007 280.063 88.7949C275.023 88.7971 269.98 88.7935 264.936 88.7842C259.142 88.7745 253.349 88.7598 247.556 88.7401C241.62 88.7232 235.684 88.7064 229.747 88.6895C225.027 88.6808 220.307 88.6766 215.586 88.6771C211.832 88.6777 208.077 88.6848 204.321 88.6982C199.887 88.7115 195.454 88.7399 191.016 88.75C186.475 88.7596 181.934 88.7606 177.391 88.7531C169.775 88.7277 162.158 88.6915 154.541 88.6447C144.923 88.582 135.305 88.4915 125.684 88.4299C117.675 88.3751 109.665 88.3295 101.654 88.2933C94.3253 88.2557 86.9947 88.2181 79.6626 88.1805C72.3677 88.1435 65.0729 88.1039 57.7781 88.0619C49.2325 88.0098 40.6863 87.9541 32.1394 87.8949C30.2438 87.8839 4.49508 87.8932 2.59936 87.8918C2.34944 87.8881 2.08052 87.9355 1.8542 87.8604C1.66098 87.7953 1.51493 87.5886 1.34863 87.4447C1.50329 87.2895 1.63218 87.0632 1.81875 86.9985C2.04199 86.9204 2.31258 86.9769 2.56252 86.9796C9.6425 87.0377 40.5764 87.0955 47.6564 87.1529C55.7012 87.2097 63.7469 87.2579 71.7935 87.2975C79.0518 87.3383 86.3109 87.3749 93.5708 87.4071C101.08 87.4473 108.59 87.4897 116.099 87.5342C124.967 87.5897 133.835 87.6501 142.703 87.7156C151.892 87.7783 161.082 87.8732 170.273 87.9038C179.463 87.9344 188.649 87.9092 197.839 87.8991C206.314 87.889 214.79 87.8587 223.26 87.8485C228.802 87.8442 234.344 87.8634 239.888 87.8815C246.039 87.8969 252.189 87.9273 258.341 87.9352C268.245 87.9489 278.151 87.9534 288.059 87.9486C295.426 87.9431 302.791 87.9212 310.154 87.8829C316.878 87.85 323.599 87.8028 330.317 87.7413C333.249 87.7121 336.179 87.6143 339.109 87.5507C339.39 87.5442 339.67 87.4947 340.022 87.4571C339.954 87.1347 339.912 86.8609 339.837 86.5974C338.497 81.7749 337.505 76.8901 337.101 71.892C336.666 66.5152 336.831 61.1752 338.39 55.9824C340.978 47.3799 346.688 41.7614 355.151 38.8769C360.737 36.9706 366.436 36.8722 372.188 37.9604C375.606 38.6058 378.898 39.6671 382.097 41.027C382.321 41.1225 382.555 41.1999 382.896 41.327C382.98 40.422 383.067 39.592 383.134 38.7595C383.529 33.8879 383.847 29.0097 384.326 24.1469C384.823 19.1042 385.517 14.0839 386.86 9.18025C387.06 8.45702 387.301 7.74533 387.579 7.0484C387.723 6.68404 387.933 6.34913 388.198 6.06024C388.618 5.61226 389.145 5.63188 389.463 6.1551C389.765 6.6381 389.972 7.17365 390.075 7.73363C390.379 9.63322 390.714 11.5386 390.848 13.4539C391.418 21.8719 391.063 30.2922 390.819 38.711C390.763 40.6727 390.72 42.6357 390.647 44.6004C390.63 45.0437 390.743 45.3421 391.159 45.5443C393.409 46.6319 395.632 47.7877 397.902 48.8188C400.73 50.1014 403.587 50.0378 406.41 48.731C407.641 48.1601 408.883 47.6119 410.101 47.0162C415.605 44.3223 421.364 42.5664 427.495 41.9795C438.487 40.927 448.162 43.9858 456.445 51.2115C461.251 55.4031 463.811 60.8704 464.536 67.1739C465.369 74.4431 464.182 81.4594 461.754 88.3148C460.441 92.0233 458.782 95.5767 457.08 99.1145C454.846 103.757 453.237 108.637 451.561 113.495C451.535 113.567 451.525 113.645 451.531 113.722C451.537 113.799 451.559 113.874 451.596 113.942C451.836 113.639 452.087 113.345 452.313 113.032C454.2 110.43 456.072 107.82 457.969 105.225C458.812 104.072 459.678 102.937 460.568 101.82C463.352 98.3261 467.042 96.4526 471.447 96.1164C475.006 95.8479 478.585 95.6869 482.154 95.7089C499.281 95.7965 516.409 95.9276 533.538 96.1023C542.442 96.1822 551.345 96.3124 560.248 96.4159C560.677 96.4223 561.098 96.376 561.523 96.3556L561.522 97.414ZM394.85 165.687C394.933 165.153 395.002 164.812 395.04 164.465C395.244 162.55 395.462 160.635 395.636 158.718C396.212 152.323 396.778 145.928 397.332 139.532C397.591 136.547 397.782 133.557 397.991 130.568C398.32 125.906 398.628 121.243 398.967 116.582C399.243 112.776 399.509 108.967 399.872 105.168C400.003 103.787 400.291 102.426 400.73 101.11C401.179 99.7681 402.303 99.6423 403.156 100.768C403.637 101.432 404.042 102.148 404.363 102.903C404.931 104.172 405.405 105.482 405.948 106.763C406.229 107.457 406.558 108.131 406.932 108.781C407.506 109.735 408.116 109.812 408.916 109.015C409.427 108.515 409.872 107.954 410.242 107.343C411.113 105.87 411.969 104.383 412.732 102.853C415.586 97.1316 417.885 91.172 420.289 85.2547C422.475 79.868 424.718 74.505 427.021 69.1657C427.622 67.7637 428.424 66.4366 429.238 65.1407C429.67 64.487 430.212 63.9127 430.84 63.4429C431.575 62.8732 432.43 63.0049 433.052 63.7008C433.414 64.0953 433.708 64.5476 433.921 65.0389C434.31 65.9927 434.689 66.9658 434.926 67.9666C436.161 73.186 436.694 78.5139 437.265 83.8316C437.711 88.0162 438.052 92.2121 438.448 96.4014C438.923 101.443 439.371 106.485 439.899 111.528C440.347 115.747 440.901 119.956 441.418 124.167C441.481 124.681 441.618 125.187 441.758 125.862C442.145 125.454 442.397 125.209 442.623 124.943C444.22 123.067 445.769 121.147 447.416 119.316C448.927 117.638 449.928 115.744 450.622 113.594C452.721 107.107 455.19 100.764 458.21 94.6384C459.265 92.5008 460.113 90.253 460.929 88.0101C463.363 81.3155 464.522 74.4283 463.696 67.3017C462.981 61.1462 460.467 55.82 455.746 51.7443C447.203 44.3669 437.252 41.5836 426.064 43.0166C420.652 43.7085 415.559 45.3651 410.672 47.736C409.356 48.3752 408.021 48.9821 406.688 49.5825C403.691 50.9414 400.659 50.9927 397.655 49.6625C395.665 48.7823 393.727 47.7829 391.764 46.8442C391.427 46.6817 391.088 46.5213 390.617 46.2915C390.609 46.8592 390.603 47.249 390.597 47.6389C390.503 50.9927 390.381 54.3451 390.316 57.7047C389.971 75.5084 389.464 93.3119 390.058 111.121C390.229 116.184 390.365 121.248 390.53 126.311C390.658 130.198 390.826 134.082 390.942 137.969C391.032 140.999 391.066 144.033 391.128 147.064C391.236 151.88 391.348 156.695 391.463 161.51C391.488 162.611 391.517 163.711 391.546 164.924L394.85 165.687ZM402.093 100.875L401.728 100.941C401.54 101.462 401.267 101.97 401.179 102.507C400.91 104.161 400.643 105.82 400.502 107.485C400.231 110.684 400.054 113.89 399.828 117.092C399.421 122.856 399.01 128.619 398.594 134.381C398.298 138.437 398.026 142.494 397.662 146.543C397.111 152.652 396.486 158.753 395.896 164.858C395.874 165.091 395.889 165.326 395.886 165.563C396.012 165.589 396.14 165.606 396.268 165.614C396.446 165.609 396.624 165.585 396.805 165.565C399.009 165.326 401.029 164.542 402.958 163.493C405.29 162.223 407.421 160.666 409.462 158.983C413.14 155.962 416.483 152.586 419.83 149.214C426.852 142.14 433.697 134.899 440.365 127.493C440.756 127.056 441.033 126.672 440.912 125.989C440.485 123.603 440.061 121.211 439.803 118.804C439.071 111.996 438.426 105.178 437.736 98.3662C436.988 90.9515 436.286 83.531 435.435 76.1277C435.102 73.2303 434.468 70.3659 433.874 67.5053C433.682 66.5801 433.258 65.675 432.808 64.8381C432.227 63.7667 431.602 63.6857 430.808 64.5941C430.097 65.393 429.487 66.2766 428.993 67.2249C427.81 69.5834 426.647 71.9594 425.639 74.3955C423.131 80.458 420.738 86.5683 418.251 92.643C416.389 97.1993 414.468 101.735 412.051 106.036C411.437 107.164 410.723 108.234 409.916 109.233C408.432 111.019 406.977 110.841 405.927 108.78C405.328 107.607 404.879 106.359 404.352 105.15C403.897 104.104 403.454 103.051 402.949 102.029C402.737 101.615 402.381 101.263 402.093 100.879L402.093 100.875ZM390.604 164.502C390.611 164.037 390.621 163.829 390.617 163.619C390.575 161.728 390.526 159.838 390.487 157.948C390.394 153.31 390.333 148.672 390.207 144.035C390.053 138.401 389.838 132.768 389.66 127.135C389.499 122.107 389.311 117.08 389.196 112.052C389.055 105.88 388.876 99.7083 388.899 93.537C388.932 84.5078 389.106 75.4784 389.27 66.45C389.387 59.9566 389.57 53.4631 389.765 46.9709C389.79 46.125 389.622 45.5986 388.783 45.2315C387.444 44.646 386.167 43.921 384.859 43.262C384.551 43.1064 384.228 42.9827 383.864 42.8187C383.814 42.9831 383.775 43.1508 383.749 43.3205C383.657 44.8189 383.586 46.3177 383.479 47.8073C383.072 53.5358 382.673 59.2644 382.228 64.9891C381.976 68.2249 381.661 71.4565 381.342 74.6859C380.877 79.4062 380.396 84.1252 379.9 88.8428C379.577 91.9276 379.255 95.0145 378.872 98.0919C378.75 99.0393 378.478 99.9747 378.179 100.885C378.093 101.146 377.686 101.431 377.401 101.459C377.186 101.479 376.85 101.149 376.723 100.897C376.514 100.483 376.379 100.036 376.324 99.5753C376.116 97.6974 375.957 95.8203 375.764 93.9352C375.724 93.5308 375.623 93.1318 375.5 92.4551C375.033 93.0481 374.688 93.3975 374.447 93.8096C373.889 94.7655 373.404 95.7599 372.848 96.7147C372.526 97.267 372.181 97.8253 371.745 98.2848C370.94 99.1299 370.024 99.0413 369.442 98.0513C369.158 97.557 368.966 97.0156 368.876 96.4531C368.693 95.3288 368.599 94.1897 368.484 93.0546C368.35 91.7424 368.256 90.4255 368.092 89.1183C368.04 88.689 367.822 88.2851 367.622 87.6972C367.101 88.1512 366.675 88.4244 366.376 88.8003C365.447 89.9745 364.562 91.1837 363.668 92.3852C362.817 93.5306 362.024 94.7176 361.11 95.817C360.604 96.4166 360.001 96.9275 359.326 97.3289C358.432 97.8619 357.664 97.5934 357.184 96.6542C356.931 96.1433 356.742 95.6029 356.623 95.0454C356.139 92.9246 355.747 90.7816 355.216 88.674C354.628 86.362 353.939 84.0753 353.253 81.7886C353.096 81.2657 352.921 80.6781 352.293 80.4728C351.598 80.9156 351.487 80.9964 351.093 81.7972C350.618 82.7543 350.19 83.7378 349.747 84.7114C349.069 86.2011 347.937 87.1645 346.365 87.6072C345.818 87.7702 345.261 87.8979 344.698 87.9894C343.609 88.15 342.513 88.2633 341.409 88.398C341.414 88.518 341.428 88.6375 341.451 88.7553C341.571 89.1653 341.694 89.5753 341.828 89.9822C344.487 98.0153 347.896 105.781 352.009 113.178C358.302 124.52 365.336 135.4 372.997 145.872C376.054 150.052 379.169 154.189 382.657 158.029C384.366 159.912 386.207 161.655 388.313 163.094C388.979 163.551 389.693 163.948 390.604 164.505L390.604 164.502ZM377.472 100.138C378.623 97.1476 383.34 45.5127 382.759 42.2892C382.46 42.1497 382.141 41.9929 381.814 41.853C378.254 40.3303 374.583 39.1927 370.751 38.5818C365.286 37.711 359.923 38.0245 354.705 39.9502C347.211 42.7194 342.055 47.8084 339.5 55.4193C338.437 58.5873 337.954 61.869 337.837 65.1957C337.627 71.1157 338.373 76.9395 339.771 82.6862C340.159 84.2732 340.593 85.8501 341.039 87.5547C342.544 87.3489 343.956 87.19 345.356 86.9558C347.237 86.641 348.511 85.5715 349.207 83.781C349.558 82.8852 349.965 82.0121 350.426 81.167C350.68 80.6976 351.016 80.2765 351.416 79.923C352.052 79.3668 352.766 79.4342 353.302 80.085C353.62 80.4711 353.868 80.9099 354.034 81.3814C354.548 82.8642 355.079 84.3461 355.451 85.8654C356.123 88.5996 356.675 91.3631 357.299 94.1106C357.445 94.8082 357.65 95.4921 357.912 96.1551C358.156 96.7426 358.496 96.8441 359.017 96.493C359.529 96.169 359.99 95.7691 360.383 95.307C361.274 94.1933 362.089 93.0216 362.936 91.873C363.762 90.754 364.567 89.6186 365.425 88.5248C365.78 88.0762 366.195 87.6787 366.658 87.3433C367.538 86.7029 368.312 86.949 368.695 87.952C368.824 88.2851 368.912 88.6324 368.957 88.9865C369.09 90.1187 369.193 91.2547 369.309 92.3888C369.443 93.7009 369.543 95.0169 369.73 96.3212C369.819 96.9375 369.953 97.5972 370.601 97.9679C371.256 97.7569 371.542 97.2031 371.838 96.6857C372.42 95.6638 372.932 94.6002 373.539 93.5925C373.88 93.007 374.301 92.4723 374.791 92.0043C375.43 91.416 376.084 91.6164 376.369 92.4412C376.509 92.8829 376.595 93.34 376.624 93.8023C376.752 95.2215 376.832 96.6464 376.969 98.0658C377.045 98.7665 377.065 99.4856 377.472 100.144L377.472 100.138ZM389.741 44.7262C389.776 44.4289 389.808 44.2612 389.813 44.092C389.975 37.3893 390.194 30.6875 390.27 23.9835C390.311 20.4574 390.168 16.9244 389.981 13.4014C389.886 11.5938 389.527 9.79947 389.258 8.00322C389.199 7.60275 389.015 7.2208 388.889 6.83112L388.615 6.81954C388.326 7.64976 387.992 8.46646 387.755 9.31139C386.767 12.8867 386.077 16.5378 385.695 20.227C385.097 25.8252 384.63 31.4382 384.127 37.0463C383.988 38.604 383.92 40.1692 383.819 41.7436L389.741 44.7262ZM391.697 165.917C391.371 168.577 392.069 180.737 392.629 181.738C393.575 176.668 394.169 171.624 394.78 166.553L391.697 165.917ZM448.129 119.841L442.003 127.024C442.276 127.61 442.486 128.182 442.794 128.695C443.102 129.209 443.419 129.24 443.844 128.85C444.185 128.537 444.482 128.179 444.727 127.786C446.25 125.321 447.245 122.616 448.129 119.842L448.129 119.841Z" fill="#170707"/>
</svg>
