<svg width="539" height="186" viewBox="0 0 539 186" fill="none" xmlns="http://www.w3.org/2000/svg">
<path d="M334.768 35.3016C323.308 37.3057 315.895 41.8631 310.054 51.9066C303.345 63.4432 306.728 77.0513 310.054 86.0654C319.084 106.94 348.215 149.62 364.709 159.127C377.233 165.633 400.354 127.815 412.71 114.057C423.917 95.0658 439.133 79.4864 428.869 59.9719C423.169 49.1341 416.432 43.3728 404.631 40.0459C390.933 36.1842 368.986 47.6367 368.986 47.6367C368.986 47.6367 348.762 32.8541 334.768 35.3016Z" fill="#DD3A1A"/>
<path d="M537.672 97.0594C536.531 97.0028 535.392 96.9098 534.251 96.895C514.442 96.6504 494.634 96.4145 474.825 96.187C469.964 96.134 465.1 96.1496 460.234 96.1843C456.693 96.211 453.157 96.2773 449.623 96.4304C448.126 96.5141 446.638 96.7235 445.176 97.0563C442.21 97.6957 439.757 99.2512 437.813 101.563C436.689 102.901 435.647 104.31 434.605 105.714C432.03 109.183 429.468 112.662 426.921 116.151C426.612 116.585 426.355 117.052 426.155 117.544C424.976 120.375 423.843 123.225 422.641 126.046C422.307 126.828 421.823 127.549 421.36 128.267C421.125 128.626 420.837 128.946 420.506 129.219C419.724 129.871 418.877 129.773 418.283 128.953C417.975 128.528 417.76 128.038 417.44 127.48C417.146 127.782 416.876 128.042 416.625 128.324C408.863 136.911 400.869 145.278 392.645 153.424C389.923 156.108 387.108 158.698 384.034 160.986C381.995 162.505 379.87 163.884 377.522 164.886C375.902 165.578 374.217 166.028 372.448 166.133C372.275 166.143 372.103 166.177 371.848 166.211C371.688 167.431 371.544 168.628 371.372 169.82C370.819 173.632 370.257 177.442 369.686 181.25C369.591 181.849 369.434 182.436 369.218 183.002C369.134 183.226 368.798 183.532 368.634 183.505C368.383 183.458 368.052 183.186 367.983 182.945C367.778 182.263 367.647 181.561 367.592 180.851C367.375 177.363 367.181 173.873 367.011 170.381C366.929 168.673 366.893 166.962 366.834 165.172C366.763 165.114 366.687 165.062 366.607 165.016C363.764 163.644 361.4 161.635 359.22 159.403C356.367 156.487 353.867 153.267 351.407 150.023C342.157 137.824 333.796 125.043 326.493 111.591C322.527 104.316 319.271 96.677 316.77 88.7794C316.696 88.5448 316.592 88.3204 316.477 88.0252C315.833 88.0552 315.197 88.1068 314.561 88.1134C307.304 88.1819 300.047 88.2458 292.79 88.305C285.207 88.3572 277.628 88.3963 270.052 88.4222C265.44 88.44 260.827 88.4461 256.212 88.4403C251.172 88.4425 246.129 88.4389 241.085 88.4296C235.292 88.4199 229.498 88.4052 223.705 88.3855C217.769 88.3686 211.833 88.3518 205.897 88.3349C201.176 88.3262 196.456 88.322 191.735 88.3225C187.981 88.3231 184.226 88.3302 180.47 88.3436C176.037 88.3569 171.603 88.3853 167.166 88.3954C162.624 88.405 158.083 88.406 153.54 88.3985C145.924 88.3731 138.307 88.3369 130.69 88.2901C121.072 88.2274 111.454 88.1369 101.834 88.0753C93.8237 88.0205 85.8137 87.9749 77.8036 87.9387C70.4744 87.9011 63.1438 87.8635 55.8118 87.8259C48.5169 87.7889 41.2221 87.7493 33.9273 87.7073C25.3817 87.6552 16.8354 87.5995 8.28852 87.5403C6.39295 87.5293 4.49815 87.5386 2.60243 87.5372C2.35251 87.5335 2.08359 87.5809 1.85727 87.5057C1.66405 87.4407 1.518 87.2339 1.3517 87.0901C1.50636 86.9349 1.63525 86.7086 1.82182 86.6439C2.04506 86.5658 2.31565 86.6223 2.56559 86.625C9.64557 86.6831 16.7256 86.7409 23.8055 86.7983C31.8504 86.8551 39.8961 86.9033 47.9426 86.9429C55.201 86.9837 62.4601 87.0203 69.72 87.0525C77.2293 87.0927 84.7387 87.1351 92.248 87.1796C101.116 87.2351 109.984 87.2955 118.852 87.361C128.041 87.4237 137.231 87.5185 146.422 87.5492C155.612 87.5798 164.799 87.5546 173.988 87.5445C182.463 87.5344 190.939 87.5041 199.409 87.4939C204.951 87.4896 210.493 87.5088 216.037 87.5269C222.188 87.5423 228.338 87.5727 234.49 87.5806C244.394 87.5943 254.3 87.5988 264.208 87.594C271.575 87.5885 278.94 87.5666 286.303 87.5283C293.027 87.4954 299.748 87.4483 306.466 87.3867C309.398 87.3575 312.328 87.2596 315.258 87.1961C315.539 87.1896 315.819 87.1401 316.171 87.1025C316.103 86.7801 316.061 86.5063 315.987 86.2428C314.647 81.4203 313.654 76.5355 313.25 71.5374C312.815 66.1606 312.98 60.8206 314.539 55.6278C317.127 47.0253 322.837 41.4068 331.3 38.5223C336.887 36.616 342.585 36.5176 348.337 37.6058C351.756 38.2512 355.047 39.3125 358.246 40.6724C358.471 40.7679 358.704 40.8452 359.045 40.9724C359.129 40.0674 359.217 39.2374 359.284 38.4049C359.678 33.5333 359.996 28.6551 360.475 23.7922C360.972 18.7496 361.666 13.7292 363.009 8.82564C363.21 8.10241 363.45 7.39072 363.729 6.69379C363.873 6.32943 364.082 5.99452 364.347 5.70563C364.767 5.25765 365.295 5.27727 365.612 5.80049C365.914 6.28349 366.122 6.81904 366.225 7.37902C366.528 9.27861 366.863 11.184 366.998 13.0993C367.568 21.5173 367.213 29.9376 366.968 38.3564C366.912 40.3181 366.869 42.2811 366.796 44.2458C366.78 44.6891 366.892 44.9875 367.308 45.1897C369.558 46.2773 371.781 47.4331 374.051 48.4642C376.879 49.7468 379.736 49.6832 382.559 48.3764C383.79 47.8055 385.032 47.2573 386.25 46.6616C391.754 43.9677 397.513 42.2118 403.644 41.6249C414.636 40.5724 424.311 43.6312 432.594 50.8569C437.4 55.0485 439.96 60.5158 440.685 66.8193C441.518 74.0885 440.331 81.1048 437.903 87.9602C436.59 91.6687 434.931 95.2221 433.23 98.7599C430.996 103.403 429.387 108.282 427.71 113.14C427.684 113.213 427.674 113.29 427.68 113.367C427.686 113.445 427.708 113.519 427.745 113.587C427.985 113.284 428.236 112.99 428.462 112.678C430.349 110.076 432.221 107.465 434.118 104.871C434.961 103.718 435.827 102.583 436.717 101.465C439.502 97.9715 443.191 96.098 447.596 95.7618C451.155 95.4934 454.735 95.3323 458.304 95.3543C475.43 95.4419 492.558 95.573 509.688 95.7477C518.591 95.8276 527.494 95.9578 536.397 96.0613C536.826 96.0677 537.247 96.0214 537.672 96.001L537.672 97.0594ZM370.999 165.332C371.082 164.798 371.151 164.457 371.189 164.111C371.393 162.195 371.612 160.281 371.785 158.364C372.362 151.969 372.927 145.574 373.481 139.178C373.74 136.193 373.931 133.202 374.141 130.213C374.47 125.552 374.777 120.889 375.116 116.227C375.392 112.421 375.658 108.612 376.021 104.814C376.153 103.433 376.441 102.072 376.879 100.756C377.328 99.4135 378.453 99.2877 379.305 100.413C379.786 101.078 380.191 101.794 380.512 102.548C381.08 103.818 381.554 105.127 382.097 106.408C382.378 107.103 382.707 107.777 383.081 108.426C383.655 109.38 384.265 109.457 385.066 108.66C385.576 108.161 386.021 107.599 386.391 106.988C387.262 105.515 388.118 104.028 388.881 102.498C391.735 96.777 394.034 90.8174 396.439 84.9001C398.624 79.5134 400.868 74.1503 403.17 68.8111C403.771 67.4091 404.573 66.082 405.387 64.786C405.819 64.1324 406.361 63.5581 406.989 63.0883C407.725 62.5186 408.579 62.6502 409.201 63.3462C409.564 63.7407 409.857 64.193 410.07 64.6843C410.459 65.6381 410.838 66.6111 411.075 67.612C412.31 72.8314 412.843 78.1593 413.414 83.477C413.86 87.6616 414.201 91.8575 414.597 96.0467C415.072 101.089 415.52 106.13 416.049 111.173C416.497 115.392 417.05 119.601 417.567 123.812C417.631 124.326 417.767 124.832 417.907 125.508C418.294 125.099 418.546 124.854 418.773 124.589C420.369 122.712 421.918 120.793 423.565 118.962C425.076 117.283 426.077 115.389 426.771 113.24C428.87 106.752 431.339 100.409 434.359 94.2838C435.414 92.1462 436.263 89.8984 437.078 87.6555C439.512 80.9609 440.672 74.0737 439.845 66.9471C439.13 60.7916 436.616 55.4654 431.895 51.3897C423.353 44.0123 413.401 41.229 402.213 42.662C396.801 43.3539 391.708 45.0105 386.821 47.3814C385.505 48.0206 384.17 48.6275 382.837 49.2279C379.841 50.5867 376.808 50.6381 373.804 49.3079C371.815 48.4277 369.876 47.4283 367.914 46.4896C367.576 46.3271 367.237 46.1667 366.766 45.9369C366.758 46.5046 366.752 46.8944 366.746 47.2843C366.652 50.6381 366.531 53.9905 366.465 57.3501C366.12 75.1538 365.614 92.9573 366.207 110.766C366.378 115.83 366.514 120.893 366.679 125.957C366.807 129.843 366.975 133.728 367.091 137.614C367.181 140.645 367.215 143.678 367.278 146.71C367.385 151.526 367.497 156.341 367.612 161.155C367.637 162.256 367.666 163.357 367.695 164.57L370.999 165.332ZM378.242 100.521L377.877 100.586C377.689 101.107 377.416 101.615 377.328 102.153C377.059 103.806 376.792 105.466 376.651 107.131C376.381 110.33 376.203 113.535 375.977 116.737C375.57 122.501 375.159 128.264 374.744 134.027C374.447 138.082 374.175 142.139 373.812 146.189C373.26 152.298 372.635 158.399 372.045 164.504C372.023 164.736 372.038 164.972 372.035 165.209C372.161 165.234 372.289 165.251 372.417 165.259C372.595 165.254 372.773 165.23 372.954 165.21C375.158 164.971 377.178 164.187 379.107 163.138C381.439 161.869 383.57 160.312 385.611 158.628C389.289 155.607 392.632 152.231 395.979 148.859C403.001 141.785 409.846 134.545 416.514 127.138C416.905 126.701 417.183 126.318 417.061 125.635C416.634 123.249 416.21 120.857 415.952 118.449C415.22 111.641 414.575 104.823 413.885 98.0116C413.138 90.5969 412.435 83.1764 411.584 75.7731C411.251 72.8757 410.617 70.0113 410.023 67.1507C409.831 66.2255 409.407 65.3204 408.957 64.4835C408.376 63.4121 407.751 63.3311 406.958 64.2395C406.246 65.0384 405.636 65.922 405.142 66.8703C403.959 69.2288 402.796 71.6048 401.789 74.0409C399.28 80.1034 396.887 86.2137 394.401 92.2884C392.538 96.8447 390.618 101.381 388.2 105.681C387.586 106.809 386.872 107.879 386.065 108.878C384.581 110.665 383.127 110.487 382.076 108.425C381.477 107.253 381.028 106.004 380.501 104.796C380.046 103.75 379.603 102.696 379.098 101.674C378.887 101.26 378.53 100.909 378.242 100.524L378.242 100.521ZM366.753 164.148C366.76 163.683 366.771 163.474 366.766 163.264C366.725 161.374 366.675 159.483 366.636 157.593C366.543 152.955 366.482 148.318 366.356 143.68C366.202 138.046 365.987 132.414 365.809 126.78C365.648 121.753 365.46 116.726 365.345 111.697C365.204 105.526 365.025 99.3537 365.048 93.1824C365.082 84.1532 365.256 75.1238 365.419 66.0954C365.536 59.602 365.72 53.1085 365.914 46.6163C365.939 45.7703 365.771 45.244 364.932 44.8769C363.594 44.2914 362.316 43.5664 361.008 42.9074C360.701 42.7518 360.377 42.6281 360.013 42.4641C359.963 42.6285 359.924 42.7962 359.898 42.9659C359.806 44.4643 359.735 45.9631 359.629 47.4527C359.221 53.1812 358.822 58.9098 358.377 64.6345C358.125 67.8703 357.81 71.1019 357.491 74.3313C357.026 79.0516 356.546 83.7706 356.049 88.4882C355.726 91.573 355.405 94.6599 355.021 97.7373C354.899 98.6847 354.627 99.6201 354.328 100.531C354.243 100.792 353.835 101.076 353.55 101.104C353.335 101.124 352.999 100.795 352.872 100.542C352.663 100.128 352.528 99.6809 352.473 99.2207C352.265 97.3428 352.106 95.4657 351.914 93.5806C351.873 93.1762 351.772 92.7772 351.649 92.1005C351.182 92.6935 350.837 93.0429 350.596 93.455C350.039 94.4109 349.553 95.4053 348.997 96.3601C348.675 96.9124 348.33 97.4707 347.894 97.9302C347.089 98.7753 346.173 98.6867 345.591 97.6967C345.307 97.2024 345.116 96.661 345.025 96.0985C344.842 94.9742 344.748 93.8351 344.633 92.7C344.499 91.3878 344.405 90.0709 344.241 88.7637C344.189 88.3344 343.972 87.9305 343.771 87.3426C343.251 87.7966 342.824 88.0698 342.525 88.4457C341.596 89.6199 340.711 90.8291 339.818 92.0306C338.966 93.176 338.174 94.363 337.259 95.4624C336.753 96.062 336.15 96.5729 335.475 96.9743C334.581 97.5073 333.814 97.2388 333.333 96.2996C333.08 95.7887 332.891 95.2483 332.772 94.6908C332.288 92.57 331.896 90.427 331.365 88.3194C330.777 86.0074 330.088 83.7207 329.402 81.434C329.245 80.9111 329.07 80.3235 328.442 80.1182C327.747 80.561 327.636 80.6418 327.243 81.4426C326.767 82.3997 326.339 83.3832 325.896 84.3568C325.218 85.8465 324.086 86.8099 322.514 87.2526C321.967 87.4156 321.411 87.5433 320.847 87.6348C319.758 87.7954 318.662 87.9087 317.558 88.0434C317.563 88.1634 317.577 88.2829 317.6 88.4007C317.72 88.8107 317.843 89.2207 317.977 89.6276C320.636 97.6606 324.045 105.427 328.158 112.823C334.451 124.165 341.485 135.046 349.146 145.518C352.203 149.697 355.319 153.835 358.806 157.675C360.515 159.558 362.356 161.3 364.462 162.739C365.128 163.197 365.842 163.593 366.753 164.151L366.753 164.148ZM353.621 99.783C354.772 96.793 359.489 45.1581 358.908 41.9346C358.609 41.7951 358.29 41.6383 357.963 41.4984C354.403 39.9757 350.732 38.8381 346.9 38.2272C341.435 37.3564 336.073 37.6699 330.855 39.5956C323.36 42.3648 318.204 47.4538 315.649 55.0647C314.586 58.2327 314.103 61.5144 313.986 64.8411C313.776 70.761 314.522 76.5849 315.92 82.3316C316.308 83.9186 316.742 85.4955 317.188 87.2001C318.693 86.9943 320.105 86.8354 321.505 86.6012C323.387 86.2864 324.66 85.2169 325.356 83.4264C325.707 82.5306 326.114 81.6575 326.575 80.8124C326.83 80.343 327.165 79.9219 327.566 79.5684C328.201 79.0122 328.915 79.0796 329.451 79.7304C329.769 80.1165 330.017 80.5553 330.183 81.0268C330.697 82.5096 331.228 83.9915 331.6 85.5108C332.272 88.245 332.824 91.0085 333.448 93.756C333.594 94.4536 333.8 95.1375 334.061 95.8005C334.305 96.388 334.646 96.4895 335.166 96.1384C335.679 95.8144 336.139 95.4145 336.532 94.9524C337.423 93.8387 338.239 92.667 339.085 91.5184C339.912 90.3994 340.716 89.264 341.574 88.1702C341.929 87.7216 342.344 87.3241 342.808 86.9887C343.687 86.3483 344.461 86.5944 344.845 87.5974C344.973 87.9304 345.061 88.2778 345.106 88.6319C345.239 89.7641 345.343 90.9001 345.459 92.0342C345.593 93.3463 345.692 94.6623 345.88 95.9666C345.968 96.5829 346.102 97.2426 346.75 97.6133C347.405 97.4023 347.691 96.8485 347.987 96.3311C348.569 95.3092 349.081 94.2456 349.688 93.2379C350.029 92.6524 350.45 92.1177 350.94 91.6497C351.579 91.0614 352.233 91.2618 352.518 92.0866C352.658 92.5283 352.744 92.9854 352.773 93.4477C352.901 94.8669 352.981 96.2918 353.118 97.7112C353.194 98.4119 353.214 99.131 353.621 99.7894L353.621 99.783ZM365.891 44.3716C365.925 44.0743 365.958 43.9066 365.962 43.7374C366.124 37.0347 366.343 30.3328 366.419 23.6289C366.46 20.1028 366.317 16.5698 366.13 13.0468C366.035 11.2392 365.677 9.44486 365.407 7.64861C365.348 7.24814 365.165 6.86619 365.039 6.47651L364.764 6.46493C364.475 7.29515 364.141 8.11186 363.904 8.95678C362.916 12.5321 362.227 16.1832 361.844 19.8724C361.246 25.4706 360.779 31.0836 360.276 36.6917C360.137 38.2494 360.069 39.8146 359.968 41.389L365.891 44.3716ZM367.847 165.562C367.521 168.222 368.218 180.382 368.778 181.384C369.724 176.313 370.318 171.269 370.929 166.198L367.847 165.562ZM424.278 119.487L418.152 126.67C418.425 127.255 418.635 127.827 418.943 128.341C419.251 128.854 419.568 128.886 419.993 128.496C420.334 128.182 420.631 127.824 420.876 127.431C422.4 124.966 423.395 122.261 424.278 119.488L424.278 119.487Z" fill="#FFFCFB"/>
<path fill-rule="evenodd" clip-rule="evenodd" d="M435.633 54.0433C434.742 52.9154 433.731 51.853 432.595 50.862C424.311 43.6362 414.637 40.5773 403.645 41.6296C397.513 42.2165 391.755 43.9723 386.251 46.6661C385.422 47.0716 384.581 47.4551 383.741 47.8388C383.347 48.0187 382.953 48.1986 382.559 48.3809C379.737 49.6876 376.88 49.7512 374.051 48.4685C372.588 47.8035 371.143 47.0867 369.699 46.3697C368.903 45.975 368.108 45.5802 367.309 45.194C366.892 44.9918 366.78 44.6934 366.796 44.2501C366.847 42.8759 366.884 41.5026 366.92 40.1299C366.936 39.54 366.952 38.9503 366.969 38.3606C366.995 37.4622 367.022 36.5637 367.049 35.6652C367.278 28.1447 367.507 20.6232 366.998 13.1036C366.881 11.4438 366.614 9.7915 366.347 8.14393C366.306 7.89027 366.265 7.63673 366.225 7.38329C366.122 6.8233 365.914 6.28775 365.612 5.80475C365.295 5.28153 364.767 5.2619 364.347 5.70987C364.082 5.99876 363.873 6.33367 363.729 6.69802C363.45 7.39495 363.21 8.10664 363.009 8.82987C361.666 13.7335 360.972 18.7538 360.476 23.7964C360.15 27.0978 359.899 30.4061 359.648 33.7147C359.529 35.2797 359.411 36.8447 359.284 38.4091C359.24 38.961 359.186 39.5119 359.131 40.0842C359.102 40.3752 359.074 40.6716 359.045 40.9766C358.928 40.9328 358.823 40.8949 358.727 40.8602C358.545 40.794 358.394 40.7392 358.246 40.6766C355.048 39.3167 351.756 38.2553 348.338 37.6099C342.585 36.5216 336.887 36.62 331.3 38.5262C323.37 41.2291 317.857 46.333 315.065 54.0433H316.016C318.68 46.9984 323.702 42.2423 330.855 39.5994C336.073 37.6738 341.436 37.3604 346.901 38.2313C350.732 38.8422 354.404 39.9798 357.963 41.5026C358.198 41.6028 358.428 41.7117 358.65 41.8167C358.737 41.8582 358.824 41.8992 358.909 41.9387C359.072 42.848 358.815 47.6089 358.335 54.0433H359.161C359.26 52.6631 359.358 51.2827 359.456 49.9024C359.513 49.0872 359.571 48.2721 359.629 47.4569C359.697 46.5157 359.75 45.5709 359.803 44.6248C359.834 44.0735 359.865 43.5218 359.899 42.9701C359.925 42.8004 359.963 42.6327 360.013 42.4683C360.148 42.529 360.278 42.5842 360.403 42.6376C360.615 42.7283 360.815 42.8136 361.009 42.9117C361.431 43.1243 361.849 43.3438 362.268 43.5633C363.147 44.024 364.026 44.4846 364.933 44.8812C365.772 45.2483 365.94 45.7746 365.914 46.6206C365.84 49.0947 365.768 51.5689 365.7 54.0433H366.546C366.577 52.8941 366.613 51.7454 366.648 50.5969C366.682 49.4941 366.716 48.3914 366.747 47.2886L366.767 45.9412C367.097 46.1024 367.362 46.2294 367.608 46.347C367.712 46.3971 367.813 46.4454 367.914 46.4939C368.568 46.807 369.22 47.1268 369.872 47.4467C371.175 48.086 372.479 48.7256 373.805 49.3122C376.808 50.6425 379.841 50.5912 382.837 49.2324C384.17 48.632 385.505 48.0251 386.822 47.3859C391.708 45.015 396.801 43.3586 402.213 42.6667C413.402 41.2338 423.353 44.0172 431.896 51.3947C432.86 52.2267 433.731 53.1107 434.515 54.0433H435.633ZM365.926 44.1019C365.915 44.1807 365.903 44.2701 365.891 44.3759L359.968 41.3932C360.001 40.8897 360.03 40.3872 360.059 39.8856C360.12 38.8186 360.182 37.7555 360.276 36.6959C360.384 35.4927 360.49 34.2892 360.597 33.0857C360.986 28.6799 361.375 24.2737 361.844 19.8767C362.227 16.1874 362.916 12.5363 363.904 8.96102C364.066 8.38353 364.273 7.81922 364.481 7.25476C364.577 6.99337 364.673 6.73195 364.764 6.46918L365.039 6.48076C365.078 6.60327 365.124 6.72501 365.169 6.8468C365.268 7.11242 365.367 7.3783 365.407 7.65287C365.475 8.10567 365.549 8.55836 365.622 9.01116C365.841 10.3546 366.059 11.6991 366.131 13.0511C366.317 16.5741 366.46 20.1071 366.419 23.6331C366.365 28.4269 366.238 33.2195 366.11 38.0121C366.06 39.922 366.009 41.8318 365.963 43.7417C365.96 43.8507 365.945 43.9591 365.926 44.1019Z" fill="#170707"/>
</svg>
