<svg width="537" height="179" viewBox="0 0 537 179" fill="none" xmlns="http://www.w3.org/2000/svg">
<path d="M536.364 92.4129C535.224 92.3534 534.086 92.2575 532.946 92.2397C513.153 91.9442 493.36 91.6573 473.568 91.3789C468.71 91.3134 463.85 91.3164 458.988 91.3386C455.45 91.3561 451.916 91.4133 448.384 91.5573C446.888 91.6371 445.401 91.8426 443.939 92.1716C440.974 92.8032 438.519 94.3519 436.57 96.6582C435.444 97.9934 434.398 99.3986 433.353 100.799C430.771 104.261 428.203 107.733 425.649 111.215C425.339 111.647 425.081 112.114 424.879 112.606C423.695 115.433 422.555 118.279 421.347 121.096C421.011 121.877 420.525 122.596 420.061 123.313C419.825 123.671 419.537 123.991 419.205 124.262C418.422 124.913 417.576 124.812 416.984 123.991C416.677 123.565 416.464 123.075 416.146 122.516C415.851 122.817 415.581 123.077 415.329 123.358C407.551 131.923 399.542 140.267 391.303 148.389C388.576 151.066 385.757 153.648 382.68 155.928C380.638 157.441 378.511 158.814 376.162 159.81C374.542 160.497 372.857 160.943 371.089 161.043C370.916 161.053 370.744 161.087 370.49 161.12C370.326 162.339 370.179 163.536 370.004 164.727C369.442 168.537 368.87 172.344 368.29 176.15C368.193 176.748 368.035 177.335 367.818 177.9C367.733 178.124 367.397 178.428 367.233 178.401C366.982 178.354 366.652 178.081 366.584 177.84C366.381 177.158 366.252 176.455 366.199 175.745C365.991 172.257 365.807 168.768 365.645 165.276C365.568 163.569 365.537 161.858 365.482 160.068C365.411 160.01 365.335 159.957 365.255 159.912C362.418 158.532 360.061 156.518 357.889 154.282C355.045 151.358 352.555 148.133 350.105 144.883C340.894 132.663 332.572 119.865 325.31 106.397C321.365 99.1136 318.131 91.4681 315.652 83.566C315.579 83.3313 315.476 83.1067 315.362 82.8112C314.718 82.8396 314.083 82.8896 313.447 82.8945C306.195 82.9443 298.944 82.9895 291.692 83.03C284.115 83.0627 276.542 83.0822 268.971 83.0886C264.363 83.0946 259.753 83.0887 255.142 83.0711C250.105 83.0603 245.067 83.0437 240.026 83.0214C234.238 82.9968 228.449 82.9671 222.66 82.9325C216.729 82.9004 210.797 82.8682 204.865 82.8361C200.149 82.8152 195.432 82.7989 190.715 82.7873C186.963 82.7782 183.211 82.7755 179.458 82.7793C175.028 82.7812 170.598 82.7981 166.164 82.7968C161.626 82.7947 157.088 82.784 152.549 82.7648C144.939 82.7198 137.328 82.664 129.717 82.5976C120.106 82.5102 110.496 82.3949 100.883 82.3085C92.8791 82.2331 84.8753 82.1669 76.8715 82.11C69.548 82.0536 62.2231 81.9971 54.8967 81.9407C47.6075 81.8848 40.3184 81.8265 33.0293 81.7657C24.4904 81.6916 15.9508 81.6139 7.41062 81.5327C5.51653 81.5168 3.62316 81.5212 1.7289 81.5149C1.47918 81.5106 1.21035 81.5573 0.984386 81.4816C0.791482 81.4161 0.646078 81.209 0.48028 81.0647C0.635216 80.91 0.764592 80.6841 0.951184 80.6199C1.17446 80.5424 1.4447 80.5996 1.69443 80.6029C8.76884 80.6792 15.8433 80.7552 22.9177 80.8309C30.9562 80.9083 38.9956 80.9773 47.0359 81.0376C54.2886 81.0971 61.542 81.1523 68.7963 81.2033C76.2998 81.2628 83.8033 81.3245 91.3068 81.3884C100.168 81.4667 109.029 81.5499 117.89 81.6382C127.072 81.7246 136.254 81.8431 145.438 81.8973C154.622 81.9516 163.801 81.9501 172.983 81.9636C181.452 81.9755 189.922 81.9669 198.385 81.9786C203.923 81.9885 209.461 82.022 215.001 82.0544C221.146 82.0857 227.292 82.1319 233.439 82.1556C243.335 82.1949 253.234 82.2248 263.134 82.2455C270.495 82.2591 277.855 82.2562 285.212 82.2368C291.931 82.2212 298.647 82.1914 305.36 82.1472C308.29 82.1255 311.218 82.0352 314.146 81.9792C314.427 81.9734 314.706 81.9248 315.059 81.8881C314.991 81.5656 314.95 81.2917 314.876 81.028C313.55 76.2033 312.57 71.3172 312.18 66.3193C311.759 60.9428 311.938 55.6046 313.509 50.417C316.117 41.8235 321.837 36.221 330.301 33.3591C335.888 31.4677 341.582 31.3839 347.328 32.4867C350.741 33.1407 354.028 34.2102 357.22 35.578C357.445 35.674 357.678 35.752 358.018 35.88C358.105 34.9754 358.194 34.1459 358.263 33.3138C358.67 28.4444 359.001 23.5683 359.492 18.7079C360.001 13.6678 360.707 8.65049 362.062 3.75158C362.264 3.02905 362.506 2.31816 362.787 1.62212C362.931 1.25823 363.142 0.923938 363.407 0.635806C363.828 0.18902 364.355 0.209998 364.671 0.733898C364.971 1.21755 365.177 1.7535 365.279 2.31361C365.577 4.2135 365.907 6.11931 366.037 8.03447C366.584 16.4518 366.208 24.8691 365.942 33.285C365.881 35.2461 365.833 37.2085 365.755 39.1725C365.737 39.6157 365.849 39.9143 366.265 40.1175C368.51 41.2106 370.728 42.3718 372.993 43.4085C375.816 44.6981 378.671 44.6419 381.495 43.3427C382.727 42.7751 383.97 42.2302 385.188 41.6378C390.695 38.9588 396.454 37.2182 402.582 36.6472C413.568 35.6233 423.228 38.7063 431.486 45.9515C436.278 50.1544 438.821 55.6269 439.529 61.9306C440.343 69.2001 439.139 76.2116 436.695 83.0591C435.374 86.7633 433.707 90.3115 431.997 93.844C429.753 98.4799 428.133 103.354 426.445 108.206C426.419 108.279 426.408 108.356 426.414 108.434C426.42 108.511 426.442 108.586 426.479 108.653C426.719 108.351 426.971 108.058 427.197 107.746C429.09 105.15 430.968 102.544 432.87 99.9556C433.714 98.8051 434.583 97.6724 435.475 96.5577C438.266 93.0719 441.958 91.2085 446.36 90.8837C449.918 90.6244 453.495 90.4727 457.061 90.5038C474.174 90.6355 491.289 90.8107 508.404 91.0295C517.301 91.1323 526.197 91.2854 535.093 91.4118C535.521 91.4192 535.942 91.3741 536.367 91.3548L536.364 92.4129ZM369.643 160.239C369.727 159.705 369.798 159.365 369.836 159.019C370.045 157.104 370.268 155.191 370.446 153.274C371.039 146.883 371.621 140.49 372.191 134.098C372.457 131.114 372.655 128.125 372.873 125.137C373.213 120.478 373.533 115.817 373.883 111.157C374.169 107.353 374.445 103.546 374.817 99.7488C374.952 98.3688 375.243 97.0085 375.685 95.694C376.137 94.3534 377.261 94.2306 378.11 95.3582C378.589 96.0235 378.992 96.7405 379.311 97.4956C379.875 98.766 380.345 100.077 380.884 101.358C381.163 102.053 381.49 102.728 381.862 103.378C382.433 104.334 383.043 104.412 383.845 103.618C384.356 103.12 384.802 102.559 385.173 101.95C386.048 100.479 386.907 98.9948 387.673 97.467C390.54 91.7547 392.852 85.8025 395.27 79.8929C397.468 74.5132 399.723 69.1573 402.038 63.8253C402.642 62.4253 403.447 61.1005 404.264 59.807C404.697 59.1547 405.24 58.5819 405.868 58.1138C406.605 57.5462 407.458 57.68 408.079 58.3773C408.44 58.7727 408.732 59.2256 408.943 59.7173C409.329 60.6719 409.706 61.6457 409.94 62.6469C411.16 67.8682 411.68 73.1961 412.236 78.5139C412.672 82.6986 413.001 86.8944 413.386 91.0835C413.848 96.1255 414.282 101.167 414.798 106.21C415.234 110.429 415.776 114.638 416.283 118.85C416.344 119.364 416.479 119.87 416.618 120.546C417.005 120.138 417.258 119.894 417.485 119.629C419.085 117.757 420.637 115.842 422.288 114.016C423.802 112.342 424.808 110.45 425.507 108.303C427.62 101.823 430.104 95.4882 433.138 89.3719C434.197 87.2375 435.051 84.9925 435.871 82.7523C438.321 76.0656 439.497 69.1832 438.69 62.0563C437.991 55.9005 435.493 50.5691 430.786 46.4823C422.269 39.0847 412.333 36.2765 401.149 37.6804C395.739 38.3582 390.646 40.0012 385.757 42.3589C384.44 42.9946 383.104 43.5979 381.771 44.1947C378.773 45.5455 375.743 45.589 372.745 44.2514C370.759 43.3663 368.824 42.3622 366.866 41.4187C366.529 41.2553 366.191 41.0941 365.721 40.8632C365.711 41.4306 365.704 41.8204 365.697 42.2101C365.595 45.5629 365.465 48.9141 365.391 52.2727C365 70.071 364.448 87.8687 364.995 105.675C365.153 110.737 365.276 115.8 365.428 120.862C365.545 124.748 365.704 128.632 365.81 132.518C365.892 135.548 365.918 138.581 365.972 141.612C366.068 146.427 366.167 151.241 366.269 156.055C366.292 157.155 366.318 158.256 366.344 159.468L369.643 160.239ZM377.047 95.4628L376.683 95.5271C376.494 96.0476 376.219 96.5548 376.13 97.092C375.857 98.7441 375.586 100.403 375.441 102.067C375.162 105.264 374.977 108.469 374.743 111.669C374.321 117.431 373.895 123.191 373.465 128.951C373.159 133.005 372.877 137.06 372.503 141.108C371.936 147.214 371.296 153.312 370.691 159.414C370.668 159.646 370.683 159.882 370.679 160.118C370.805 160.144 370.932 160.161 371.06 160.17C371.238 160.165 371.416 160.142 371.597 160.122C373.8 159.889 375.821 159.11 377.75 158.066C380.084 156.804 382.218 155.252 384.261 153.574C387.944 150.564 391.293 147.197 394.646 143.835C401.681 136.781 408.54 129.56 415.221 122.172C415.614 121.736 415.892 121.353 415.772 120.67C415.351 118.284 414.934 115.891 414.683 113.484C413.968 106.675 413.341 99.8579 412.67 93.0461C411.942 85.6313 411.259 78.2109 410.427 70.8072C410.103 67.9097 409.476 65.0444 408.89 62.183C408.701 61.2575 408.279 60.3516 407.832 59.5137C407.254 58.4411 406.63 58.3585 405.834 59.2646C405.121 60.0615 404.51 60.9433 404.013 61.8901C402.825 64.245 401.657 66.6173 400.644 69.0502C398.122 75.1047 395.715 81.2074 393.215 87.2741C391.342 91.8244 389.411 96.3545 386.984 100.648C386.368 101.774 385.652 102.842 384.843 103.839C383.355 105.62 381.903 105.439 380.858 103.375C380.263 102.201 379.817 100.952 379.294 99.7423C378.841 98.6955 378.402 97.6414 377.9 96.6184C377.69 96.2034 377.334 95.8513 377.047 95.466L377.047 95.4628ZM365.403 159.044C365.412 158.579 365.423 158.371 365.419 158.161C365.382 156.271 365.338 154.381 365.303 152.491C365.222 147.854 365.174 143.217 365.059 138.581C364.92 132.948 364.72 127.316 364.557 121.684C364.409 116.657 364.234 111.631 364.132 106.603C364.007 100.433 363.843 94.262 363.882 88.0923C363.939 79.0654 364.136 70.0388 364.323 61.0131C364.457 54.5216 364.657 48.0303 364.868 41.5401C364.895 40.6945 364.729 40.1679 363.891 39.7987C362.555 39.2099 361.28 38.4818 359.975 37.8196C359.668 37.6632 359.345 37.5387 358.982 37.3738C358.931 37.538 358.892 37.7056 358.866 37.8752C358.77 39.373 358.695 40.8712 358.585 42.3602C358.163 48.0862 357.749 53.8123 357.29 59.5344C357.03 62.7687 356.707 65.9987 356.38 69.2265C355.903 73.9444 355.411 78.6609 354.902 83.3761C354.572 86.4593 354.243 89.5446 353.851 92.6202C353.727 93.567 353.453 94.5015 353.152 95.4109C353.066 95.6719 352.658 95.955 352.373 95.9822C352.158 96.002 351.823 95.6716 351.697 95.4188C351.489 95.0044 351.355 94.5569 351.302 94.0966C351.099 92.2187 350.945 90.3417 350.757 88.4566C350.718 88.0521 350.618 87.653 350.497 86.9761C350.028 87.5677 349.682 87.9162 349.44 88.3276C348.881 89.2818 348.393 90.2747 347.835 91.2278C347.513 91.7791 347.166 92.3364 346.729 92.7947C345.923 93.6375 345.007 93.5465 344.429 92.5554C344.147 92.0604 343.956 91.5186 343.867 90.9561C343.687 89.8316 343.597 88.6925 343.485 87.5574C343.354 86.2452 343.264 84.9284 343.103 83.6211C343.052 83.1917 342.836 82.7874 342.637 82.1991C342.115 82.6517 341.688 82.9237 341.389 83.2987C340.457 84.4703 339.57 85.6769 338.674 86.8758C337.82 88.0187 337.025 89.2033 336.109 90.3002C335.601 90.8982 334.998 91.4075 334.322 91.807C333.428 92.3376 332.661 92.0672 332.184 91.127C331.932 90.6156 331.745 90.0748 331.627 89.5172C331.149 87.3957 330.763 85.2522 330.238 83.1437C329.656 80.8308 328.974 78.5429 328.294 76.2551C328.138 75.7318 327.965 75.144 327.338 74.9371C326.643 75.378 326.532 75.4585 326.136 76.2581C325.658 77.2137 325.229 78.1959 324.783 79.1681C324.102 80.6557 322.968 81.6159 321.396 82.0544C320.849 82.2159 320.293 82.3422 319.73 82.4323C318.641 82.59 317.546 82.7005 316.442 82.8322C316.446 82.9523 316.46 83.0718 316.483 83.1896C316.602 83.5997 316.724 84.01 316.856 84.4171C319.493 92.455 322.879 100.228 326.97 107.633C333.229 118.988 340.23 129.884 347.858 140.373C350.902 144.56 354.004 148.704 357.479 152.552C359.182 154.439 361.017 156.186 363.118 157.63C363.782 158.089 364.494 158.487 365.403 159.047L365.403 159.044ZM352.448 94.6618C353.605 91.6755 358.451 40.0658 357.879 36.8416C357.58 36.7014 357.263 36.5438 356.936 36.4031C353.383 34.8716 349.717 33.7248 345.89 33.1042C340.431 32.2196 335.072 32.5191 329.853 34.4309C322.357 37.1801 317.192 42.2546 314.62 49.857C313.549 53.0215 313.058 56.301 312.932 59.6266C312.708 65.5445 313.438 71.3688 314.82 77.1177C315.203 78.7053 315.633 80.2829 316.074 81.9883C317.579 81.7864 318.99 81.6311 320.39 81.4006C322.271 81.0907 323.546 80.0248 324.246 78.2365C324.599 77.3418 325.008 76.47 325.471 75.6263C325.726 75.1577 326.062 74.7376 326.464 74.3852C327.1 73.8308 327.813 73.9 328.348 74.552C328.664 74.9388 328.911 75.3781 329.075 75.8499C329.586 77.3337 330.112 78.8166 330.48 80.3364C331.144 83.0717 331.689 85.836 332.305 88.5843C332.45 89.2821 332.653 89.9664 332.913 90.63C333.154 91.2179 333.495 91.3202 334.015 90.9705C334.529 90.648 334.99 90.2494 335.384 89.7884C336.277 88.6772 337.095 87.508 337.943 86.3618C338.772 85.2452 339.579 84.1122 340.44 83.0208C340.795 82.5733 341.211 82.1769 341.675 81.8428C342.556 81.2049 343.328 81.4529 343.709 82.4567C343.836 82.7899 343.923 83.1374 343.967 83.4916C344.098 84.6238 344.198 85.7598 344.311 86.8939C344.441 88.206 344.537 89.5219 344.722 90.8264C344.808 91.4427 344.94 92.1027 345.587 92.4749C346.242 92.2657 346.53 91.7127 346.826 91.1963C347.411 90.1761 347.925 89.114 348.534 88.1082C348.876 87.5237 349.298 86.9903 349.789 86.5236C350.429 85.9371 351.083 86.1391 351.365 86.9645C351.504 87.4064 351.588 87.8636 351.616 88.3259C351.74 89.7451 351.817 91.1699 351.95 92.5892C352.024 93.2899 352.042 94.0089 352.447 94.6682L352.448 94.6618ZM364.85 39.296C364.885 38.9989 364.918 38.8313 364.923 38.6621C365.102 31.9615 365.338 25.2619 365.432 18.5599C365.481 15.0348 365.348 11.5023 365.17 7.97972C365.08 6.17235 364.726 4.37752 364.462 2.58103C364.403 2.18051 364.221 1.79818 364.096 1.40827L363.822 1.39599C363.531 2.22526 363.195 3.04089 362.956 3.885C361.959 7.45683 361.261 11.1052 360.869 14.7926C360.258 20.3878 359.776 25.9981 359.259 31.6036C359.116 33.1605 359.045 34.7252 358.939 36.2988L364.85 39.296ZM366.493 160.461C366.16 163.12 366.826 175.278 367.383 176.281C368.341 171.214 368.948 166.173 369.571 161.105L366.493 160.461ZM422.999 114.542L416.86 121.708C417.131 122.294 417.339 122.866 417.646 123.38C417.952 123.895 418.269 123.927 418.695 123.538C419.036 123.226 419.334 122.869 419.579 122.476C421.108 120.016 422.11 117.314 422.999 114.544L422.999 114.542Z" fill="#FFFCFB"/>
</svg>
