<svg width="76" height="209" viewBox="0 0 76 209" fill="none" xmlns="http://www.w3.org/2000/svg">
<path d="M66.4124 15.7389C66.7671 15.7772 67.1187 15.8404 67.4645 15.928C67.8302 16.0209 68.1875 16.1442 68.5327 16.2966C68.9022 16.4597 69.2553 16.6577 69.5873 16.8878C69.9556 17.1466 70.2977 17.4408 70.6086 17.7662C71.0453 18.2056 71.4087 18.7122 71.6848 19.2667C71.9225 19.7444 72.0614 20.2652 72.0931 20.7978C72.1181 21.3009 72.0303 21.8032 71.8361 22.268C71.6256 22.7634 71.3144 23.2096 70.9224 23.5785C70.583 23.9211 70.1846 24.1996 69.7463 24.4008C69.3825 24.5626 68.9963 24.6684 68.6009 24.7145C68.2426 24.7535 67.8808 24.7484 67.5238 24.6993C67.176 24.6493 66.8505 24.5993 66.5472 24.5493C66.2693 24.501 65.9884 24.4722 65.7065 24.463C65.4697 24.4523 65.235 24.5114 65.0315 24.6329L63.7373 25.465L62.1494 23.8229L63.2322 22.4455C63.4121 22.1845 63.6703 21.9874 63.9694 21.8824C64.2544 21.7928 64.5533 21.7554 64.8517 21.7721C65.1751 21.7889 65.4967 21.8313 65.8135 21.8987C66.1395 21.967 66.4698 22.0132 66.802 22.0371C67.1225 22.0608 67.4447 22.0393 67.7592 21.9731C68.0896 21.8966 68.3912 21.7272 68.6286 21.4849C68.9388 21.1851 69.0867 20.8446 69.0725 20.4637C69.0583 20.0827 68.879 19.7139 68.5348 19.3572C68.3164 19.1202 68.0642 18.9169 67.7863 18.7539C67.5802 18.6378 67.3639 18.5412 67.14 18.4651C66.9427 18.4009 66.7654 18.3444 66.6168 18.3036C66.4767 18.2672 66.349 18.1941 66.2467 18.0916C66.1443 17.9946 66.0718 17.8703 66.0377 17.7334C66.0035 17.5965 66.0092 17.4527 66.054 17.319L66.4124 15.7389ZM58.7504 25.9051C58.9274 25.7311 59.1387 25.5959 59.3708 25.508C59.5927 25.4239 59.8289 25.3838 60.0662 25.3901C60.3067 25.3974 60.5436 25.4505 60.7642 25.5467C61.0015 25.6496 61.2154 25.7995 61.3932 25.9874C61.5721 26.1694 61.7123 26.3857 61.8053 26.6233C61.8943 26.8485 61.9407 27.0882 61.9422 27.3303C61.9433 27.5736 61.8947 27.8146 61.7992 28.0385C61.7037 28.2624 61.5635 28.4643 61.3871 28.632C61.2086 28.807 60.996 28.9435 60.7626 29.033C60.5389 29.12 60.2997 29.1599 60.0599 29.1503C59.8187 29.1411 59.5816 29.0854 59.3615 28.9863C59.1294 28.8817 58.92 28.7329 58.7447 28.5483C58.5633 28.3649 58.4192 28.148 58.3204 27.9097C58.229 27.6879 58.1826 27.4501 58.1839 27.2101C58.1854 26.9714 58.2346 26.7353 58.3286 26.5158C58.4259 26.2855 58.5694 26.0776 58.7504 25.9051Z" fill="#DD3A1A"/>
<path d="M30.0547 1.71165C30.3592 1.46853 30.6813 1.24625 31.0184 1.04644C31.3751 0.835344 31.7496 0.653135 32.1379 0.501709C32.5537 0.339648 32.9846 0.215902 33.4249 0.132149C33.9161 0.0417966 34.4154 -0.00227018 34.9156 0.000583715C35.6039 -0.00849265 36.2893 0.0883322 36.9456 0.287363C37.5108 0.458877 38.0341 0.737932 38.4841 1.10779C38.9054 1.46093 39.2388 1.89984 39.4601 2.39239C39.6932 2.92009 39.8093 3.48839 39.8012 4.06132C39.8127 4.57456 39.7275 5.08559 39.5496 5.56986C39.3979 5.968 39.1841 6.34181 38.9154 6.67854C38.6698 6.98162 38.3863 7.25467 38.0713 7.49158C37.7627 7.7207 37.4713 7.93283 37.1971 8.12796C36.9438 8.30481 36.7038 8.49844 36.4788 8.70742C36.2873 8.88071 36.1532 9.10404 36.093 9.34972L35.7581 10.9558H33.2197L32.9558 9.10803C32.8862 8.77721 32.9281 8.43378 33.0754 8.12722C33.2239 7.84273 33.4249 7.58631 33.6687 7.37036C33.932 7.13534 34.2143 6.92057 34.5128 6.72806C34.8192 6.52905 35.1113 6.31052 35.387 6.07394C35.6535 5.84623 35.8852 5.58373 36.0753 5.29416C36.2693 4.98464 36.367 4.62846 36.3569 4.26753C36.3569 3.80829 36.1992 3.44316 35.8839 3.17215C35.5686 2.90114 35.1355 2.76539 34.5846 2.7649C34.2266 2.75666 33.8694 2.79926 33.5244 2.89129C33.2726 2.96306 33.0282 3.05708 32.7945 3.17215C32.5908 3.27563 32.4087 3.3695 32.2614 3.45302C32.1241 3.5333 31.9669 3.57694 31.8062 3.57941C31.6495 3.58591 31.4942 3.54944 31.3585 3.47429C31.2228 3.39913 31.1123 3.28841 31.04 3.15515L30.0547 1.71165ZM32.2575 15.0979C32.2552 14.8336 32.3104 14.5718 32.4195 14.3292C32.5237 14.0971 32.6741 13.8867 32.8624 13.7098C33.0541 13.5311 33.2796 13.3891 33.5268 13.2915C33.7923 13.1861 34.0773 13.1333 34.3647 13.1362C34.6482 13.134 34.9293 13.1868 35.191 13.2915C35.4396 13.39 35.667 13.5318 35.8615 13.7098C36.0568 13.889 36.2118 14.1046 36.3169 14.3433C36.4219 14.582 36.475 14.8388 36.4726 15.0979C36.4746 15.364 36.4195 15.6276 36.3106 15.8725C36.2073 16.108 36.0545 16.3206 35.8615 16.497C35.6679 16.6748 35.4402 16.8151 35.191 16.9102C34.9282 17.0103 34.6475 17.0605 34.3647 17.058C34.078 17.0612 33.7934 17.011 33.5268 16.9102C33.2789 16.816 33.0531 16.6755 32.8624 16.497C32.6729 16.3192 32.5223 16.1068 32.4195 15.8725C32.3107 15.6276 32.2555 15.364 32.2575 15.0979Z" fill="#DD3A1A"/>
<path d="M0.93823 23.8044C1.08243 23.4133 1.25398 23.0328 1.4516 22.6657C1.66088 22.2776 1.90218 21.9077 2.173 21.5598C2.46296 21.1873 2.78775 20.8433 3.14296 20.5325C3.54097 20.1886 3.9717 19.8846 4.42897 19.6246C5.05111 19.2546 5.72861 18.9868 6.43564 18.8315C7.04463 18.6978 7.67436 18.6884 8.28706 18.8039C8.86442 18.9186 9.40883 19.1609 9.88044 19.5131C10.382 19.8926 10.7993 20.3722 11.106 20.9213C11.3978 21.4034 11.6003 21.9342 11.7037 22.4881C11.7837 22.9465 11.7938 23.4143 11.7336 23.8756C11.676 24.2928 11.5674 24.7014 11.4102 25.0921C11.2546 25.4721 11.1054 25.8268 10.9626 26.1564C10.8288 26.4576 10.7162 26.7678 10.6258 27.0847C10.5463 27.35 10.5465 27.6329 10.6264 27.8981L11.2016 29.6015L8.88891 30.9344L7.63563 29.3156C7.39092 29.0375 7.24083 28.6888 7.20696 28.3199C7.18634 27.9714 7.22892 27.622 7.33267 27.2886C7.44373 26.9268 7.58317 26.5743 7.74965 26.2345C7.9197 25.8843 8.06599 25.5231 8.18754 25.1533C8.30548 24.7968 8.37269 24.4255 8.38716 24.0503C8.39429 23.654 8.28806 23.264 8.08099 22.926C7.82926 22.4892 7.48547 22.2248 7.04964 22.1326C6.61381 22.0404 6.14482 22.1387 5.64263 22.4275C5.31199 22.6076 5.00986 22.8357 4.74605 23.1044C4.55593 23.3049 4.38485 23.5226 4.23501 23.7548C4.10614 23.9601 3.99169 24.145 3.90321 24.3019C3.82217 24.4503 3.70289 24.5743 3.55774 24.6611C3.41861 24.7495 3.25712 24.7964 3.09227 24.7962C2.92741 24.796 2.76606 24.7487 2.62716 24.6599L0.93823 23.8044ZM10.2827 35.379C10.1358 35.1289 10.0426 34.851 10.009 34.5629C9.97669 34.2874 9.99842 34.0083 10.073 33.7412C10.1497 33.4707 10.2773 33.2172 10.4489 32.9945C10.6331 32.7549 10.8638 32.555 11.1273 32.4069C11.3844 32.2559 11.6694 32.1585 11.9652 32.1206C12.2457 32.0838 12.5306 32.0993 12.8054 32.1664C13.0816 32.2343 13.3409 32.358 13.5675 32.5299C13.7941 32.7017 13.9831 32.9181 14.123 33.1657C14.2707 33.4177 14.365 33.6975 14.4 33.9875C14.435 34.2657 14.4123 34.5482 14.3332 34.8173C14.2542 35.0881 14.1237 35.341 13.9488 35.5623C13.7642 35.7956 13.536 35.9907 13.277 36.1368C13.0175 36.2904 12.7307 36.392 12.4325 36.4362C12.1551 36.4767 11.8724 36.4617 11.6008 36.3921C11.3306 36.3225 11.077 36.1996 10.8549 36.0306C10.6216 35.8549 10.4268 35.6331 10.2827 35.379Z" fill="#170707"/>
<path d="M23.1001 181.6L20.8379 207.754L41.8696 207.991C41.8696 207.991 42.8928 206.69 41.1232 205.812C39.8603 205.187 38.7722 205.266 37.5533 204.629C36.3344 203.991 37.9551 184.978 37.9551 184.978L23.1001 181.6Z" fill="#FFFCFB"/>
<path d="M41.8699 208.534H41.8642L20.8325 208.296C20.7585 208.295 20.6855 208.279 20.618 208.248C20.5505 208.218 20.49 208.174 20.4403 208.119C20.3906 208.064 20.3527 208 20.3291 207.93C20.3054 207.86 20.2964 207.786 20.3027 207.712L22.564 181.558C22.5706 181.482 22.5936 181.407 22.6314 181.34C22.6692 181.273 22.721 181.215 22.7831 181.17C22.8453 181.125 22.9164 181.094 22.9917 181.078C23.067 181.063 23.1448 181.064 23.2197 181.081L38.0748 184.464C38.2018 184.493 38.3139 184.567 38.3905 184.672C38.467 184.777 38.5027 184.907 38.4909 185.036C38.4909 185.081 38.1091 189.553 37.8581 194.169C37.4209 202.224 37.7407 203.873 37.8858 204.207C38.4155 204.47 38.93 204.589 39.4741 204.72C40.0697 204.862 40.6863 205.007 41.3621 205.344C42.0904 205.704 42.5276 206.186 42.6612 206.775C42.8464 207.598 42.35 208.261 42.2928 208.334C42.2418 208.397 42.1774 208.448 42.1042 208.482C42.0309 208.517 41.9509 208.534 41.8699 208.534ZM21.4243 207.227L41.5645 207.454C41.6271 207.312 41.6448 207.153 41.615 207.001C41.5387 206.681 41.1788 206.442 40.8896 206.299C40.3226 206.018 39.7919 205.893 39.2307 205.76C38.6198 205.615 37.9898 205.465 37.3093 205.111C36.9275 204.909 36.602 204.484 36.5695 201.3C36.5514 199.633 36.6182 197.359 36.7652 194.541C36.9704 190.628 37.2787 186.721 37.3856 185.404L23.5872 182.263L21.4243 207.227Z" fill="#170707"/>
<path d="M42.71 208.366L19.9688 208.118L20.3506 199.814C24.0731 200.22 27.4321 204.57 31.2157 203.632C33.3872 203.104 35.3201 200.84 37.4 200.96C37.5279 202.815 37.7265 204.094 38.0462 204.29C39.3663 205.054 40.5461 204.971 41.9091 205.708C43.822 206.79 42.71 208.366 42.71 208.366Z" fill="#170707"/>
<path d="M51.8789 182.342L53.7498 207.759L74.7815 207.995C74.7815 207.995 75.8047 206.694 74.035 205.817C72.7722 205.192 71.6841 205.271 70.4651 204.634C69.2462 203.996 66.6242 185.699 66.6242 185.699L51.8789 182.342Z" fill="#FFFCFB"/>
<path d="M74.7823 208.534H74.7756L53.7448 208.296C53.6101 208.294 53.4808 208.242 53.3825 208.15C53.2843 208.058 53.2242 207.932 53.2141 207.798L51.3433 182.382C51.337 182.298 51.3505 182.214 51.3827 182.136C51.4149 182.058 51.4649 181.989 51.5287 181.934C51.5925 181.879 51.6683 181.84 51.75 181.82C51.8317 181.8 51.917 181.799 51.999 181.818L66.7443 185.175C66.8503 185.199 66.9465 185.255 67.0202 185.335C67.0938 185.415 67.1414 185.515 67.1567 185.623C67.1634 185.666 67.7914 190.036 68.5636 194.519C69.9419 202.523 70.5777 203.935 70.759 204.182C71.3021 204.457 71.8281 204.581 72.3817 204.713C72.9773 204.854 73.5939 204.999 74.2697 205.336C74.998 205.697 75.4352 206.179 75.5688 206.768C75.754 207.591 75.2576 208.253 75.2004 208.327C75.1507 208.39 75.0874 208.442 75.015 208.478C74.9426 208.514 74.8631 208.533 74.7823 208.534ZM54.2507 207.226L74.4721 207.454C74.5347 207.312 74.5524 207.153 74.5226 207.001C74.4463 206.681 74.0864 206.442 73.7972 206.299C73.2302 206.019 72.6995 205.893 72.1383 205.76C71.5274 205.615 70.8974 205.465 70.2169 205.111C69.8436 204.92 69.2194 204.59 67.5585 195.02C66.8904 191.163 66.3177 187.321 66.1459 186.143L52.4696 183.032L54.2507 207.226Z" fill="#170707"/>
<path d="M75.6211 208.366L52.8809 208.118L53.2627 199.814C56.9853 200.22 60.3442 204.57 64.1288 203.632C66.2994 203.104 68.2332 200.84 70.3122 200.96C70.4401 202.815 70.6395 204.094 70.9584 204.29C72.2784 205.054 73.4582 204.971 74.8222 205.708C76.7331 206.79 75.6211 208.366 75.6211 208.366Z" fill="#170707"/>
<path d="M69.1681 192.524L51.8781 192.056C51.8781 192.056 44.1409 137.695 44.1409 134.837C44.1409 131.979 38.6133 191.302 38.6133 191.302L20.8594 190.118C20.8594 190.118 22.7904 133.044 23.3182 115.824C23.5912 106.901 26.1321 98.1378 26.1321 98.1378L58.5855 101.589C58.5855 101.589 62.246 135.555 63.4745 143.285C64.9759 152.726 69.1681 192.524 69.1681 192.524Z" fill="#FFFCFB"/>
<path d="M69.1679 192.968H69.1554L51.8654 192.501C51.7605 192.498 51.6599 192.458 51.5815 192.388C51.5031 192.318 51.4519 192.223 51.4369 192.119C51.1658 190.21 45.6573 151.485 44.1014 138.741C43.0515 148.774 40.5029 175.814 39.0549 191.344C39.044 191.459 38.9887 191.565 38.9006 191.64C38.8126 191.715 38.6988 191.753 38.5834 191.746L20.8295 190.562C20.7144 190.554 20.6067 190.502 20.5293 190.417C20.4518 190.331 20.4106 190.219 20.4143 190.104C20.4343 189.531 22.352 132.833 22.8731 115.81C23.1442 106.933 25.6794 98.1014 25.7051 98.0136C25.7339 97.9125 25.7977 97.8249 25.8851 97.7664C25.9726 97.708 26.0779 97.6826 26.1824 97.6948L58.6358 101.147C58.7367 101.158 58.831 101.203 58.9029 101.275C58.9748 101.346 59.02 101.441 59.0309 101.541C59.0672 101.881 62.7049 135.584 63.9171 143.215C65.4013 152.559 69.5697 192.079 69.6117 192.477C69.6184 192.539 69.612 192.602 69.5928 192.661C69.5736 192.72 69.5422 192.775 69.5005 192.821C69.4588 192.868 69.4078 192.905 69.3508 192.93C69.2938 192.955 69.2321 192.968 69.1698 192.968H69.1679ZM52.2654 191.623L68.6725 192.066C68.179 187.409 64.4258 152.102 63.0409 143.356C61.8954 136.128 58.5823 105.653 58.1872 101.995L26.4621 98.6207C25.9915 100.353 24.0023 108.083 23.7646 115.838C23.2683 132.074 21.5005 184.403 21.3211 189.705L38.2159 190.83C38.4469 188.349 39.6391 175.587 40.8427 162.974C41.6254 154.765 42.2602 148.219 42.7279 143.527C43.0066 140.74 43.2281 138.583 43.3875 137.117C43.4724 136.327 43.5421 135.721 43.5936 135.315C43.6203 135.099 43.6423 134.94 43.6605 134.828C43.6824 134.694 43.7473 134.293 44.131 134.293H44.1578C44.2589 134.293 44.5911 134.35 44.5911 134.837C44.5854 137.507 51.5829 186.818 52.2654 191.623Z" fill="#170707"/>
<path d="M65.5589 96.9351C76.2494 90.4635 55.3513 43.4204 47.2953 50.9448C43.7073 54.2952 56.8079 102.233 65.5589 96.9351Z" fill="#170707"/>
<path d="M40.361 48.6138C41.5321 48.4229 43.5404 47.9456 43.5404 47.9456C43.7609 48.3065 45.3053 52.6228 45.3053 52.6228C45.3053 52.6228 45.2891 55.0902 41.7269 55.5311C38.1646 55.9721 37.002 53.876 37.002 53.876L36.1602 48.1136C36.1602 48.1136 39.1879 48.8066 40.361 48.6138Z" fill="#FFFCFB"/>
<path d="M40.7671 56.0743C37.7127 56.0743 36.6302 54.1997 36.5816 54.1119C36.5534 54.0613 36.5346 54.006 36.5262 53.9486L35.6834 48.1853C35.6714 48.1079 35.6786 48.0288 35.7044 47.9549C35.7302 47.881 35.7738 47.8146 35.8313 47.7615C35.8888 47.7084 35.9585 47.6702 36.0343 47.6504C36.11 47.6306 36.1895 47.6298 36.2656 47.6479C37.0827 47.834 39.3964 48.2855 40.2812 48.1404C41.4267 47.9495 43.4082 47.4828 43.4311 47.478C43.5294 47.4544 43.6326 47.4625 43.7259 47.5013C43.8192 47.54 43.8978 47.6074 43.9504 47.6937C44.1804 48.0679 45.3927 51.4402 45.7582 52.4663C45.7774 52.5192 45.7868 52.5751 45.7859 52.6314C45.7551 53.1882 45.5704 53.7254 45.2523 54.1834C44.7865 54.8793 43.8072 55.7622 41.7875 56.0123C41.4489 56.0536 41.1082 56.0743 40.7671 56.0743ZM37.4616 53.7091C37.6821 54.0307 38.8065 55.41 41.6615 55.0578C44.4372 54.7142 44.7732 53.059 44.8113 52.6944C44.2196 51.0383 43.5543 49.2305 43.2574 48.5012C42.6122 48.6492 41.3054 48.9422 40.4321 49.0873C39.5205 49.2372 37.7251 48.9279 36.7276 48.7284L37.4616 53.7091Z" fill="#170707"/>
<path d="M35.8416 50.0342C35.8416 50.0342 23.4397 51.8602 22.0967 57.8555C20.7537 63.8508 23.2096 87.0759 24.0649 97.8419C23.7642 100.923 53.6986 104.77 58.5924 101.589C63.4862 98.4088 60.3468 67.391 57.6198 61.1676C53.2863 51.2837 44.773 48.6884 44.773 48.6884C44.773 48.6884 44.5286 50.1573 41.8369 51.0135C39.1452 51.8697 35.8416 50.0342 35.8416 50.0342Z" fill="#FFFCFB"/>
<path d="M50.4961 103.259C46.9711 103.259 43.3993 102.96 41.7623 102.802C35.1084 102.16 27.2137 100.797 24.5744 99.1915C24.3177 99.035 23.5454 98.5664 23.5808 97.8447C23.4252 95.8985 23.2152 93.5027 22.9918 90.9665C21.9419 79.0495 20.5101 62.7292 21.6259 57.7495C23.0272 51.5051 35.2516 49.6362 35.7708 49.5599C35.8749 49.5441 35.9813 49.5632 36.0734 49.6143C36.1049 49.6324 39.2309 51.3324 41.6888 50.5564C43.9624 49.8328 44.2746 48.7037 44.2975 48.6053C44.3065 48.5382 44.3303 48.4738 44.3671 48.4169C44.4039 48.3599 44.4528 48.3118 44.5103 48.276C44.5696 48.2396 44.636 48.2165 44.7051 48.2084C44.7742 48.2003 44.8442 48.2074 44.9103 48.2293C45 48.2569 47.1429 48.9222 49.8451 50.8293C52.3316 52.5837 55.7736 55.768 58.0539 60.9748C59.4379 64.1352 60.9241 73.5868 61.4367 82.4924C61.8061 88.9067 61.9607 99.9685 58.848 101.992C57.3409 102.973 53.9399 103.259 50.4961 103.259ZM35.7584 50.5334C34.3534 50.7673 23.7421 52.7021 22.5623 57.9605C21.477 62.7941 22.905 79.0285 23.9483 90.8825C24.1726 93.4359 24.3845 95.846 24.5401 97.8037C24.5424 97.832 24.5424 97.8604 24.5401 97.8886C24.5401 97.8886 24.5792 98.1196 25.3208 98.511C27.7615 99.7977 34.7228 101.184 42.2491 101.883C50.3481 102.636 56.5095 102.369 58.3288 101.187C59.0256 100.734 59.9515 99.2517 60.4087 94.7588C60.7332 91.5688 60.759 87.347 60.4822 82.5477C59.9753 73.7386 58.5245 64.4321 57.1786 61.3576C54.9918 56.3693 51.7007 53.3168 49.3258 51.634C47.9998 50.6816 46.5621 49.8953 45.0449 49.2926C44.7289 49.8853 43.9367 50.8456 41.9809 51.4689C39.4276 52.2821 36.4619 50.8943 35.7584 50.5334Z" fill="#170707"/>
<path d="M27.1424 54.2427C17.6498 49.3356 10.7506 85.144 22.2696 96.6402C27.926 101.201 59.1319 97.6377 59.1319 97.6377L60.9836 88.607C60.9836 88.607 35.3808 86.0633 34.4329 85.2987C34.411 85.2806 34.4034 85.25 34.3824 85.23C29.6881 80.6044 36.615 59.1365 27.1424 54.2427Z" fill="#170707"/>
<path d="M34.1021 46.6256C31.7902 43.5454 30.7708 38.4168 35.2962 35.2144C39.2755 31.9128 44.1283 34.2866 46.441 37.3668C48.7538 40.447 47.8642 45.0153 44.4566 47.5725C41.049 50.1296 36.4129 49.7048 34.1021 46.6256Z" fill="#FFFCFB"/>
<path d="M39.563 49.7631C39.3158 49.7631 39.0676 49.7517 38.8204 49.7297C36.7205 49.5388 34.8935 48.5452 33.687 46.9368C32.0854 44.8045 31.3456 42.1547 31.7074 39.8486C32.0214 37.8442 33.1525 36.1012 34.9794 34.8031C36.5668 33.4925 38.4424 32.9208 40.402 33.1518C42.7883 33.4324 45.2576 34.9281 46.8545 37.0557C49.3362 40.3593 48.397 45.2645 44.767 47.9868C43.2707 49.1273 41.4443 49.7508 39.563 49.7631ZM39.5391 34.1378C38.1226 34.1378 36.8092 34.6322 35.6256 35.6135L35.5942 35.6383C33.9715 36.7837 33.0055 38.2584 32.7306 40.009C32.4118 42.044 33.079 44.3998 34.5155 46.3145C35.5436 47.6852 37.1061 48.5309 38.9139 48.696C40.7399 48.864 42.5983 48.3142 44.1437 47.1573C47.3155 44.7768 48.1593 40.5244 46.0241 37.6781C44.5923 35.7691 42.3903 34.4327 40.2798 34.1817C40.034 34.1526 39.7867 34.1379 39.5391 34.1378Z" fill="#170707"/>
<path d="M31.3214 44.7854C35.6825 50.8943 34.8359 45.3791 36.4242 41.4322C38.022 37.4633 47.7027 39.0927 46.2709 35.1983C43.0657 26.4846 23.5402 33.8792 31.3214 44.7854Z" fill="#170707"/>
<path d="M32.3561 45.3914C32.0619 44.9868 31.936 44.4839 32.0047 43.9884C32.0734 43.4929 32.3314 43.0433 32.7246 42.734C32.9173 42.5839 33.1383 42.4743 33.3744 42.4117C33.6105 42.3491 33.8569 42.3348 34.0986 42.3698C34.3404 42.4047 34.5726 42.4881 34.7813 42.615C34.99 42.7419 35.1709 42.9096 35.3132 43.1082C35.6077 43.5128 35.7337 44.016 35.6646 44.5116C35.5955 45.0073 35.3368 45.4568 34.9429 45.7656C34.7502 45.9154 34.5294 46.0248 34.2934 46.0872C34.0575 46.1496 33.8114 46.1638 33.5699 46.1288C33.3284 46.0939 33.0964 46.0106 32.8878 45.8839C32.6793 45.7571 32.4984 45.5896 32.3561 45.3914Z" fill="#FFFCFB"/>
<path d="M33.8351 46.6619C33.7246 46.662 33.6142 46.654 33.5048 46.638C33.1934 46.5943 32.894 46.4881 32.6247 46.3257C32.3553 46.1633 32.1216 45.9481 31.9375 45.6931C31.5643 45.1791 31.4046 44.5405 31.4922 43.9113C31.5798 43.2822 31.9077 42.7114 32.4071 42.3189C32.6546 42.1267 32.9383 41.9863 33.2412 41.9061C33.5441 41.8259 33.8601 41.8075 34.1703 41.8521C34.4804 41.8966 34.7784 42.0031 35.0465 42.1653C35.3147 42.3275 35.5474 42.5421 35.7308 42.7961C36.104 43.3104 36.2632 43.9493 36.1751 44.5785C36.087 45.2078 35.7584 45.7784 35.2583 46.1703C34.8518 46.488 34.351 46.661 33.8351 46.6619ZM33.8351 42.8658C33.5479 42.8664 33.2691 42.9628 33.0429 43.1398C32.7557 43.3656 32.5674 43.6941 32.5175 44.0561C32.4677 44.418 32.5602 44.7852 32.7756 45.0803C32.8784 45.2229 33.0088 45.3434 33.1592 45.4344C33.3096 45.5254 33.4768 45.5851 33.6509 45.61C33.8225 45.6347 33.9974 45.6243 34.1649 45.5796C34.3324 45.5348 34.489 45.4565 34.6254 45.3495C34.9129 45.1238 35.1016 44.7955 35.1518 44.4335C35.202 44.0716 35.1098 43.7043 34.8946 43.4089C34.7917 43.2657 34.6608 43.1447 34.5099 43.0533C34.359 42.962 34.1911 42.9021 34.0165 42.8773C33.956 42.8691 33.8951 42.8653 33.8342 42.8658H33.8351Z" fill="#170707"/>
<path d="M48.0045 54.2491C48.0045 54.2491 47.197 55.0232 47.0968 45.0858C45.7605 44.2401 44.7305 49.909 44.7305 49.909L41.4852 49.3143C41.4852 49.3143 35.4718 44.8472 35.0146 45.1708C34.5574 45.4944 40.4009 51.9717 40.4009 51.9717C40.4009 51.9717 34.04 46.5023 33.4205 47.5227C33.1151 48.0276 39.6468 53.2813 39.6468 53.2813C39.6468 53.2813 33.242 48.9411 34.7044 50.3595C36.1667 51.7779 43.0659 59.7366 43.0659 59.7366L45.7633 65.8455L51.6689 61.8194L48.0045 54.2491Z" fill="#FFFCFB"/>
<path d="M45.7611 66.2952C45.7185 66.2952 45.676 66.2891 45.6351 66.277C45.5709 66.2586 45.5114 66.2263 45.461 66.1824C45.4105 66.1386 45.3703 66.0842 45.3431 66.0231L42.6704 59.9811C42.0729 59.2929 35.7521 52.0128 34.3805 50.6841C34.203 50.5123 33.8355 50.1553 34.1304 49.7917C34.1883 49.7133 34.2697 49.6555 34.3628 49.6266C34.4559 49.5978 34.5557 49.5994 34.6478 49.6313C34.3767 49.3819 34.14 49.1572 33.9376 48.9574C33.1043 48.1327 32.775 47.6946 33.0251 47.2832C33.0807 47.193 33.1556 47.1161 33.2444 47.0582C33.3331 47.0003 33.4336 46.9627 33.5386 46.9482C33.9386 46.8852 34.684 47.0322 36.847 48.5852C34.4683 45.7407 34.5027 45.4229 34.5304 45.1652C34.5376 45.092 34.5603 45.0212 34.597 44.9575C34.6337 44.8938 34.6835 44.8387 34.7432 44.7958C35.0525 44.5762 35.4343 44.686 36.4442 45.2864C37.0083 45.6224 37.7585 46.112 38.6729 46.743C40.0093 47.666 41.3236 48.6291 41.6653 48.882L44.3628 49.3755C44.6491 47.9781 45.3526 45.0983 46.4417 44.622C46.5851 44.5581 46.7423 44.5316 46.8987 44.545C47.0551 44.5583 47.2056 44.6111 47.3361 44.6984C47.4005 44.7393 47.4537 44.7956 47.4907 44.8623C47.5277 44.929 47.5474 45.0039 47.548 45.0802C47.5833 48.5499 47.7074 51.0869 47.9174 52.6208C48.0071 53.2785 48.0949 53.6126 48.1541 53.7777C48.1608 53.7968 48.1665 53.814 48.1722 53.8283C48.2763 53.8709 48.3609 53.9505 48.4099 54.0517L52.0743 61.6133C52.1207 61.7115 52.1307 61.823 52.1026 61.9279C52.0744 62.0328 52.0099 62.1242 51.9206 62.186L46.0141 66.2121C45.94 66.2645 45.8519 66.2934 45.7611 66.2952ZM36.8212 51.9546C39.3182 54.7169 43.1945 59.1879 43.4073 59.4351C43.4372 59.4694 43.4616 59.508 43.4799 59.5496L45.9549 65.1526L51.0825 61.6562L47.6893 54.6501C47.3294 54.4707 46.75 53.7519 46.645 45.6023C46.4541 45.819 46.1334 46.3516 45.7439 47.6507C45.3936 48.8181 45.1798 49.9788 45.1779 49.9902C45.1672 50.0492 45.145 50.1054 45.1125 50.1558C45.0801 50.2062 45.038 50.2496 44.9887 50.2837C44.9394 50.3177 44.8838 50.3417 44.8252 50.3542C44.7666 50.3668 44.7061 50.3676 44.6472 50.3567L41.4019 49.7621C41.3328 49.7495 41.2676 49.7215 41.211 49.68C39.3344 48.2864 37.246 46.8327 36.0261 46.0958C36.972 47.3644 38.903 49.6275 40.7375 51.6654C40.8167 51.7513 40.8599 51.8643 40.8582 51.9811C40.8565 52.098 40.81 52.2097 40.7284 52.2933C40.6467 52.3768 40.5362 52.4259 40.4194 52.4304C40.3027 52.4349 40.1887 52.3944 40.1009 52.3173C40.0875 52.3049 38.7159 51.128 37.2106 49.9873C35.7397 48.8725 34.8635 48.338 34.3519 48.0783C35.3665 49.1197 37.7194 51.1423 39.931 52.9215C40.0228 52.9953 40.0825 53.1018 40.0976 53.2187C40.1127 53.3355 40.082 53.4537 40.0119 53.5484C39.9419 53.6431 39.8379 53.7071 39.7217 53.7269C39.6056 53.7467 39.4863 53.7208 39.3888 53.6546C38.5298 53.0742 37.623 52.4738 36.8212 51.9546Z" fill="#170707"/>
<path d="M44.1426 64.432C45.3119 68.7435 50.4128 98.9958 63.8427 96.935C79.1454 94.5869 54.4608 62.4581 51.1344 58.8624L44.1426 64.432Z" fill="#170707"/>
<path d="M69.5173 93.5532C69.6585 92.5901 68.0941 92.528 67.067 92.5891C67.8946 92.4651 68.9627 92.1682 68.5456 91.4705C68.2487 90.9741 63.3139 90.4978 63.3139 90.4978C63.3139 90.4978 66.8093 89.0975 66.3464 87.8471C66.1287 87.2611 59.7832 89.8268 59.7832 89.8268C59.7832 89.8268 58.4335 89.6168 56.4004 89.2693C56.3055 89.5239 56.1968 89.773 56.0749 90.0158C54.855 92.4507 53.9807 94.9792 53.2715 97.5688C59.1522 97.7511 63.6757 97.607 63.6757 97.607C63.6757 97.607 68.3384 97.7616 68.726 97.0257C69.0725 96.3661 66.0982 96.2335 66.0982 96.2335C66.0982 96.2335 69.3913 96.0578 69.4667 95.3591C69.5707 94.3874 66.3063 94.48 66.3063 94.48C66.3063 94.48 69.4571 93.9646 69.5173 93.5532Z" fill="#FFFCFB"/>
<path d="M59.3022 98.1273C57.6069 98.1273 55.528 98.1054 53.2563 98.0319C53.1859 98.0296 53.1169 98.0114 53.0545 97.9786C52.9921 97.9459 52.9379 97.8994 52.8961 97.8428C52.8542 97.7861 52.8257 97.7207 52.8127 97.6515C52.7997 97.5822 52.8026 97.5109 52.821 97.4429C53.6371 94.4658 54.5392 92.0385 55.6588 89.8069C55.7726 89.5792 55.8742 89.3456 55.9633 89.1072C56.0011 89.0054 56.0733 88.92 56.1674 88.8658C56.2616 88.8116 56.3717 88.792 56.4787 88.8103C58.1348 89.0967 59.348 89.2876 59.7241 89.3458C60.1059 89.1941 61.3353 88.7073 62.6105 88.2529C65.8616 87.0941 66.2376 87.2612 66.4667 87.3614C66.5379 87.3915 66.6022 87.4357 66.6559 87.4913C66.7095 87.5469 66.7513 87.6128 66.7788 87.685C67.1492 88.6853 66.0152 89.6035 64.9595 90.2144C65.2526 90.2507 65.5657 90.2918 65.8788 90.3366C68.433 90.7003 68.7766 90.957 68.9408 91.231C69.0296 91.363 69.0832 91.5155 69.0966 91.674C69.1099 91.8325 69.0826 91.9918 69.0172 92.1368C68.9964 92.1807 68.9721 92.2228 68.9446 92.2628C69.2325 92.3371 69.4948 92.4882 69.7035 92.7C69.8163 92.8224 69.8994 92.9692 69.9464 93.1289C69.9934 93.2886 70.003 93.457 69.9746 93.6211C69.9345 93.8931 69.7579 94.1041 69.0725 94.3351C69.3058 94.4133 69.518 94.5439 69.693 94.7169C69.7812 94.8079 69.8481 94.9173 69.8891 95.0373C69.93 95.1573 69.9439 95.2848 69.9297 95.4108C69.8867 95.8117 69.5479 96.0952 68.832 96.3061C68.9536 96.3758 69.0565 96.4741 69.1317 96.5925C69.1886 96.6911 69.2191 96.8028 69.2203 96.9166C69.2214 97.0305 69.1932 97.1427 69.1384 97.2425C68.9475 97.6042 68.4454 97.9536 66.0763 98.0576C64.9185 98.1082 63.8227 98.0767 63.6757 98.072C63.5039 98.0805 61.8307 98.1273 59.3022 98.1273ZM53.8805 97.1203C59.3909 97.273 63.6223 97.1423 63.6662 97.1413H63.6967C65.2688 97.1938 67.0776 97.1184 67.9166 96.9313C67.313 96.8007 66.6992 96.7231 66.0821 96.6994C65.9637 96.6918 65.8526 96.6394 65.7715 96.5529C65.6903 96.4664 65.6451 96.3522 65.6451 96.2336C65.6451 96.1149 65.6903 96.0008 65.7715 95.9143C65.8526 95.8277 65.9637 95.7754 66.0821 95.7678C67.3 95.7019 68.5332 95.4871 68.9399 95.2819C68.5972 95.0719 67.426 94.9135 66.3283 94.9459C66.2104 94.948 66.096 94.9059 66.0077 94.8278C65.9193 94.7497 65.8635 94.6413 65.8511 94.524C65.8398 94.4064 65.8737 94.2889 65.9458 94.1954C66.018 94.1018 66.123 94.0391 66.2396 94.0201C67.3296 93.8416 68.6191 93.5495 69.0449 93.3519C69.0389 93.3427 69.0322 93.3341 69.0248 93.3261C68.8616 93.1476 68.2689 92.9816 67.0986 93.0503C66.9799 93.0551 66.8638 93.0145 66.774 92.9368C66.6842 92.859 66.6274 92.7499 66.6152 92.6317C66.6031 92.5135 66.6364 92.3952 66.7085 92.3007C66.7806 92.2063 66.886 92.1429 67.0032 92.1235C67.8479 91.9975 68.1037 91.8123 68.1667 91.7531C67.677 91.5059 65.2955 91.1537 63.2739 90.958C63.1699 90.9481 63.0722 90.9036 62.9965 90.8315C62.9209 90.7594 62.8716 90.664 62.8568 90.5606C62.8419 90.4571 62.8622 90.3517 62.9145 90.2612C62.9668 90.1707 63.048 90.1005 63.145 90.0617C64.3859 89.5625 65.663 88.754 65.8911 88.2367C64.972 88.3722 62.2592 89.3267 59.9627 90.2555C59.8847 90.287 59.7995 90.2965 59.7164 90.2832C59.7031 90.2832 58.5061 90.0922 56.6982 89.7887C56.6346 89.9338 56.5675 90.0776 56.4969 90.2201C55.4727 92.258 54.6375 94.4629 53.8805 97.1203Z" fill="#170707"/>
<path d="M44.141 135.352H44.1018C44.0341 135.347 43.968 135.329 43.9073 135.299C43.8466 135.269 43.7925 135.227 43.7481 135.175C43.7038 135.124 43.67 135.064 43.6488 135C43.6276 134.935 43.6194 134.867 43.6246 134.799L44.7871 119.441C44.7896 119.372 44.8061 119.304 44.8356 119.241C44.8652 119.178 44.9071 119.121 44.959 119.075C45.0108 119.028 45.0715 118.993 45.1374 118.971C45.2033 118.948 45.273 118.94 45.3424 118.945C45.4118 118.95 45.4794 118.969 45.5411 119.001C45.6029 119.033 45.6575 119.078 45.7017 119.131C45.746 119.185 45.7789 119.247 45.7986 119.314C45.8182 119.381 45.8242 119.451 45.8161 119.52L44.6554 134.875C44.6454 135.005 44.5868 135.126 44.4915 135.214C44.3962 135.303 44.271 135.352 44.141 135.352Z" fill="#170707"/>
<path d="M24.5009 190.549H24.4875C24.4248 190.547 24.3631 190.533 24.3059 190.507C24.2486 190.482 24.197 190.445 24.1539 190.4C24.1108 190.354 24.0771 190.3 24.0548 190.242C24.0324 190.183 24.0219 190.121 24.0236 190.058C24.1095 187.054 26.1302 116.437 26.659 111.782C27.1888 107.112 29.0233 100.328 29.0453 100.265C29.0618 100.205 29.09 100.148 29.1284 100.099C29.1668 100.049 29.2145 100.008 29.2689 99.9764C29.3234 99.9453 29.3834 99.9253 29.4456 99.9173C29.5078 99.9094 29.5709 99.9138 29.6314 99.9303C29.6919 99.9468 29.7485 99.975 29.7981 100.013C29.8476 100.052 29.8892 100.1 29.9203 100.154C29.9514 100.208 29.9715 100.268 29.9794 100.331C29.9873 100.393 29.9829 100.456 29.9664 100.516C29.9483 100.583 28.1318 107.293 27.6097 111.89C27.0866 116.504 25.002 189.35 24.981 190.086C24.9772 190.21 24.9249 190.329 24.8352 190.415C24.7455 190.502 24.6255 190.55 24.5009 190.549Z" fill="#170707"/>
<path d="M55.2081 191.775C55.0939 191.775 54.9836 191.734 54.8971 191.66C54.8106 191.585 54.7537 191.482 54.7365 191.37L44.8316 125.897C44.8126 125.772 44.8441 125.644 44.9192 125.542C44.9943 125.44 45.1068 125.372 45.232 125.353C45.3572 125.334 45.4848 125.366 45.5867 125.441C45.6886 125.516 45.7566 125.628 45.7756 125.754L55.6805 191.226C55.6899 191.288 55.6869 191.352 55.6718 191.412C55.6568 191.473 55.6298 191.531 55.5926 191.581C55.5554 191.631 55.5086 191.674 55.4549 191.706C55.4012 191.739 55.3416 191.76 55.2796 191.77C55.256 191.773 55.232 191.775 55.2081 191.775Z" fill="#170707"/>
</svg>
