<svg width="400" height="580" viewBox="0 0 400 580" fill="none" xmlns="http://www.w3.org/2000/svg">
<ellipse cx="113.536" cy="304.692" rx="40.6259" ry="40.7256" fill="#DD3A1A"/>
<path d="M0 423.792L0.680891 580H200.84H400L399.319 423.792V324.82L305.459 253.433L231.679 307.032L193.388 280.818L138.519 324.82C138.383 325.708 137.653 329.735 137.245 331.987C133.616 342.374 119.607 357.12 103.264 361.61C101.863 361.619 160.531 361.542 227.803 361.61C295.075 361.679 350.227 361.815 350.431 362.02C351.316 362.976 347.095 376.832 344.031 382.975L342.124 386.933H200.499H58.8741L56.5591 382.292C54.1759 377.514 51.18 368.573 50.4991 364.204L50.0906 361.679L72.6961 361.61C93.3952 361.61 92.7569 361.679 103.264 361.61C122.409 355.95 139.813 339.359 138.519 324.82L93.6909 307.032L50.4991 324.82H32.2513H0V423.792ZM331.979 401.199C329.936 404.066 322.174 411.096 317.817 413.963C312.301 417.649 303.518 421.539 297.118 423.177C291.466 424.611 290.377 424.611 207.308 424.952C119.405 425.293 113.005 425.089 103.132 422.358C96.7316 420.584 88.2885 416.693 82.6371 412.803C78.0752 409.731 70.1088 402.496 69.0193 400.38C68.4065 399.288 74.875 399.22 200.84 399.22H333.341L331.979 401.199Z" fill="#D8D8D8"/>
<path d="M0 213.41V324.821H25.4421H49.886L50.1584 302.462C50.4988 281.554 50.635 279.722 52.2692 272.778C55.5374 258.814 61.3931 247.291 70.3808 236.761C80.9346 224.475 94.0758 216.768 109.192 213.792C117.839 212.037 283.295 212.113 292.079 213.792C319.655 219.21 341.171 241.873 348.388 273.236C349.614 278.654 349.886 282.241 350.091 302.081L350.431 324.821H374.875H399.319V213.41L398.321 0H199.16H0V213.41Z" fill="#D8D8D8"/>
<path d="M109.052 102V100.281C108.386 100.395 107.741 100.365 107.117 100.191C106.499 100.011 105.944 99.702 105.452 99.264C104.966 98.82 104.579 98.253 104.291 97.563C104.003 96.867 103.859 96.054 103.859 95.124C103.859 94.194 104.003 93.381 104.291 92.685C104.579 91.989 104.966 91.419 105.452 90.975C105.944 90.525 106.499 90.213 107.117 90.039C107.741 89.859 108.386 89.826 109.052 89.94V89.04H110.366V89.94C111.032 89.826 111.677 89.859 112.301 90.039C112.925 90.213 113.48 90.525 113.966 90.975C114.458 91.419 114.848 91.989 115.136 92.685C115.424 93.381 115.568 94.194 115.568 95.124C115.568 96.054 115.424 96.867 115.136 97.563C114.848 98.253 114.458 98.82 113.966 99.264C113.48 99.702 112.925 100.011 112.301 100.191C111.677 100.365 111.032 100.395 110.366 100.281V102H109.052ZM109.052 99.021V91.173C108.482 91.089 107.96 91.131 107.486 91.299C107.018 91.461 106.616 91.722 106.28 92.082C105.944 92.442 105.683 92.883 105.497 93.405C105.317 93.921 105.227 94.494 105.227 95.124C105.227 95.754 105.317 96.327 105.497 96.843C105.683 97.353 105.944 97.785 106.28 98.139C106.616 98.493 107.018 98.748 107.486 98.904C107.96 99.06 108.482 99.099 109.052 99.021ZM110.366 99.021C110.942 99.099 111.464 99.06 111.932 98.904C112.4 98.742 112.802 98.487 113.138 98.139C113.48 97.785 113.741 97.353 113.921 96.843C114.107 96.333 114.2 95.769 114.2 95.151C114.2 94.527 114.107 93.957 113.921 93.441C113.741 92.919 113.48 92.475 113.138 92.109C112.802 91.743 112.4 91.476 111.932 91.308C111.464 91.134 110.942 91.089 110.366 91.173V99.021ZM121.795 102.27C120.829 102.27 120.004 102.051 119.32 101.613C118.636 101.175 118.111 100.569 117.745 99.795C117.379 99.021 117.196 98.133 117.196 97.131C117.196 96.111 117.382 95.217 117.754 94.449C118.126 93.681 118.654 93.084 119.338 92.658C120.028 92.226 120.847 92.01 121.795 92.01C122.767 92.01 123.595 92.229 124.279 92.667C124.969 93.099 125.494 93.702 125.854 94.476C126.22 95.244 126.403 96.129 126.403 97.131C126.403 98.151 126.22 99.048 125.854 99.822C125.488 100.59 124.96 101.19 124.27 101.622C123.58 102.054 122.755 102.27 121.795 102.27ZM121.795 101.001C122.875 101.001 123.679 100.644 124.207 99.93C124.735 99.21 124.999 98.277 124.999 97.131C124.999 95.955 124.732 95.019 124.198 94.323C123.67 93.627 122.869 93.279 121.795 93.279C121.069 93.279 120.469 93.444 119.995 93.774C119.527 94.098 119.176 94.551 118.942 95.133C118.714 95.709 118.6 96.375 118.6 97.131C118.6 98.301 118.87 99.24 119.41 99.948C119.95 100.65 120.745 101.001 121.795 101.001ZM131.157 102V93.504H127.71V92.28H135.927V93.504H132.48V102H131.157ZM141.886 102.27C140.92 102.27 140.095 102.051 139.411 101.613C138.727 101.175 138.202 100.569 137.836 99.795C137.47 99.021 137.287 98.133 137.287 97.131C137.287 96.111 137.473 95.217 137.845 94.449C138.217 93.681 138.745 93.084 139.429 92.658C140.119 92.226 140.938 92.01 141.886 92.01C142.858 92.01 143.686 92.229 144.37 92.667C145.06 93.099 145.585 93.702 145.945 94.476C146.311 95.244 146.494 96.129 146.494 97.131C146.494 98.151 146.311 99.048 145.945 99.822C145.579 100.59 145.051 101.19 144.361 101.622C143.671 102.054 142.846 102.27 141.886 102.27ZM141.886 101.001C142.966 101.001 143.77 100.644 144.298 99.93C144.826 99.21 145.09 98.277 145.09 97.131C145.09 95.955 144.823 95.019 144.289 94.323C143.761 93.627 142.96 93.279 141.886 93.279C141.16 93.279 140.56 93.444 140.086 93.774C139.618 94.098 139.267 94.551 139.033 95.133C138.805 95.709 138.691 96.375 138.691 97.131C138.691 98.301 138.961 99.24 139.501 99.948C140.041 100.65 140.836 101.001 141.886 101.001ZM152.872 102.27C151.894 102.27 151.066 102.051 150.388 101.613C149.71 101.175 149.194 100.572 148.84 99.804C148.492 99.03 148.312 98.142 148.3 97.14C148.312 96.12 148.498 95.226 148.858 94.458C149.218 93.684 149.737 93.084 150.415 92.658C151.093 92.226 151.915 92.01 152.881 92.01C153.865 92.01 154.72 92.25 155.446 92.73C156.178 93.21 156.679 93.867 156.949 94.701L155.653 95.115C155.425 94.533 155.062 94.083 154.564 93.765C154.072 93.441 153.508 93.279 152.872 93.279C152.158 93.279 151.567 93.444 151.099 93.774C150.631 94.098 150.283 94.551 150.055 95.133C149.827 95.715 149.71 96.384 149.704 97.14C149.716 98.304 149.986 99.24 150.514 99.948C151.042 100.65 151.828 101.001 152.872 101.001C153.532 101.001 154.093 100.851 154.555 100.551C155.023 100.245 155.377 99.801 155.617 99.219L156.949 99.615C156.589 100.479 156.061 101.139 155.365 101.595C154.669 102.045 153.838 102.27 152.872 102.27ZM163.279 102.27C162.331 102.27 161.509 102.06 160.813 101.64C160.123 101.22 159.586 100.629 159.202 99.867C158.818 99.105 158.626 98.211 158.626 97.185C158.626 96.123 158.815 95.205 159.193 94.431C159.571 93.657 160.102 93.06 160.786 92.64C161.476 92.22 162.289 92.01 163.225 92.01C164.185 92.01 165.004 92.232 165.682 92.676C166.36 93.114 166.873 93.744 167.221 94.566C167.569 95.388 167.728 96.369 167.698 97.509H166.348V97.041C166.324 95.781 166.051 94.83 165.529 94.188C165.013 93.546 164.257 93.225 163.261 93.225C162.217 93.225 161.416 93.564 160.858 94.242C160.306 94.92 160.03 95.886 160.03 97.14C160.03 98.364 160.306 99.315 160.858 99.993C161.416 100.665 162.205 101.001 163.225 101.001C163.921 101.001 164.527 100.842 165.043 100.524C165.565 100.2 165.976 99.735 166.276 99.129L167.509 99.606C167.125 100.452 166.558 101.109 165.808 101.577C165.064 102.039 164.221 102.27 163.279 102.27ZM159.562 97.509V96.402H166.987V97.509H159.562ZM174.088 102.27C173.11 102.27 172.282 102.051 171.604 101.613C170.926 101.175 170.41 100.572 170.056 99.804C169.708 99.03 169.528 98.142 169.516 97.14C169.528 96.12 169.714 95.226 170.074 94.458C170.434 93.684 170.953 93.084 171.631 92.658C172.309 92.226 173.131 92.01 174.097 92.01C175.081 92.01 175.936 92.25 176.662 92.73C177.394 93.21 177.895 93.867 178.165 94.701L176.869 95.115C176.641 94.533 176.278 94.083 175.78 93.765C175.288 93.441 174.724 93.279 174.088 93.279C173.374 93.279 172.783 93.444 172.315 93.774C171.847 94.098 171.499 94.551 171.271 95.133C171.043 95.715 170.926 96.384 170.92 97.14C170.932 98.304 171.202 99.24 171.73 99.948C172.258 100.65 173.044 101.001 174.088 101.001C174.748 101.001 175.309 100.851 175.771 100.551C176.239 100.245 176.593 99.801 176.833 99.219L178.165 99.615C177.805 100.479 177.277 101.139 176.581 101.595C175.885 102.045 175.054 102.27 174.088 102.27ZM184.151 102.27C183.173 102.27 182.345 102.051 181.667 101.613C180.989 101.175 180.473 100.572 180.119 99.804C179.771 99.03 179.591 98.142 179.579 97.14C179.591 96.12 179.777 95.226 180.137 94.458C180.497 93.684 181.016 93.084 181.694 92.658C182.372 92.226 183.194 92.01 184.16 92.01C185.144 92.01 185.999 92.25 186.725 92.73C187.457 93.21 187.958 93.867 188.228 94.701L186.932 95.115C186.704 94.533 186.341 94.083 185.843 93.765C185.351 93.441 184.787 93.279 184.151 93.279C183.437 93.279 182.846 93.444 182.378 93.774C181.91 94.098 181.562 94.551 181.334 95.133C181.106 95.715 180.989 96.384 180.983 97.14C180.995 98.304 181.265 99.24 181.793 99.948C182.321 100.65 183.107 101.001 184.151 101.001C184.811 101.001 185.372 100.851 185.834 100.551C186.302 100.245 186.656 99.801 186.896 99.219L188.228 99.615C187.868 100.479 187.34 101.139 186.644 101.595C185.948 102.045 185.117 102.27 184.151 102.27ZM198.168 92.28V102H196.881V94.431L191.553 102H190.437V92.28H191.724V99.786L197.061 92.28H198.168ZM207.147 102V98.337H204.879C204.615 98.337 204.342 98.328 204.06 98.31C203.784 98.286 203.526 98.253 203.286 98.211C202.602 98.079 202.02 97.779 201.54 97.311C201.066 96.837 200.829 96.183 200.829 95.349C200.829 94.533 201.051 93.879 201.495 93.387C201.939 92.889 202.476 92.565 203.106 92.415C203.394 92.349 203.685 92.31 203.979 92.298C204.279 92.286 204.537 92.28 204.753 92.28H208.47L208.479 102H207.147ZM200.514 102L203.223 97.923H204.69L201.963 102H200.514ZM204.807 97.203H207.147V93.414H204.807C204.663 93.414 204.462 93.42 204.204 93.432C203.946 93.444 203.703 93.483 203.475 93.549C203.277 93.609 203.079 93.714 202.881 93.864C202.689 94.008 202.527 94.203 202.395 94.449C202.263 94.689 202.197 94.983 202.197 95.331C202.197 95.817 202.329 96.207 202.593 96.501C202.863 96.789 203.199 96.987 203.601 97.095C203.817 97.143 204.033 97.173 204.249 97.185C204.465 97.197 204.651 97.203 204.807 97.203ZM216.712 106.32L218.593 101.217L218.62 102.729L214.363 92.28H215.767L219.259 101.019H218.683L221.905 92.28H223.255L218.035 106.32H216.712ZM224.099 102L228.203 97.14L224.27 92.28H225.764L229.598 97.077V92.28H230.822V97.077L234.656 92.28H236.141L232.208 97.14L236.312 102H234.773L230.822 97.203V102H229.598V97.203L225.638 102H224.099ZM241.868 102.27C240.92 102.27 240.098 102.06 239.402 101.64C238.712 101.22 238.175 100.629 237.791 99.867C237.407 99.105 237.215 98.211 237.215 97.185C237.215 96.123 237.404 95.205 237.782 94.431C238.16 93.657 238.691 93.06 239.375 92.64C240.065 92.22 240.878 92.01 241.814 92.01C242.774 92.01 243.593 92.232 244.271 92.676C244.949 93.114 245.462 93.744 245.81 94.566C246.158 95.388 246.317 96.369 246.287 97.509H244.937V97.041C244.913 95.781 244.64 94.83 244.118 94.188C243.602 93.546 242.846 93.225 241.85 93.225C240.806 93.225 240.005 93.564 239.447 94.242C238.895 94.92 238.619 95.886 238.619 97.14C238.619 98.364 238.895 99.315 239.447 99.993C240.005 100.665 240.794 101.001 241.814 101.001C242.51 101.001 243.116 100.842 243.632 100.524C244.154 100.2 244.565 99.735 244.865 99.129L246.098 99.606C245.714 100.452 245.147 101.109 244.397 101.577C243.653 102.039 242.81 102.27 241.868 102.27ZM238.151 97.509V96.402H245.576V97.509H238.151ZM260.33 92.28V102H259.043V94.431L253.715 102H252.599V92.28H253.886V99.786L259.223 92.28H260.33ZM262.496 104.16V100.866C263.048 100.866 263.444 100.689 263.684 100.335C263.924 99.975 264.119 99.402 264.269 98.616C264.371 98.106 264.455 97.557 264.521 96.969C264.587 96.381 264.644 95.709 264.692 94.953C264.74 94.191 264.785 93.3 264.827 92.28H271.253V100.866H272.189V104.16H270.911V102H263.765V104.16H262.496ZM264.737 100.866H269.939V93.414H266.051C266.033 93.87 266.006 94.353 265.97 94.863C265.94 95.373 265.901 95.883 265.853 96.393C265.811 96.903 265.76 97.383 265.7 97.833C265.646 98.277 265.58 98.667 265.502 99.003C265.412 99.435 265.313 99.804 265.205 100.11C265.103 100.416 264.947 100.668 264.737 100.866ZM279.41 90.381V88.941H280.85V90.381H279.41ZM275.981 90.381V88.941H277.421V90.381H275.981ZM278.465 102.27C277.517 102.27 276.695 102.06 275.999 101.64C275.309 101.22 274.772 100.629 274.388 99.867C274.004 99.105 273.812 98.211 273.812 97.185C273.812 96.123 274.001 95.205 274.379 94.431C274.757 93.657 275.288 93.06 275.972 92.64C276.662 92.22 277.475 92.01 278.411 92.01C279.371 92.01 280.19 92.232 280.868 92.676C281.546 93.114 282.059 93.744 282.407 94.566C282.755 95.388 282.914 96.369 282.884 97.509H281.534V97.041C281.51 95.781 281.237 94.83 280.715 94.188C280.199 93.546 279.443 93.225 278.447 93.225C277.403 93.225 276.602 93.564 276.044 94.242C275.492 94.92 275.216 95.886 275.216 97.14C275.216 98.364 275.492 99.315 276.044 99.993C276.602 100.665 277.391 101.001 278.411 101.001C279.107 101.001 279.713 100.842 280.229 100.524C280.751 100.2 281.162 99.735 281.462 99.129L282.695 99.606C282.311 100.452 281.744 101.109 280.994 101.577C280.25 102.039 279.407 102.27 278.465 102.27ZM274.748 97.509V96.402H282.173V97.509H274.748ZM287.755 102V93.504H284.308V92.28H292.525V93.504H289.078V102H287.755ZM292.979 103.881L293.06 103.224C293.3 103.242 293.474 103.194 293.582 103.08C293.69 102.966 293.756 102.813 293.78 102.621C293.804 102.429 293.81 102.222 293.798 102H292.979V100.101H294.518V102.36C294.518 102.912 294.377 103.326 294.095 103.602C293.819 103.878 293.447 103.971 292.979 103.881ZM111.85 131.27C110.872 131.27 110.044 131.051 109.366 130.613C108.688 130.175 108.172 129.572 107.818 128.804C107.47 128.03 107.29 127.142 107.278 126.14C107.29 125.12 107.476 124.226 107.836 123.458C108.196 122.684 108.715 122.084 109.393 121.658C110.071 121.226 110.893 121.01 111.859 121.01C112.843 121.01 113.698 121.25 114.424 121.73C115.156 122.21 115.657 122.867 115.927 123.701L114.631 124.115C114.403 123.533 114.04 123.083 113.542 122.765C113.05 122.441 112.486 122.279 111.85 122.279C111.136 122.279 110.545 122.444 110.077 122.774C109.609 123.098 109.261 123.551 109.033 124.133C108.805 124.715 108.688 125.384 108.682 126.14C108.694 127.304 108.964 128.24 109.492 128.948C110.02 129.65 110.806 130.001 111.85 130.001C112.51 130.001 113.071 129.851 113.533 129.551C114.001 129.245 114.355 128.801 114.595 128.219L115.927 128.615C115.567 129.479 115.039 130.139 114.343 130.595C113.647 131.045 112.816 131.27 111.85 131.27ZM118.136 131L118.145 121.28H119.477V125.96L123.815 121.28H125.579L121.025 126.14L126.173 131H124.247L119.477 126.32V131H118.136ZM131.318 131.27C130.352 131.27 129.527 131.051 128.843 130.613C128.159 130.175 127.634 129.569 127.268 128.795C126.902 128.021 126.719 127.133 126.719 126.131C126.719 125.111 126.905 124.217 127.277 123.449C127.649 122.681 128.177 122.084 128.861 121.658C129.551 121.226 130.37 121.01 131.318 121.01C132.29 121.01 133.118 121.229 133.802 121.667C134.492 122.099 135.017 122.702 135.377 123.476C135.743 124.244 135.926 125.129 135.926 126.131C135.926 127.151 135.743 128.048 135.377 128.822C135.011 129.59 134.483 130.19 133.793 130.622C133.103 131.054 132.278 131.27 131.318 131.27ZM131.318 130.001C132.398 130.001 133.202 129.644 133.73 128.93C134.258 128.21 134.522 127.277 134.522 126.131C134.522 124.955 134.255 124.019 133.721 123.323C133.193 122.627 132.392 122.279 131.318 122.279C130.592 122.279 129.992 122.444 129.518 122.774C129.05 123.098 128.699 123.551 128.465 124.133C128.237 124.709 128.123 125.375 128.123 126.131C128.123 127.301 128.393 128.24 128.933 128.948C129.473 129.65 130.268 130.001 131.318 130.001ZM142.636 131.27C141.742 131.27 140.986 131.045 140.368 130.595C139.75 130.139 139.282 129.524 138.964 128.75C138.646 127.97 138.487 127.097 138.487 126.131C138.487 125.147 138.646 124.271 138.964 123.503C139.288 122.729 139.762 122.12 140.386 121.676C141.01 121.232 141.778 121.01 142.69 121.01C143.578 121.01 144.34 121.235 144.976 121.685C145.612 122.135 146.098 122.747 146.434 123.521C146.776 124.295 146.947 125.165 146.947 126.131C146.947 127.103 146.776 127.976 146.434 128.75C146.092 129.524 145.6 130.139 144.958 130.595C144.316 131.045 143.542 131.27 142.636 131.27ZM138.262 135.32V121.28H139.45V128.597H139.594V135.32H138.262ZM142.501 130.037C143.179 130.037 143.743 129.866 144.193 129.524C144.643 129.182 144.979 128.717 145.201 128.129C145.429 127.535 145.543 126.869 145.543 126.131C145.543 125.399 145.432 124.739 145.21 124.151C144.988 123.563 144.649 123.098 144.193 122.756C143.743 122.414 143.17 122.243 142.474 122.243C141.796 122.243 141.232 122.408 140.782 122.738C140.338 123.068 140.005 123.527 139.783 124.115C139.561 124.697 139.45 125.369 139.45 126.131C139.45 126.881 139.561 127.553 139.783 128.147C140.005 128.735 140.341 129.197 140.791 129.533C141.241 129.869 141.811 130.037 142.501 130.037ZM153.342 131.27C152.376 131.27 151.551 131.051 150.867 130.613C150.183 130.175 149.658 129.569 149.292 128.795C148.926 128.021 148.743 127.133 148.743 126.131C148.743 125.111 148.929 124.217 149.301 123.449C149.673 122.681 150.201 122.084 150.885 121.658C151.575 121.226 152.394 121.01 153.342 121.01C154.314 121.01 155.142 121.229 155.826 121.667C156.516 122.099 157.041 122.702 157.401 123.476C157.767 124.244 157.95 125.129 157.95 126.131C157.95 127.151 157.767 128.048 157.401 128.822C157.035 129.59 156.507 130.19 155.817 130.622C155.127 131.054 154.302 131.27 153.342 131.27ZM153.342 130.001C154.422 130.001 155.226 129.644 155.754 128.93C156.282 128.21 156.546 127.277 156.546 126.131C156.546 124.955 156.279 124.019 155.745 123.323C155.217 122.627 154.416 122.279 153.342 122.279C152.616 122.279 152.016 122.444 151.542 122.774C151.074 123.098 150.723 123.551 150.489 124.133C150.261 124.709 150.147 125.375 150.147 126.131C150.147 127.301 150.417 128.24 150.957 128.948C151.497 129.65 152.292 130.001 153.342 130.001ZM164.25 131V121.28H171.981V131H170.658V122.549H165.573V131H164.25ZM178.926 131.27C177.96 131.27 177.135 131.051 176.451 130.613C175.767 130.175 175.242 129.569 174.876 128.795C174.51 128.021 174.327 127.133 174.327 126.131C174.327 125.111 174.513 124.217 174.885 123.449C175.257 122.681 175.785 122.084 176.469 121.658C177.159 121.226 177.978 121.01 178.926 121.01C179.898 121.01 180.726 121.229 181.41 121.667C182.1 122.099 182.625 122.702 182.985 123.476C183.351 124.244 183.534 125.129 183.534 126.131C183.534 127.151 183.351 128.048 182.985 128.822C182.619 129.59 182.091 130.19 181.401 130.622C180.711 131.054 179.886 131.27 178.926 131.27ZM178.926 130.001C180.006 130.001 180.81 129.644 181.338 128.93C181.866 128.21 182.13 127.277 182.13 126.131C182.13 124.955 181.863 124.019 181.329 123.323C180.801 122.627 180 122.279 178.926 122.279C178.2 122.279 177.6 122.444 177.126 122.774C176.658 123.098 176.307 123.551 176.073 124.133C175.845 124.709 175.731 125.375 175.731 126.131C175.731 127.301 176.001 128.24 176.541 128.948C177.081 129.65 177.876 130.001 178.926 130.001ZM191.972 131V127.337H189.704C189.44 127.337 189.167 127.328 188.885 127.31C188.609 127.286 188.351 127.253 188.111 127.211C187.427 127.079 186.845 126.779 186.365 126.311C185.891 125.837 185.654 125.183 185.654 124.349C185.654 123.533 185.876 122.879 186.32 122.387C186.764 121.889 187.301 121.565 187.931 121.415C188.219 121.349 188.51 121.31 188.804 121.298C189.104 121.286 189.362 121.28 189.578 121.28H193.295L193.304 131H191.972ZM185.339 131L188.048 126.923H189.515L186.788 131H185.339ZM189.632 126.203H191.972V122.414H189.632C189.488 122.414 189.287 122.42 189.029 122.432C188.771 122.444 188.528 122.483 188.3 122.549C188.102 122.609 187.904 122.714 187.706 122.864C187.514 123.008 187.352 123.203 187.22 123.449C187.088 123.689 187.022 123.983 187.022 124.331C187.022 124.817 187.154 125.207 187.418 125.501C187.688 125.789 188.024 125.987 188.426 126.095C188.642 126.143 188.858 126.173 189.074 126.185C189.29 126.197 189.476 126.203 189.632 126.203ZM196.18 131V121.28H200.185C200.389 121.28 200.635 121.292 200.923 121.316C201.217 121.34 201.49 121.385 201.742 121.451C202.288 121.595 202.726 121.889 203.056 122.333C203.392 122.777 203.56 123.311 203.56 123.935C203.56 124.283 203.506 124.595 203.398 124.871C203.296 125.141 203.149 125.375 202.957 125.573C202.867 125.675 202.768 125.765 202.66 125.843C202.552 125.915 202.447 125.975 202.345 126.023C202.537 126.059 202.744 126.143 202.966 126.275C203.314 126.479 203.578 126.755 203.758 127.103C203.938 127.445 204.028 127.862 204.028 128.354C204.028 129.02 203.869 129.563 203.551 129.983C203.233 130.403 202.807 130.691 202.273 130.847C202.033 130.913 201.772 130.955 201.49 130.973C201.214 130.991 200.953 131 200.707 131H196.18ZM197.512 129.875H200.644C200.77 129.875 200.929 129.866 201.121 129.848C201.313 129.824 201.484 129.794 201.634 129.758C201.988 129.668 202.246 129.488 202.408 129.218C202.576 128.942 202.66 128.642 202.66 128.318C202.66 127.892 202.534 127.544 202.282 127.274C202.036 126.998 201.706 126.83 201.292 126.77C201.154 126.74 201.01 126.722 200.86 126.716C200.71 126.71 200.575 126.707 200.455 126.707H197.512V129.875ZM197.512 125.573H200.23C200.386 125.573 200.56 125.564 200.752 125.546C200.95 125.522 201.121 125.483 201.265 125.429C201.577 125.321 201.805 125.135 201.949 124.871C202.099 124.607 202.174 124.319 202.174 124.007C202.174 123.665 202.093 123.365 201.931 123.107C201.775 122.849 201.538 122.669 201.22 122.567C201.004 122.489 200.77 122.444 200.518 122.432C200.272 122.42 200.116 122.414 200.05 122.414H197.512V125.573ZM213.904 121.28V131H212.617V123.431L207.289 131H206.173V121.28H207.46V128.786L212.797 121.28H213.904ZM219.427 131V122.504H215.98V121.28H224.197V122.504H220.75V131H219.427ZM230.129 131.27C229.151 131.27 228.323 131.051 227.645 130.613C226.967 130.175 226.451 129.572 226.097 128.804C225.749 128.03 225.569 127.142 225.557 126.14C225.569 125.12 225.755 124.226 226.115 123.458C226.475 122.684 226.994 122.084 227.672 121.658C228.35 121.226 229.172 121.01 230.138 121.01C231.122 121.01 231.977 121.25 232.703 121.73C233.435 122.21 233.936 122.867 234.206 123.701L232.91 124.115C232.682 123.533 232.319 123.083 231.821 122.765C231.329 122.441 230.765 122.279 230.129 122.279C229.415 122.279 228.824 122.444 228.356 122.774C227.888 123.098 227.54 123.551 227.312 124.133C227.084 124.715 226.967 125.384 226.961 126.14C226.973 127.304 227.243 128.24 227.771 128.948C228.299 129.65 229.085 130.001 230.129 130.001C230.789 130.001 231.35 129.851 231.812 129.551C232.28 129.245 232.634 128.801 232.874 128.219L234.206 128.615C233.846 129.479 233.318 130.139 232.622 130.595C231.926 131.045 231.095 131.27 230.129 131.27ZM242.464 131V127.337H240.196C239.932 127.337 239.659 127.328 239.377 127.31C239.101 127.286 238.843 127.253 238.603 127.211C237.919 127.079 237.337 126.779 236.857 126.311C236.383 125.837 236.146 125.183 236.146 124.349C236.146 123.533 236.368 122.879 236.812 122.387C237.256 121.889 237.793 121.565 238.423 121.415C238.711 121.349 239.002 121.31 239.296 121.298C239.596 121.286 239.854 121.28 240.07 121.28H243.787L243.796 131H242.464ZM235.831 131L238.54 126.923H240.007L237.28 131H235.831ZM240.124 126.203H242.464V122.414H240.124C239.98 122.414 239.779 122.42 239.521 122.432C239.263 122.444 239.02 122.483 238.792 122.549C238.594 122.609 238.396 122.714 238.198 122.864C238.006 123.008 237.844 123.203 237.712 123.449C237.58 123.689 237.514 123.983 237.514 124.331C237.514 124.817 237.646 125.207 237.91 125.501C238.18 125.789 238.516 125.987 238.918 126.095C239.134 126.143 239.35 126.173 239.566 126.185C239.782 126.197 239.968 126.203 240.124 126.203ZM255.252 135.05V131.189C254.304 131.339 253.44 131.237 252.66 130.883C251.88 130.523 251.259 129.941 250.797 129.137C250.335 128.333 250.104 127.337 250.104 126.149C250.104 124.961 250.335 123.965 250.797 123.161C251.259 122.351 251.88 121.766 252.66 121.406C253.44 121.046 254.304 120.941 255.252 121.091V118.112H256.476V121.091C257.424 120.941 258.288 121.046 259.068 121.406C259.848 121.766 260.469 122.351 260.931 123.161C261.393 123.965 261.624 124.961 261.624 126.149C261.624 127.337 261.393 128.333 260.931 129.137C260.469 129.941 259.848 130.523 259.068 130.883C258.288 131.237 257.424 131.339 256.476 131.189V135.05H255.252ZM255.252 129.956V122.333C254.766 122.249 254.298 122.264 253.848 122.378C253.398 122.486 252.993 122.699 252.633 123.017C252.273 123.329 251.988 123.746 251.778 124.268C251.574 124.784 251.472 125.411 251.472 126.149C251.472 126.887 251.577 127.517 251.787 128.039C251.997 128.555 252.282 128.969 252.642 129.281C253.002 129.593 253.407 129.803 253.857 129.911C254.307 130.019 254.772 130.034 255.252 129.956ZM256.476 129.956C256.956 130.034 257.421 130.019 257.871 129.911C258.321 129.803 258.726 129.596 259.086 129.29C259.446 128.978 259.731 128.564 259.941 128.048C260.151 127.526 260.256 126.893 260.256 126.149C260.256 125.405 260.151 124.775 259.941 124.259C259.737 123.737 259.455 123.32 259.095 123.008C258.735 122.696 258.33 122.486 257.88 122.378C257.43 122.264 256.962 122.249 256.476 122.333V129.956ZM268.018 131.27C267.052 131.27 266.227 131.051 265.543 130.613C264.859 130.175 264.334 129.569 263.968 128.795C263.602 128.021 263.419 127.133 263.419 126.131C263.419 125.111 263.605 124.217 263.977 123.449C264.349 122.681 264.877 122.084 265.561 121.658C266.251 121.226 267.07 121.01 268.018 121.01C268.99 121.01 269.818 121.229 270.502 121.667C271.192 122.099 271.717 122.702 272.077 123.476C272.443 124.244 272.626 125.129 272.626 126.131C272.626 127.151 272.443 128.048 272.077 128.822C271.711 129.59 271.183 130.19 270.493 130.622C269.803 131.054 268.978 131.27 268.018 131.27ZM268.018 130.001C269.098 130.001 269.902 129.644 270.43 128.93C270.958 128.21 271.222 127.277 271.222 126.131C271.222 124.955 270.955 124.019 270.421 123.323C269.893 122.627 269.092 122.279 268.018 122.279C267.292 122.279 266.692 122.444 266.218 122.774C265.75 123.098 265.399 123.551 265.165 124.133C264.937 124.709 264.823 125.375 264.823 126.131C264.823 127.301 265.093 128.24 265.633 128.948C266.173 129.65 266.968 130.001 268.018 130.001ZM277.38 131V122.504H273.933V121.28H282.15V122.504H278.703V131H277.38ZM288.109 131.27C287.143 131.27 286.318 131.051 285.634 130.613C284.95 130.175 284.425 129.569 284.059 128.795C283.693 128.021 283.51 127.133 283.51 126.131C283.51 125.111 283.696 124.217 284.068 123.449C284.44 122.681 284.968 122.084 285.652 121.658C286.342 121.226 287.161 121.01 288.109 121.01C289.081 121.01 289.909 121.229 290.593 121.667C291.283 122.099 291.808 122.702 292.168 123.476C292.534 124.244 292.717 125.129 292.717 126.131C292.717 127.151 292.534 128.048 292.168 128.822C291.802 129.59 291.274 130.19 290.584 130.622C289.894 131.054 289.069 131.27 288.109 131.27ZM288.109 130.001C289.189 130.001 289.993 129.644 290.521 128.93C291.049 128.21 291.313 127.277 291.313 126.131C291.313 124.955 291.046 124.019 290.512 123.323C289.984 122.627 289.183 122.279 288.109 122.279C287.383 122.279 286.783 122.444 286.309 122.774C285.841 123.098 285.49 123.551 285.256 124.133C285.028 124.709 284.914 125.375 284.914 126.131C284.914 127.301 285.184 128.24 285.724 128.948C286.264 129.65 287.059 130.001 288.109 130.001Z" fill="#170707"/>
</svg>
