<svg width="853" height="899" viewBox="0 0 853 899" fill="none" xmlns="http://www.w3.org/2000/svg">
<circle cx="241" cy="433" r="87" fill="#DD3A1A"/>
<path d="M0 687.427V898.855H426.5H853V687.427V476L652 323.5L494 438L412 382L294.5 476C294.208 477.896 292.645 486.498 291.77 491.31C284 513.5 254 545 219 554.593C216 554.611 341.637 554.447 485.7 554.593C629.762 554.738 747.87 555.03 748.307 555.468C750.203 557.509 741.162 587.109 734.601 600.232L730.518 608.689H427.229H123.94L118.983 598.774C113.879 588.567 107.463 569.465 106.005 560.134L105.13 554.738L153.54 554.593C197.867 554.593 196.5 554.738 219 554.593C260 542.5 297.27 507.058 294.5 476L198.5 438L106.005 476H66.9277H0V687.427ZM708.792 639.164C704.418 645.288 687.795 660.306 678.463 666.43C666.652 674.304 647.843 682.616 634.136 686.115C622.034 689.177 619.701 689.177 441.81 689.906C253.567 690.635 239.861 690.198 218.718 684.365C205.012 680.574 186.931 672.263 174.829 663.952C165.059 657.39 147.999 641.934 145.666 637.414C144.354 635.081 158.206 634.935 427.958 634.935H711.708L708.792 639.164Z" fill="#D8D8D8"/>
<path d="M0 238V476H52.3465H104.693L105.276 428.237C106.005 383.571 106.297 379.659 109.796 364.825C116.795 334.993 129.335 310.378 148.582 287.882C171.183 261.637 199.325 245.173 231.695 238.815C250.213 235.066 604.536 235.229 623.346 238.815C682.4 250.389 728.477 298.804 743.933 365.803C746.557 377.377 747.141 385.038 747.578 427.422L748.307 476H800.654H853V238V0H426.5H0V238Z" fill="#D8D8D8"/>
<path d="M198.492 138V135.899C197.678 136.038 196.89 136.002 196.127 135.789C195.372 135.569 194.694 135.191 194.092 134.656C193.498 134.113 193.025 133.42 192.673 132.577C192.321 131.726 192.145 130.733 192.145 129.596C192.145 128.459 192.321 127.466 192.673 126.615C193.025 125.764 193.498 125.068 194.092 124.525C194.694 123.975 195.372 123.594 196.127 123.381C196.89 123.161 197.678 123.121 198.492 123.26V122.16H200.098V123.26C200.912 123.121 201.701 123.161 202.463 123.381C203.226 123.594 203.904 123.975 204.498 124.525C205.1 125.068 205.576 125.764 205.928 126.615C206.28 127.466 206.456 128.459 206.456 129.596C206.456 130.733 206.28 131.726 205.928 132.577C205.576 133.42 205.1 134.113 204.498 134.656C203.904 135.191 203.226 135.569 202.463 135.789C201.701 136.002 200.912 136.038 200.098 135.899V138H198.492ZM198.492 134.359V124.767C197.796 124.664 197.158 124.716 196.578 124.921C196.006 125.119 195.515 125.438 195.104 125.878C194.694 126.318 194.375 126.857 194.147 127.495C193.927 128.126 193.817 128.826 193.817 129.596C193.817 130.366 193.927 131.066 194.147 131.697C194.375 132.32 194.694 132.848 195.104 133.281C195.515 133.714 196.006 134.025 196.578 134.216C197.158 134.407 197.796 134.454 198.492 134.359ZM200.098 134.359C200.802 134.454 201.44 134.407 202.012 134.216C202.584 134.018 203.076 133.706 203.486 133.281C203.904 132.848 204.223 132.32 204.443 131.697C204.671 131.074 204.784 130.384 204.784 129.629C204.784 128.866 204.671 128.17 204.443 127.539C204.223 126.901 203.904 126.358 203.486 125.911C203.076 125.464 202.584 125.137 202.012 124.932C201.44 124.719 200.802 124.664 200.098 124.767V134.359ZM214.067 138.33C212.886 138.33 211.878 138.062 211.042 137.527C210.206 136.992 209.564 136.251 209.117 135.305C208.67 134.359 208.446 133.274 208.446 132.049C208.446 130.802 208.673 129.71 209.128 128.771C209.583 127.832 210.228 127.103 211.064 126.582C211.907 126.054 212.908 125.79 214.067 125.79C215.255 125.79 216.267 126.058 217.103 126.593C217.946 127.121 218.588 127.858 219.028 128.804C219.475 129.743 219.699 130.824 219.699 132.049C219.699 133.296 219.475 134.392 219.028 135.338C218.581 136.277 217.935 137.01 217.092 137.538C216.249 138.066 215.24 138.33 214.067 138.33ZM214.067 136.779C215.387 136.779 216.37 136.343 217.015 135.47C217.66 134.59 217.983 133.45 217.983 132.049C217.983 130.612 217.657 129.468 217.004 128.617C216.359 127.766 215.38 127.341 214.067 127.341C213.18 127.341 212.446 127.543 211.867 127.946C211.295 128.342 210.866 128.896 210.58 129.607C210.301 130.311 210.162 131.125 210.162 132.049C210.162 133.479 210.492 134.627 211.152 135.492C211.812 136.35 212.784 136.779 214.067 136.779ZM225.509 138V127.616H221.296V126.12H231.339V127.616H227.126V138H225.509ZM238.623 138.33C237.442 138.33 236.434 138.062 235.598 137.527C234.762 136.992 234.12 136.251 233.673 135.305C233.225 134.359 233.002 133.274 233.002 132.049C233.002 130.802 233.229 129.71 233.684 128.771C234.138 127.832 234.784 127.103 235.62 126.582C236.463 126.054 237.464 125.79 238.623 125.79C239.811 125.79 240.823 126.058 241.659 126.593C242.502 127.121 243.144 127.858 243.584 128.804C244.031 129.743 244.255 130.824 244.255 132.049C244.255 133.296 244.031 134.392 243.584 135.338C243.136 136.277 242.491 137.01 241.648 137.538C240.804 138.066 239.796 138.33 238.623 138.33ZM238.623 136.779C239.943 136.779 240.925 136.343 241.571 135.47C242.216 134.59 242.539 133.45 242.539 132.049C242.539 130.612 242.212 129.468 241.56 128.617C240.914 127.766 239.935 127.341 238.623 127.341C237.735 127.341 237.002 127.543 236.423 127.946C235.851 128.342 235.422 128.896 235.136 129.607C234.857 130.311 234.718 131.125 234.718 132.049C234.718 133.479 235.048 134.627 235.708 135.492C236.368 136.35 237.339 136.779 238.623 136.779ZM252.049 138.33C250.854 138.33 249.842 138.062 249.013 137.527C248.185 136.992 247.554 136.255 247.121 135.316C246.696 134.37 246.476 133.285 246.461 132.06C246.476 130.813 246.703 129.721 247.143 128.782C247.583 127.836 248.218 127.103 249.046 126.582C249.875 126.054 250.88 125.79 252.06 125.79C253.263 125.79 254.308 126.083 255.195 126.67C256.09 127.257 256.702 128.06 257.032 129.079L255.448 129.585C255.17 128.874 254.726 128.324 254.117 127.935C253.516 127.539 252.827 127.341 252.049 127.341C251.177 127.341 250.454 127.543 249.882 127.946C249.31 128.342 248.885 128.896 248.606 129.607C248.328 130.318 248.185 131.136 248.177 132.06C248.192 133.483 248.522 134.627 249.167 135.492C249.813 136.35 250.773 136.779 252.049 136.779C252.856 136.779 253.542 136.596 254.106 136.229C254.678 135.855 255.111 135.312 255.404 134.601L257.032 135.085C256.592 136.141 255.947 136.948 255.096 137.505C254.246 138.055 253.23 138.33 252.049 138.33ZM264.77 138.33C263.611 138.33 262.607 138.073 261.756 137.56C260.913 137.047 260.256 136.324 259.787 135.393C259.318 134.462 259.083 133.369 259.083 132.115C259.083 130.817 259.314 129.695 259.776 128.749C260.238 127.803 260.887 127.073 261.723 126.56C262.566 126.047 263.56 125.79 264.704 125.79C265.877 125.79 266.878 126.061 267.707 126.604C268.536 127.139 269.163 127.909 269.588 128.914C270.013 129.919 270.208 131.118 270.171 132.511H268.521V131.939C268.492 130.399 268.158 129.237 267.52 128.452C266.889 127.667 265.965 127.275 264.748 127.275C263.472 127.275 262.493 127.689 261.811 128.518C261.136 129.347 260.799 130.527 260.799 132.06C260.799 133.556 261.136 134.718 261.811 135.547C262.493 136.368 263.457 136.779 264.704 136.779C265.555 136.779 266.295 136.585 266.926 136.196C267.564 135.8 268.066 135.232 268.433 134.491L269.94 135.074C269.471 136.108 268.778 136.911 267.861 137.483C266.952 138.048 265.921 138.33 264.77 138.33ZM260.227 132.511V131.158H269.302V132.511H260.227ZM277.98 138.33C276.785 138.33 275.773 138.062 274.944 137.527C274.115 136.992 273.485 136.255 273.052 135.316C272.627 134.37 272.407 133.285 272.392 132.06C272.407 130.813 272.634 129.721 273.074 128.782C273.514 127.836 274.148 127.103 274.977 126.582C275.806 126.054 276.81 125.79 277.991 125.79C279.194 125.79 280.239 126.083 281.126 126.67C282.021 127.257 282.633 128.06 282.963 129.079L281.379 129.585C281.1 128.874 280.657 128.324 280.048 127.935C279.447 127.539 278.757 127.341 277.98 127.341C277.107 127.341 276.385 127.543 275.813 127.946C275.241 128.342 274.816 128.896 274.537 129.607C274.258 130.318 274.115 131.136 274.108 132.06C274.123 133.483 274.453 134.627 275.098 135.492C275.743 136.35 276.704 136.779 277.98 136.779C278.787 136.779 279.472 136.596 280.037 136.229C280.609 135.855 281.042 135.312 281.335 134.601L282.963 135.085C282.523 136.141 281.878 136.948 281.027 137.505C280.176 138.055 279.161 138.33 277.98 138.33ZM290.28 138.33C289.084 138.33 288.072 138.062 287.244 137.527C286.415 136.992 285.784 136.255 285.352 135.316C284.926 134.37 284.706 133.285 284.692 132.06C284.706 130.813 284.934 129.721 285.374 128.782C285.814 127.836 286.448 127.103 287.277 126.582C288.105 126.054 289.11 125.79 290.291 125.79C291.493 125.79 292.538 126.083 293.426 126.67C294.32 127.257 294.933 128.06 295.263 129.079L293.679 129.585C293.4 128.874 292.956 128.324 292.348 127.935C291.746 127.539 291.057 127.341 290.28 127.341C289.407 127.341 288.685 127.543 288.113 127.946C287.541 128.342 287.115 128.896 286.837 129.607C286.558 130.318 286.415 131.136 286.408 132.06C286.422 133.483 286.752 134.627 287.398 135.492C288.043 136.35 289.004 136.779 290.28 136.779C291.086 136.779 291.772 136.596 292.337 136.229C292.909 135.855 293.341 135.312 293.635 134.601L295.263 135.085C294.823 136.141 294.177 136.948 293.327 137.505C292.476 138.055 291.46 138.33 290.28 138.33ZM307.411 126.12V138H305.838V128.749L299.326 138H297.962V126.12H299.535V135.294L306.058 126.12H307.411ZM318.386 138V133.523H315.614C315.291 133.523 314.957 133.512 314.613 133.49C314.275 133.461 313.96 133.42 313.667 133.369C312.831 133.208 312.119 132.841 311.533 132.269C310.953 131.69 310.664 130.89 310.664 129.871C310.664 128.874 310.935 128.074 311.478 127.473C312.02 126.864 312.677 126.468 313.447 126.285C313.799 126.204 314.154 126.157 314.514 126.142C314.88 126.127 315.196 126.12 315.46 126.12H320.003L320.014 138H318.386ZM310.279 138L313.59 133.017H315.383L312.05 138H310.279ZM315.526 132.137H318.386V127.506H315.526C315.35 127.506 315.104 127.513 314.789 127.528C314.473 127.543 314.176 127.59 313.898 127.671C313.656 127.744 313.414 127.873 313.172 128.056C312.937 128.232 312.739 128.47 312.578 128.771C312.416 129.064 312.336 129.424 312.336 129.849C312.336 130.443 312.497 130.92 312.82 131.279C313.15 131.631 313.56 131.873 314.052 132.005C314.316 132.064 314.58 132.1 314.844 132.115C315.108 132.13 315.335 132.137 315.526 132.137ZM330.077 143.28L332.376 137.043L332.409 138.891L327.206 126.12H328.922L333.19 136.801H332.486L336.424 126.12H338.074L331.694 143.28H330.077ZM339.105 138L344.121 132.06L339.314 126.12H341.14L345.826 131.983V126.12H347.322V131.983L352.008 126.12H353.823L349.016 132.06L354.032 138H352.151L347.322 132.137V138H345.826V132.137L340.986 138H339.105ZM360.823 138.33C359.665 138.33 358.66 138.073 357.809 137.56C356.966 137.047 356.31 136.324 355.84 135.393C355.371 134.462 355.136 133.369 355.136 132.115C355.136 130.817 355.367 129.695 355.829 128.749C356.291 127.803 356.94 127.073 357.776 126.56C358.62 126.047 359.613 125.79 360.757 125.79C361.931 125.79 362.932 126.061 363.76 126.604C364.589 127.139 365.216 127.909 365.641 128.914C366.067 129.919 366.261 131.118 366.224 132.511H364.574V131.939C364.545 130.399 364.211 129.237 363.573 128.452C362.943 127.667 362.019 127.275 360.801 127.275C359.525 127.275 358.546 127.689 357.864 128.518C357.19 129.347 356.852 130.527 356.852 132.06C356.852 133.556 357.19 134.718 357.864 135.547C358.546 136.368 359.511 136.779 360.757 136.779C361.608 136.779 362.349 136.585 362.979 136.196C363.617 135.8 364.12 135.232 364.486 134.491L365.993 135.074C365.524 136.108 364.831 136.911 363.914 137.483C363.005 138.048 361.975 138.33 360.823 138.33ZM356.28 132.511V131.158H365.355V132.511H356.28ZM383.388 126.12V138H381.815V128.749L375.303 138H373.939V126.12H375.512V135.294L382.035 126.12H383.388ZM386.035 140.64V136.614C386.71 136.614 387.194 136.398 387.487 135.965C387.78 135.525 388.019 134.825 388.202 133.864C388.327 133.241 388.429 132.57 388.51 131.851C388.591 131.132 388.66 130.311 388.719 129.387C388.778 128.456 388.833 127.367 388.884 126.12H396.738V136.614H397.882V140.64H396.32V138H387.586V140.64H386.035ZM388.774 136.614H395.132V127.506H390.38C390.358 128.063 390.325 128.654 390.281 129.277C390.244 129.9 390.197 130.524 390.138 131.147C390.087 131.77 390.024 132.357 389.951 132.907C389.885 133.45 389.804 133.926 389.709 134.337C389.599 134.865 389.478 135.316 389.346 135.69C389.221 136.064 389.031 136.372 388.774 136.614ZM406.707 123.799V122.039H408.467V123.799H406.707ZM402.516 123.799V122.039H404.276V123.799H402.516ZM405.552 138.33C404.393 138.33 403.389 138.073 402.538 137.56C401.695 137.047 401.038 136.324 400.569 135.393C400.1 134.462 399.865 133.369 399.865 132.115C399.865 130.817 400.096 129.695 400.558 128.749C401.02 127.803 401.669 127.073 402.505 126.56C403.348 126.047 404.342 125.79 405.486 125.79C406.659 125.79 407.66 126.061 408.489 126.604C409.318 127.139 409.945 127.909 410.37 128.914C410.795 129.919 410.99 131.118 410.953 132.511H409.303V131.939C409.274 130.399 408.94 129.237 408.302 128.452C407.671 127.667 406.747 127.275 405.53 127.275C404.254 127.275 403.275 127.689 402.593 128.518C401.918 129.347 401.581 130.527 401.581 132.06C401.581 133.556 401.918 134.718 402.593 135.547C403.275 136.368 404.239 136.779 405.486 136.779C406.337 136.779 407.077 136.585 407.708 136.196C408.346 135.8 408.848 135.232 409.215 134.491L410.722 135.074C410.253 136.108 409.56 136.911 408.643 137.483C407.734 138.048 406.703 138.33 405.552 138.33ZM401.009 132.511V131.158H410.084V132.511H401.009ZM416.907 138V127.616H412.694V126.12H422.737V127.616H418.524V138H416.907ZM423.292 140.299L423.391 139.496C423.685 139.518 423.897 139.459 424.029 139.32C424.161 139.181 424.242 138.994 424.271 138.759C424.301 138.524 424.308 138.271 424.293 138H423.292V135.679H425.173V138.44C425.173 139.115 425.001 139.621 424.656 139.958C424.319 140.295 423.864 140.409 423.292 140.299ZM439.568 138.33C438.373 138.33 437.361 138.062 436.532 137.527C435.704 136.992 435.073 136.255 434.64 135.316C434.215 134.37 433.995 133.285 433.98 132.06C433.995 130.813 434.222 129.721 434.662 128.782C435.102 127.836 435.737 127.103 436.565 126.582C437.394 126.054 438.399 125.79 439.579 125.79C440.782 125.79 441.827 126.083 442.714 126.67C443.609 127.257 444.221 128.06 444.551 129.079L442.967 129.585C442.689 128.874 442.245 128.324 441.636 127.935C441.035 127.539 440.346 127.341 439.568 127.341C438.696 127.341 437.973 127.543 437.401 127.946C436.829 128.342 436.404 128.896 436.125 129.607C435.847 130.318 435.704 131.136 435.696 132.06C435.711 133.483 436.041 134.627 436.686 135.492C437.332 136.35 438.292 136.779 439.568 136.779C440.375 136.779 441.061 136.596 441.625 136.229C442.197 135.855 442.63 135.312 442.923 134.601L444.551 135.085C444.111 136.141 443.466 136.948 442.615 137.505C441.765 138.055 440.749 138.33 439.568 138.33ZM447.251 138L447.262 126.12H448.89V131.84L454.192 126.12H456.348L450.782 132.06L457.074 138H454.72L448.89 132.28V138H447.251ZM463.362 138.33C462.182 138.33 461.173 138.062 460.337 137.527C459.501 136.992 458.86 136.251 458.412 135.305C457.965 134.359 457.741 133.274 457.741 132.049C457.741 130.802 457.969 129.71 458.423 128.771C458.878 127.832 459.523 127.103 460.359 126.582C461.203 126.054 462.204 125.79 463.362 125.79C464.55 125.79 465.562 126.058 466.398 126.593C467.242 127.121 467.883 127.858 468.323 128.804C468.771 129.743 468.994 130.824 468.994 132.049C468.994 133.296 468.771 134.392 468.323 135.338C467.876 136.277 467.231 137.01 466.387 137.538C465.544 138.066 464.536 138.33 463.362 138.33ZM463.362 136.779C464.682 136.779 465.665 136.343 466.31 135.47C466.956 134.59 467.278 133.45 467.278 132.049C467.278 130.612 466.952 129.468 466.299 128.617C465.654 127.766 464.675 127.341 463.362 127.341C462.475 127.341 461.742 127.543 461.162 127.946C460.59 128.342 460.161 128.896 459.875 129.607C459.597 130.311 459.457 131.125 459.457 132.049C459.457 133.479 459.787 134.627 460.447 135.492C461.107 136.35 462.079 136.779 463.362 136.779ZM477.196 138.33C476.103 138.33 475.179 138.055 474.424 137.505C473.668 136.948 473.096 136.196 472.708 135.25C472.319 134.297 472.125 133.23 472.125 132.049C472.125 130.846 472.319 129.776 472.708 128.837C473.104 127.891 473.683 127.147 474.446 126.604C475.208 126.061 476.147 125.79 477.262 125.79C478.347 125.79 479.278 126.065 480.056 126.615C480.833 127.165 481.427 127.913 481.838 128.859C482.256 129.805 482.465 130.868 482.465 132.049C482.465 133.237 482.256 134.304 481.838 135.25C481.42 136.196 480.818 136.948 480.034 137.505C479.249 138.055 478.303 138.33 477.196 138.33ZM471.85 143.28V126.12H473.302V135.063H473.478V143.28H471.85ZM477.031 136.823C477.859 136.823 478.549 136.614 479.099 136.196C479.649 135.778 480.059 135.21 480.331 134.491C480.609 133.765 480.749 132.951 480.749 132.049C480.749 131.154 480.613 130.348 480.342 129.629C480.07 128.91 479.656 128.342 479.099 127.924C478.549 127.506 477.848 127.297 476.998 127.297C476.169 127.297 475.48 127.499 474.93 127.902C474.387 128.305 473.98 128.866 473.709 129.585C473.437 130.296 473.302 131.118 473.302 132.049C473.302 132.966 473.437 133.787 473.709 134.513C473.98 135.232 474.391 135.796 474.941 136.207C475.491 136.618 476.187 136.823 477.031 136.823ZM490.281 138.33C489.101 138.33 488.092 138.062 487.256 137.527C486.42 136.992 485.779 136.251 485.331 135.305C484.884 134.359 484.66 133.274 484.66 132.049C484.66 130.802 484.888 129.71 485.342 128.771C485.797 127.832 486.442 127.103 487.278 126.582C488.122 126.054 489.123 125.79 490.281 125.79C491.469 125.79 492.481 126.058 493.317 126.593C494.161 127.121 494.802 127.858 495.242 128.804C495.69 129.743 495.913 130.824 495.913 132.049C495.913 133.296 495.69 134.392 495.242 135.338C494.795 136.277 494.15 137.01 493.306 137.538C492.463 138.066 491.455 138.33 490.281 138.33ZM490.281 136.779C491.601 136.779 492.584 136.343 493.229 135.47C493.875 134.59 494.197 133.45 494.197 132.049C494.197 130.612 493.871 129.468 493.218 128.617C492.573 127.766 491.594 127.341 490.281 127.341C489.394 127.341 488.661 127.543 488.081 127.946C487.509 128.342 487.08 128.896 486.794 129.607C486.516 130.311 486.376 131.125 486.376 132.049C486.376 133.479 486.706 134.627 487.366 135.492C488.026 136.35 488.998 136.779 490.281 136.779ZM503.613 138V126.12H513.062V138H511.445V127.671H505.23V138H503.613ZM521.551 138.33C520.37 138.33 519.362 138.062 518.526 137.527C517.69 136.992 517.048 136.251 516.601 135.305C516.153 134.359 515.93 133.274 515.93 132.049C515.93 130.802 516.157 129.71 516.612 128.771C517.066 127.832 517.712 127.103 518.548 126.582C519.391 126.054 520.392 125.79 521.551 125.79C522.739 125.79 523.751 126.058 524.587 126.593C525.43 127.121 526.072 127.858 526.512 128.804C526.959 129.743 527.183 130.824 527.183 132.049C527.183 133.296 526.959 134.392 526.512 135.338C526.064 136.277 525.419 137.01 524.576 137.538C523.732 138.066 522.724 138.33 521.551 138.33ZM521.551 136.779C522.871 136.779 523.853 136.343 524.499 135.47C525.144 134.59 525.467 133.45 525.467 132.049C525.467 130.612 525.14 129.468 524.488 128.617C523.842 127.766 522.863 127.341 521.551 127.341C520.663 127.341 519.93 127.543 519.351 127.946C518.779 128.342 518.35 128.896 518.064 129.607C517.785 130.311 517.646 131.125 517.646 132.049C517.646 133.479 517.976 134.627 518.636 135.492C519.296 136.35 520.267 136.779 521.551 136.779ZM537.496 138V133.523H534.724C534.401 133.523 534.068 133.512 533.723 133.49C533.386 133.461 533.07 133.42 532.777 133.369C531.941 133.208 531.23 132.841 530.643 132.269C530.064 131.69 529.774 130.89 529.774 129.871C529.774 128.874 530.045 128.074 530.588 127.473C531.131 126.864 531.787 126.468 532.557 126.285C532.909 126.204 533.265 126.157 533.624 126.142C533.991 126.127 534.306 126.12 534.57 126.12H539.113L539.124 138H537.496ZM529.389 138L532.7 133.017H534.493L531.16 138H529.389ZM534.636 132.137H537.496V127.506H534.636C534.46 127.506 534.214 127.513 533.899 127.528C533.584 127.543 533.287 127.59 533.008 127.671C532.766 127.744 532.524 127.873 532.282 128.056C532.047 128.232 531.849 128.47 531.688 128.771C531.527 129.064 531.446 129.424 531.446 129.849C531.446 130.443 531.607 130.92 531.93 131.279C532.26 131.631 532.671 131.873 533.162 132.005C533.426 132.064 533.69 132.1 533.954 132.115C534.218 132.13 534.445 132.137 534.636 132.137ZM542.638 138V126.12H547.533C547.783 126.12 548.083 126.135 548.435 126.164C548.795 126.193 549.128 126.248 549.436 126.329C550.104 126.505 550.639 126.864 551.042 127.407C551.453 127.95 551.658 128.602 551.658 129.365C551.658 129.79 551.592 130.172 551.46 130.509C551.336 130.839 551.156 131.125 550.921 131.367C550.811 131.492 550.69 131.602 550.558 131.697C550.426 131.785 550.298 131.858 550.173 131.917C550.408 131.961 550.661 132.064 550.932 132.225C551.358 132.474 551.68 132.812 551.9 133.237C552.12 133.655 552.23 134.165 552.23 134.766C552.23 135.58 552.036 136.244 551.647 136.757C551.259 137.27 550.738 137.622 550.085 137.813C549.792 137.894 549.473 137.945 549.128 137.967C548.791 137.989 548.472 138 548.171 138H542.638ZM544.266 136.625H548.094C548.248 136.625 548.443 136.614 548.677 136.592C548.912 136.563 549.121 136.526 549.304 136.482C549.737 136.372 550.052 136.152 550.25 135.822C550.456 135.485 550.558 135.118 550.558 134.722C550.558 134.201 550.404 133.776 550.096 133.446C549.796 133.109 549.392 132.903 548.886 132.83C548.718 132.793 548.542 132.771 548.358 132.764C548.175 132.757 548.01 132.753 547.863 132.753H544.266V136.625ZM544.266 131.367H547.588C547.779 131.367 547.992 131.356 548.226 131.334C548.468 131.305 548.677 131.257 548.853 131.191C549.235 131.059 549.513 130.832 549.689 130.509C549.873 130.186 549.964 129.834 549.964 129.453C549.964 129.035 549.865 128.668 549.667 128.353C549.477 128.038 549.187 127.818 548.798 127.693C548.534 127.598 548.248 127.543 547.94 127.528C547.64 127.513 547.449 127.506 547.368 127.506H544.266V131.367ZM564.301 126.12V138H562.728V128.749L556.216 138H554.852V126.12H556.425V135.294L562.948 126.12H564.301ZM571.051 138V127.616H566.838V126.12H576.881V127.616H572.668V138H571.051ZM584.132 138.33C582.936 138.33 581.924 138.062 581.096 137.527C580.267 136.992 579.636 136.255 579.204 135.316C578.778 134.37 578.558 133.285 578.544 132.06C578.558 130.813 578.786 129.721 579.226 128.782C579.666 127.836 580.3 127.103 581.129 126.582C581.957 126.054 582.962 125.79 584.143 125.79C585.345 125.79 586.39 126.083 587.278 126.67C588.172 127.257 588.785 128.06 589.115 129.079L587.531 129.585C587.252 128.874 586.808 128.324 586.2 127.935C585.598 127.539 584.909 127.341 584.132 127.341C583.259 127.341 582.537 127.543 581.965 127.946C581.393 128.342 580.967 128.896 580.689 129.607C580.41 130.318 580.267 131.136 580.26 132.06C580.274 133.483 580.604 134.627 581.25 135.492C581.895 136.35 582.856 136.779 584.132 136.779C584.938 136.779 585.624 136.596 586.189 136.229C586.761 135.855 587.193 135.312 587.487 134.601L589.115 135.085C588.675 136.141 588.029 136.948 587.179 137.505C586.328 138.055 585.312 138.33 584.132 138.33ZM599.208 138V133.523H596.436C596.113 133.523 595.779 133.512 595.435 133.49C595.097 133.461 594.782 133.42 594.489 133.369C593.653 133.208 592.941 132.841 592.355 132.269C591.775 131.69 591.486 130.89 591.486 129.871C591.486 128.874 591.757 128.074 592.3 127.473C592.842 126.864 593.499 126.468 594.269 126.285C594.621 126.204 594.976 126.157 595.336 126.142C595.702 126.127 596.018 126.12 596.282 126.12H600.825L600.836 138H599.208ZM591.101 138L594.412 133.017H596.205L592.872 138H591.101ZM596.348 132.137H599.208V127.506H596.348C596.172 127.506 595.926 127.513 595.611 127.528C595.295 127.543 594.998 127.59 594.72 127.671C594.478 127.744 594.236 127.873 593.994 128.056C593.759 128.232 593.561 128.47 593.4 128.771C593.238 129.064 593.158 129.424 593.158 129.849C593.158 130.443 593.319 130.92 593.642 131.279C593.972 131.631 594.382 131.873 594.874 132.005C595.138 132.064 595.402 132.1 595.666 132.115C595.93 132.13 596.157 132.137 596.348 132.137ZM614.837 142.95V138.231C613.679 138.414 612.623 138.29 611.669 137.857C610.716 137.417 609.957 136.706 609.392 135.723C608.828 134.74 608.545 133.523 608.545 132.071C608.545 130.619 608.828 129.402 609.392 128.419C609.957 127.429 610.716 126.714 611.669 126.274C612.623 125.834 613.679 125.706 614.837 125.889V122.248H616.333V125.889C617.492 125.706 618.548 125.834 619.501 126.274C620.455 126.714 621.214 127.429 621.778 128.419C622.343 129.402 622.625 130.619 622.625 132.071C622.625 133.523 622.343 134.74 621.778 135.723C621.214 136.706 620.455 137.417 619.501 137.857C618.548 138.29 617.492 138.414 616.333 138.231V142.95H614.837ZM614.837 136.724V127.407C614.243 127.304 613.671 127.323 613.121 127.462C612.571 127.594 612.076 127.854 611.636 128.243C611.196 128.624 610.848 129.134 610.591 129.772C610.342 130.403 610.217 131.169 610.217 132.071C610.217 132.973 610.346 133.743 610.602 134.381C610.859 135.012 611.207 135.518 611.647 135.899C612.087 136.28 612.582 136.537 613.132 136.669C613.682 136.801 614.251 136.819 614.837 136.724ZM616.333 136.724C616.92 136.819 617.488 136.801 618.038 136.669C618.588 136.537 619.083 136.284 619.523 135.91C619.963 135.529 620.312 135.023 620.568 134.392C620.825 133.754 620.953 132.98 620.953 132.071C620.953 131.162 620.825 130.392 620.568 129.761C620.319 129.123 619.974 128.613 619.534 128.232C619.094 127.851 618.599 127.594 618.049 127.462C617.499 127.323 616.927 127.304 616.333 127.407V136.724ZM630.44 138.33C629.26 138.33 628.251 138.062 627.415 137.527C626.579 136.992 625.938 136.251 625.49 135.305C625.043 134.359 624.819 133.274 624.819 132.049C624.819 130.802 625.047 129.71 625.501 128.771C625.956 127.832 626.601 127.103 627.437 126.582C628.281 126.054 629.282 125.79 630.44 125.79C631.628 125.79 632.64 126.058 633.476 126.593C634.32 127.121 634.961 127.858 635.401 128.804C635.849 129.743 636.072 130.824 636.072 132.049C636.072 133.296 635.849 134.392 635.401 135.338C634.954 136.277 634.309 137.01 633.465 137.538C632.622 138.066 631.614 138.33 630.44 138.33ZM630.44 136.779C631.76 136.779 632.743 136.343 633.388 135.47C634.034 134.59 634.356 133.45 634.356 132.049C634.356 130.612 634.03 129.468 633.377 128.617C632.732 127.766 631.753 127.341 630.44 127.341C629.553 127.341 628.82 127.543 628.24 127.946C627.668 128.342 627.239 128.896 626.953 129.607C626.675 130.311 626.535 131.125 626.535 132.049C626.535 133.479 626.865 134.627 627.525 135.492C628.185 136.35 629.157 136.779 630.44 136.779ZM641.883 138V127.616H637.67V126.12H647.713V127.616H643.5V138H641.883ZM654.996 138.33C653.815 138.33 652.807 138.062 651.971 137.527C651.135 136.992 650.493 136.251 650.046 135.305C649.599 134.359 649.375 133.274 649.375 132.049C649.375 130.802 649.602 129.71 650.057 128.771C650.512 127.832 651.157 127.103 651.993 126.582C652.836 126.054 653.837 125.79 654.996 125.79C656.184 125.79 657.196 126.058 658.032 126.593C658.875 127.121 659.517 127.858 659.957 128.804C660.404 129.743 660.628 130.824 660.628 132.049C660.628 133.296 660.404 134.392 659.957 135.338C659.51 136.277 658.864 137.01 658.021 137.538C657.178 138.066 656.169 138.33 654.996 138.33ZM654.996 136.779C656.316 136.779 657.299 136.343 657.944 135.47C658.589 134.59 658.912 133.45 658.912 132.049C658.912 130.612 658.586 129.468 657.933 128.617C657.288 127.766 656.309 127.341 654.996 127.341C654.109 127.341 653.375 127.543 652.796 127.946C652.224 128.342 651.795 128.896 651.509 129.607C651.23 130.311 651.091 131.125 651.091 132.049C651.091 133.479 651.421 134.627 652.081 135.492C652.741 136.35 653.713 136.779 654.996 136.779Z" fill="#170707"/>
</svg>
