<svg width="258" height="24" viewBox="0 0 258 24" fill="none" xmlns="http://www.w3.org/2000/svg">
<path d="M239.031 0.339544C237.191 1.1348 223.743 18.0245 223.217 20.1451C222.879 21.4706 224.119 23.0611 225.621 23.2125C226.711 23.3261 227.086 22.9475 232.12 16.5854C238.43 8.70864 240.271 6.62583 240.947 6.62583C241.51 6.62583 244.215 10.0341 248.797 16.4718C252.629 21.8871 254.281 23.4398 255.859 23.1368C257.512 22.796 258 22.2279 258 20.6374C258 19.6528 257.662 18.7818 256.873 17.7594C256.272 16.9641 254.056 13.8967 251.952 10.9808C247.52 4.84598 245.229 2.04366 243.802 0.98332C242.374 -0.00127983 240.383 -0.304232 239.031 0.339544Z" fill="#170707"/>
<path d="M87.28 0.604502C85.2141 0.793846 82.5472 1.21041 81.3828 1.51336C76.0489 2.87665 73.1942 6.85292 73.1942 12.8741C73.1942 15.1463 73.382 15.9794 74.3586 17.9107C76.6875 22.6822 79.6549 23.7047 91.825 23.9698C100.089 24.1213 105.235 23.7047 107.714 22.6822C113.611 20.2207 115.677 10.5641 111.508 4.80798C109.367 1.77845 105.46 0.64237 96.6706 0.377285C93.5905 0.301548 89.3459 0.415155 87.28 0.604502ZM104.446 7.04226C106.362 7.53456 107.676 8.78425 108.277 10.5641C109.216 13.2528 107.977 16.0551 105.272 17.4184C103.92 18.0622 102.943 18.1379 93.8534 18.1758C82.735 18.1758 81.1198 17.9107 79.5422 15.6764C77.3636 12.5712 79.0915 7.57243 82.6223 6.89079C84.538 6.54996 103.094 6.6257 104.446 7.04226Z" fill="#170707"/>
<path d="M155.756 1.21072C150.272 1.3622 150.234 1.3622 149.445 2.3468C148.544 3.52074 148.694 4.84616 149.859 6.05798C150.572 6.77749 151.098 6.81536 165.034 6.81536C178.481 6.81536 179.495 6.85323 180.134 7.49701C180.772 8.14078 180.772 8.21652 180.134 8.67095C179.645 9.08751 176.453 9.23899 166.574 9.3526C155.117 9.46621 153.577 9.57981 152.713 10.1479C151.624 10.8674 151.399 12.1549 152.075 13.4425C152.826 14.8436 155.08 15.0708 168.264 15.1087C181.336 15.1466 182.124 15.2223 182.124 16.6992C182.124 18.0246 180.359 18.1761 165.146 18.1761C148.619 18.1761 149.07 18.1004 148.995 20.6376C148.92 22.5689 149.971 23.1749 153.84 23.5157C158.573 23.8944 181.261 23.4399 183.402 22.8719C187.12 21.9252 188.285 19.5015 187.27 14.8058C186.857 12.8744 186.782 11.5869 187.045 10.4129C187.533 7.64849 187.458 4.61895 186.782 3.67222C185.017 1.13498 179.871 0.718422 155.756 1.21072Z" fill="#170707"/>
<path d="M33.7915 2.30817C33.0778 3.2549 33.0027 3.82294 33.0027 9.73053C33.0027 14.8429 32.89 16.1683 32.4768 16.3198C31.7256 16.6227 28.683 14.9565 17.8651 8.40511C12.5689 5.14836 7.57309 2.30817 6.78428 2.11883C4.41786 1.43718 2.65244 1.58866 1.63826 2.61113C0.173339 4.08802 -0.0895966 6.05722 0.0230899 14.1991C0.135776 20.9398 0.210901 21.7729 0.849458 22.4925C1.86364 23.6285 3.47881 23.5149 4.41786 22.3031C5.13154 21.3564 5.20667 20.7883 5.20667 14.6914V8.10216L6.0706 8.32937C7.94871 8.89741 12.8318 11.8512 18.391 15.7517C21.6589 18.0239 25.7907 20.7126 27.6313 21.6593C30.4484 23.212 31.2372 23.4392 33.1154 23.4771C35.1062 23.4771 35.4067 23.3634 36.3833 22.2652C38.036 20.4096 38.3741 18.5541 38.4116 10.7909C38.4492 3.78507 38.2238 2.45965 36.9843 1.62653C36.0828 0.98275 34.5427 1.32357 33.7915 2.30817Z" fill="#170707"/>
</svg>
