<svg width="344" height="277" viewBox="0 0 344 277" fill="none" xmlns="http://www.w3.org/2000/svg">
<path d="M223.606 63.797C228.341 58.3203 231.819 51.5205 235.501 44.3224L236.211 42.9334C236.285 42.7874 236.395 42.6629 236.531 42.5716C236.667 42.4803 236.824 42.4253 236.986 42.4119C237.149 42.3985 237.313 42.4272 237.462 42.4951C237.61 42.563 237.739 42.6679 237.836 42.7999L264.049 78.559C264.238 78.8174 264.481 79.0318 264.761 79.1878C265.04 79.3438 265.35 79.4377 265.67 79.463C265.989 79.4884 266.31 79.4447 266.611 79.3348C266.912 79.225 267.185 79.0516 267.414 78.8265L342.972 4.34942C343.287 4.03864 343.503 3.64116 343.592 3.20747C343.682 2.77377 343.64 2.32341 343.473 1.91357C343.306 1.50373 343.021 1.15289 342.655 0.905612C342.288 0.658329 341.856 0.525749 341.414 0.524699L190.268 0.274042C189.847 0.270766 189.436 0.402213 189.095 0.649192C188.753 0.896168 188.5 1.24576 188.371 1.64698C188.242 2.04819 188.245 2.48003 188.378 2.8795C188.512 3.27897 188.769 3.62517 189.113 3.8676L219.843 25.8057C221.179 26.7611 222.098 28.1932 222.41 29.807C216.147 31.8332 209.836 34.3787 204.378 37.6249C197.595 41.6574 192.637 46.4624 189.624 51.8974C186.127 58.2205 185.154 65.6016 186.728 73.8368C186.781 74.1148 186.838 74.3923 186.899 74.6691C178.175 73.4331 169.328 70.5812 161.611 68.0947L161.056 67.9145C145.63 62.9087 130.962 55.8125 117.462 46.8234C116.761 46.3557 116.068 45.885 115.36 45.4093C110.686 42.2483 105.854 38.9812 100.362 37.3516C93.1324 35.2068 85.8175 36.7117 81.7084 41.1803C79.0459 44.0779 77.7049 48.019 77.7279 52.8909C77.7432 56.5263 78.5023 60.7416 80.05 65.7763C82.497 73.7414 85.2688 82.7683 81.1138 89.8526C77.6772 95.7133 70.5669 97.9537 65.0632 98.0893C58.6237 98.2534 52.3815 96.2365 46.3474 94.2759L1.22874 79.6463L0.895501 80.6719L46.017 95.2987C52.1364 97.287 58.4641 99.343 65.0886 99.1672C70.8844 99.0207 78.3821 96.6396 82.0425 90.3981C86.4381 82.9044 83.5918 73.636 81.0866 65.4611C78.9122 58.3821 76.6932 48.2402 82.5101 41.9133C87.1661 36.8476 94.8749 36.8483 100.064 38.3889C105.4 39.9714 110.159 43.192 114.765 46.3063C115.468 46.7803 116.17 47.256 116.873 47.7244C130.575 56.8481 145.473 64.0315 161.143 69.0709L161.285 69.1169C169.168 71.6577 178.22 74.5761 187.167 75.7916C189.111 83.5442 193.559 90.5419 197.874 97.3242C203.492 106.17 208.813 114.531 209.147 124.468C209.531 135.849 203.023 146.068 196.73 155.951C190.226 166.165 183.501 176.727 184.255 188.678C184.704 195.786 187.676 202.542 193.349 209.333C198.62 215.645 205.538 221.07 210.974 225.091C217.627 230.01 223.705 235.53 223.14 242.553C222.913 245.383 221.526 248.102 220.298 250.5L207.055 276.4L208.091 276.737L221.252 250.989C222.524 248.502 223.965 245.682 224.211 242.636C224.819 235.085 218.513 229.326 211.613 224.223C199.135 215 186.271 203.562 185.327 188.607C184.593 177.008 191.223 166.597 197.637 156.529C204.018 146.508 210.618 136.145 210.222 124.43C209.878 114.198 204.236 105.326 198.779 96.7452C194.59 90.1569 190.273 83.3661 188.316 75.9381C193.708 76.5809 199.042 76.5716 204.035 75.4535C212.071 73.6518 218.29 69.9483 223.606 63.797ZM188.04 74.8128C187.949 74.4186 187.864 74.0226 187.79 73.6242C183.077 48.9822 202.667 37.2862 222.528 30.8506L222.53 30.9495L222.81 59.3694C222.813 59.6198 222.901 59.8617 223.059 60.0556C223.218 60.2494 223.437 60.3836 223.681 60.4363C223.926 60.4889 224.181 60.4569 224.405 60.3454C224.629 60.2339 224.809 60.0495 224.915 59.8225L234.276 39.6607C234.6 38.9629 235.066 38.3399 235.643 37.8311C236.221 37.3222 236.897 36.9385 237.629 36.7042L325.775 8.56828C326.05 8.48523 326.281 8.29873 326.421 8.04817C326.56 7.79761 326.597 7.50262 326.523 7.22552C326.45 6.94842 326.271 6.71089 326.026 6.56314C325.781 6.41539 325.487 6.36898 325.208 6.43372C314.148 8.84221 302.914 11.3339 292.055 13.7397C276.799 17.1303 261.006 20.6315 245.453 23.9444C239.622 25.1868 231.618 26.8911 223.448 29.4657C223.06 27.6279 222 26.0023 220.475 24.909L189.735 2.99822C189.573 2.88939 189.451 2.73053 189.387 2.54577C189.323 2.361 189.322 2.16041 189.382 1.97443C189.442 1.78844 189.562 1.62721 189.722 1.51521C189.882 1.4032 190.074 1.34654 190.27 1.35381L341.416 1.60447C341.645 1.60495 341.868 1.67345 342.058 1.80129C342.248 1.92913 342.395 2.11054 342.481 2.32248C342.568 2.53443 342.589 2.76736 342.543 2.99171C342.497 3.21605 342.386 3.42169 342.223 3.58252L266.659 78.0579C266.541 78.1741 266.4 78.2635 266.244 78.3201C266.088 78.3767 265.922 78.3992 265.757 78.3861C265.592 78.373 265.432 78.3245 265.288 78.244C265.143 78.1635 265.017 78.0529 264.919 77.9195L238.704 42.1615C238.499 41.8813 238.225 41.6583 237.91 41.5139C237.594 41.3695 237.247 41.3085 236.901 41.3367C236.555 41.3649 236.222 41.4814 235.933 41.675C235.645 41.8686 235.411 42.1329 235.253 42.4427L234.542 43.8311C227.202 58.1828 220.866 70.5698 203.799 74.4018C198.817 75.5175 193.462 75.4974 188.04 74.8128ZM223.591 30.5102C231.479 28.0271 239.344 26.3512 245.675 25.003C261.233 21.6879 277.021 18.1793 292.287 14.796C303.148 12.3851 314.379 9.89229 325.436 7.48838L325.456 7.48366C325.464 7.49834 325.47 7.51423 325.473 7.5307C325.465 7.53541 325.457 7.53912 325.448 7.54171L237.302 35.6793C236.427 35.9593 235.62 36.4177 234.931 37.0256C234.242 37.6335 233.686 38.3776 233.299 39.211L223.937 59.3706C223.935 59.3758 223.934 59.381 223.932 59.386C223.918 59.3861 223.905 59.3818 223.894 59.3738L223.9 59.3567L223.619 30.9368C223.601 30.8062 223.602 30.6573 223.59 30.5136L223.591 30.5102Z" fill="#170707"/>
</svg>
