<?xml version="1.0" encoding="UTF-8"?>
<!DOCTYPE svg PUBLIC "-//W3C//DTD SVG 1.1//EN" "http://www.w3.org/Graphics/SVG/1.1/DTD/svg11.dtd">
<!-- Creator: CorelDRAW 2020 (64-Bit) -->
<svg xmlns="http://www.w3.org/2000/svg" xml:space="preserve" width="554px" height="460px" version="1.1" style="shape-rendering:geometricPrecision; text-rendering:geometricPrecision; image-rendering:optimizeQuality; fill-rule:evenodd; clip-rule:evenodd"
viewBox="0 0 423.1 350.88"
 xmlns:xlink="http://www.w3.org/1999/xlink"
 xmlns:xodm="http://www.corel.com/coreldraw/odm/2003">
 <defs>
  <style type="text/css">
   <![CDATA[
    .str0 {stroke:#FFFCFB;stroke-width:1.04;stroke-miterlimit:22.9256}
    .fil1 {fill:none;fill-rule:nonzero}
    .fil0 {fill:#DD3A1A;fill-rule:nonzero}
   ]]>
  </style>
 </defs>
 <g id="Слой_x0020_1">
  <metadata id="CorelCorpID_0Corel-Layer"/>
  <g id="_1845927532688">
   <polygon class="fil0" points="325.59,125.11 271.55,117.05 270.4,121.99 326.29,128.05 "/>
   <path class="fil0" d="M160.92 94.29c-6.94,-3 -22.58,3.08 -22.58,3.08 0,0 15.13,8.03 22.49,6.27 1.58,-3.29 1.61,-6.03 0.09,-9.35z"/>
   <path class="fil1 str0" d="M360.49 321.68c-1.32,-0.23 -11.07,-26.74 -11.21,-31.84 -0.15,-5.11 55.99,-35.56 57.79,-35.8 1.8,-0.24 13.7,16.56 15.53,23.28 1.83,6.72 -67.15,39.9 -68.02,39.44 -0.87,-0.46 -33.09,-78.45 -33.03,-79.46 0.06,-1.01 58.42,-20.85 59.96,-20.91 1.55,-0.06 22.41,28.14 21.52,35.81 -0.9,7.66 -61.95,33.74 -64.54,34.12 -2.59,0.38 -18.68,-46.2 -19.59,-49.56 -0.91,-3.36 5.12,-3.34 6.88,-5.43 1.76,-2.1 -12.52,-16.25 -21.89,-25.55 -9.37,-9.31 -19.76,-11.01 -33.89,-16.78 -14.12,-5.76 -22.5,-21.41 -28.03,-28.66 -5.52,-7.25 -17.17,-13.78 -24.02,-20.94 -6.85,-7.16 -17.95,-22.18 -19.86,-22.63 -1.91,-0.46 10.01,14.51 11.45,17.19 1.44,2.68 10.8,12.3 21.07,20.81 10.28,8.51 14.13,19.5 26.41,30.51 12.28,11.01 26.41,9.6 38.25,18.46 11.84,8.86 23.95,28.25 27.88,31.93 3.92,3.69 51.87,-12.76 54.41,-15.72 2.53,-2.96 -23.75,-44.75 -29.6,-54.09 -5.85,-9.34 -18.57,-39.99 -19.57,-41.24 -1,-1.25 -56.21,-10.3 -57.26,-9.98 -1.05,0.32 -1.62,5.28 -0.55,7.29 1.08,2.01 54.97,7.48 55.67,7.14 0.7,-0.34 0.56,-3.29 -0.05,-3.94 -0.61,-0.64 -54.06,-8.67 -57.05,-8.43 -3,0.24 -1.69,6.6 -0.83,7.22 0.87,0.62 70.43,11.73 72.02,8.9 1.58,-2.83 2.46,-8.35 -0.01,-12.38 -2.47,-4.03 -78.12,-15.82 -79.38,-16.58 -1.27,-0.75 -0.72,-3.57 -1.88,-6.19 -1.16,-2.61 -9.94,-4.3 -16.14,-7.61 -6.2,-3.3 -13.07,-6.74 -15.83,-10.13 -2.75,-3.39 -9.81,4.67 -18.01,10.1 -8.2,5.42 -22.04,17.42 -30.06,14.75 -8.02,-2.68 -12.31,-8.37 -11.8,-10.33 0.52,-1.96 7.51,-3.93 11.22,-6.11 3.71,-2.17 36.49,-31.25 45.3,-32.54 8.82,-1.29 15.54,1.33 27.4,2.38 11.86,1.05 34.89,4.46 40.23,6.1 5.33,1.65 33.3,45.05 32.58,47.3 -0.72,2.25 -76.51,-10.37 -77.83,-11.39 -1.31,-1.02 3.87,0.17 4.63,0.82 0.77,0.65 -1.58,16.56 -2.17,17.21 -0.58,0.64 -6.93,-0.58 -7.96,-1.05 -1.02,-0.47 2.87,-14.92 2.63,-15.53 -0.23,-0.6 -37.71,-5.88 -38.51,-6.62 -0.79,-0.74 37.59,3.74 39.24,4.06 1.66,0.32 -1.5,21.79 -2.73,22.74 -1.22,0.94 -10.48,-3.03 -13.89,-4.85 -3.41,-1.82 39.07,7.66 40.98,8.26 1.91,0.59 3.3,1.97 3.54,5.5 0.24,3.54 1.31,11.53 -8.74,9.77 -10.05,-1.76 -20.96,-8.93 -27.67,-14.26 -6.71,-5.33 -18.63,-20.46 -22.93,-22.99 -4.3,-2.53 -9.72,-2.07 -15.34,1.89 -5.61,3.95 -3.98,9.13 -4.38,9.56 -0.4,0.43 -14.8,-4.21 -16.14,-3.49 -1.34,0.72 0.8,5.38 3.78,6.96 2.97,1.59 12.81,2.09 14.7,0.54 1.89,-1.55 0.3,-4.73 -0.99,-4.89 -1.3,-0.17 -27.17,-7.45 -30.17,-9.13 -3.01,-1.68 1.02,-9.51 0.31,-11.18 -0.72,-1.66 -25.91,2.73 -27.51,3.63 -1.6,0.91 21.45,7.96 23.34,7.8 1.89,-0.16 2.05,-10.61 1.12,-11.86 -0.93,-1.24 9.47,2.22 54.38,-37.31 3.95,-7.17 -32.1,-53.72 -43.42,-54.94 0.75,-6.4 -170.93,86.83 -171.71,109.57 2.64,11.03 7.64,17.55 33.23,62.67 10.16,17.93 23.12,35.05 30.05,44.28 22.76,30.33 43.72,62.4 50.12,69.67 16.97,19.26 34.43,46.32 42.83,48.93 12.6,3.9 93.01,-56.57 109.08,-67.42 16.06,-10.85 27.67,-16.74 46.79,-38.43 22.7,-14.77 -26.92,100.48 -68.07,94.08 -41.14,-6.41 62.86,-67.65 66.95,-31.4 2.97,26.32 -47.79,37.7 -48,58.09"/>
   <path class="fil1 str0" d="M53.98 105.51c41.08,-23.59 117.14,-80.2 122.39,-62.5 1.54,5.21 -10.94,6.25 -35.42,25.52 -24.48,24.48 -70.83,50.26 -78.64,54.17 -20.83,10.41 -23.44,18.75 -15.1,23.96 15.1,9.44 33.33,-18.75 81.76,-41.15m28.13 21.88c-21.56,13.01 -100,51.03 -88.54,60.93 6.03,5.21 40.62,-19.27 52.6,-18.75 22.92,3.78 57.81,-31.64 61.46,-27.08 2.08,2.6 -0.52,7.81 3.64,4.69 5.21,-3.91 12.74,-8.84 19.27,-4.69 4.69,2.98 -5.21,13.02 -14.06,16.66 -26.56,13.55 -37.5,25 -74.48,47.92"/>
  </g>
 </g>
</svg>
