<svg width="25" height="25" viewBox="0 0 25 25" fill="none" xmlns="http://www.w3.org/2000/svg">
<path d="M15.5556 17.5C13.5882 18.9755 11.1348 19.6507 8.68951 19.3894C6.24424 19.1282 3.9888 17.95 2.37754 16.0922C0.766271 14.2344 -0.0810974 11.8351 0.00612223 9.37741C0.0933418 6.91977 1.10867 4.58649 2.84758 2.84758C4.58649 1.10867 6.91977 0.0933418 9.37741 0.00612223C11.8351 -0.0810974 14.2344 0.766271 16.0922 2.37754C17.95 3.9888 19.1282 6.24424 19.3894 8.68951C19.6507 11.1348 18.9755 13.5882 17.5 15.5556L25 23.0556L23.0556 25L15.5556 17.5ZM2.77778 9.72223C2.77778 11.564 3.50943 13.3304 4.81176 14.6327C6.1141 15.935 7.88044 16.6667 9.72223 16.6667C11.564 16.6667 13.3304 15.935 14.6327 14.6327C15.935 13.3304 16.6667 11.564 16.6667 9.72223C16.6667 7.88044 15.935 6.1141 14.6327 4.81176C13.3304 3.50943 11.564 2.77778 9.72223 2.77778C7.88044 2.77778 6.1141 3.50943 4.81176 4.81176C3.50943 6.1141 2.77778 7.88044 2.77778 9.72223Z" fill="#FFFCFB"/>
</svg>
