<svg width="20" height="14" viewBox="0 0 20 14" fill="none" xmlns="http://www.w3.org/2000/svg">
<path d="M18.7163 2.86636L18.7163 2.86629L14.8212 0.800001H12.769C12.6892 1.4015 12.4071 1.96123 11.9664 2.3896L11.4277 1.83536L11.9664 2.3896C11.441 2.9001 10.7333 3.18298 10 3.18298C9.2667 3.18298 8.55899 2.9001 8.03368 2.3896C7.59288 1.96123 7.31087 1.40151 7.23101 0.800001H5.17806L1.28379 2.86626L1.27395 2.87148L1.27391 2.87141C1.21139 2.90348 1.14394 2.93865 1.07215 2.97649C1.10633 3.04171 1.13889 3.10321 1.17044 3.16196C1.17052 3.16211 1.1706 3.16226 1.17068 3.16241L2.64652 5.90067C2.67492 5.95272 2.70192 6.00297 2.7281 6.05172C2.79272 6.05171 2.85521 6.05155 2.91913 6.05108L2.92492 6.05104V6.05106H4.63603H5.43603V6.85106V12.9574V12.9591V12.9607V12.9623V12.964V12.9656V12.9672V12.9689V12.9705V12.9722V12.9738V12.9755V12.9771V12.9788V12.9805V12.9821V12.9838V12.9855V12.9872V12.9889V12.9905V12.9922V12.9939V12.9956V12.9973V12.999V13.0007V13.0024V13.0042V13.0059V13.0076V13.0093V13.011V13.0128V13.0145V13.0162V13.018V13.0197V13.0215V13.0232V13.025V13.0267V13.0285V13.0302V13.032V13.0338V13.0355V13.0373V13.0391V13.0409V13.0426V13.0444V13.0462V13.048V13.0498V13.0516V13.0534V13.0552V13.057V13.0588V13.0606V13.0624V13.0642V13.0661V13.0679V13.0697V13.0715V13.0734V13.0752V13.077V13.0789V13.0807V13.0826V13.0844V13.0863V13.0881V13.09V13.0918V13.0937V13.0955V13.0974V13.0993V13.1012V13.103V13.1049V13.1068V13.1087V13.1105V13.1124V13.1143V13.1162V13.1181V13.12V13.1219V13.1238V13.1257V13.1276V13.1295V13.1314V13.1334V13.1353V13.1372V13.1391V13.141V13.143V13.1449V13.1468V13.1488V13.1507V13.1526V13.1546V13.1565V13.1585V13.1604V13.1623V13.1643V13.1663V13.1682V13.1702V13.1721V13.1741V13.1761V13.178V13.18V13.182V13.1839V13.1859V13.1879V13.1899V13.1919V13.1938V13.1958V13.1978V13.1998V13.2H5.43778H5.43964H5.44151H5.44338H5.44524H5.4471H5.44896H5.45082H5.45267H5.45453H5.45638H5.45823H5.46008H5.46193H5.46378H5.46563H5.46747H5.46931H5.47115H5.47299H5.47483H5.47667H5.4785H5.48033H5.48217H5.484H5.48582H5.48765H5.48948H5.4913H5.49312H5.49495H5.49677H5.49858H5.5004H5.50222H5.50403H5.50584H5.50765H5.50946H5.51127H5.51308H5.51488H5.51669H5.51849H5.52029H5.52209H5.52389H5.52568H5.52748H5.52927H5.53106H5.53285H5.53464H5.53643H5.53822H5.54H5.54179H5.54357H5.54535H5.54713H5.54891H5.55069H5.55246H5.55423H5.55601H5.55778H5.55955H5.56132H5.56309H5.56485H5.56662H5.56838H5.57014H5.5719H5.57366H5.57542H5.57718H5.57893H5.58069H5.58244H5.58419H5.58594H5.58769H5.58944H5.59119H5.59293H5.59468H5.59642H5.59816H5.5999H5.60164H5.60338H5.60511H5.60685H5.60858H5.61031H5.61205H5.61378H5.6155H5.61723H5.61896H5.62068H5.62241H5.62413H5.62585H5.62757H5.62929H5.63101H5.63273H5.63444H5.63616H5.63787H5.63958H5.6413H5.64301H5.64471H5.64642H5.64813H5.64983H5.65154H5.65324H5.65494H5.65664H5.65834H5.66004H5.66174H5.66344H5.66513H5.66682H5.66852H5.67021H5.6719H5.67359H5.67528H5.67697H5.67865H5.68034H5.68202H5.68371H5.68539H5.68707H5.68875H5.69043H5.69211H5.69378H5.69546H5.69713H5.69881H5.70048H5.70215H5.70382H5.70549H5.70716H5.70883H14.2912H14.2929H14.2945H14.2962H14.2979H14.2996H14.3013H14.3029H14.3046H14.3063H14.308H14.3097H14.3114H14.3131H14.3148H14.3165H14.3182H14.3199H14.3217H14.3234H14.3251H14.3268H14.3285H14.3303H14.332H14.3337H14.3355H14.3372H14.3389H14.3407H14.3424H14.3442H14.3459H14.3477H14.3494H14.3512H14.353H14.3547H14.3565H14.3583H14.36H14.3618H14.3636H14.3654H14.3671H14.3689H14.3707H14.3725H14.3743H14.3761H14.3779H14.3797H14.3815H14.3833H14.3851H14.3869H14.3887H14.3905H14.3923H14.3941H14.396H14.3978H14.3996H14.4014H14.4033H14.4051H14.4069H14.4088H14.4106H14.4125H14.4143H14.4161H14.418H14.4198H14.4217H14.4236H14.4254H14.4273H14.4291H14.431H14.4329H14.4347H14.4366H14.4385H14.4404H14.4422H14.4441H14.446H14.4479H14.4498H14.4516H14.4535H14.4554H14.4573H14.4592H14.4611H14.463H14.4649H14.4668H14.4687H14.4707H14.4726H14.4745H14.4764H14.4783H14.4802H14.4822H14.4841H14.486H14.4879H14.4899H14.4918H14.4937H14.4957H14.4976H14.4996H14.5015H14.5034H14.5054H14.5073H14.5093H14.5113H14.5132H14.5152H14.5171H14.5191H14.521H14.523H14.525H14.5269H14.5289H14.5309H14.5329H14.5348H14.5368H14.5388H14.5408H14.5428H14.5448H14.5467H14.5487H14.5507H14.5527H14.5547H14.5567H14.5587H14.5607H14.5627H14.564V13.1997V13.1981V13.1965V13.1949V13.1933V13.1917V13.1901V13.1885V13.1869V13.1853V13.1837V13.1821V13.1805V13.179V13.1774V13.1758V13.1742V13.1726V13.1711V13.1695V13.1679V13.1663V13.1647V13.1632V13.1616V13.16V13.1585V13.1569V13.1553V13.1537V13.1522V13.1506V13.149V13.1475V13.1459V13.1443V13.1428V13.1412V13.1396V13.1381V13.1365V13.135V13.1334V13.1318V13.1303V13.1287V13.1272V13.1256V13.124V13.1225V13.1209V13.1194V13.1178V13.1163V13.1147V13.1131V13.1116V13.11V13.1085V13.1069V13.1054V13.1038V13.1023V13.1007V13.0991V13.0976V13.096V13.0945V13.0929V13.0914V13.0898V13.0883V13.0867V13.0852V13.0836V13.0821V13.0805V13.0789V13.0774V13.0758V13.0743V13.0727V13.0712V13.0696V13.0681V13.0665V13.0649V13.0634V13.0618V13.0603V13.0587V13.0572V13.0556V13.054V13.0525V13.0509V13.0494V13.0478V13.0462V13.0447V13.0431V13.0416V13.04V13.0384V13.0369V13.0353V13.0337V13.0322V13.0306V13.029V13.0275V13.0259V13.0243V13.0228V13.0212V13.0196V13.018V13.0165V13.0149V13.0133V13.0117V13.0102V13.0086V13.007V13.0054V13.0038V13.0023V13.0007V12.9991V12.9975V12.9959V12.9943V12.9927V12.9911V12.9896V12.988V12.9864V12.9848V12.9832V12.9816V12.98V12.9784V12.9768V12.9752V12.9736V12.972V12.9704V12.9687V12.9671V12.9655V12.9639V12.9623V12.9607V12.9591V12.9574L18.7163 2.86636ZM18.7163 2.86636L18.7266 2.87164M18.7163 2.86636L18.7266 2.87164M14.9042 0H12.4521C12.3302 0 12.2132 0.0470751 12.127 0.130868C12.0408 0.214661 11.9924 0.328308 11.9924 0.446809C11.9924 0.960313 11.7824 1.45279 11.4088 1.81589C11.0352 2.17899 10.5284 2.38298 10 2.38298C9.47161 2.38298 8.96486 2.17899 8.59122 1.81589C8.21758 1.45279 8.00768 0.960313 8.00768 0.446809C8.00768 0.328308 7.95924 0.214661 7.87301 0.130868C7.78679 0.0470751 7.66985 0 7.54791 0H5.0958C5.01862 -0.00014328 4.94267 0.0188219 4.87511 0.0551073L14.9042 0ZM14.9042 0C14.9812 -1.69753e-05 15.0568 0.0189442 15.1242 0.0551073M14.9042 0L15.1242 0.0551073M15.1242 0.0551073L19.0912 2.15957M15.1242 0.0551073L19.0912 2.15957M19.0912 2.15957L18.7266 2.87164M19.0912 2.15957L18.7266 2.87164" stroke="#170707" stroke-width="1.6"/>
</svg>
