<svg width="359" height="325" viewBox="0 0 359 325" fill="none" xmlns="http://www.w3.org/2000/svg">
<path d="M133.687 319.716C168.736 315.469 272.881 331.205 358 319.716" stroke="#170707" stroke-width="1.7" stroke-linecap="round"/>
<path d="M29.2915 282.888C29.2915 282.888 49.9164 268.124 75.0949 264.903C115.541 259.728 115.541 272.15 115.541 272.15C115.541 272.15 151.166 187.447 166.434 174.441C193.219 151.624 202.326 155.114 217.594 151.624C217.058 156.724 210.769 184.742 202.326 204.505C185.95 242.841 161.103 293.117 140.878 293.117C115.541 293.117 115.541 272.15 115.541 272.15C115.541 272.15 105.095 295.236 80.1841 298.188C38.6665 300.067 29.2915 282.888 29.2915 282.888Z" fill="#D8D8D8"/>
<path fill-rule="evenodd" clip-rule="evenodd" d="M88.8738 227.307C89.0509 227.434 89.1734 227.623 89.2168 227.836C89.2603 228.05 89.2215 228.271 89.1083 228.458C88.9951 228.644 88.8157 228.78 88.6058 228.84C88.396 228.901 88.1712 228.88 87.9761 228.782C85.2362 227.125 83.1819 224.875 82.3828 222.667C81.9217 221.389 81.8649 220.11 82.3187 218.942C82.7725 217.774 83.6998 216.766 85.2091 216.007C87.9983 214.603 92.9011 214.04 100.593 215.139H100.615C103.511 215.539 105.964 214.433 107.294 212.744C107.795 212.126 108.134 211.393 108.28 210.612C108.414 209.847 108.323 209.06 108.019 208.345C107.188 206.378 104.724 204.542 99.9519 203.674C93.8605 202.565 90.3092 200.9 88.8541 199.197C88.0403 198.252 87.7912 197.266 88.0501 196.31C88.2967 195.42 88.9799 194.611 90.0601 193.942C92.6594 192.337 97.8606 191.405 104.672 192.128C110.14 192.71 114.095 191.171 115.994 188.932C116.68 188.168 117.098 187.203 117.186 186.183C117.234 185.168 116.913 184.17 116.281 183.372C114.532 181.051 110.325 179.217 103.077 179.217C97.3304 179.217 93.7519 178.02 92.1514 176.409C91.3154 175.566 90.9652 174.607 91.0761 173.614C91.1822 172.67 91.7099 171.74 92.6348 170.909C94.9283 168.827 99.9371 167.143 107.185 167.29C115.444 167.457 119.886 166.191 121.699 164.394C121.991 164.13 122.221 163.806 122.374 163.443C122.526 163.081 122.596 162.689 122.579 162.297C122.532 161.51 122.135 160.676 121.474 159.862C119.427 157.35 115.038 155.213 110.315 155.105C105.326 154.989 102.105 153.967 100.275 152.292C98.2256 150.416 97.9025 147.837 98.8101 144.85C99.6535 142.079 101.589 138.949 104.179 135.708C112.902 124.829 129.272 112.668 135.916 110.384C138.128 109.62 140.382 108.987 142.669 108.488C144.686 106.502 146.368 104.618 147.51 102.863C148.629 101.142 149.236 99.5681 149.142 98.1543C148.925 94.9039 146.097 90.23 139.867 86.0256C135.028 82.7605 128.168 79.8174 118.919 78.0792C100.776 74.664 94.5238 77.8013 92.6372 87.7688C91.562 93.4484 91.8061 101.326 92.1218 111.394C92.6939 129.726 93.4905 155.27 86.9971 188.351C85.6678 195.122 83.066 201.542 80.4937 207.881L80.4765 207.925C75.8844 219.235 71.3935 230.311 74.6908 242.425C74.7139 242.498 74.7272 242.573 74.7303 242.649C74.739 242.878 74.6561 243.102 74.4999 243.27C74.3437 243.439 74.1268 243.539 73.8967 243.549C67.6819 243.809 59.1489 246.615 50.4211 250.31C35.9717 256.427 21.0242 264.979 15.0018 268.541C7.33441 273.075 4.13331 275.743 4.74738 276.982C5.41819 278.334 10.1582 278.617 18.2769 278.211C40.9362 277.083 57.7358 273.205 71.3319 270.061C83.3101 267.295 92.8468 265.092 101.839 265.793C112.645 266.638 118.184 269.923 121.477 274.191C133.134 257.472 137.803 238.221 142.37 219.385C149.226 191.1 155.868 163.737 185.267 146.979C193.405 142.339 206.17 139.094 220.006 135.578C224.896 134.334 229.925 133.055 234.924 131.669C241.538 102.875 244.132 76.1368 240.349 57.0451C240.321 56.9308 240.316 56.8119 240.335 56.6957C240.354 56.5794 240.396 56.4682 240.459 56.3689C240.523 56.2695 240.606 56.1841 240.704 56.1177C240.801 56.0514 240.911 56.0055 241.027 55.983C241.143 55.9604 241.262 55.9616 241.378 55.9865C241.493 56.0114 241.603 56.0595 241.699 56.1278C241.795 56.1961 241.876 56.2833 241.938 56.3839C241.999 56.4845 242.039 56.5966 242.056 56.7132C245.841 75.8049 243.321 102.445 236.808 131.143C264.646 123.255 290.99 111.736 287.365 83.9357C287.35 83.8227 287.358 83.708 287.388 83.5981C287.418 83.4882 287.47 83.3853 287.54 83.2952C287.61 83.2051 287.697 83.1297 287.796 83.0732C287.895 83.0166 288.005 82.9802 288.118 82.9658C288.231 82.9514 288.346 82.9595 288.457 82.9894C288.567 83.0194 288.67 83.0707 288.76 83.1405C288.851 83.2102 288.927 83.297 288.983 83.3959C289.04 83.4948 289.077 83.6039 289.091 83.7169C292.921 113.199 265.216 124.993 236.357 133.07C228.018 168.94 213.562 207.814 197.435 239.101C188.804 255.872 179.661 270.476 170.734 281.282C161.722 292.191 152.876 299.255 144.883 300.831C141.29 301.539 137.869 301.148 134.683 299.516C128.288 296.241 126.478 290.743 124.629 285.128C123.748 282.453 122.855 279.746 121.4 277.28C115.728 284.916 108.517 292.005 99.0937 298.259C92.9282 302.348 85.9761 305.114 78.7378 306.752C65.7361 309.702 51.8244 309.014 40.0187 305.864C28.1342 302.7 18.3385 297.013 13.6602 290.018C12.5666 288.412 11.7405 286.64 11.2137 284.771H11.1027C7.56376 284.771 5.41325 284.786 2.3034 283.072C1.66219 287.252 1.49448 291.54 2.22941 295.611C3.02845 300.052 4.90275 304.256 8.40966 307.777C14.0326 313.432 30.588 316.958 49.6467 318.976C77.882 321.971 111.474 321.578 123.499 319.807C123.612 319.791 123.728 319.798 123.839 319.826C123.95 319.854 124.054 319.904 124.146 319.973C124.237 320.041 124.314 320.127 124.373 320.225C124.431 320.323 124.469 320.432 124.486 320.545C124.502 320.658 124.495 320.773 124.467 320.884C124.439 320.994 124.389 321.098 124.32 321.19C124.251 321.281 124.165 321.358 124.067 321.416C123.968 321.474 123.859 321.512 123.746 321.529C111.629 323.314 77.8303 323.714 49.4568 320.705C30.0504 318.649 13.1176 314.971 7.17164 309.004C3.39098 305.208 1.37364 300.689 0.512945 295.921C-0.337889 291.198 -0.0493413 286.249 0.786695 281.528C0.812227 281.381 0.875185 281.244 0.969521 281.128C1.06386 281.013 1.1864 280.924 1.32536 280.869C1.46432 280.814 1.61502 280.796 1.76298 280.817C1.91094 280.837 2.05118 280.895 2.17022 280.985C5.45518 283.052 7.49225 283.048 11.0953 283.038H11.8796C12.0767 283.038 12.268 283.104 12.4219 283.227C12.5757 283.35 12.6828 283.522 12.7255 283.714C13.1841 285.625 13.989 287.436 15.1004 289.059C19.5395 295.698 28.9653 301.124 40.4577 304.187C52.0216 307.268 65.635 307.942 78.3482 305.06C85.3842 303.467 92.1465 300.782 98.1269 296.811C107.56 290.549 114.742 283.419 120.367 275.718C117.314 271.558 112.118 268.327 101.698 267.514C92.98 266.828 83.5518 269.011 71.7191 271.745C58.049 274.904 41.1828 278.801 18.3582 279.935C9.50958 280.375 4.22702 279.834 3.18876 277.742C2.09377 275.529 5.4971 272.138 14.1189 267.039C20.1684 263.462 35.1899 254.869 49.7404 248.707C58.155 245.144 66.4266 242.393 72.7623 241.877C69.8028 229.583 74.2839 218.554 78.8636 207.266L78.8833 207.222C81.421 200.967 83.9883 194.631 85.2954 188.009C91.7568 155.11 90.9676 129.689 90.393 111.444C90.0773 101.269 89.8282 93.3083 90.9356 87.4517C93.0515 76.2843 99.7916 72.7168 119.247 76.3876C128.75 78.175 135.83 81.2214 140.849 84.607C147.574 89.1457 150.637 94.3606 150.884 98.0584C151.004 99.8705 150.294 101.793 148.975 103.817C147.992 105.276 146.885 106.649 145.668 107.92C151.811 106.868 157.883 106.637 163.863 106.408C180.386 105.779 196.19 105.179 210.494 86.9452C215.919 78.4111 212.04 67.7527 208.449 57.8712C203.867 45.2581 199.719 33.8425 214.447 28.5637C217.766 27.3712 222.183 28.0031 226.484 29.2841C227.828 29.6848 229.163 30.1471 230.448 30.6363C225.949 26.1689 223.759 21.1532 223.296 16.5112C222.967 13.5168 223.415 10.4885 224.598 7.71645C225.74 5.12254 227.528 2.99577 229.777 1.63858C233.641 -0.70455 238.803 -0.763558 244.27 2.96627C251.45 7.86152 251.124 11.2225 248.374 15.2277C247.669 16.2555 246.818 17.293 245.908 18.424C242.815 22.1858 238.907 26.9458 238.162 34.3588C239.99 35.4349 241.893 36.3798 243.856 37.1863C254.3 41.5062 262.316 45.118 269.233 50.2935C276.074 55.4125 281.793 62.0264 287.638 72.3037C291.651 72.4463 294.613 72.8176 297.232 74.4698C299.851 76.122 302.056 79.0503 304.477 84.2726C321.894 88.0172 330.071 96.2759 332.007 106.893C333.295 113.937 331.79 121.981 328.392 130.395C325.023 138.737 319.79 147.458 313.595 155.929C292.262 185.025 259.149 211.2 250.436 209.017C231.693 204.323 230.487 207.212 225.229 219.704C222.497 226.198 218.723 235.165 211.155 246.89L208.688 250.726C194.745 272.401 180.411 294.682 158.132 308.95C157.938 309.074 157.702 309.116 157.477 309.068C157.252 309.019 157.055 308.883 156.931 308.689C156.806 308.496 156.764 308.261 156.813 308.037C156.862 307.812 156.998 307.616 157.192 307.492C179.141 293.428 193.383 271.31 207.226 249.791L209.692 245.953C217.167 234.368 220.911 225.475 223.624 219.033C229.35 205.424 230.674 202.277 250.858 207.335C259.09 209.398 291.204 183.53 312.192 154.903C318.323 146.544 323.482 137.938 326.791 129.751C330.074 121.622 331.536 113.897 330.313 107.197C328.491 97.2102 320.609 89.4235 303.733 85.8879C303.593 85.8648 303.462 85.8079 303.349 85.7221C303.237 85.6364 303.148 85.5245 303.089 85.3962C300.746 80.2551 298.716 77.462 296.319 75.9475C293.922 74.4329 291.106 74.1526 287.165 74.0322C287.005 74.0381 286.846 73.9999 286.707 73.9219C286.567 73.8438 286.452 73.7288 286.373 73.5896C280.57 63.2902 274.94 56.7279 268.205 51.6901C261.47 46.6522 253.533 43.0847 243.203 38.7992C240.416 37.6652 237.753 36.249 235.257 34.5727C232.26 33.1464 229.164 31.9361 225.994 30.951C221.993 29.761 217.944 29.1537 215.036 30.1962C201.951 34.8874 205.815 45.5286 210.087 57.286C213.818 67.5535 217.84 78.625 211.961 87.8819C211.94 87.917 211.917 87.9507 211.892 87.9827C197.095 106.88 180.865 107.497 163.93 108.144C157.15 108.402 150.252 108.665 143.315 110.14H143.278C140.981 110.624 138.716 111.248 136.496 112.009C130.052 114.222 114.098 126.115 105.55 136.778C103.084 139.846 101.261 142.794 100.487 145.344C99.7768 147.677 99.9939 149.649 101.474 150.999C103 152.395 105.846 153.253 110.372 153.359C115.607 153.48 120.52 155.902 122.843 158.754C123.733 159.843 124.266 161.016 124.338 162.176C124.374 162.814 124.268 163.453 124.027 164.045C123.787 164.638 123.418 165.17 122.947 165.603C120.833 167.698 115.967 169.181 107.163 169.001C100.401 168.866 95.8186 170.341 93.8161 172.173C93.2118 172.721 92.874 173.277 92.8148 173.796C92.7989 174.055 92.8428 174.315 92.9433 174.555C93.0438 174.795 93.1981 175.009 93.3943 175.18C94.699 176.495 97.8483 177.474 103.086 177.474C110.954 177.474 115.634 179.616 117.679 182.327C118.562 183.45 119.007 184.854 118.932 186.279C118.821 187.685 118.252 189.018 117.311 190.072C115.092 192.686 110.579 194.498 104.487 193.859C98.0751 193.178 93.2883 193.991 90.9725 195.422C90.2795 195.85 89.8529 196.31 89.7395 196.765C89.6334 197.156 89.7715 197.603 90.1809 198.078C91.414 199.509 94.62 200.95 100.275 201.98C105.718 202.963 108.598 205.225 109.646 207.684C110.074 208.704 110.195 209.825 109.997 210.912C109.804 211.978 109.348 212.979 108.67 213.826C106.993 215.955 103.947 217.359 100.391 216.865H100.356C93.0515 215.83 88.499 216.304 86.0007 217.56C84.9033 218.114 84.2423 218.807 83.9439 219.574C83.6638 220.395 83.6927 221.29 84.0253 222.092C84.6912 223.936 86.4767 225.856 88.8812 227.309L88.8738 227.307ZM236.105 33.0458L236.507 33.2352C237.516 25.837 241.417 21.0892 244.527 17.3029C245.432 16.1989 246.271 15.181 246.917 14.2393C249.057 11.1217 249.237 8.45652 243.269 4.38493C238.443 1.09275 233.959 1.10013 230.652 3.10396C228.724 4.27429 227.175 6.12323 226.176 8.39751C225.113 10.8983 224.711 13.6294 225.01 16.3292C225.572 21.9129 228.869 28.094 236.107 33.0483L236.105 33.0458ZM144.057 219.786C139.399 239.008 134.631 258.662 122.542 275.718C124.268 278.482 125.287 281.553 126.288 284.592C128.015 289.863 129.724 295.026 135.482 297.977C138.301 299.422 141.344 299.764 144.558 299.13C152.131 297.637 160.642 290.788 169.4 280.186C178.243 269.483 187.304 254.982 195.899 238.309C211.85 207.386 226.154 169.036 234.48 133.596C229.767 134.887 225.042 136.089 220.423 137.26C206.706 140.746 194.057 143.962 186.12 148.486C157.367 164.876 150.824 191.867 144.057 219.786Z" fill="#170707"/>
</svg>
