<svg width="708" height="338" viewBox="0 0 708 338" fill="none" xmlns="http://www.w3.org/2000/svg">
<path d="M1.70143 337.693C1.44235 337.665 1.20502 337.535 1.04164 337.333C0.878253 337.13 0.802205 336.871 0.830223 336.612C0.858247 336.354 0.988033 336.117 1.19104 335.954C1.39406 335.791 1.65366 335.716 1.91274 335.744C30.1251 336.348 56.8344 324.156 82.6259 312.356C86.9348 310.387 91.3854 308.347 95.7514 306.413C152.313 281.423 199.609 274.659 240.41 285.734C251.454 288.733 262.21 293.156 272.61 297.415C283.929 302.059 295.632 306.861 307.661 309.801C342.073 318.233 380.033 310.235 409.174 290.089C406.814 290.313 404.391 290.463 401.905 290.539C384.187 291.104 366.311 288.397 350.198 282.757C332.896 276.684 318.074 267.521 306.152 255.531C266.045 215.19 257.59 150.956 285.598 99.3034C293.686 84.3801 303.403 71.8315 314.463 62.0037C333.362 44.9249 358.016 35.5725 383.525 35.8056C394.963 35.8764 406.327 37.6561 417.24 41.0854C433.199 46.0623 447.093 52.9945 458.53 61.6938C475.442 74.5345 488.545 93.4017 495.45 114.738C495.598 115.189 495.738 115.634 495.878 116.087C529.936 102.052 565.773 87.408 602.554 72.6048C602.654 69.6282 603.439 66.7149 604.848 64.0904C610.118 50.7529 615.277 39.05 625.053 30.8158C630.211 26.4724 636.367 23.4615 642.748 20.4985C658.538 13.1665 674.832 6.33855 691.134 0.188835C691.318 0.120425 691.519 0.109022 691.71 0.156137C691.901 0.203251 692.073 0.306684 692.205 0.45295C692.336 0.599205 692.42 0.781523 692.446 0.976123C692.472 1.17072 692.439 1.36859 692.35 1.54392L673.62 38.3734C672.188 41.1839 670.709 44.0928 668.399 46.4501C665.199 49.7132 660.807 51.4547 656.936 52.979C639.301 59.9618 621.819 66.9422 604.489 73.9203C604.652 79.6001 606.939 85.0154 610.899 89.1022C616.549 94.9333 625.161 98.311 635.195 98.6016C644.012 98.8745 652.574 96.9483 662.046 94.5939C675.231 91.3175 690.391 87.3101 704.422 81.0613C692.685 74.3575 680.585 67.9851 668.429 62.1234C668.208 62.0042 668.042 61.8047 667.965 61.5664C667.888 61.3281 667.905 61.0693 668.014 60.8439C668.123 60.6185 668.315 60.4438 668.55 60.3562C668.785 60.2686 669.045 60.2747 669.276 60.3734C682.042 66.5448 694.753 73.2628 707.04 80.3363C707.196 80.4263 707.323 80.5568 707.409 80.7139C707.496 80.871 707.537 81.0486 707.529 81.2275C707.522 81.4059 707.466 81.5789 707.367 81.7274C707.267 81.8759 707.129 81.9943 706.967 82.0695C692.304 88.8403 676.335 93.0724 662.518 96.5167C652.9 98.9064 644.205 100.862 635.134 100.58C624.592 100.254 615.486 96.6613 609.497 90.4656C605.389 86.2104 602.936 80.6341 602.578 74.7391C565.991 89.4486 530.33 104.008 496.437 117.975C502.376 138.388 502.434 160.033 496.551 179.298C490.36 199.59 477.228 218.373 459.575 232.237C441.921 246.101 420.522 254.416 399.309 255.655L399.259 255.645C394.249 255.652 389.249 255.173 384.331 254.212C354.615 248.436 328.724 225.809 320.999 197.073C318.198 186.644 317.316 174.798 318.231 159.79C320.708 119.109 340.905 92.4042 378.302 80.4275C398.183 74.0539 421.473 78.5293 439.076 92.1054C450.827 101.156 459.909 114.004 465.258 128.732C474.672 124.833 484.244 120.879 493.974 116.872C487.473 95.7729 474.827 76.5286 457.338 63.2456C446.082 54.6886 432.399 47.8573 416.65 42.9491C396.93 36.7991 329.317 22.7609 287.309 100.233C259.708 151.129 268.021 214.424 307.528 254.158C330.461 277.225 364.845 289.776 401.832 288.595C405.153 288.488 408.728 288.239 412.419 287.767C421.075 281.396 428.815 273.872 435.423 265.405C439.146 260.624 445.853 256.008 450.66 256.568C452.825 256.822 454.477 258.071 455.447 260.186C456.847 263.245 455.771 267.076 452.44 271.014C446.859 277.619 439.153 282.634 429.539 285.928C424.241 287.7 418.778 288.942 413.233 289.636C412.423 290.231 411.611 290.818 410.784 291.394C390.851 305.284 367.455 313.409 343.177 314.873C331.094 315.609 318.967 314.531 307.202 311.674C295.014 308.688 283.26 303.859 271.874 299.19C261.527 294.942 250.81 290.55 239.906 287.587C199.57 276.625 152.68 283.369 96.563 308.191C92.1963 310.128 87.7479 312.157 83.4397 314.122C57.4352 326.013 30.5467 338.305 1.87646 337.675C1.81894 337.688 1.76024 337.694 1.70143 337.693ZM450.806 258.563C450.695 258.542 450.58 258.519 450.46 258.496C446.391 258.02 440.299 262.329 436.993 266.59C431.026 274.251 424.146 281.157 416.504 287.155C428.984 285.024 442.181 280.153 450.973 269.753C452.602 267.821 455.126 264.116 453.695 260.988C453.043 259.619 452.098 258.818 450.79 258.564L450.806 258.563ZM409.315 80.7277C399.084 78.739 388.574 79.188 378.899 82.2869C342.359 94.0003 322.599 120.117 320.177 159.918C319.296 174.713 320.136 186.36 322.883 196.575C331.653 229.213 364.467 253.77 399.221 253.707C442.045 251.192 482.186 219.659 494.688 178.721C500.596 159.369 500.204 138.316 494.542 118.753C484.846 122.747 475.302 126.688 465.908 130.579C467.672 135.794 468.954 141.158 469.74 146.605C471.288 157.247 470.833 168.082 468.398 178.554C465.806 189.463 461.15 199.07 454.568 207.106C447.655 215.452 438.659 221.833 428.484 225.604C417.892 229.516 406.982 230.182 396.908 227.567C380.505 223.316 366.182 210.15 359.524 193.209C352.301 174.823 354.641 158.206 357.877 147.51C361.522 135.449 367.741 125.855 372.283 121.698C378.596 115.907 387.262 112.668 396.655 112.563C405.88 112.462 414.764 115.367 421.671 120.742C428.115 125.752 432.98 132.724 435.812 140.981C444.85 137.223 454.065 133.401 463.458 129.513C458.237 115.092 449.363 102.528 437.885 93.677C429.498 87.2034 419.716 82.7696 409.315 80.7277ZM404.797 115.241C393.647 113.073 381.676 115.726 373.609 123.11C369.401 126.961 363.272 136.406 359.751 148.053C356.602 158.464 354.323 174.623 361.344 192.488C367.777 208.864 381.594 221.573 397.4 225.672C416.855 230.708 439.224 222.76 453.059 205.877C465.617 190.537 470.995 169.032 467.811 146.883C467.05 141.598 465.81 136.393 464.106 131.331C454.704 135.227 445.472 139.057 436.412 142.821C438.926 151.263 439.114 160.222 436.957 168.757C434.213 179.321 425.957 190.57 414.306 190.307C407.434 190.166 400.604 185.562 396.904 178.609C393.946 173.055 392.77 166.027 393.407 157.724C394.116 148.452 398.921 138.221 407.796 137.665C412.84 137.352 418.022 140.6 420.701 145.746C420.91 146.15 421.105 146.562 421.287 146.982L433.976 141.703C431.335 133.981 426.708 127.099 420.462 122.242C415.862 118.714 410.496 116.316 404.797 115.241ZM410.355 139.77C409.559 139.616 408.746 139.562 407.936 139.611C400.224 140.102 396.015 149.418 395.37 157.867C394.762 165.798 395.863 172.468 398.642 177.693C402.019 184.03 408.189 188.215 414.366 188.356C424.953 188.595 432.53 178.107 435.086 168.262C437.142 160.144 436.962 151.621 434.566 143.593L421.976 148.836C423.063 152.232 423.331 156.233 422.862 160.926C422.611 163.321 421.978 166.725 419.406 168.438C417.738 169.547 415.619 169.633 413.59 168.677C411.005 167.462 409.084 164.848 408.805 162.174C408.417 158.405 410.15 154.475 414.123 150.112C414.219 150.007 414.337 149.924 414.469 149.869L419.513 147.772C419.35 147.398 419.178 147.034 418.996 146.677C417.373 143.551 414.215 140.521 410.355 139.77ZM415.406 151.555C411.937 155.403 410.405 158.807 410.732 161.952C410.939 163.942 412.448 165.975 414.403 166.897C415.226 167.283 416.824 167.785 418.309 166.796C420.216 165.527 420.699 162.711 420.921 160.708C421.366 156.364 421.127 152.691 420.168 149.575L415.406 151.555ZM689.462 2.91702C673.995 8.81504 658.569 15.3222 643.567 22.2778C637.072 25.2904 631.291 28.1232 626.314 32.3147C616.868 40.2668 611.816 51.7638 606.643 64.8732C606.627 64.9118 606.609 64.9495 606.589 64.9861C605.442 67.0946 604.748 69.419 604.552 71.8109C621.597 64.9578 638.814 58.0878 656.204 51.2008C659.896 49.7371 664.085 48.0756 666.996 45.1106C669.096 42.9673 670.506 40.1921 671.869 37.5115L689.462 2.91702Z" fill="#170707"/>
</svg>
