<svg width="23" height="25" viewBox="0 0 23 25" fill="none" xmlns="http://www.w3.org/2000/svg">
<g clip-path="url(#clip0_19_305)">
<path d="M17.0451 9.00187C18.7232 10.1523 20.779 10.8292 22.9993 10.8292V6.73178C22.5791 6.73187 22.16 6.6898 21.7489 6.60627V9.83152C19.5288 9.83152 17.4732 9.15471 15.7948 8.00437V16.3661C15.7948 20.5491 12.2589 23.9398 7.89751 23.9398C6.27017 23.9398 4.75756 23.468 3.5011 22.6588C4.93518 24.0651 6.93511 24.9374 9.1476 24.9374C13.5093 24.9374 17.0453 21.5467 17.0453 17.3635V9.00187H17.0451ZM18.5878 4.86808C17.7301 3.96954 17.167 2.80833 17.0451 1.52454V0.997559H15.8602C16.1585 2.6292 17.1759 4.02316 18.5878 4.86808ZM6.25966 19.4489C5.78052 18.8465 5.52151 18.1094 5.52267 17.3515C5.52267 15.4384 7.13995 13.8872 9.13529 13.8872C9.50708 13.887 9.87669 13.9418 10.2311 14.0495V9.86049C9.81694 9.80609 9.39898 9.7829 8.98121 9.79144V13.052C8.62662 12.9441 8.25682 12.8894 7.88485 12.8897C5.88959 12.8897 4.27241 14.4408 4.27241 16.3541C4.27241 17.707 5.08073 18.8783 6.25966 19.4489Z" fill="#DD3A1A"/>
<path d="M15.7948 8.00428C17.4734 9.15463 19.5287 9.83144 21.7489 9.83144V6.60618C20.5096 6.35299 19.4125 5.73196 18.5877 4.86808C17.1758 4.02308 16.1585 2.62911 15.8602 0.997559H12.7478V17.3633C12.7407 19.2713 11.1262 20.8161 9.13514 20.8161C7.96196 20.8161 6.9196 20.2798 6.25951 19.4489C5.08076 18.8783 4.27235 17.707 4.27235 16.3542C4.27235 14.441 5.88954 12.8898 7.88479 12.8898C8.26707 12.8898 8.63552 12.9469 8.98115 13.052V9.79152C4.69632 9.87644 1.25037 13.234 1.25037 17.3634C1.25037 19.4248 2.10846 21.2935 3.50122 22.6589C4.75769 23.468 6.27021 23.94 7.89763 23.94C12.2591 23.94 15.7949 20.549 15.7949 16.3661L15.7948 8.00428Z" fill="#FFFCFB"/>
<path d="M21.7489 6.60604V5.73414C20.6314 5.73576 19.5359 5.43562 18.5877 4.86802C19.427 5.74924 20.5322 6.35675 21.7489 6.60604ZM15.8601 0.997414C15.8317 0.841518 15.8099 0.684578 15.7947 0.526983V0H11.4971V16.3659C11.4903 18.2737 9.8758 19.8185 7.88469 19.8185C7.32022 19.8193 6.76347 19.6927 6.25941 19.449C6.9195 20.2797 7.96186 20.816 9.13504 20.816C11.126 20.816 12.7407 19.2713 12.7477 17.3634V0.9975L15.8601 0.997414ZM8.98132 9.79138V8.86302C8.62221 8.81592 8.26017 8.79236 7.89771 8.7925C3.5358 8.7925 0 12.1834 0 16.3659C0 18.9883 1.38961 21.2993 3.5013 22.6587C2.10854 21.2934 1.25045 19.4246 1.25045 17.3633C1.25045 13.234 4.69631 9.8763 8.98132 9.79138Z" fill="#FFFCFB"/>
</g>
<defs>
<clipPath id="clip0_19_305">
<rect width="23" height="25" fill="white"/>
</clipPath>
</defs>
</svg>
