<svg width="24" height="25" viewBox="0 0 24 25" fill="none" xmlns="http://www.w3.org/2000/svg">
<g clip-path="url(#clip0_170_316)">
<path d="M16.5556 8.00428C18.2341 9.15463 20.2895 9.83144 22.5097 9.83144V6.60618C21.2704 6.35299 20.1733 5.73196 19.3484 4.86808C17.9365 4.02308 16.9192 2.62911 16.621 0.997559H13.5085V17.3633C13.5014 19.2713 11.8869 20.8161 9.89589 20.8161C8.72271 20.8161 7.68034 20.2798 7.02026 19.4489C5.84151 18.8783 5.03309 17.707 5.03309 16.3542C5.03309 14.441 6.65028 12.8898 8.64553 12.8898C9.02781 12.8898 9.39626 12.9469 9.74189 13.052V9.79152C5.45706 9.87644 2.01111 13.234 2.01111 17.3634C2.01111 19.4248 2.86921 21.2935 4.26196 22.6589C5.51843 23.468 7.03095 23.94 8.65838 23.94C13.0198 23.94 16.5556 20.549 16.5556 16.3661L16.5556 8.00428Z" fill="#DD3A1A"/>
<path d="M17.8059 9.00187C19.484 10.1523 21.5398 10.8292 23.7601 10.8292V6.73178C23.3399 6.73187 22.9208 6.6898 22.5096 6.60627V9.83152C20.2895 9.83152 18.234 9.15471 16.5555 8.00437V16.3661C16.5555 20.5491 13.0196 23.9398 8.65826 23.9398C7.03092 23.9398 5.51831 23.468 4.26184 22.6588C5.69593 24.0651 7.69585 24.9374 9.90834 24.9374C14.2701 24.9374 17.8061 21.5467 17.8061 17.3635V9.00187H17.8059ZM19.3485 4.86808C18.4908 3.96954 17.9277 2.80833 17.8059 1.52454V0.997559H16.6209C16.9192 2.6292 17.9367 4.02316 19.3485 4.86808ZM7.0204 19.4489C6.54126 18.8465 6.28225 18.1094 6.28342 17.3515C6.28342 15.4384 7.90069 13.8872 9.89603 13.8872C10.2678 13.887 10.6374 13.9418 10.9919 14.0495V9.86049C10.5777 9.80609 10.1597 9.7829 9.74195 9.79144V13.052C9.38736 12.9441 9.01756 12.8894 8.64559 12.8897C6.65034 12.8897 5.03315 14.4408 5.03315 16.3541C5.03315 17.707 5.84147 18.8783 7.0204 19.4489Z" fill="#DD3A1A"/>
<path d="M22.5097 6.60603V5.73414C21.3921 5.73576 20.2966 5.43562 19.3484 4.86802C20.1877 5.74924 21.2929 6.35692 22.5097 6.60621M16.6209 0.997414C16.5924 0.841518 16.5706 0.684578 16.5555 0.526983V0H12.2579V16.3659C12.251 18.2737 10.6365 19.8185 8.64543 19.8185C8.08096 19.8193 7.52422 19.6927 7.02016 19.449C7.68024 20.2797 8.72261 20.8159 9.89579 20.8159C11.8867 20.8159 13.5014 19.2713 13.5084 17.3634V0.9975L16.6209 0.997414ZM9.74206 9.79138V8.86302C9.38295 8.81592 9.02091 8.79236 8.65846 8.7925C4.29654 8.7925 0.760742 12.1834 0.760742 16.3659C0.760742 18.9883 2.15036 21.2993 4.26204 22.6587C2.86929 21.2934 2.01119 19.4246 2.01119 17.3633C2.01119 13.234 5.45706 9.87629 9.74206 9.79138Z" fill="#FFFCFB"/>
</g>
<defs>
<clipPath id="clip0_170_316">
<rect width="23" height="25" fill="white" transform="translate(0.760742)"/>
</clipPath>
</defs>
</svg>
