<svg width="21" height="23" viewBox="0 0 21 23" fill="none" xmlns="http://www.w3.org/2000/svg">
<g clip-path="url(#clip0_152_497)">
<path d="M15.5631 8.28169C17.0953 9.34009 18.9723 9.96283 20.9995 9.96283V6.19321C20.6158 6.19329 20.2332 6.15459 19.8578 6.07774V9.04497C17.8307 9.04497 15.9539 8.42231 14.4214 7.36399V15.0568C14.4214 18.9052 11.193 22.0246 7.2109 22.0246C5.72506 22.0246 4.34398 21.5905 3.19678 20.846C4.50616 22.1398 6.33218 22.9424 8.35228 22.9424C12.3347 22.9424 15.5632 19.8229 15.5632 15.9744V8.28169H15.5631ZM16.9715 4.4786C16.1885 3.65195 15.6743 2.58364 15.5631 1.40255V0.917725H14.4812C14.7535 2.41883 15.6825 3.70128 16.9715 4.4786ZM5.71546 17.893C5.27798 17.3387 5.0415 16.6606 5.04256 15.9634C5.04256 14.2033 6.51921 12.7762 8.34104 12.7762C8.6805 12.776 9.01797 12.8264 9.34158 12.9255V9.07162C8.96341 9.02158 8.5818 9.00024 8.20036 9.00809V12.0078C7.8766 11.9086 7.53896 11.8582 7.19933 11.8585C5.37758 11.8585 3.90102 13.2855 3.90102 15.0458C3.90102 16.2905 4.63905 17.368 5.71546 17.893Z" fill="#DD3A1A"/>
<path d="M14.4213 7.36391C15.9539 8.42223 17.8305 9.04489 19.8577 9.04489V6.07765C18.7261 5.84472 17.7245 5.27337 16.9713 4.4786C15.6822 3.7012 14.7534 2.41875 14.481 0.917725H11.6392V15.9742C11.6327 17.7295 10.1586 19.1508 8.34075 19.1508C7.26958 19.1508 6.31785 18.6574 5.71517 17.8929C4.63892 17.368 3.9008 16.2904 3.9008 15.0458C3.9008 13.2857 5.37737 11.8586 7.19912 11.8586C7.54816 11.8586 7.88457 11.9111 8.20014 12.0078V9.00817C4.28791 9.08629 1.1416 12.1753 1.1416 15.9743C1.1416 17.8708 1.92508 19.59 3.19673 20.8462C4.34394 21.5905 5.72493 22.0247 7.21085 22.0247C11.1931 22.0247 14.4214 18.9051 14.4214 15.0568L14.4213 7.36391Z" fill="#170707"/>
<path d="M19.8577 6.07755V5.27541C18.8373 5.2769 17.8371 5.00077 16.9714 4.47858C17.7377 5.2893 18.7468 5.84837 19.8577 6.07771M14.481 0.917621C14.455 0.774197 14.4351 0.629812 14.4213 0.484824V0H10.4974V15.0567C10.4911 16.8118 9.01704 18.2331 7.19906 18.2331C6.68368 18.2338 6.17534 18.1173 5.71512 17.893C6.3178 18.6574 7.26953 19.1507 8.34069 19.1507C10.1585 19.1507 11.6328 17.7296 11.6392 15.9743V0.9177L14.481 0.917621ZM8.20034 9.00807V8.15398C7.87245 8.11064 7.54189 8.08897 7.21096 8.0891C3.22834 8.0891 0 11.2087 0 15.0567C0 17.4692 1.26878 19.5954 3.19684 20.846C1.92519 19.5899 1.14171 17.8706 1.14171 15.9742C1.14171 12.1752 4.28794 9.08619 8.20034 9.00807Z" fill="#170707"/>
</g>
<defs>
<clipPath id="clip0_152_497">
<rect width="21" height="23" fill="white"/>
</clipPath>
</defs>
</svg>
