<svg width="17" height="19" viewBox="0 0 17 19" fill="none" xmlns="http://www.w3.org/2000/svg">
<g clip-path="url(#clip0_316_158)">
<path d="M12.5986 6.84133C13.8389 7.71566 15.3584 8.2301 16.9995 8.2301V5.11607C16.6889 5.11613 16.3791 5.08416 16.0753 5.02067V7.47187C14.4343 7.47187 12.915 6.9575 11.6744 6.08323V12.4381C11.6744 15.6172 9.06092 18.1942 5.83729 18.1942C4.63448 18.1942 3.51646 17.8356 2.58777 17.2206C3.64775 18.2894 5.12595 18.9523 6.76127 18.9523C9.98516 18.9523 12.5987 16.3754 12.5987 13.1962V6.84133H12.5986ZM13.7388 3.69965C13.1049 3.01676 12.6886 2.13425 12.5986 1.15856V0.758057H11.7227C11.9432 1.9981 12.6953 3.05752 13.7388 3.69965ZM4.62671 14.7811C4.27255 14.3232 4.08112 13.763 4.08198 13.1871C4.08198 11.7331 5.27735 10.5542 6.75217 10.5542C7.02697 10.5541 7.30016 10.5957 7.56213 10.6776V7.49388C7.256 7.45254 6.94707 7.43492 6.63828 7.44141V9.9194C6.3762 9.83744 6.10287 9.79585 5.82793 9.7961C4.35318 9.7961 3.15787 10.9749 3.15787 12.429C3.15787 13.4573 3.75532 14.3474 4.62671 14.7811Z" fill="#FFFCFB"/>
<path d="M11.6744 6.08317C12.9151 6.95743 14.4343 7.4718 16.0753 7.4718V5.02061C15.1593 4.82818 14.3484 4.3562 13.7387 3.69965C12.6952 3.05745 11.9432 1.99804 11.7228 0.758057H9.42227V13.196C9.41702 14.6461 8.2237 15.8201 6.75207 15.8201C5.88494 15.8201 5.11449 15.4126 4.62661 14.781C3.75536 14.3474 3.15783 13.4572 3.15783 12.4291C3.15783 10.9751 4.35315 9.79616 5.8279 9.79616C6.11046 9.79616 6.38279 9.83953 6.63825 9.91946V7.44147C3.47121 7.506 0.924194 10.0578 0.924194 13.1961C0.924194 14.7628 1.55844 16.183 2.58787 17.2207C3.51656 17.8356 4.63451 18.1943 5.83739 18.1943C9.06108 18.1943 11.6745 15.6172 11.6745 12.4381L11.6744 6.08317Z" fill="#170707"/>
<path d="M16.0753 5.02059V4.35794C15.2493 4.35918 14.4396 4.13107 13.7387 3.69969C14.3591 4.36942 15.176 4.83126 16.0753 5.02072M11.7227 0.758035C11.7017 0.639554 11.6856 0.52028 11.6744 0.400507V0H8.49788V12.4381C8.49283 13.888 7.29951 15.0621 5.82781 15.0621C5.4106 15.0627 4.99909 14.9665 4.62652 14.7812C5.11441 15.4126 5.88486 15.8201 6.75199 15.8201C8.22355 15.8201 9.417 14.6462 9.42218 13.1962V0.7581L11.7227 0.758035ZM6.63837 7.44145V6.73589C6.37294 6.7001 6.10534 6.68219 5.83744 6.6823C2.61342 6.6823 0 9.25936 0 12.4381C0 14.4311 1.02711 16.1875 2.58792 17.2206C1.55849 16.183 0.924242 14.7627 0.924242 13.1961C0.924242 10.0578 3.47119 7.50598 6.63837 7.44145Z" fill="#170707"/>
</g>
<defs>
<clipPath id="clip0_316_158">
<rect width="17" height="19" fill="white"/>
</clipPath>
</defs>
</svg>
