<svg width="567" height="680" viewBox="0 0 567 680" fill="none" xmlns="http://www.w3.org/2000/svg">
<path d="M199.383 43.5C201.883 24.4998 213.883 6.99976 223.883 0C237.883 5.5 254.383 14.4995 271.383 32.9998C263.5 51.5 255 60.5 249 66C240.5 73.7917 235.883 76.5 220.383 76.5C211.597 74.8282 206.18 70.8438 201.883 63C199.383 58.4365 198.383 53.4998 199.383 43.5Z" fill="#DD3A1A"/>
<path d="M1 673.656C184.484 674.144 80.9732 675.115 266.143 676.635C263.945 672.76 265.025 667.685 267.617 664.053C270.21 660.421 274.051 657.916 277.802 655.496L304.763 638.108C306.365 637.075 308.121 636 310.022 636.146C313.471 636.413 315.266 640.33 316.057 643.682C317.655 650.436 318.143 657.405 317.503 664.315C317.34 666.081 317.072 667.933 315.975 669.33C314.952 670.643 313.359 671.365 311.811 671.98C302.152 675.813 291.762 677.456 281.39 676.79C278.804 676.623 275.786 676.009 274.709 673.656C273.329 670.652 276.172 667.446 278.935 665.629C288.85 659.109 302.183 655.992 307.535 645.405C303.688 642.507 298.15 642.832 294.193 640.087C288.945 636.446 292.266 628.611 292.219 622.227C292.137 611.474 290.613 524.907 292.831 509.428C289.874 465.26 286.311 421.132 283.602 376.677L299.351 383.472C301.209 359.503 305.23 335.749 311.365 312.502C314.383 301.045 317.947 289.561 318.191 277.717C318.598 257.869 309.785 237.219 317.297 218.463C321.207 219.203 325.172 219.618 329.151 219.704C327.515 218.281 326.417 216.342 326.039 214.209C327.649 217.223 331.272 218.746 334.699 218.791C338.126 218.836 341.443 217.671 344.672 216.519C339.499 212.693 336.35 206.647 334.652 200.442C332.953 194.237 332.541 187.767 331.787 181.379C330.131 167.379 326.802 153.627 321.872 140.418C321.387 139.126 320.864 137.796 319.896 136.807C317.286 134.15 312.212 135.434 310.509 138.745C308.807 142.057 310.1 146.348 312.824 148.888C315.549 151.429 319.383 152.46 325.136 151.812C323.967 142.838 319.818 133.787 322.306 125.086C324.793 116.385 333.151 110.85 341.012 106.332C342.047 105.738 343.221 105.127 344.377 105.428C345.342 105.68 346.028 106.505 346.663 107.278C351.056 112.592 356.234 117.206 362.018 120.963C364.146 122.343 366.4 123.646 367.989 125.622C372.692 131.466 369.754 140.033 370.435 147.5C373.539 148.146 376.375 145.536 377.979 142.808C379.445 140.332 380.425 137.27 379.369 134.594C378.313 131.918 374.485 130.372 372.133 132.523C371.473 142.918 368.587 153.05 363.669 162.235C360.971 167.263 357.419 172.196 352.205 174.532C346.991 176.868 339.846 175.638 337.137 170.615C342.637 176.194 352.983 175.755 357.99 169.733C359.516 167.896 361.316 165.372 363.605 166.055C365.883 172.269 362.264 179.781 365.445 185.586C367.954 190.163 373.636 191.761 378.725 192.932C381.096 193.479 384.316 193.628 385.23 191.367C380.876 189.362 378.231 184.692 377.393 179.986C376.554 175.279 377.233 170.432 377.893 165.689C379.498 154.125 380.96 142.436 380.095 130.809C379.231 119.182 375.88 107.433 368.722 98.2046C365.639 94.2321 361.751 90.6881 356.99 89.0668C352.229 87.4455 346.5 88.0549 342.836 91.4977C339.018 89.2541 334.121 90.1046 330.035 91.8099C319.193 96.3314 310.999 106.666 309.08 118.254C307.761 126.221 309.244 134.357 309.272 142.431C309.337 160.517 302.123 178.08 302.59 196.153C302.694 200.08 303.185 204.087 304.923 207.612C306.66 211.136 309.813 214.138 313.626 214.207L322.161 213.737C322.53 210.648 319.872 208.139 317.635 205.986C310.453 199.058 305.164 188.736 308.141 179.215C308.501 178.063 308.983 176.885 308.811 175.692C308.578 174.09 307.222 172.893 305.808 172.094C298.696 168.133 289.305 171.405 280.177 167.327C270.925 160.596 260.978 154.873 250.506 150.258C250.346 152.109 253.392 153.108 254.362 151.519C242.882 136.027 231.387 120.544 219.876 105.071C214.968 110.789 208.377 115.048 201.538 116.779C199.187 110.006 191.563 106.373 188.425 99.9249C187.903 98.8483 187.511 97.6813 187.584 96.4928C187.774 93.513 190.671 91.5407 193.259 90.0508C191.169 87.7255 192.445 83.3568 195.46 82.515C196.538 82.2135 197.809 82.2695 198.62 81.4944C199.98 80.2025 199.152 77.4035 200.775 76.4583C201.39 76.7421 202.059 76.8883 202.737 76.8864C203.414 76.8845 204.083 76.7348 204.696 76.4475C205.342 76.1396 205.957 75.666 206.677 75.638C207.468 75.6057 208.164 76.1203 208.776 76.6219C210.223 77.8089 211.603 79.0739 212.912 80.4114C213.658 81.1714 214.421 82.0628 214.421 83.1286C214.421 84.0523 213.85 84.8704 213.253 85.5724C211.681 87.4197 209.778 88.9764 208.31 90.9056C206.843 92.8347 205.821 95.3173 206.401 97.6706C210.013 98.295 213.919 96.2539 215.466 92.9338C213.969 94.5665 212.875 96.5274 212.274 98.6588C211.673 100.79 211.581 103.033 212.005 105.206C212.334 106.826 213.386 108.682 215.945 108.242C218.197 107.743 219.257 105.215 219.967 103.023L223.415 92.3761C223.917 90.8194 224.428 89.2068 224.256 87.579C223.794 83.204 218.96 80.9044 214.813 79.4167C216.147 77.5671 219.434 81.643 221.531 82.5386C230.261 86.2721 240.236 80.6353 248.042 75.2181C255.849 69.8009 261.561 61.9701 267.727 54.4235L287.988 66.2806C281.522 72.9961 274.972 79.7848 267.025 84.6573C263.712 86.6898 260.013 88.4058 256.127 88.3348C252.241 88.2637 248.178 85.9664 247.139 82.2157C245.693 77.0052 250.249 72.2533 254.189 68.5435C260.09 62.9889 265.521 56.957 270.428 50.5092C272.394 47.9255 274.368 44.9542 274.047 41.7246C273.743 38.6758 271.473 36.2342 269.268 34.1091C256.933 22.2231 242.794 12.3587 227.377 4.88084C226.493 4.45022 225.551 4.0196 224.575 4.10788C223.329 4.21554 222.32 5.12629 221.43 6.00476C210.785 16.4688 205.998 31.0905 199.646 45.7164C197.059 49.4542 191.024 50.1324 187.658 47.0643C176.758 37.1148 186.507 5.21672 190.393 2C197.456 5.72696 204.098 10.2025 210.203 15.3492C210.563 15.6528 210.944 15.9951 211.022 16.4602C211.121 17.0458 210.703 17.5819 210.317 18.0362C204.26 25.1587 203.536 35.6615 200.749 44.5817C198.262 52.5482 196.755 65.5658 208.675 73.8272C209.877 74.8693 208.89 76.96 207.478 77.6834C206.067 78.4069 204.351 78.4305 202.971 79.225C201.439 80.1078 200.542 81.8303 200.243 83.5721C199.943 85.314 200.157 87.0967 200.372 88.8515C197.432 89.4156 194.65 91.0972 193.096 93.6529C191.542 96.2086 191.371 99.645 192.986 102.164C194.861 105.099 198.523 106.255 201.902 107.097C202.801 107.312 203.775 107.54 204.635 107.189C206.263 106.526 206.511 104.367 206.502 102.61C206.502 101.68 206.136 100.409 205.209 100.526C204.678 100.592 204.347 101.122 204.109 101.602C201.971 105.743 198.54 110.311 196.704 115.244L167.664 98.3682C166.662 97.7847 165.632 97.1926 164.487 97.0139C160.558 96.3938 157.732 100.569 155.984 104.138C155.133 105.876 154.26 107.891 155.017 109.676C155.476 110.766 156.454 111.534 157.388 112.249C171.666 123.066 186.617 132.967 202.15 141.893C204.347 143.155 207.127 144.397 209.263 143.041C210.308 142.377 210.923 141.228 211.492 140.13L215.464 132.46C215.83 131.75 216.21 130.966 216.033 130.187C215.845 129.364 215.1 128.806 214.406 128.324L184.612 107.637C185.569 105.88 186.528 104.123 188.209 103.719C197.38 105.265 201.81 115.419 206.049 123.686C228.579 167.61 226.98 163.581 238.259 176.528C257.095 198.143 282.259 211.95 292.704 221.577C293.301 222.558 294.116 223.39 295.085 224.008C296.054 224.626 297.152 225.014 298.295 225.142C298.512 224.297 298.476 223.407 298.191 222.582C297.906 221.757 297.385 221.034 296.691 220.502C295.221 220.856 294.223 222.281 293.861 223.747C293.499 225.213 293.646 226.746 293.665 228.256C293.747 234.009 292.04 239.626 291.413 245.347C290.477 253.886 291.96 262.483 295.279 273.1C285.264 302.834 278.094 333.448 273.864 364.534C273.648 366.148 273.45 367.877 274.178 369.335C275.062 371.111 277.06 372.001 278.937 372.644C282.842 373.981 286.895 374.838 291.008 375.196C292.65 375.34 294.4 375.383 295.844 374.58C298.157 373.288 298.862 370.366 299.362 367.768L305.744 333.887C306.229 331.303 307.063 328.288 309.535 327.408C311.259 326.781 313.173 327.477 314.902 328.125C335.809 335.945 352.671 337.775 375.326 329.882C375.34 315.769 374.408 301.67 372.537 287.681C372.105 284.505 371.317 280.867 368.461 279.409C365.9 278.102 362.835 279.155 360.083 279.986C353.025 282.107 345.582 282.629 338.296 281.515C345.668 285.356 354.576 283.735 362.71 282.021C365.648 281.403 368.778 280.679 370.842 278.503C372.705 276.539 373.351 273.746 373.819 271.083C376.244 257.277 375.678 243.113 372.162 229.543C369.452 221.454 368.019 212.993 367.915 204.464C367.812 195.974 368.808 186.662 363.82 179.785C364.501 181.682 363.23 183.68 361.982 185.263C358.363 189.845 354.369 194.117 350.041 198.037C348.963 199.008 347.696 200.018 346.256 199.869C345.217 199.762 344.349 199.064 343.558 198.382C339.135 194.556 335.145 190.258 331.658 185.566C328.994 193.649 330.302 202.938 335.093 209.974L349.606 199.6C354.242 203.665 359.647 206.85 367.711 210.002C366.975 201.884 367.914 193.701 370.472 185.96C376.97 187.046 383.322 188.873 389.402 191.408C392.56 192.723 395.737 194.304 397.931 196.928C400.496 199.996 401.395 204.102 401.953 208.064C404.833 228.428 401.059 249.892 408.419 271.475C406.143 276.864 402.83 281.754 398.668 285.868C399.015 281.993 402.382 279.194 405.24 276.558C412.043 270.246 417.215 262.383 420.317 253.641C424.153 260.584 432.501 264.744 439.959 264.538C443.718 257.253 447.192 249.831 450.382 242.272C451.488 239.652 452.581 236.844 452.106 234.043C451.632 231.242 448.906 228.628 446.151 229.339C446.845 226.109 444.063 223.276 441.539 221.142C437.933 218.091 433.531 214.836 428.943 215.957C423.035 217.4 421.213 224.755 420.498 230.788C421.41 228.486 418.616 225.969 416.202 226.535C413.788 227.102 412.323 229.728 412.271 232.205C412.219 234.681 413.275 237.03 414.344 239.265C415.722 242.143 417.25 245.095 419.8 247.016C420.987 247.914 422.67 248.542 423.925 247.743C425.179 246.945 425.319 245.237 425.171 243.788C424.839 240.621 423.664 237.601 421.767 235.042C422.937 239.63 425.029 243.931 427.917 247.685C429.818 250.148 432.262 252.469 435.331 252.988C438.4 253.507 442.03 251.449 442.144 248.342C442.258 245.235 437.331 243.175 435.782 245.879C437.34 245.069 439.267 247.063 438.784 248.751C438.301 250.439 436.258 251.294 434.529 250.986C432.801 250.678 431.357 249.502 430.115 248.26C428.949 247.093 427.608 245.715 425.966 245.892C425.289 245.99 424.657 246.29 424.153 246.753C421.332 249.218 422.246 254.074 424.891 256.739C427.535 259.405 431.292 260.516 434.758 261.943C435.769 262.359 436.833 262.865 437.377 263.812C438.062 265 437.719 266.493 437.331 267.808C432.753 283.31 424.261 297.333 415.857 311.15C413.773 314.58 411.357 318.274 407.512 319.437C401.988 321.106 396.543 316.797 391.948 311.316C391.338 300.042 385.68 288.334 390.163 277.971C391.336 275.26 393.144 272.868 394.411 270.198C398.47 261.659 396.537 251.561 393.86 242.492C391.183 233.423 387.79 224.118 389.195 214.767C391.217 215.413 392.2 217.794 392.105 219.91C392.01 222.027 391.135 224.021 390.635 226.079C388.144 236.362 395.198 246.807 394.226 257.344C393.579 264.322 389.484 270.519 388.012 277.368C385.717 288.024 389.902 298.841 392.7 309.374C396.901 325.19 398.026 341.633 399.13 357.958C399.345 361.278 399.561 364.725 398.356 367.828C397.151 370.931 394.103 373.583 390.793 373.211C385.956 372.664 384.003 366.79 383.249 361.989C381.565 351.355 380.404 340.647 379.358 329.933C381.729 330.179 382.634 333.099 382.986 335.454C384.158 343.331 385.332 351.209 386.508 359.086C386.911 361.795 387.381 364.654 389.148 366.747C390.915 368.84 394.455 369.686 396.386 367.744C397.724 395.472 397.614 423.27 394.457 450.068C400.449 509.425 403.663 568.978 404.1 628.725C404.134 633.496 403.945 638.801 400.591 642.197C397.951 644.871 393.961 645.665 390.208 645.898C384.876 646.227 379.492 645.683 372.14 642.223C375.416 596.383 357.425 550.837 362.872 501.152C358.461 472.74 351.835 444.717 343.055 417.336C340.984 410.877 338.779 403.953 340.723 397.457C342.536 405.514 341.767 413.898 340.986 422.118C338.702 446.233 336.417 470.347 334.305 495.276C335.932 528.929 331.031 562.517 326.144 595.854L321.075 630.428C320.407 634.98 318.226 640.823 313.637 640.42C308.606 639.977 307.996 632.867 309.044 627.932C316.95 590.673 334.341 554.118 329.757 516.305C328.692 507.521 326.44 498.865 326.093 490.027C325.765 481.688 327.138 473.388 328.505 465.156L337.434 411.404C337.781 409.327 338.544 406.799 340.62 406.426C342.129 406.155 343.532 407.242 344.625 408.326C365.963 429.505 356.397 470.645 379.837 489.48C382.283 491.446 385.068 493.14 386.786 495.754C391.594 503.098 385.811 512.421 381.841 520.252C371.81 540.039 373.724 563.503 376.237 585.275C379.44 610.583 376.582 638.405 372.7 663.616C372.162 667.112 371.687 671.001 373.703 673.908C375.977 677.193 380.473 677.893 384.46 678.199C394.665 678.98 404.911 679.079 415.129 678.494C418.123 678.321 421.545 677.848 423.192 675.346C425.253 672.211 423.095 667.866 420.065 665.657C417.034 663.448 413.251 662.427 410.243 660.182C405.236 656.45 402.544 647.347 396.545 645.601C391.01 643.988 385.081 647.941 382.479 653.081C379.878 658.22 379.792 666.372 379.757 672.131C379.757 673.892 379.813 675.85 381.05 677.105C382.229 678.3 384.068 678.45 385.755 678.522C410.859 679.598 593.276 678.522 637 678.522" stroke="#170707" stroke-linecap="round" stroke-linejoin="round"/>
</svg>
