<svg width="125" height="179" viewBox="0 0 125 179" fill="none" xmlns="http://www.w3.org/2000/svg">
<path d="M85.863 170.633L84.8738 174.202C84.8061 174.446 84.7881 174.7 84.8209 174.951C84.8537 175.201 84.9367 175.442 85.0648 175.66C85.193 175.878 85.3638 176.068 85.567 176.218C85.7702 176.369 86.0017 176.478 86.2478 176.537C89.3333 177.299 102.237 180.489 104.327 178.166L104.403 178.08C105.864 176.404 105.039 173.782 102.866 173.214L99.446 172.32L95.1251 169.52C94.6425 169.208 94.0836 169.035 93.509 169.018L93.3145 166.922H93.9589C94.0056 166.922 94.0504 166.903 94.0836 166.871C94.1169 166.838 94.136 166.794 94.1367 166.747C94.5591 140.242 96.4706 114.624 84.5061 80.9936V80.9878C84.5034 80.9706 84.499 80.9538 84.4932 80.9374C84.3046 80.1203 84.1894 79.6445 84.0216 78.9435L112.369 69.6317L120.616 66.8064C120.659 66.7917 120.695 66.7613 120.716 66.7212C120.737 66.6812 120.742 66.6347 120.729 66.5912L115.813 49.0242L115.1 45.4159C115.093 45.38 115.075 45.3472 115.048 45.3219C115.022 45.2966 114.988 45.2802 114.952 45.2748C102.96 43.4956 103.743 43.6014 103.683 43.6247L101.416 44.5034C97.7323 33.8812 97.9731 34.5273 97.9297 34.4778L93.1655 29.0245L85.82 12.0936C85.8088 12.0678 85.7916 12.045 85.7699 12.027L81.9582 8.90492C81.9324 8.88466 81.9016 8.87166 81.8691 8.86727C81.8366 8.86288 81.8035 8.86725 81.7733 8.87994L64.5542 16.5499C64.5125 16.5684 64.4796 16.6022 64.4623 16.6443C64.4449 16.6864 64.4445 16.7335 64.4611 16.7759L64.4824 16.8334C63.9503 16.1611 63.3526 15.6108 62.4941 15.1524C63.3197 13.1393 62.1748 11.2885 60.7571 9.63924C56.884 5.13218 51.9578 1.94224 46.8861 0.657601C41.1862 -0.786471 35.1524 0.18679 30.7438 3.26018C25.9604 6.59499 23.2705 12.4566 24.0502 17.8466C24.2943 19.5342 24.8678 21.3433 24.296 22.9115C23.7476 24.4155 22.3761 25.0653 21.3019 26.2496C20.2681 27.3856 19.8628 29.0849 19.7046 30.3104C19.2839 33.5707 20.2793 36.7053 21.1888 38.7609C22.8373 42.487 26.0009 45.2427 30.2918 45.2427C35.8294 45.2427 40.0497 41.0621 41.8982 35.8607C43.7467 30.6592 43.3093 24.6698 46.273 20.0029C48.4624 16.5549 52.4007 14.6192 55.9249 16.3238C55.4699 16.8962 55.1319 17.5585 54.972 18.2521C53.4762 18.312 52.0864 19.3206 51.3877 20.8746C50.5776 22.6763 50.7801 24.8913 51.9023 26.5177C52.293 27.083 52.6795 27.3024 53.3431 27.1529C53.3518 28.3139 53.4983 29.5748 53.7922 31.0006C54.4353 34.1435 56.0605 34.7092 57.4065 34.5652C57.4094 34.6014 57.7558 38.4649 57.7617 38.5019C54.4032 38.6397 51.371 38.7001 48.3018 38.927C41.8481 39.4036 39.3811 66.443 39.2839 67.567C36.94 76.5365 31.8335 96.0758 32.1511 94.7962C32.076 94.9785 30.6207 98.5585 30.7442 101.173C30.6868 101.153 30.6244 101.155 30.5677 101.176C26.1604 102.924 21.5848 107.017 19.6883 110.91C19.6858 110.915 19.6883 110.92 19.6842 110.925L16.0339 109.772C15.9716 109.752 15.9043 109.756 15.8446 109.783C15.785 109.809 15.7372 109.857 15.7105 109.916L0.0231325 144.818C0.00803851 144.852 0.000161052 144.888 2.44404e-06 144.925C-0.000156164 144.962 0.00740661 144.999 0.0222104 145.033C0.0370142 145.066 0.0587343 145.097 0.0859838 145.122C0.113233 145.147 0.145416 145.166 0.180478 145.178L19.1575 151.63L19.0957 156.434C19.0953 156.471 19.1026 156.508 19.1172 156.542C19.1318 156.576 19.1533 156.606 19.1804 156.632C19.2075 156.657 19.2396 156.676 19.2746 156.688C19.3096 156.7 19.3467 156.705 19.3837 156.702L32.5401 155.649C34.3548 156.013 34.2663 156.001 34.3164 156.001C34.3731 156.001 34.4282 155.983 34.4738 155.95C34.5195 155.916 34.5532 155.869 34.5702 155.815L34.6766 155.478C49.159 154.319 49.4299 154.3 49.4654 154.292L54.6649 153.19C54.0246 154.929 53.4311 156.706 52.9023 158.513C52.8917 158.55 52.8933 158.589 52.9069 158.625C52.9205 158.661 52.9454 158.691 52.9779 158.712L53.6932 159.16L51.462 161.633L51.3281 161.513C51.2787 161.469 51.2144 161.445 51.1479 161.445C51.0815 161.446 51.0177 161.471 50.9691 161.517L48.2525 164.041C48.0674 164.213 47.9188 164.42 47.8155 164.651C47.7122 164.881 47.6564 165.13 47.6512 165.382C47.6461 165.634 47.6918 165.885 47.7856 166.12C47.8794 166.354 48.0195 166.567 48.1974 166.747C50.4182 168.999 59.7512 178.462 62.7458 177.575C62.7813 177.553 64.3969 177.212 64.8518 175.443C64.9816 174.944 64.9807 174.42 64.8492 173.921C64.7176 173.422 64.4599 172.965 64.1005 172.594L61.6561 170.046L59.444 165.403C59.1151 164.716 58.5475 164.171 57.8464 163.87L58.8443 162.417C59.1719 162.614 59.187 162.656 59.2742 162.656C59.3183 162.656 59.3608 162.64 59.3935 162.611C59.5062 162.509 70.6339 152.428 78.2211 143.157C79.0976 155.924 85.0041 166.72 85.0658 166.829C85.0812 166.856 85.1038 166.88 85.1311 166.896C85.1585 166.912 85.1897 166.92 85.2215 166.92H85.9727C85.9707 167.022 86.1121 168.796 86.2357 170.453L86.1697 170.441C86.1038 170.428 86.0355 170.441 85.9786 170.477C85.9217 170.512 85.8804 170.568 85.863 170.633ZM57.3243 163.695C56.9068 163.595 56.4732 163.581 56.0501 163.654L54.0989 163.987L51.861 161.989L54.091 159.517L58.346 162.208L57.3243 163.695ZM83.7716 78.6554C79.5533 65.2154 81.8459 72.5182 77.6243 59.0724L105.244 48.175L112.088 69.3532L83.7716 78.6554ZM51.2629 115.202C51.2556 115.134 51.2223 115.072 51.17 115.027C51.1178 114.983 51.0505 114.961 50.9821 114.964L45.9808 115.263L43.9408 115.472C42.2876 110.859 39.8506 106.476 36.9733 102.972C37.7517 102.967 37.6036 101.283 37.5059 100.511C37.2843 98.7671 36.394 97.3621 37.1044 96.6873L37.2713 96.7506C37.3118 96.7656 37.3563 96.7654 37.3966 96.7501C37.4369 96.7348 37.4703 96.7054 37.4905 96.6674C37.5739 96.5146 45.8243 81.3237 47.6578 75.9075C48.9787 72.0057 50.823 60.6717 51.24 58.0492L59.4261 74.2724C52.9245 91.2353 63.76 104.846 71.3601 123.378C70.477 124.49 61.0238 136.601 55.0976 152.04L51.2629 115.202ZM34.8452 100.948C34.807 100.926 34.7639 100.915 34.72 100.914C34.7392 100.391 34.8502 100.229 34.9124 100.221C35.1374 100.187 35.6545 100.869 35.7338 101.174C35.7896 101.391 35.8593 101.605 35.9425 101.813C35.6127 101.482 35.2443 101.191 34.8452 100.948ZM34.7659 101.934C35.9604 102.857 36.7622 104.307 36.9671 105.951C37.0209 106.384 37.0614 106.818 37.0923 107.253C36.5025 105.696 35.7469 104.208 34.8385 102.812C34.8168 102.78 34.7883 102.753 34.7551 102.733C34.794 102.469 34.7976 102.201 34.7659 101.936V101.934ZM38.0869 116.063L36.8018 116.193C37.2436 114.51 37.524 112.789 37.6394 111.052C37.9685 112.702 38.1185 114.383 38.0869 116.065V116.063ZM37.7012 109.07C37.6955 108.005 37.6268 106.941 37.4955 105.884C37.3953 105.084 37.1566 104.308 36.7901 103.59C39.503 106.968 41.8072 111.136 43.394 115.523L38.6198 116.008C38.6577 113.664 38.3482 111.326 37.7012 109.072V109.07ZM65.9494 22.5106C66.0676 21.9191 66.1389 21.6393 66.1164 21.1718L71.8009 36.2578L72.2554 37.6935C71.8827 37.4904 71.4336 37.5216 71.1018 37.547C69.1656 37.7031 67.2015 37.8584 65.2692 38.0112C64.6139 36.5417 64.2854 32.4072 64.126 30.3995C63.9866 28.6399 64.0333 29.4183 63.8793 28.6886C65.621 27.9364 65.9628 25.6452 64.5296 24.4151C65.3196 24.2615 65.8113 23.2283 65.9494 22.5106ZM103.646 44.0181L105.124 47.8399L77.1339 58.8846L75.7929 54.8188L103.646 44.0181ZM92.9001 29.3451L98.171 45.6769L77.6644 53.5862C77.6506 53.4031 72.6485 37.7531 72.1915 36.3144L92.9001 29.3451ZM115.418 48.8644L105.48 47.7758L104.023 44.0085L114.776 45.6057L115.418 48.8644ZM81.7512 9.27624L90.2261 29.87L72.0755 35.9764L64.8518 16.8055L81.7512 9.27624ZM50.783 12.7272C48.4428 13.1172 46.2363 14.5097 44.8807 16.4521C44.8392 16.5072 44.7779 16.5441 44.7097 16.555C44.6415 16.5659 44.5716 16.55 44.515 16.5106C44.4583 16.4712 44.4191 16.4114 44.4058 16.3438C44.3924 16.2762 44.4058 16.2061 44.4433 16.1482C47.4958 11.7772 53.5785 10.759 57.8931 13.9061C57.9502 13.9477 57.9884 14.0101 57.9992 14.0798C58.0101 14.1494 57.9928 14.2205 57.9511 14.2774C57.9095 14.3343 57.8468 14.3724 57.777 14.3833C57.7072 14.3941 57.6359 14.3768 57.5789 14.3353C55.664 12.9391 53.124 12.3376 50.7834 12.728L50.783 12.7272ZM54.3126 30.8907C54.0113 29.4262 53.866 28.1433 53.8723 26.9677C55.1002 26.4265 56.7938 25.0091 57.5868 23.2166C58.5309 24.3738 60.2863 24.9691 60.8055 24.8401C60.4845 25.2784 60.3094 25.806 60.3046 26.3487C60.3046 26.4191 60.3327 26.4867 60.3826 26.5365C60.4326 26.5863 60.5003 26.6143 60.5709 26.6143C60.6415 26.6143 60.7093 26.5863 60.7592 26.5365C60.8091 26.4867 60.8372 26.4191 60.8372 26.3487C60.8379 25.8846 60.9981 25.4348 61.291 25.0742C61.5839 24.7136 61.9919 24.4641 62.447 24.3672C63.7278 24.1004 64.896 25.0928 64.896 26.3487C64.8959 26.886 64.6819 27.4012 64.3009 27.7812C63.92 28.1611 63.4034 28.3746 62.8647 28.3747C62.7941 28.3747 62.7264 28.4027 62.6765 28.4525C62.6265 28.5023 62.5985 28.5699 62.5985 28.6403C62.5985 28.7107 62.6265 28.7783 62.6765 28.8281C62.7264 28.8779 62.7941 28.9059 62.8647 28.9059C63.0359 28.9019 63.2065 28.8851 63.3752 28.8555C63.5212 29.4933 63.4737 28.8505 63.5993 30.4374C63.7383 32.1895 64.0843 37.0067 64.8931 38.4491C64.8217 41.746 58.2734 41.4604 58.2571 38.0357L57.9336 34.4632C59.9069 33.9986 60.9286 32.6649 60.9728 32.6062C61.013 32.5495 61.0295 32.4795 61.0186 32.4109C61.0077 32.3424 60.9704 32.2808 60.9147 32.2393C60.8589 32.1978 60.7891 32.1797 60.7201 32.1888C60.6511 32.1979 60.5884 32.2336 60.5455 32.2881C60.5359 32.3019 59.5271 33.624 57.6002 33.9949C55.9053 34.3054 54.7976 33.2606 54.313 30.8915L54.3126 30.8907ZM32.417 95.0809L36.7288 96.56C36.0418 97.4367 36.9375 98.8749 37.152 100.554C37.3607 102.186 37.1011 102.602 36.985 102.624C36.8147 102.648 36.354 102.157 36.0773 101.086C35.9888 100.745 35.3957 99.7994 34.8669 99.8706C34.359 99.936 34.3602 100.798 34.3611 101.081C34.3625 101.386 34.3806 101.69 34.4153 101.993C34.4763 102.539 34.4107 103.206 33.9304 103.476C33.5902 103.667 33.0773 103.655 32.4053 103.441C29.9646 102.662 31.4967 97.4558 32.4174 95.0813L32.417 95.0809ZM32.296 103.778C33.1461 104.05 34.084 104.111 34.543 103.344C35.688 105.148 36.5722 107.104 37.1695 109.154C37.176 111.519 36.8705 113.875 36.2609 116.16L23.5794 112.152C27.0877 105.055 30.5602 102.981 30.9855 102.474C31.228 103.117 31.6512 103.573 32.2964 103.778H32.296ZM30.7634 101.664C30.7709 101.66 30.778 101.656 30.7847 101.651C30.8035 101.79 30.8298 101.923 30.8603 102.054C30.8144 102.039 30.7653 102.038 30.7185 102.049C30.6717 102.06 30.6289 102.084 30.5948 102.118C30.4312 102.285 26.4392 105.122 23.0648 111.989L20.1954 111.082C22.0573 107.314 26.4884 103.362 30.7638 101.665L30.7634 101.664ZM16.0982 110.345L22.8344 112.473C22.5356 113.107 22.2501 113.747 21.9918 114.397C21.9656 114.463 21.9667 114.536 21.9946 114.6C22.0225 114.665 22.0751 114.716 22.1408 114.742C22.2064 114.768 22.2797 114.767 22.3446 114.739C22.4095 114.712 22.4606 114.659 22.4867 114.594C22.7514 113.931 23.0406 113.279 23.3461 112.637L36.1173 116.675C35.9333 117.313 35.7284 117.945 35.4967 118.569C35.4846 118.601 35.479 118.636 35.4804 118.671C35.4818 118.706 35.49 118.741 35.5047 118.772C35.5194 118.804 35.5402 118.833 35.5659 118.856C35.5916 118.88 35.6218 118.898 35.6547 118.911C35.6876 118.923 35.7225 118.928 35.7576 118.927C35.7926 118.926 35.827 118.917 35.8588 118.903C35.8907 118.888 35.9193 118.867 35.9431 118.842C35.9669 118.816 35.9854 118.786 35.9976 118.753C36.2321 118.122 36.44 117.482 36.6265 116.836L40.6699 118.114C39.404 121.918 29.9208 150.417 28.6328 154.288L0.627888 144.768L16.0982 110.345ZM19.6316 156.146L19.6875 151.807L28.748 154.883L30.6445 155.265L19.6316 156.146ZM34.849 154.928L45.9604 119.722C45.9809 119.656 45.9754 119.586 45.945 119.524C45.9146 119.463 45.8617 119.416 45.7972 119.392L41.0873 117.686L37.7567 116.632L43.5772 116.041C43.7116 116.429 43.8427 116.817 43.9658 117.207C43.987 117.274 44.0341 117.33 44.0968 117.362C44.1594 117.395 44.2325 117.402 44.2999 117.38C44.3673 117.359 44.4235 117.312 44.4562 117.25C44.4889 117.187 44.4953 117.114 44.4742 117.047C44.3629 116.692 44.2457 116.338 44.1227 115.985L45.7638 115.818L49.1194 153.783L34.849 154.928ZM78.5496 142.76C82.2077 138.242 84.4127 134.65 85.1021 132.082C88.2081 120.517 77.7958 91.953 74.8038 86.9435C74.7796 86.9031 74.7404 86.8739 74.6947 86.8623C74.649 86.8508 74.6005 86.8578 74.56 86.8819C74.5195 86.906 74.4902 86.9451 74.4787 86.9907C74.4671 87.0363 74.4741 87.0846 74.4983 87.125C77.7157 92.51 87.7065 121.015 84.7587 131.991C84.0804 134.52 81.8839 138.088 78.2307 142.592C71.0362 151.469 60.4002 161.22 59.2571 162.261C58.4144 161.484 54.0401 158.943 53.2813 158.481C56.9495 146.028 64.957 131.831 71.6998 123.521C71.7198 123.496 71.7328 123.467 71.7374 123.435C71.7421 123.404 71.7382 123.372 71.7261 123.343C64.1719 104.873 53.3343 91.267 59.7308 74.4672C73.4327 77.3474 80.752 75.2644 82.1234 74.8002C82.1535 74.8264 82.1835 74.8535 82.2136 74.881L83.4861 78.9347C83.4974 78.9709 83.5199 79.0025 83.5505 79.025C83.581 79.0475 83.618 79.0596 83.656 79.0596C83.6646 79.0588 83.6731 79.0574 83.6814 79.0554L83.6994 79.1333C84.2094 81.2334 84.1585 81.0765 84.1668 81.1023C94.9727 111.465 94.4468 135.56 93.9385 158.863C93.8826 161.43 93.8266 163.997 93.7849 166.572H85.3267C84.7449 165.483 79.2887 154.988 78.5496 142.758V142.76ZM86.5212 167.196H92.8058L92.9777 169.049C92.3603 169.132 91.7811 169.395 91.3125 169.804L89.8258 171.108L86.7762 170.556L86.5212 167.196Z" fill="#170707"/>
<path d="M124.999 99.7034C124.999 92.3199 118.976 86.313 111.574 86.313C104.171 86.313 98.1484 92.3199 98.1484 99.7034C98.1484 107.087 104.171 113.094 111.574 113.094C118.976 113.094 124.999 107.087 124.999 99.7034ZM98.681 99.7034C98.681 92.6129 104.464 86.8441 111.574 86.8441C118.683 86.8441 124.466 92.6129 124.466 99.7034C124.466 106.794 118.683 112.562 111.574 112.562C104.465 112.562 98.681 106.794 98.681 99.7034Z" fill="#DD3A1A"/>
<path d="M19.8739 75.2029C22.6769 75.2029 24.9574 72.9271 24.9574 70.1297C24.9559 68.7854 24.4199 67.4966 23.4669 66.5461C22.5138 65.5955 21.2217 65.0609 19.8739 65.0594C17.0688 65.0594 14.7871 67.3336 14.7871 70.1297C14.7885 71.4748 15.3249 72.7644 16.2786 73.7155C17.2323 74.6667 18.5253 75.2016 19.8739 75.2029Z" fill="#DD3A1A"/>
</svg>
