<svg width="21" height="15" viewBox="0 0 21 15" fill="none" xmlns="http://www.w3.org/2000/svg">
<path d="M8.33215 10.2619L14.0037 7.28571L8.33215 4.27381V10.2619ZM10.5 0C11.8124 0 13.0799 0.0178571 14.3025 0.0535714C15.5251 0.0892857 16.4215 0.126984 16.9918 0.166667L17.8472 0.214286C17.8551 0.214286 17.9215 0.220238 18.0465 0.232143C18.1714 0.244048 18.2613 0.255952 18.316 0.267857C18.3707 0.279762 18.4624 0.297619 18.5913 0.321429C18.7202 0.345238 18.8316 0.376984 18.9253 0.416667C19.0191 0.456349 19.1284 0.507937 19.2534 0.571429C19.3784 0.634921 19.4995 0.712302 19.6167 0.803571C19.7339 0.894841 19.8471 1 19.9565 1.11905C20.0034 1.16667 20.0639 1.24008 20.1381 1.33929C20.2123 1.43849 20.3256 1.67063 20.478 2.03571C20.6303 2.40079 20.7338 2.80159 20.7885 3.2381C20.851 3.74603 20.8998 4.2877 20.935 4.8631C20.9701 5.43849 20.9916 5.88889 20.9994 6.21429V8.30952C21.0072 9.46032 20.9369 10.6111 20.7885 11.7619C20.7338 12.1984 20.6362 12.5933 20.4955 12.9464C20.3549 13.2996 20.2299 13.5437 20.1206 13.6786L19.9565 13.881C19.8471 14 19.7339 14.1052 19.6167 14.1964C19.4995 14.2877 19.3784 14.3631 19.2534 14.4226C19.1284 14.4821 19.0191 14.5317 18.9253 14.5714C18.8316 14.6111 18.7202 14.6429 18.5913 14.6667C18.4624 14.6905 18.3687 14.7083 18.3101 14.7202C18.2515 14.7321 18.1617 14.744 18.0406 14.756C17.9195 14.7679 17.8551 14.7738 17.8472 14.7738C15.8864 14.9246 13.4373 15 10.5 15C8.8829 14.9841 7.47868 14.9583 6.28734 14.9226C5.096 14.8869 4.31285 14.8571 3.93787 14.8333L3.36368 14.7857L2.94183 14.7381C2.66059 14.6984 2.44772 14.6587 2.30319 14.619C2.15867 14.5794 1.95946 14.496 1.70557 14.369C1.45168 14.2421 1.23099 14.0794 1.0435 13.881C0.996624 13.8333 0.936081 13.7599 0.861866 13.6607C0.787651 13.5615 0.674376 13.3294 0.522041 12.9643C0.369706 12.5992 0.266196 12.1984 0.211512 11.7619C0.149015 11.254 0.10019 10.7123 0.0650354 10.1369C0.0298811 9.56151 0.00839797 9.11111 0.000585905 8.78571V6.69048C-0.00722616 5.53968 0.0630824 4.38889 0.211512 3.2381C0.266196 2.80159 0.363847 2.40675 0.504464 2.05357C0.645081 1.7004 0.770074 1.45635 0.879443 1.32143L1.0435 1.11905C1.15287 1 1.26614 0.894841 1.38332 0.803571C1.5005 0.712302 1.62159 0.634921 1.74658 0.571429C1.87158 0.507937 1.98094 0.456349 2.07469 0.416667C2.16843 0.376984 2.27976 0.345238 2.40865 0.321429C2.53755 0.297619 2.62935 0.279762 2.68403 0.267857C2.73871 0.255952 2.82855 0.244048 2.95355 0.232143C3.07854 0.220238 3.14494 0.214286 3.15275 0.214286C5.11358 0.0714286 7.56266 0 10.5 0Z" fill="#FFFCFB"/>
</svg>
