<svg width="27" height="19" viewBox="0 0 27 19" fill="none" xmlns="http://www.w3.org/2000/svg">
<rect x="6" y="2" width="15" height="15" fill="#FFFCFB"/>
<path d="M10.7128 12.9984L18.0048 9.22857L10.7128 5.41349V12.9984ZM13.5 0C15.1874 0 16.8171 0.022619 18.389 0.0678571C19.9609 0.113095 21.1134 0.160847 21.8466 0.211111L22.9465 0.271429C22.9565 0.271429 23.0419 0.278968 23.2026 0.294048C23.3633 0.309127 23.4788 0.324206 23.5491 0.339286C23.6194 0.354365 23.7374 0.376984 23.9032 0.407143C24.0689 0.437302 24.212 0.477513 24.3325 0.527778C24.4531 0.578042 24.5937 0.643386 24.7544 0.72381C24.9151 0.804233 25.0708 0.902249 25.2214 1.01786C25.3721 1.13347 25.5177 1.26667 25.6584 1.41746C25.7186 1.47778 25.7965 1.57077 25.8919 1.69643C25.9873 1.82209 26.1329 2.11614 26.3288 2.57857C26.5247 3.04101 26.6577 3.54868 26.7281 4.10159C26.8084 4.74497 26.8712 5.43108 26.9164 6.15992C26.9616 6.88876 26.9892 7.45926 26.9992 7.87143V10.5254C27.0093 11.9831 26.9189 13.4407 26.7281 14.8984C26.6577 15.4513 26.5322 15.9515 26.3514 16.3988C26.1706 16.8462 26.0099 17.1553 25.8693 17.3262L25.6584 17.5825C25.5177 17.7333 25.3721 17.8665 25.2214 17.9821C25.0708 18.0978 24.9151 18.1933 24.7544 18.2687C24.5937 18.344 24.4531 18.4069 24.3325 18.4571C24.212 18.5074 24.0689 18.5476 23.9032 18.5778C23.7374 18.6079 23.6169 18.6306 23.5416 18.6456C23.4662 18.6607 23.3507 18.6758 23.1951 18.6909C23.0394 18.706 22.9565 18.7135 22.9465 18.7135C20.4254 18.9045 17.2766 19 13.5 19C11.4209 18.9799 9.61545 18.9472 8.08373 18.902C6.55201 18.8567 5.54509 18.819 5.06297 18.7889L4.32473 18.7286L3.78235 18.6683C3.42076 18.618 3.14706 18.5677 2.96125 18.5175C2.77543 18.4672 2.51931 18.3616 2.19287 18.2008C1.86644 18.0399 1.5827 17.8339 1.34164 17.5825C1.28137 17.5222 1.20353 17.4292 1.10811 17.3036C1.01269 17.1779 0.867055 16.8839 0.671196 16.4214C0.475336 15.959 0.342252 15.4513 0.271944 14.8984C0.191591 14.255 0.128815 13.5689 0.083617 12.8401C0.0384186 12.1112 0.0107974 11.5407 0.000753306 11.1286V8.4746C-0.00929078 7.01693 0.0811059 5.55926 0.271944 4.10159C0.342252 3.54868 0.467803 3.04854 0.648597 2.60119C0.82939 2.15384 0.990095 1.84471 1.13071 1.67381L1.34164 1.41746C1.48226 1.26667 1.62789 1.13347 1.77856 1.01786C1.92922 0.902249 2.0849 0.804233 2.24561 0.72381C2.40631 0.643386 2.54693 0.578042 2.66746 0.527778C2.78799 0.477513 2.93111 0.437302 3.09684 0.407143C3.26257 0.376984 3.38059 0.354365 3.4509 0.339286C3.5212 0.324206 3.63671 0.309127 3.79742 0.294048C3.95812 0.278968 4.0435 0.271429 4.05354 0.271429C6.5746 0.0904762 9.72342 0 13.5 0Z" fill="#DD3A1A"/>
</svg>
