<svg width="22" height="22" viewBox="0 0 22 22" fill="none" xmlns="http://www.w3.org/2000/svg">
<path fill-rule="evenodd" clip-rule="evenodd" d="M10.9932 0.000788133C12.4434 -0.016675 13.8824 0.25623 15.2256 0.803478C16.5688 1.35073 17.789 2.16127 18.8145 3.18738C19.84 4.21348 20.65 5.43443 21.197 6.77843C21.7439 8.12242 22.0167 9.56229 21.9992 11.0133C22.0035 12.4595 21.7216 13.8922 21.1697 15.2288C20.6178 16.5654 19.8069 17.7794 18.7836 18.8008C17.7604 19.8222 16.5452 20.6308 15.2081 21.1798C13.871 21.7289 12.4385 22.0076 10.9932 21.9998C8.08517 21.9828 5.3009 20.8202 3.24336 18.7639C1.18582 16.7076 0.0206348 13.9231 0.000157057 11.0133C-0.00759042 9.56607 0.271367 8.13162 0.820913 6.79287C1.37046 5.45411 2.1797 4.2376 3.20187 3.21361C4.22404 2.18963 5.43887 1.37847 6.77619 0.827015C8.11349 0.275561 9.54678 -0.00525221 10.9932 0.000788133Z" fill="#170707"/>
<path fill-rule="evenodd" clip-rule="evenodd" d="M10.7131 12.9789H10.9473C12.7752 12.9789 14.0826 12.6014 14.8502 11.8985C15.2673 11.5426 15.5978 11.0961 15.8165 10.593C16.0352 10.09 16.1363 9.54369 16.1121 8.99566C16.1478 8.49542 16.0833 7.99309 15.9224 7.5181C15.7616 7.04311 15.5076 6.60502 15.1754 6.22951C14.6137 5.6005 13.8816 5.14828 13.0679 4.92779C12.2812 4.77543 11.4819 4.69698 10.6806 4.69347H6.69971V17.0208H9.41217V12.9919L10.7131 12.9789ZM10.7131 6.74367C12.2092 6.78923 13.0093 7.49218 13.0093 8.89804C13.0093 10.3039 12.2092 10.9157 10.7131 10.9612H9.41217V6.74367H10.7131Z" fill="#FFFCFB"/>
</svg>
