<svg width="28" height="22" viewBox="0 0 28 22" fill="none" xmlns="http://www.w3.org/2000/svg">
<path fill-rule="evenodd" clip-rule="evenodd" d="M3.9594 4.02579e-06H24.0111C24.2993 0.0131346 24.7641 4.01195e-06 25.0886 4.02579e-06C25.0886 0.32163 25.0856 0.820486 25.0886 1.1064V20.9314C25.0853 21.2136 25.0886 21.6776 25.0886 21.9992C24.7641 21.9992 24.2958 21.9959 24.0111 21.9992H3.9594C3.81771 22.001 3.7094 21.9992 3.56994 21.9992C3.41272 21.9992 3.16943 21.9992 2.88848 21.9992C2.88836 21.4887 2.88848 21.549 2.88848 21.549C2.88839 21.3856 2.88574 21.0718 2.88836 20.9314V1.1064C2.88313 0.819161 2.9208 0.321626 2.9208 0C3.24536 0 3.66957 0.00675696 3.9594 4.02579e-06Z" fill="#170707"/>
<path d="M13.9627 1.80114C15.1874 1.79601 16.4009 2.03158 17.5331 2.49421C18.6652 2.95684 19.6936 3.63735 20.5587 4.49638C21.4238 5.3554 22.1083 6.37588 22.5728 7.49877C23.0373 8.62167 23.2725 9.82469 23.2647 11.0382C23.2681 12.2432 23.03 13.4368 22.5642 14.5499C22.0984 15.6629 21.4142 16.6732 20.5514 17.5222C19.6858 18.3781 18.6582 19.0561 17.5276 19.5175C16.3969 19.979 15.1855 20.2146 13.9627 20.211C11.5082 20.2093 9.15476 19.2423 7.41918 17.5225C5.6836 15.8026 4.70782 13.4705 4.7061 11.0382C4.70246 9.82655 4.94028 8.62607 5.4059 7.50566C5.87153 6.38526 6.55579 5.36698 7.41946 4.50923C8.27622 3.65418 9.29578 2.97621 10.419 2.51465C11.5422 2.05309 12.7468 1.81712 13.9627 1.82043V1.80114ZM13.9627 3.93674C13.0307 3.93125 12.1072 4.11312 11.2481 4.47134C10.389 4.82956 9.61209 5.35669 8.9644 6.02087C8.29725 6.67441 7.76775 7.45278 7.4067 8.31079C7.04566 9.16879 6.86026 10.0893 6.86122 11.0189C6.86036 11.9436 7.04343 12.8594 7.39993 13.7139C7.75643 14.5685 8.27936 15.345 8.93888 15.9991C9.5984 16.6533 10.3816 17.1722 11.2436 17.5263C12.1056 17.8803 13.0296 18.0626 13.9627 18.0626C15.8507 18.0648 17.6641 17.3326 19.0129 16.0234C20.3519 14.7028 21.1082 12.9102 21.1161 11.0382C21.1116 9.16177 20.3551 7.36393 19.0129 6.04017C18.3539 5.37712 17.5675 4.85166 16.7001 4.49481C15.8327 4.13795 14.9019 3.95694 13.9627 3.96247V3.93674Z" fill="#FFFCFB"/>
<path d="M0.318138 2.77885C0.157309 2.66718 0.0473511 2.4972 0.0121145 2.30575C-0.0231221 2.11431 0.0192153 1.91682 0.129904 1.75608C0.184033 1.67024 0.254947 1.59599 0.338463 1.53771C0.421979 1.47943 0.516399 1.43828 0.616198 1.41671C0.715998 1.39513 0.819143 1.39355 0.919568 1.41206C1.01999 1.43058 1.11565 1.46881 1.20095 1.52451L27.6596 19.2204C27.8121 19.3426 27.912 19.5178 27.939 19.7103C27.966 19.9029 27.9181 20.0984 27.8049 20.2572C27.6918 20.416 27.5218 20.5262 27.3297 20.5654C27.1375 20.6046 26.9375 20.5699 26.7703 20.4683L0.318138 2.77885Z" fill="#FFFCFB"/>
<path d="M1.62291 20.7899C1.45565 20.8915 1.25564 20.9262 1.06348 20.887C0.871327 20.8478 0.701411 20.7376 0.588242 20.5788C0.475073 20.42 0.427135 20.2245 0.454128 20.0319C0.481122 19.8394 0.581042 19.6642 0.733607 19.542L26.7703 1.24789C26.8496 1.18096 26.9423 1.13125 27.0422 1.10193C27.1421 1.07262 27.2471 1.06436 27.3504 1.07769C27.4538 1.09102 27.5532 1.12564 27.6422 1.17933C27.7312 1.23301 27.8079 1.30458 27.8673 1.3894C27.9793 1.55593 28.0228 1.75856 27.989 1.95584C27.9552 2.15313 27.8467 2.33016 27.6855 2.45077L1.62291 20.7899Z" fill="#FFFCFB"/>
</svg>
