<svg width="28" height="18" viewBox="0 0 28 18" fill="none" xmlns="http://www.w3.org/2000/svg">
<path d="M5.27924 2.19152C4.99863 2.17007 4.73659 2.0454 4.54545 1.84239C4.35431 1.63937 4.2481 1.37296 4.2481 1.09638C4.2481 0.819796 4.35431 0.553403 4.54545 0.350388C4.73659 0.147374 4.99863 0.0226834 5.27924 0.00123275H23.4131C23.6884 -0.0118703 23.9582 0.0798825 24.1664 0.257374C24.3746 0.434866 24.5052 0.684423 24.5309 0.95411C25.6958 6.19493 26.8068 11.3894 27.9718 16.6766C28.0052 16.8201 28.009 16.9688 27.9828 17.1138C27.9566 17.2588 27.9011 17.3971 27.8194 17.5205C27.7377 17.644 27.6317 17.7501 27.5075 17.8324C27.3833 17.9148 27.2435 17.9718 27.0964 18H1.11108C0.816336 17.9965 0.534742 17.8795 0.326944 17.674C0.119147 17.4686 0.00174396 17.1912 0 16.9015C0 16.7626 0.0471408 16.6633 0.0471408 16.5707L0.626229 14.2348V14.1885C0.652955 14.1616 0.669583 14.1266 0.67337 14.0892C0.822531 13.5444 1.03492 13.0182 1.30634 12.521C1.5838 11.9744 1.92503 11.4614 2.32313 10.9924C7.31954 4.89796 16.5312 6.41992 23.4602 6.41992L22.5444 2.17829L5.27924 2.19152Z" fill="#DD3A1A"/>
<path d="M11.5819 10.8203C11.8247 10.8168 12.0657 10.861 12.2907 10.9505C12.5157 11.0399 12.7203 11.1728 12.8922 11.3411C13.0642 11.5095 13.2001 11.71 13.2919 11.9308C13.3838 12.1517 13.4297 12.3883 13.427 12.6268C13.4265 12.8575 13.3792 13.0858 13.2879 13.2982C13.1966 13.5107 13.063 13.7031 12.895 13.8643C12.7208 14.0402 12.5108 14.1783 12.2788 14.2695C12.0468 14.3607 11.798 14.403 11.5483 14.3936C11.0588 14.3938 10.5891 14.2035 10.2419 13.8643C9.92075 13.5269 9.73215 13.0883 9.70996 12.6268C9.72456 12.15 9.91343 11.6943 10.2419 11.3431C10.5898 11.0057 11.0596 10.8177 11.5483 10.8203H11.5819Z" fill="#FFFCFB"/>
<path d="M17.0162 10.8203C17.5049 10.8177 17.9747 11.0057 18.3225 11.3431C18.6511 11.6943 18.8399 12.15 18.8545 12.6268C18.8323 13.0883 18.6437 13.5269 18.3225 13.8643C17.9754 14.2035 17.5057 14.3938 17.0162 14.3936C16.7666 14.4021 16.518 14.3595 16.2861 14.2683C16.0542 14.1772 15.8442 14.0396 15.6695 13.8643C15.5104 13.698 15.3863 13.5025 15.3042 13.2891C15.2222 13.0756 15.1838 12.8483 15.1914 12.6202C15.187 12.382 15.2319 12.1454 15.3233 11.9247C15.4148 11.7041 15.5508 11.5039 15.7233 11.3365C15.8984 11.162 16.1086 11.0254 16.3405 10.9354C16.5724 10.8454 16.8209 10.8039 17.07 10.8137L17.0162 10.8203Z" fill="#FFFCFB"/>
</svg>
