<svg width="14" height="13" viewBox="0 0 14 13" fill="none" xmlns="http://www.w3.org/2000/svg">
<path d="M0 0H2.85184L3.17809 1.18182H14L11.8054 7.68182H4.65729L4.35798 8.86364H13.1697V10.0455H2.8255L3.57139 7.09741L1.93714 1.18182H0V0ZM4.64771 6.5H10.9422L12.3394 2.36364H3.50494L4.64771 6.5ZM2.39449 11.8182C2.39449 11.5047 2.52063 11.2041 2.74516 10.9825C2.96969 10.7609 3.27421 10.6364 3.59174 10.6364C3.90927 10.6364 4.21379 10.7609 4.43832 10.9825C4.66285 11.2041 4.78899 11.5047 4.78899 11.8182C4.78899 12.1316 4.66285 12.4322 4.43832 12.6539C4.21379 12.8755 3.90927 13 3.59174 13C3.27421 13 2.96969 12.8755 2.74516 12.6539C2.52063 12.4322 2.39449 12.1316 2.39449 11.8182ZM10.7752 11.8182C10.7752 11.5047 10.9014 11.2041 11.1259 10.9825C11.3504 10.7609 11.6549 10.6364 11.9725 10.6364C12.29 10.6364 12.5945 10.7609 12.819 10.9825C13.0436 11.2041 13.1697 11.5047 13.1697 11.8182C13.1697 12.1316 13.0436 12.4322 12.819 12.6539C12.5945 12.8755 12.29 13 11.9725 13C11.6549 13 11.3504 12.8755 11.1259 12.6539C10.9014 12.4322 10.7752 12.1316 10.7752 11.8182Z" fill="#170707"/>
</svg>
