<svg width="28" height="20" viewBox="0 0 28 20" fill="none" xmlns="http://www.w3.org/2000/svg">
<path d="M2.50874 2.51862C2.72729 2.36933 2.96707 2.25558 3.21955 2.18141C3.93479 1.92413 4.69867 1.841 5.45068 1.93861C6.13693 2.01183 6.80526 2.20815 7.42513 2.51862C8.0618 2.83313 8.75861 2.99897 9.46537 3.00422C10.0231 3.01104 10.5742 2.87913 11.0713 2.61979C11.9522 2.21144 12.9022 1.98238 13.8684 1.94536H13.9868C14.9531 1.98238 15.903 2.21144 16.784 2.61979C17.2811 2.87913 17.8321 3.01104 18.3899 3.00422C19.0973 3.00502 19.7954 2.83887 20.4301 2.51862C21.0525 2.21496 21.7197 2.01897 22.4045 1.93861C23.1718 1.84378 23.95 1.92675 24.6817 2.18141C24.9187 2.27583 25.1556 2.37699 25.4386 2.51862L25.8203 0.92022C25.8477 0.769669 25.9047 0.626412 25.9879 0.499207C26.0711 0.372002 26.1788 0.26352 26.3043 0.180392C26.4298 0.0972634 26.5705 0.0412351 26.7179 0.0157307C26.8652 -0.00977375 27.0161 -0.00421869 27.1613 0.0320574C27.3064 0.0683334 27.4429 0.134567 27.5622 0.226712C27.6816 0.318856 27.7814 0.434978 27.8555 0.567974C27.9296 0.700971 27.9764 0.848051 27.9931 1.00022C28.0098 1.1524 27.9961 1.30647 27.9527 1.45302L24.3461 16.1691C24.2923 16.4327 24.146 16.6669 23.9349 16.8272C23.7238 16.9876 23.4627 17.063 23.2009 17.0391H4.50295C4.26401 17.041 4.03128 16.9611 3.84171 16.812C3.65214 16.6629 3.51657 16.4533 3.45648 16.2163L0.0472753 1.64861C0.0039255 1.50206 -0.00982363 1.34798 0.00690433 1.19581C0.0236323 1.04363 0.0704879 0.896554 0.144567 0.763557C0.218647 0.630561 0.318411 0.514442 0.43777 0.422297C0.557128 0.330153 0.693562 0.263919 0.838748 0.227643C0.983934 0.191367 1.13483 0.185812 1.28219 0.211316C1.42954 0.236821 1.57023 0.292849 1.69574 0.375978C1.82124 0.459106 1.92892 0.567588 2.01212 0.694793C2.09532 0.821998 2.15233 0.965254 2.17967 1.11581L2.50874 2.51862ZM4.48319 19.9999C4.3833 20.0017 4.28406 19.9829 4.19143 19.9446C4.0988 19.9062 4.01466 19.8492 3.94402 19.7768C3.87338 19.7044 3.81769 19.6182 3.78029 19.5232C3.74288 19.4283 3.72452 19.3266 3.7263 19.2243C3.72097 19.0125 3.79754 18.8072 3.93932 18.6531C4.0811 18.499 4.2766 18.4085 4.48319 18.4015H22.8192C23.0258 18.4085 23.2213 18.499 23.363 18.6531C23.5048 18.8072 23.5814 19.0125 23.5761 19.2243C23.5778 19.3249 23.5601 19.4249 23.5239 19.5185C23.4877 19.6121 23.4338 19.6974 23.3653 19.7695C23.2967 19.8416 23.2149 19.8991 23.1246 19.9387C23.0343 19.9782 22.9372 19.999 22.8389 19.9999H4.48319Z" fill="#170707"/>
<path d="M10.3674 14.135C10.0074 14.135 9.66742 14.065 9.34742 13.925C9.02742 13.785 8.74909 13.5867 8.51242 13.33C8.27909 13.0733 8.11076 12.77 8.00742 12.42L9.17242 12.105C9.25576 12.3917 9.40742 12.6133 9.62742 12.77C9.85076 12.9233 10.0958 12.9983 10.3624 12.995C10.5991 12.995 10.8108 12.94 10.9974 12.83C11.1841 12.72 11.3308 12.5717 11.4374 12.385C11.5441 12.195 11.5974 11.9833 11.5974 11.75C11.5974 11.3933 11.4824 11.095 11.2524 10.855C11.0224 10.615 10.7258 10.495 10.3624 10.495C10.2524 10.495 10.1441 10.51 10.0374 10.54C9.93409 10.57 9.83409 10.6117 9.73742 10.665L9.18742 9.715L11.6074 7.645L11.7124 7.935H8.28742V6.8H12.7024V7.94L10.7574 9.81L10.7474 9.455C11.1841 9.485 11.5558 9.60667 11.8624 9.82C12.1724 10.0333 12.4091 10.3083 12.5724 10.645C12.7391 10.9817 12.8224 11.35 12.8224 11.75C12.8224 12.2033 12.7108 12.61 12.4874 12.97C12.2674 13.33 11.9708 13.615 11.5974 13.825C11.2274 14.0317 10.8174 14.135 10.3674 14.135ZM16.708 14.15C16.198 14.15 15.748 14.0417 15.358 13.825C14.968 13.605 14.663 13.3 14.443 12.91C14.2263 12.52 14.118 12.07 14.118 11.56V9.24C14.118 8.73 14.2263 8.28 14.443 7.89C14.663 7.5 14.968 7.19667 15.358 6.98C15.748 6.76 16.198 6.65 16.708 6.65C17.218 6.65 17.6663 6.76 18.053 6.98C18.443 7.19667 18.748 7.5 18.968 7.89C19.188 8.28 19.298 8.73 19.298 9.24V11.56C19.298 12.07 19.188 12.52 18.968 12.91C18.748 13.3 18.443 13.605 18.053 13.825C17.6663 14.0417 17.218 14.15 16.708 14.15ZM16.708 13.005C16.9613 13.005 17.1913 12.945 17.398 12.825C17.6046 12.7017 17.768 12.5383 17.888 12.335C18.008 12.1283 18.068 11.8983 18.068 11.645V9.15C18.068 8.89333 18.008 8.66333 17.888 8.46C17.768 8.25333 17.6046 8.09 17.398 7.97C17.1913 7.84667 16.9613 7.785 16.708 7.785C16.4546 7.785 16.2246 7.84667 16.018 7.97C15.8113 8.09 15.648 8.25333 15.528 8.46C15.408 8.66333 15.348 8.89333 15.348 9.15V11.645C15.348 11.8983 15.408 12.1283 15.528 12.335C15.648 12.5383 15.8113 12.7017 16.018 12.825C16.2246 12.945 16.4546 13.005 16.708 13.005Z" fill="#FFFCFB"/>
</svg>
